<?xml version="1.0" encoding="UTF-8" standalone="no"?>
<!-- Created with Inkscape (http://www.inkscape.org/) -->

<svg
   width="950.11957mm"
   height="35mm"
   viewBox="0 0 950.11957 35"
   version="1.1"
   id="svg1"
   xml:space="preserve"
   inkscape:version="1.4 (e7c3feb100, 2024-10-09)"
   sodipodi:docname="belt-35-tiger.svg"
   xmlns:inkscape="http://www.inkscape.org/namespaces/inkscape"
   xmlns:sodipodi="http://sodipodi.sourceforge.net/DTD/sodipodi-0.dtd"
   xmlns="http://www.w3.org/2000/svg"
   xmlns:svg="http://www.w3.org/2000/svg"><sodipodi:namedview
     id="namedview1"
     pagecolor="#505050"
     bordercolor="#eeeeee"
     borderopacity="1"
     inkscape:showpageshadow="0"
     inkscape:pageopacity="0"
     inkscape:pagecheckerboard="0"
     inkscape:deskcolor="#505050"
     inkscape:document-units="mm"
     inkscape:zoom="0.40203782"
     inkscape:cx="-717.59418"
     inkscape:cy="506.17128"
     inkscape:window-width="1920"
     inkscape:window-height="1029"
     inkscape:window-x="0"
     inkscape:window-y="0"
     inkscape:window-maximized="0"
     inkscape:current-layer="g1"
     showguides="true"
     showgrid="false" /><defs
     id="defs1"><inkscape:path-effect
       effect="tiling"
       id="path-effect90"
       is_visible="true"
       lpeversion="1"
       unit="px"
       seed="1;1"
       lpesatellites=""
       num_rows="1"
       num_cols="4"
       gapx="150"
       gapy="0"
       offset="0"
       offset_type="false"
       scale="0"
       rotate="0"
       mirrorrowsx="false"
       mirrorrowsy="false"
       mirrorcolsx="false"
       mirrorcolsy="false"
       mirrortrans="false"
       shrink_interp="false"
       split_items="false"
       link_styles="false"
       interpolate_scalex="false"
       interpolate_scaley="true"
       interpolate_rotatex="false"
       interpolate_rotatey="true"
       random_scale="false"
       random_rotate="false"
       random_gap_y="false"
       random_gap_x="false"
       transformorigin="" /><inkscape:path-effect
       effect="mirror_symmetry"
       start_point="79.622416,0.51113218"
       end_point="79.622416,34.477818"
       center_point="79.622416,17.494475"
       id="path-effect12"
       is_visible="true"
       lpeversion="1.2"
       lpesatellites=""
       mode="free"
       discard_orig_path="false"
       fuse_paths="false"
       oposite_fuse="false"
       split_items="false"
       split_open="false"
       link_styles="false" /><inkscape:path-effect
       effect="tiling"
       id="path-effect5"
       is_visible="true"
       lpeversion="1"
       unit="px"
       seed="1;1"
       lpesatellites=""
       num_rows="1"
       num_cols="5"
       gapx="0"
       gapy="0"
       offset="0"
       offset_type="false"
       scale="0"
       rotate="11"
       mirrorrowsx="false"
       mirrorrowsy="false"
       mirrorcolsx="false"
       mirrorcolsy="false"
       mirrortrans="false"
       shrink_interp="false"
       split_items="false"
       link_styles="false"
       interpolate_scalex="false"
       interpolate_scaley="true"
       interpolate_rotatex="false"
       interpolate_rotatey="true"
       random_scale="false"
       random_rotate="false"
       random_gap_y="false"
       random_gap_x="false"
       transformorigin="" /><inkscape:path-effect
       effect="tiling"
       id="path-effect5-6"
       is_visible="true"
       lpeversion="1"
       unit="px"
       seed="1;1"
       lpesatellites=""
       num_rows="1"
       num_cols="5"
       gapx="100"
       gapy="0"
       offset="0"
       offset_type="false"
       scale="0"
       rotate="0"
       mirrorrowsx="false"
       mirrorrowsy="false"
       mirrorcolsx="false"
       mirrorcolsy="false"
       mirrortrans="false"
       shrink_interp="false"
       split_items="false"
       link_styles="false"
       interpolate_scalex="false"
       interpolate_scaley="true"
       interpolate_rotatex="false"
       interpolate_rotatey="true"
       random_scale="false"
       random_rotate="false"
       random_gap_y="false"
       random_gap_x="false"
       transformorigin="" /><inkscape:path-effect
       effect="tiling"
       id="path-effect5-6-6"
       is_visible="true"
       lpeversion="1"
       unit="px"
       seed="1;1"
       lpesatellites=""
       num_rows="1"
       num_cols="5"
       gapx="100"
       gapy="0"
       offset="0"
       offset_type="false"
       scale="0"
       rotate="0"
       mirrorrowsx="false"
       mirrorrowsy="false"
       mirrorcolsx="false"
       mirrorcolsy="false"
       mirrortrans="false"
       shrink_interp="false"
       split_items="false"
       link_styles="false"
       interpolate_scalex="false"
       interpolate_scaley="true"
       interpolate_rotatex="false"
       interpolate_rotatey="true"
       random_scale="false"
       random_rotate="false"
       random_gap_y="false"
       random_gap_x="false"
       transformorigin="" /><inkscape:path-effect
       effect="tiling"
       id="path-effect90-9"
       is_visible="true"
       lpeversion="1"
       unit="px"
       seed="1;1"
       lpesatellites=""
       num_rows="1"
       num_cols="4"
       gapx="150"
       gapy="0"
       offset="0"
       offset_type="false"
       scale="0"
       rotate="0"
       mirrorrowsx="false"
       mirrorrowsy="false"
       mirrorcolsx="false"
       mirrorcolsy="false"
       mirrortrans="false"
       shrink_interp="false"
       split_items="false"
       link_styles="false"
       interpolate_scalex="false"
       interpolate_scaley="true"
       interpolate_rotatex="false"
       interpolate_rotatey="true"
       random_scale="false"
       random_rotate="false"
       random_gap_y="false"
       random_gap_x="false"
       transformorigin="" /><inkscape:path-effect
       effect="tiling"
       id="path-effect90-7"
       is_visible="true"
       lpeversion="1"
       unit="px"
       seed="1;1"
       lpesatellites=""
       num_rows="1"
       num_cols="4"
       gapx="150"
       gapy="0"
       offset="0"
       offset_type="false"
       scale="0"
       rotate="0"
       mirrorrowsx="false"
       mirrorrowsy="false"
       mirrorcolsx="false"
       mirrorcolsy="false"
       mirrortrans="false"
       shrink_interp="false"
       split_items="false"
       link_styles="false"
       interpolate_scalex="false"
       interpolate_scaley="true"
       interpolate_rotatex="false"
       interpolate_rotatey="true"
       random_scale="false"
       random_rotate="false"
       random_gap_y="false"
       random_gap_x="false"
       transformorigin="" /><inkscape:path-effect
       effect="tiling"
       id="path-effect90-2"
       is_visible="true"
       lpeversion="1"
       unit="px"
       seed="1;1"
       lpesatellites=""
       num_rows="1"
       num_cols="4"
       gapx="150"
       gapy="0"
       offset="0"
       offset_type="false"
       scale="0"
       rotate="0"
       mirrorrowsx="false"
       mirrorrowsy="false"
       mirrorcolsx="false"
       mirrorcolsy="false"
       mirrortrans="false"
       shrink_interp="false"
       split_items="false"
       link_styles="false"
       interpolate_scalex="false"
       interpolate_scaley="true"
       interpolate_rotatex="false"
       interpolate_rotatey="true"
       random_scale="false"
       random_rotate="false"
       random_gap_y="false"
       random_gap_x="false"
       transformorigin="" /><inkscape:path-effect
       effect="tiling"
       id="path-effect90-7-3"
       is_visible="true"
       lpeversion="1"
       unit="px"
       seed="1;1"
       lpesatellites=""
       num_rows="1"
       num_cols="5"
       gapx="150"
       gapy="0"
       offset="0"
       offset_type="false"
       scale="0"
       rotate="0"
       mirrorrowsx="false"
       mirrorrowsy="false"
       mirrorcolsx="false"
       mirrorcolsy="false"
       mirrortrans="false"
       shrink_interp="false"
       split_items="false"
       link_styles="false"
       interpolate_scalex="false"
       interpolate_scaley="true"
       interpolate_rotatex="false"
       interpolate_rotatey="true"
       random_scale="false"
       random_rotate="false"
       random_gap_y="false"
       random_gap_x="false"
       transformorigin="" /><inkscape:path-effect
       effect="tiling"
       id="path-effect90-7-3-3"
       is_visible="true"
       lpeversion="1"
       unit="px"
       seed="1;1"
       lpesatellites=""
       num_rows="1"
       num_cols="5"
       gapx="150"
       gapy="0"
       offset="0"
       offset_type="false"
       scale="0"
       rotate="0"
       mirrorrowsx="false"
       mirrorrowsy="false"
       mirrorcolsx="false"
       mirrorcolsy="false"
       mirrortrans="false"
       shrink_interp="false"
       split_items="false"
       link_styles="false"
       interpolate_scalex="false"
       interpolate_scaley="true"
       interpolate_rotatex="false"
       interpolate_rotatey="true"
       random_scale="false"
       random_rotate="false"
       random_gap_y="false"
       random_gap_x="false"
       transformorigin="" /><inkscape:path-effect
       effect="tiling"
       id="path-effect90-7-3-1"
       is_visible="true"
       lpeversion="1"
       unit="px"
       seed="1;1"
       lpesatellites=""
       num_rows="1"
       num_cols="5"
       gapx="150"
       gapy="0"
       offset="0"
       offset_type="false"
       scale="0"
       rotate="0"
       mirrorrowsx="false"
       mirrorrowsy="false"
       mirrorcolsx="false"
       mirrorcolsy="false"
       mirrortrans="false"
       shrink_interp="false"
       split_items="false"
       link_styles="false"
       interpolate_scalex="false"
       interpolate_scaley="true"
       interpolate_rotatex="false"
       interpolate_rotatey="true"
       random_scale="false"
       random_rotate="false"
       random_gap_y="false"
       random_gap_x="false"
       transformorigin="" /><inkscape:path-effect
       effect="tiling"
       id="path-effect90-7-3-2"
       is_visible="true"
       lpeversion="1"
       unit="px"
       seed="1;1"
       lpesatellites=""
       num_rows="1"
       num_cols="5"
       gapx="150"
       gapy="0"
       offset="0"
       offset_type="false"
       scale="0"
       rotate="0"
       mirrorrowsx="false"
       mirrorrowsy="false"
       mirrorcolsx="false"
       mirrorcolsy="false"
       mirrortrans="false"
       shrink_interp="false"
       split_items="false"
       link_styles="false"
       interpolate_scalex="false"
       interpolate_scaley="true"
       interpolate_rotatex="false"
       interpolate_rotatey="true"
       random_scale="false"
       random_rotate="false"
       random_gap_y="false"
       random_gap_x="false"
       transformorigin="" /><inkscape:path-effect
       effect="tiling"
       id="path-effect90-7-3-4"
       is_visible="true"
       lpeversion="1"
       unit="px"
       seed="1;1"
       lpesatellites=""
       num_rows="1"
       num_cols="5"
       gapx="150"
       gapy="0"
       offset="0"
       offset_type="false"
       scale="0"
       rotate="0"
       mirrorrowsx="false"
       mirrorrowsy="false"
       mirrorcolsx="false"
       mirrorcolsy="false"
       mirrortrans="false"
       shrink_interp="false"
       split_items="false"
       link_styles="false"
       interpolate_scalex="false"
       interpolate_scaley="true"
       interpolate_rotatex="false"
       interpolate_rotatey="true"
       random_scale="false"
       random_rotate="false"
       random_gap_y="false"
       random_gap_x="false"
       transformorigin="" /><inkscape:path-effect
       effect="tiling"
       id="path-effect90-7-3-2-9"
       is_visible="true"
       lpeversion="1"
       unit="px"
       seed="1;1"
       lpesatellites=""
       num_rows="1"
       num_cols="5"
       gapx="150"
       gapy="0"
       offset="0"
       offset_type="false"
       scale="0"
       rotate="0"
       mirrorrowsx="false"
       mirrorrowsy="false"
       mirrorcolsx="false"
       mirrorcolsy="false"
       mirrortrans="false"
       shrink_interp="false"
       split_items="false"
       link_styles="false"
       interpolate_scalex="false"
       interpolate_scaley="true"
       interpolate_rotatex="false"
       interpolate_rotatey="true"
       random_scale="false"
       random_rotate="false"
       random_gap_y="false"
       random_gap_x="false"
       transformorigin="" /></defs><g
     inkscape:label="tiger-belt+boucle.Layer1"
     inkscape:groupmode="layer"
     id="layer1"
     transform="translate(-119.44023,-349.51406)"><g
       id="g1"
       inkscape:label="belt.g1"
       style="display:inline"
       transform="matrix(1.0000104,0,0,0.98039615,-91.024687,341.90002)"><g
         id="g87"
         style="display:inline;stroke-width:0.504972;stroke-dasharray:none"
         inkscape:label="rayure-belt.g87"><path
           id="path2-3-8"
           style="display:inline;fill:#ff7f00;stroke:none;stroke-width:0.505002;stroke-linecap:round;stroke-linejoin:round;stroke-dasharray:none;stroke-opacity:1;paint-order:stroke fill markers;fill-opacity:0.5"
           inkscape:label="border-belt.path2-3"
           d="M 213.21447 8.0187689 C 211.82983 8.0187689 210.71542 10.297347 210.71542 13.127397 L 210.71542 38.105492 C 210.71542 40.935542 211.82983 43.213594 213.21447 43.213594 L 1136.842 43.186184 C 1141.668 42.706834 1155.7514 36.088131 1160.3199 26.076601 L 1160.3199 25.155762 C 1155.7514 15.144232 1141.668 8.526055 1136.842 8.046705 L 213.21447 8.0187689 z M 221.52447 16.07071 C 222.54129 16.07071 223.36568 16.895041 223.36568 17.911861 C 223.36567 18.928681 222.54128 19.753013 221.52447 19.753013 C 220.50765 19.753013 219.68326 18.928681 219.68326 17.911861 C 219.68325 16.895041 220.50765 16.07071 221.52447 16.07071 z M 235.54931 23.54337 C 236.56613 23.54337 237.39052 24.367702 237.39052 25.384522 C 237.39051 26.401342 236.56612 27.225673 235.54931 27.225673 C 234.53249 27.225673 233.70861 26.401342 233.70861 25.384522 C 233.7086 24.367702 234.53249 23.54337 235.54931 23.54337 z M 939.98322 23.773185 C 941.00002 23.773185 941.82443 24.597526 941.82443 25.614336 C 941.82443 26.631156 941.00002 27.455488 939.98322 27.455488 C 938.96642 27.455488 938.14201 26.631156 938.14201 25.614336 C 938.14201 24.597526 938.96642 23.773185 939.98322 23.773185 z M 970.1237 23.773185 C 971.1405 23.773185 971.96492 24.597526 971.96492 25.614336 C 971.96492 26.631156 971.1405 27.455488 970.1237 27.455488 C 969.1069 27.455488 968.28301 26.631156 968.28301 25.614336 C 968.28301 24.597526 969.1069 23.773185 970.1237 23.773185 z M 1000.2642 23.773185 C 1001.281 23.773185 1002.1054 24.597526 1002.1054 25.614336 C 1002.1055 26.631156 1001.2811 27.455488 1000.2642 27.455488 C 999.24739 27.455488 998.42349 26.631156 998.42349 25.614336 C 998.42349 24.597526 999.24739 23.773185 1000.2642 23.773185 z M 1030.4052 23.773185 C 1031.422 23.773185 1032.2459 24.597526 1032.2459 25.614336 C 1032.2459 26.631156 1031.422 27.455488 1030.4052 27.455488 C 1029.3884 27.455488 1028.564 26.631156 1028.564 25.614336 C 1028.564 24.597526 1029.3884 23.773185 1030.4052 23.773185 z M 1060.5457 23.773185 C 1061.5626 23.773185 1062.3869 24.597526 1062.3869 25.614336 C 1062.3869 26.631156 1061.5626 27.455488 1060.5457 27.455488 C 1059.5289 27.455488 1058.7045 26.631156 1058.7045 25.614336 C 1058.7045 24.597526 1059.5289 23.773185 1060.5457 23.773185 z M 221.52447 31.475133 C 222.54129 31.475133 223.36568 32.299464 223.36568 33.316284 C 223.36567 34.333104 222.54128 35.157436 221.52447 35.157436 C 220.50765 35.157436 219.68326 34.333104 219.68326 33.316284 C 219.68325 32.299464 220.50765 31.475133 221.52447 31.475133 z " /><path
           id="path2"
           style="opacity:1;fill:#000000;fill-opacity:1;stroke:#000005;stroke-width:0.504972;stroke-linecap:round;stroke-linejoin:round;stroke-dasharray:none;stroke-opacity:1;paint-order:stroke fill markers"
           d="M 220.69766 8.0166605 C 227.32226 12.486308 231.86644 17.958334 233.85692 24.660817 C 234.1382 24.004044 234.78961 23.54337 235.54931 23.54337 C 236.56613 23.54337 237.39052 24.367702 237.39052 25.384522 C 237.39051 26.401342 236.56612 27.225673 235.54931 27.225673 C 235.11366 27.225673 234.71377 27.074323 234.39849 26.82139 C 235.3707 31.500221 235.16941 36.744083 233.64712 42.624826 L 240.37635 42.624826 C 246.24785 21.105713 237.51641 16.471236 232.08806 8.0171876 L 220.69766 8.0166605 z M 242.06305 8.0177147 C 247.60477 15.988554 254.74302 19.138978 255.14739 42.624299 L 264.45267 42.624299 C 264.90478 27.225571 259.30541 21.153081 260.0411 8.0182418 L 242.06305 8.0177147 z M 268.60896 8.0182418 C 265.39582 19.664829 268.63804 25.295709 272.99366 29.889097 C 268.82393 19.473344 270.48406 13.299906 273.36883 8.0182418 L 268.60896 8.0182418 z M 283.72313 8.0187689 C 282.63458 15.767357 284.79373 22.917441 287.92231 28.704182 C 286.74778 19.7378 286.50185 12.097507 288.50315 8.0187689 L 283.72313 8.0187689 z M 294.64379 8.0192959 C 292.31507 12.027791 293.14947 15.879453 293.12917 19.800978 C 294.36978 15.814111 294.46227 11.516849 297.31751 8.0192959 L 294.64379 8.0192959 z M 306.27759 8.0192959 C 297.48662 21.742219 295.1903 32.358713 293.6294 42.623244 L 300.51883 42.623244 C 302.37032 31.133125 306.58422 19.59433 312.53089 8.019823 L 306.27759 8.0192959 z M 332.37547 8.0203501 C 338.06808 18.751048 343.85858 28.696213 349.15256 42.621663 L 355.40896 42.621136 C 354.55025 29.885882 350.16783 18.533749 343.64856 8.0203501 L 332.37547 8.0203501 z M 357.65893 8.0208772 C 357.54272 24.287147 364.04459 24.833461 366.27434 42.621136 L 369.30616 42.621136 C 369.30899 24.70057 362.18355 25.351944 361.34756 8.0208772 L 357.65893 8.0208772 z M 379.80205 8.0214043 C 381.0525 22.928877 387.33356 31.84137 392.04872 42.620082 L 401.83872 42.620082 C 398.86562 26.928991 392.60949 21.946298 391.80791 8.0219314 L 379.80205 8.0214043 z M 401.00415 8.0219314 C 405.18831 22.237438 413.03361 26.713031 415.39537 42.619555 L 419.5558 42.619555 C 417.67204 27.160628 410.51271 19.422862 405.856 8.0224585 L 401.00415 8.0219314 z M 415.23208 8.0224585 C 418.63522 18.376985 424.73978 26.101563 430.57672 34.086374 C 427.0294 28.880577 421.76507 16.915644 420.81773 8.0229856 L 415.23208 8.0224585 z M 432.36781 8.0229856 C 434.55321 11.478394 434.85353 16.67959 434.13822 22.821247 C 436.64836 18.372977 437.74155 13.537003 436.35202 8.0229856 L 432.36781 8.0229856 z M 443.62488 8.0235127 C 448.40016 19.225772 447.86154 30.792555 443.53342 42.619028 L 452.62476 42.6185 C 454.79444 30.142952 454.59189 18.400875 449.97585 8.0235127 L 443.62488 8.0235127 z M 456.40226 8.0240398 C 458.37324 11.502879 458.8 15.811778 459.63097 19.903235 C 459.91875 15.688521 460.61733 11.080519 459.69454 8.0240398 L 456.40226 8.0240398 z M 470.41057 8.0240398 C 471.86749 15.552642 468.89962 24.249586 466.33799 32.839261 C 470.80507 26.076078 474.86058 18.860384 475.62673 8.0245669 L 470.41057 8.0240398 z M 485.19659 8.0245669 C 489.63378 18.762549 484.85945 29.218107 478.7309 39.631966 C 487.42259 30.914656 493.99412 21.264432 492.41106 8.025094 L 485.19659 8.0245669 z M 509.61707 8.0256211 C 512.08185 15.659541 512.79481 24.358316 511.75645 34.121689 C 514.28417 27.811161 517.32452 27.000614 518.67172 8.0256211 L 509.61707 8.0256211 z M 529.51177 8.0261482 C 536.99688 19.462168 536.53898 30.793662 536.0958 42.615865 L 545.11841 42.615865 C 545.62679 35.874791 546.58876 29.841904 546.92861 24.335598 C 547.29768 18.355755 546.2189 12.996627 543.74331 8.0261482 L 529.51177 8.0261482 z M 558.7841 8.0266753 C 560.91308 18.618386 556.59284 25.999691 556.03907 42.615338 L 563.77392 42.615338 C 561.93182 33.888929 569.75508 22.595354 570.33676 8.0272024 L 558.7841 8.0266753 z M 577.59051 8.0272024 C 581.86314 21.035012 574.12938 28.997837 580.2606 42.614811 L 586.04468 42.614811 C 577.69755 25.709189 584.75602 16.507806 581.53751 8.0277295 L 577.59051 8.0272024 z M 587.52365 8.0277295 C 587.53815 21.997569 591.84682 33.167353 598.79778 42.614284 L 608.27927 42.613757 C 608.97285 40.679105 595.53764 29.313376 596.32198 8.0277295 L 587.52365 8.0277295 z M 601.98876 8.0282566 C 608.78069 35.497439 611.18513 22.556503 625.28994 42.61323 L 633.51313 42.61323 C 626.48195 27.660759 610.91233 25.928156 605.94145 8.0282566 L 601.98876 8.0282566 z M 618.18347 8.0287837 C 620.54074 16.908898 625.758 24.937154 636.35272 31.363915 C 638.73953 35.113646 641.92191 36.714777 643.51345 42.612702 L 654.15093 42.612702 C 651.85162 38.947656 652.90131 34.821231 652.91949 30.836818 C 658.41774 23.989071 661.13794 16.324479 661.7137 8.0298379 L 651.88907 8.0298379 C 651.43205 14.727872 649.31347 20.480394 643.21217 23.967157 C 636.20475 21.305428 630.97056 16.111646 627.75953 8.0287837 L 618.18347 8.0287837 z M 636.85294 8.0293108 C 637.25433 11.071385 639.09852 13.541532 641.33582 15.856181 C 641.12638 13.050256 640.54625 10.373818 641.31567 8.0293108 L 636.85294 8.0293108 z M 670.34409 8.030365 C 670.8348 24.825096 658.74814 30.091331 660.76441 42.612175 L 664.42823 42.612175 C 665.80911 24.624012 673.99718 27.330341 672.18065 8.030365 L 670.34409 8.030365 z M 680.18938 8.030365 C 681.00281 20.279885 675.47091 25.821674 677.03456 42.611648 L 680.15165 42.611648 C 681.22381 24.807628 685.38866 23.098668 686.86177 8.030365 L 680.18938 8.030365 z M 694.72064 8.0308921 C 693.31749 18.385434 688.553 27.975985 686.86022 37.778164 C 691.31745 24.999935 696.9235 18.291707 700.08615 8.0308921 L 694.72064 8.0308921 z M 707.81531 8.0314192 C 706.12431 22.276653 698.46546 31.332051 693.47318 42.706526 L 700.03189 42.611121 C 704.44954 31.128901 713.09436 21.574102 712.99272 8.0314192 L 707.81531 8.0314192 z M 720.29504 8.0314192 C 721.06544 22.12214 724.07493 34.254264 731.40226 42.610067 L 743.76882 42.610067 C 734.44762 27.378721 734.2288 18.199411 732.52362 8.0319463 L 720.29504 8.0314192 z M 740.60935 8.0319463 C 741.1392 12.837591 742.19043 17.577724 744.83592 22.117045 C 744.55025 17.698058 743.83879 13.837216 744.61113 8.0324734 L 740.60935 8.0319463 z M 761.6833 8.0330005 C 762.90121 14.362069 760.5915 19.934367 759.31913 25.729244 C 763.91664 20.745428 765.07712 14.281336 766.73823 8.0330005 L 761.6833 8.0330005 z M 771.96577 8.0330005 C 771.00189 21.474565 772.86236 32.410086 775.55259 42.609013 L 787.10732 42.608486 C 783.90089 31.468453 783.91761 19.799516 784.52404 8.0335276 L 771.96577 8.0330005 z M 794.29285 8.0335276 C 792.51569 25.835679 794.60208 36.227516 798.77936 42.608486 L 804.26062 42.607959 C 796.19926 28.973041 796.82952 18.372532 798.21195 8.0340547 L 794.29285 8.0335276 z M 808.47427 8.0340547 C 805.38303 21.682997 809.25928 32.262822 813.6677 42.607959 L 817.01836 42.607959 C 812.28068 31.67577 811.94595 20.128999 815.53371 8.0345818 L 808.47427 8.0340547 z M 837.93728 8.0351089 C 843.46997 13.708379 849.65634 16.800473 852.03963 34.916552 C 852.17763 25.421727 851.37739 16.143448 845.50728 8.0351089 L 837.93728 8.0351089 z M 854.42499 8.035636 C 858.43376 16.699362 863.90604 21.019622 863.56129 42.606377 L 873.52699 42.606377 C 875.54824 30.940998 875.5731 19.372663 870.83674 8.0361631 L 854.42499 8.035636 z M 884.11848 8.0361631 C 889.88438 14.885813 885.29374 29.704698 883.19503 42.60585 L 891.12728 42.60585 C 893.3032 29.124924 898.90516 25.979108 897.30255 8.0366902 L 884.11848 8.0361631 z M 906.35565 8.0372173 C 907.82189 19.926182 906.13231 31.37648 902.84789 42.605323 L 913.95511 42.604796 C 917.7223 30.975373 919.10328 19.463529 918.72117 8.0377444 L 906.35565 8.0372173 z M 924.9538 8.0377444 C 926.05339 14.194068 928.525 18.808568 931.39107 22.979903 C 930.44089 18.488234 928.19582 16.902505 929.19433 8.0377444 L 924.9538 8.0377444 z M 946.56931 8.0382715 C 947.3953 11.980972 946.5965 15.133062 946.34917 18.553339 C 947.57901 15.055599 949.14109 11.571277 949.50451 8.0382715 L 946.56931 8.0382715 z M 958.08064 8.0387986 C 956.19309 28.988206 950.11837 31.885067 945.84947 42.567372 L 957.78298 42.603742 C 969.72343 20.948696 969.14683 19.94032 969.44778 8.0387986 L 958.08064 8.0387986 z M 978.02753 8.0393257 C 979.60145 21.368991 987.41559 28.972279 991.59245 42.602688 L 999.04515 42.602688 C 994.02694 31.087585 986.07217 19.979039 984.11857 8.0393257 L 978.02753 8.0393257 z M 991.20799 8.0393257 C 993.84932 14.036217 996.33787 18.377387 998.97281 24.303972 C 999.30521 23.976328 999.76059 23.773185 1000.2642 23.773185 C 1000.5356 23.773185 1000.7913 23.835322 1001.0233 23.940802 C 999.10727 19.003873 996.93652 14.372975 996.44844 8.0398528 L 991.20799 8.0393257 z M 1004.0463 8.0398528 C 1006.3208 19.167829 1010.9729 24.052383 1010.4211 42.60216 L 1012.439 42.60216 C 1017.3498 28.086536 1011.3677 19.433225 1010.4759 8.0403798 L 1004.0463 8.0398528 z M 1018.2681 8.0403798 C 1017.2042 23.290998 1026.3588 21.854191 1026.3218 42.601633 L 1028.8957 42.601633 C 1032.8752 26.471651 1022.3131 25.200611 1020.5521 8.0403798 L 1018.2681 8.0403798 z M 1030.9214 8.0409069 C 1032.748 19.551834 1034.0299 31.060182 1042.749 42.601106 L 1054.696 42.601106 C 1046.9289 33.766476 1043.9381 21.931963 1043.0327 8.0409069 L 1030.9214 8.0409069 z M 1051.3871 8.041434 C 1051.4361 13.225469 1053.0621 16.911468 1054.326 20.941617 C 1053.4863 16.39917 1053.12 11.955829 1054.7926 8.041434 L 1051.3871 8.041434 z M 1072.105 8.0419611 C 1072.9673 12.803701 1071.0346 18.451726 1069.7615 23.890728 C 1072.7221 19.305874 1075.5088 14.558894 1076.3988 8.0419611 L 1072.105 8.0419611 z M 1082.2692 8.0424882 C 1082.1529 20.082002 1083.1906 31.701277 1086.2064 42.600052 L 1097.2299 42.599525 C 1094.6718 31.318678 1092.7371 19.951926 1094.7505 8.0424882 L 1082.2692 8.0424882 z M 1104.2707 8.0430153 C 1102.676 22.57329 1103.7188 34.730979 1109.5318 42.598998 L 1114.9356 42.598998 C 1106.6996 29.373586 1106.7731 18.503055 1108.2957 8.0430153 L 1104.2707 8.0430153 z M 1118.1844 8.0435424 C 1116.2112 19.714968 1119.0493 31.209926 1124.8108 42.598471 L 1127.7621 42.598471 C 1123.2986 31.85801 1121.8766 20.454969 1125.0816 8.0435424 L 1118.1844 8.0435424 z M 935.1939 10.029646 C 935.82884 20.565349 938.92464 30.576503 932.5605 42.604269 L 937.6423 42.672792 C 939.48524 36.369021 939.84977 31.52227 939.49695 27.382221 C 938.71772 27.167874 938.14201 26.461686 938.14201 25.614336 C 938.14201 24.941914 938.50653 24.359638 939.04479 24.038315 C 938.11061 19.024415 936.26912 14.904472 935.1939 10.029646 z M 827.68065 11.301532 C 833.15673 20.278081 837.9629 30.080679 840.1857 42.607431 L 846.95576 42.607431 C 843.81676 26.396205 835.22117 19.707145 827.68065 11.301532 z M 321.36333 11.790151 C 329.52342 27.615132 327.0136 33.578875 324.6215 42.62219 L 329.75705 42.62219 C 336.37083 30.519298 328.39801 22.279305 321.36333 11.790151 z M 1065.0265 12.035779 C 1063.7867 16.053187 1062.67 20.140382 1061.9745 24.466845 C 1062.2283 24.782388 1062.3869 25.1779 1062.3869 25.614336 C 1062.3869 26.232524 1062.0796 26.776338 1061.6123 27.110239 C 1061.1079 31.813486 1061.1907 36.850217 1062.5305 42.600579 L 1067.6403 42.600579 C 1063.118 34.123503 1064.7123 22.779558 1065.0265 12.035779 z M 210.71336 13.039899 L 210.71336 25.32127 C 214.17849 28.304496 215.99981 34.29278 216.53981 42.625353 L 218.44407 42.625353 C 219.68381 30.142037 217.0344 20.330024 210.71336 13.039899 z M 754.84606 13.604948 C 752.60575 22.113626 750.32576 30.588516 752.22144 42.60954 L 756.68262 42.60954 C 752.49331 29.595976 754.72842 22.590433 754.84606 13.604948 z M 318.31962 18.904913 C 314.30138 25.570801 310.01901 31.877249 308.99936 42.622717 L 313.80367 42.622717 C 312.57392 32.134549 315.78056 25.834753 318.31962 18.904913 z M 505.79047 20.233725 C 501.94749 25.942395 497.54575 31.090508 499.50254 42.616919 L 504.0893 42.616919 C 502.38389 33.580868 504.32525 27.072106 505.79047 20.233725 z M 821.35242 20.324913 C 824.62587 26.740824 827.55361 33.40651 826.96752 42.607431 L 828.96893 42.607431 C 831.96694 30.845942 825.74655 26.300095 821.35242 20.324913 z M 526.2226 23.364157 C 523.0164 27.614323 520.97567 33.930331 520.27212 42.616392 L 525.40405 42.616392 C 523.46966 35.64089 525.18099 29.587101 526.2226 23.364157 z M 1001.892 26.457692 C 1001.5988 27.021817 1001.0271 27.412433 1000.3557 27.446 C 1001.5368 30.359783 1002.7541 33.664565 1004.05 37.820859 C 1004.0048 33.31021 1003.0381 29.784354 1001.892 26.457692 z M 278.23463 27.206698 C 279.00803 31.51253 279.9023 35.732201 277.04609 42.623771 L 282.93765 42.606904 C 283.76033 35.390271 281.02126 31.277902 278.23463 27.206698 z M 714.93212 28.529712 C 716.9033 33.197635 719.55149 37.832243 719.26359 42.610594 L 723.06177 42.610594 C 721.71347 36.834097 718.0783 32.87647 714.93212 28.529712 z M 975.0603 28.860203 C 969.66779 32.520919 968.3603 37.564775 967.03659 42.603215 L 970.85285 42.603215 C 970.94056 35.25368 973.14389 32.359047 975.0603 28.860203 z M 375.9925 29.307181 C 376.29509 33.501898 377.04311 35.593853 376.74542 42.620609 L 380.72292 42.620609 C 379.91904 36.805015 378.00945 32.960454 375.9925 29.307181 z M 475.97141 30.318681 C 472.98801 33.763208 470.23285 36.858491 465.73596 42.617973 L 469.61579 42.617973 C 470.87386 37.36554 473.71633 34.235561 475.97141 30.318681 z M 571.67103 31.788756 L 571.34651 42.614811 L 574.13701 42.614811 C 572.27747 39.750054 572.14976 35.643739 571.67103 31.788756 z M 977.03691 35.026189 C 978.28744 37.347994 979.4772 39.699399 979.5189 42.603215 L 982.18951 42.602688 C 980.76139 39.329287 979.00029 36.91601 977.03691 35.026189 z M 712.36951 38.069122 C 711.28372 39.446376 710.09165 40.713951 709.50873 42.611121 L 711.92303 42.611121 C 711.74674 39.436511 712.22061 39.582408 712.36951 38.069122 z " /></g><g
         id="g13"
         inkscape:label="hole-belt.g13"
         transform="translate(91.017561,-394.8859)"
         style="stroke-width:0.504972;stroke-dasharray:none"><path
           d="m 146.37305,420.27059 c -1e-5,1.01682 -0.8243,1.8411 -1.84111,1.8411 -1.01682,0 -1.84111,-0.82428 -1.84111,-1.8411 -1e-5,-1.01682 0.82429,-1.84112 1.84111,-1.84112 1.01682,0 1.84111,0.8243 1.84111,1.84112 z"
           style="fill:none;fill-opacity:1;stroke:#00ffff;stroke-width:0.504972;stroke-linecap:round;stroke-linejoin:round;stroke-dasharray:none;stroke-opacity:1;paint-order:stroke fill markers"
           id="path1-6-3-8-1" /><path
           d="m 132.34795,412.79767 c -1e-5,1.01682 -0.8243,1.8411 -1.84111,1.8411 -1.01682,0 -1.84111,-0.82428 -1.84111,-1.8411 -1e-5,-1.01682 0.82429,-1.84112 1.84111,-1.84112 1.01682,0 1.84111,0.8243 1.84111,1.84112 z"
           style="fill:none;fill-opacity:1;stroke:#00ffff;stroke-width:0.504972;stroke-linecap:round;stroke-linejoin:round;stroke-dasharray:none;stroke-opacity:1;paint-order:stroke fill markers"
           id="path1-6-3-8-3-5" /><path
           d="m 132.34795,428.20235 c -1e-5,1.01682 -0.8243,1.8411 -1.84111,1.8411 -1.01682,0 -1.84111,-0.82428 -1.84111,-1.8411 -1e-5,-1.01682 0.82429,-1.84112 1.84111,-1.84112 1.01682,0 1.84111,0.8243 1.84111,1.84112 z"
           style="fill:none;fill-opacity:1;stroke:#00ffff;stroke-width:0.504972;stroke-linecap:round;stroke-linejoin:round;stroke-dasharray:none;stroke-opacity:1;paint-order:stroke fill markers"
           id="path1-6-3-8-3-6-5" /><path
           id="path4-6"
           style="display:inline;fill:none;fill-opacity:1;stroke:#00ffff;stroke-width:0.504972;stroke-linecap:round;stroke-linejoin:round;stroke-dasharray:none;stroke-opacity:1;paint-order:stroke fill markers"
           d="m 971.36907,420.50001 c 0,1.01681 -0.8243,1.8411 -1.84111,1.8411 -1.01681,0 -1.84111,-0.82429 -1.84111,-1.8411 -1e-5,-1.01682 0.82429,-1.84112 1.84111,-1.84112 1.01682,0 1.84112,0.8243 1.84111,1.84112 z m 30.14053,0 c 0,1.01681 -0.8243,1.8411 -1.84109,1.8411 -1.01681,0 -1.84111,-0.82429 -1.84111,-1.8411 -10e-6,-1.01682 0.82429,-1.84112 1.84111,-1.84112 1.01679,0 1.84109,0.8243 1.84109,1.84112 z m 30.1406,0 c 0,1.01681 -0.8243,1.8411 -1.8411,1.8411 -1.0168,0 -1.8411,-0.82429 -1.8411,-1.8411 -10e-5,-1.01682 0.8242,-1.84112 1.8411,-1.84112 1.0168,0 1.8411,0.8243 1.8411,1.84112 z m 30.1405,0 c 0,1.01681 -0.8243,1.8411 -1.8411,1.8411 -1.0168,0 -1.8411,-0.82429 -1.8411,-1.8411 0,-1.01682 0.8243,-1.84112 1.8411,-1.84112 1.0168,0 1.8411,0.8243 1.8411,1.84112 z m 30.1406,0 c 0,1.01681 -0.8243,1.8411 -1.8411,1.8411 -1.0168,0 -1.8411,-0.82429 -1.8411,-1.8411 0,-1.01682 0.8243,-1.84112 1.8411,-1.84112 1.0168,0 1.8411,0.8243 1.8411,1.84112 z"
           transform="rotate(180,969.52796,420.50001)"
           sodipodi:nodetypes="sssss" /></g><g
         id="g86"
         inkscape:label="pointe2-belt.g86"
         style="display:inline;stroke-width:0.504972;stroke-dasharray:none"><path
           style="opacity:1;fill:#000000;fill-opacity:1;stroke:#000000;stroke-width:0.504972;stroke-linecap:round;stroke-linejoin:round;stroke-dasharray:none;stroke-opacity:1;paint-order:stroke fill markers"
           d="m 1141.0647,9.1621969 c -2.1027,14.3455241 3.9833,20.2926341 8.168,28.1897511 l 0.9032,-0.595106 c -2.8291,-7.732396 -6.8116,-14.610951 -4.9788,-25.794313 z"
           id="path85"
           sodipodi:nodetypes="ccccc" /></g><path
         style="display:inline;opacity:1;fill:#000000;fill-opacity:1;stroke:none;stroke-width:1;stroke-linecap:round;stroke-linejoin:round;stroke-dasharray:none;stroke-opacity:1;paint-order:stroke fill markers"
         d="m 1136.842,8.046705 c -7.9434,11.999051 -7.4575,24.072575 10e-5,35.139275 6.7797,-0.87596 19.2102,-8.208635 23.4778,-17.109379 v -0.92069 C 1154.9807,14.496582 1142.2107,8.960167 1136.842,8.046705 Z"
         id="path72"
         sodipodi:nodetypes="ccccc"
         inkscape:label="pointe-belt.path72" /><path
         style="display:inline;fill:none;stroke:#8080ff;stroke-width:0.505002;stroke-linecap:round;stroke-linejoin:round;stroke-dasharray:none;stroke-opacity:1;paint-order:stroke fill markers"
         d="M 1160.3199,26.076446 V 25.155911 C 1155.7514,15.144386 1141.6681,8.5257985 1136.8421,8.0464481 l -923.6275,-0.02766 c -1.38464,0 -2.49937,2.2783399 -2.49937,5.1083859 v 24.978081 c 0,2.830047 1.11473,5.108385 2.49937,5.108385 l 923.6275,-0.02766 c 4.826,-0.479349 18.9093,-7.097948 23.4778,-17.109473 z"
         id="path2-3"
         sodipodi:nodetypes="cccsssscc"
         inkscape:label="border-belt.path2-3" /><path
         d="m 240.06885,25.38469 c 0,2.545883 -2.0234,4.609744 -4.51935,4.609744 -2.49598,0 -4.51936,-2.063861 -4.51936,-4.609744 0,-2.545909 2.02338,-4.609771 4.51936,-4.609771 2.49595,0 4.51935,2.063862 4.51935,4.609771 z"
         style="fill:none;fill-opacity:1;stroke:#7f7f7f;stroke-width:0.504972;stroke-linecap:round;stroke-linejoin:round;stroke-dasharray:none;stroke-dashoffset:0;stroke-opacity:1;paint-order:normal"
         id="path1-0" /><path
         d="m 226.04375,17.91177 c 0,2.545883 -2.0234,4.609744 -4.51935,4.609744 -2.49598,0 -4.51936,-2.063861 -4.51936,-4.609744 0,-2.545909 2.02338,-4.609771 4.51936,-4.609771 2.49595,0 4.51935,2.063862 4.51935,4.609771 z"
         style="fill:none;fill-opacity:1;stroke:#7f7f7f;stroke-width:0.504972;stroke-linecap:round;stroke-linejoin:round;stroke-dasharray:none;stroke-dashoffset:0;stroke-opacity:1;paint-order:normal"
         id="path1-0-0" /><path
         d="m 226.04375,33.31645 c 0,2.545883 -2.0234,4.609744 -4.51935,4.609744 -2.49598,0 -4.51936,-2.063861 -4.51936,-4.609744 0,-2.545909 2.02338,-4.609771 4.51936,-4.609771 2.49595,0 4.51935,2.063862 4.51935,4.609771 z"
         style="display:inline;fill:none;fill-opacity:1;stroke:#7f7f7f;stroke-width:0.504972;stroke-linecap:round;stroke-linejoin:round;stroke-dasharray:none;stroke-dashoffset:0;stroke-opacity:1;paint-order:normal"
         id="path1-0-0-9" /></g></g></svg>
