<?xml version="1.0" encoding="UTF-8" standalone="no"?>
<!-- Created with Inkscape (http://www.inkscape.org/) -->

<svg
   width="69.146622mm"
   height="49.999989mm"
   viewBox="0 0 69.146622 49.999989"
   version="1.1"
   id="svg1"
   inkscape:version="1.4 (e7c3feb100, 2024-10-09)"
   sodipodi:docname="ext-50-black-leopard.svg"
   xmlns:inkscape="http://www.inkscape.org/namespaces/inkscape"
   xmlns:sodipodi="http://sodipodi.sourceforge.net/DTD/sodipodi-0.dtd"
   xmlns="http://www.w3.org/2000/svg"
   xmlns:svg="http://www.w3.org/2000/svg">
  <sodipodi:namedview
     id="namedview1"
     pagecolor="#505050"
     bordercolor="#eeeeee"
     borderopacity="1"
     inkscape:showpageshadow="0"
     inkscape:pageopacity="0"
     inkscape:pagecheckerboard="0"
     inkscape:deskcolor="#505050"
     inkscape:document-units="mm"
     inkscape:zoom="2.5948868"
     inkscape:cx="57.613303"
     inkscape:cy="125.439"
     inkscape:window-width="1920"
     inkscape:window-height="1029"
     inkscape:window-x="0"
     inkscape:window-y="0"
     inkscape:window-maximized="0"
     inkscape:current-layer="g2"
     showgrid="false" />
  <defs
     id="defs1" />
  <g
     inkscape:label="Layer 1"
     inkscape:groupmode="layer"
     id="layer1"
     transform="translate(-70.634805,-123.8137)">
    <g
       id="g2"
       transform="matrix(0.99996819,0,0,1.00878,482.82003,162.89089)"
       style="stroke-width:0.5;stroke-dasharray:none">
      <path
         id="path1-1-0"
         style="fill:#000000;fill-opacity:0.5;stroke:#8080ff;stroke-width:0.49981857;stroke-linecap:round;stroke-linejoin:round;stroke-dasharray:none;stroke-opacity:1;paint-order:stroke fill markers"
         d="M -408.85838 -38.413326 C -415.97638 -38.413331 -408.56795 -32.958508 -408.56795 -26.18296 L -408.56795 -1.6540977 C -408.56799 5.2121053 -415.97634 10.66675 -408.26615 10.57678 L -390.23877 10.57678 L -390.23877 -38.413326 L -408.85838 -38.413326 z M -402.83582 -23.406988 C -401.8692 -23.406988 -401.08599 -22.623715 -401.086 -21.657085 C -401.086 -20.690475 -401.8692 -19.90667 -402.83582 -19.90667 C -403.80243 -19.90667 -404.58615 -20.690475 -404.58616 -21.657085 C -404.58616 -22.623715 -403.80243 -23.406988 -402.83582 -23.406988 z M -402.83582 -8.0026179 C -401.8692 -8.0026179 -401.08599 -7.2188229 -401.086 -6.2522029 C -401.086 -5.2855929 -401.8692 -4.5023001 -402.83582 -4.5023001 C -403.80244 -4.5023001 -404.58615 -5.2855929 -404.58616 -6.2522029 C -404.58616 -7.2188229 -403.80244 -8.0026179 -402.83582 -8.0026179 z " />
      <path
         id="path1-1-9-7"
         style="fill:#000000;stroke:#8080ff;stroke-width:0.49981857;stroke-linecap:round;stroke-linejoin:round;stroke-dasharray:none;stroke-opacity:1;fill-opacity:0.5;paint-order:stroke fill markers"
         d="M -380.4034 -38.487092 L -380.4034 10.503014 L -346.98164 10.503014 C -339.27145 10.592984 -346.6798 5.1383389 -346.67984 -1.7278641 L -346.68036 -26.256727 C -346.68036 -33.032275 -339.27141 -38.487097 -346.38941 -38.487092 L -380.4034 -38.487092 z M -367.80635 -23.229743 C -366.93769 -23.229743 -366.23327 -22.525745 -366.23327 -21.657085 C -366.23328 -20.788425 -366.93769 -20.083914 -367.80635 -20.083914 C -368.67501 -20.083914 -369.37892 -20.788425 -369.37892 -21.657085 C -369.37893 -22.525745 -368.67501 -23.229743 -367.80635 -23.229743 z M -353.81193 -15.756798 C -352.94326 -15.756798 -352.23885 -15.052809 -352.23885 -14.184139 C -352.23886 -13.315479 -352.94327 -12.611481 -353.81193 -12.611481 C -354.68059 -12.611481 -355.38449 -13.315479 -355.38449 -14.184139 C -355.3845 -15.052809 -354.68059 -15.756798 -353.81193 -15.756798 z M -367.80635 -7.8253737 C -366.93769 -7.8253737 -366.23327 -7.1213752 -366.23327 -6.2527152 C -366.23328 -5.3840552 -366.93769 -4.6795444 -367.80635 -4.6795444 C -368.67501 -4.6795444 -369.37892 -5.3840552 -369.37892 -6.2527152 C -369.37893 -7.1213752 -368.67501 -7.8253737 -367.80635 -7.8253737 z " />
      <path
         id="path1-6-2-4"
         style="fill:none;fill-opacity:1;stroke:#00ffff;stroke-width:0.5;stroke-linecap:round;stroke-linejoin:round;stroke-dasharray:none;stroke-opacity:1;paint-order:stroke fill markers"
         d="M -402.83582 -23.406988 C -403.80243 -23.406988 -404.58616 -22.623715 -404.58616 -21.657085 C -404.58615 -20.690475 -403.80243 -19.90667 -402.83582 -19.90667 C -401.8692 -19.90667 -401.086 -20.690475 -401.086 -21.657085 C -401.08599 -22.623715 -401.8692 -23.406988 -402.83582 -23.406988 z M -367.80635 -23.229743 C -368.67501 -23.229743 -369.37893 -22.525745 -369.37892 -21.657085 C -369.37892 -20.788425 -368.67501 -20.083914 -367.80635 -20.083914 C -366.93769 -20.083914 -366.23328 -20.788425 -366.23327 -21.657085 C -366.23327 -22.525745 -366.93769 -23.229743 -367.80635 -23.229743 z M -353.81193 -15.756798 C -354.68059 -15.756798 -355.3845 -15.052809 -355.38449 -14.184139 C -355.38449 -13.315479 -354.68059 -12.611481 -353.81193 -12.611481 C -352.94327 -12.611481 -352.23886 -13.315479 -352.23885 -14.184139 C -352.23885 -15.052809 -352.94326 -15.756798 -353.81193 -15.756798 z M -402.83582 -8.0026179 C -403.80244 -8.0026179 -404.58616 -7.2188229 -404.58616 -6.2522029 C -404.58615 -5.2855929 -403.80244 -4.5023001 -402.83582 -4.5023001 C -401.8692 -4.5023001 -401.086 -5.2855929 -401.086 -6.2522029 C -401.08599 -7.2188229 -401.8692 -8.0026179 -402.83582 -8.0026179 z M -367.80635 -7.8253737 C -368.67501 -7.8253737 -369.37893 -7.1213752 -369.37892 -6.2527152 C -369.37892 -5.3840552 -368.67501 -4.6795444 -367.80635 -4.6795444 C -366.93769 -4.6795444 -366.23328 -5.3840552 -366.23327 -6.2527152 C -366.23327 -7.1213752 -366.93769 -7.8253737 -367.80635 -7.8253737 z " />
      <g
         id="g1"
         transform="translate(0,-0.23498414)">
        <g
           id="g3-8-4"
           style="display:inline;stroke-width:0.5;stroke-dasharray:none"
           transform="translate(-498.00259,-433.87858)" />
        <path
           d="m -398.31661,-21.384196 c 0,2.495974 -2.02342,4.519375 -4.5194,4.519375 -2.496,0 -4.5194,-2.023401 -4.5194,-4.519375 0,-2.495999 2.0234,-4.519401 4.5194,-4.519401 2.49598,0 4.5194,2.023402 4.5194,4.519401 z"
           style="fill:none;fill-opacity:1;stroke:#7f7f7f;stroke-width:0.5;stroke-linecap:round;stroke-linejoin:round;stroke-dasharray:none;stroke-dashoffset:0;stroke-opacity:1;paint-order:normal"
           id="path1-9-2-7"
           sodipodi:nodetypes="sssss" />
        <path
           d="m -398.31661,-5.9795251 c 0,2.495974 -2.02342,4.519375 -4.5194,4.519375 -2.496,0 -4.5194,-2.023401 -4.5194,-4.519375 0,-2.495999 2.0234,-4.5194019 4.5194,-4.5194019 2.49598,0 4.5194,2.0234029 4.5194,4.5194019 z"
           style="fill:none;fill-opacity:1;stroke:#7f7f7f;stroke-width:0.5;stroke-linecap:round;stroke-linejoin:round;stroke-dasharray:none;stroke-dashoffset:0;stroke-opacity:1;paint-order:normal"
           id="path1-3-8-4"
           sodipodi:nodetypes="sssss" />
        <path
           d="m -363.28673,-6.0551571 c 0,2.495974 -2.02342,4.519375 -4.5194,4.519375 -2.496,0 -4.5194,-2.023401 -4.5194,-4.519375 0,-2.495999 2.0234,-4.5194019 4.5194,-4.5194019 2.49598,0 4.5194,2.0234029 4.5194,4.5194019 z m 0,-15.4046709 c 0,2.495974 -2.02342,4.519375 -4.5194,4.519375 -2.496,0 -4.5194,-2.023401 -4.5194,-4.519375 0,-2.495999 2.0234,-4.519401 4.5194,-4.519401 2.49598,0 4.5194,2.023402 4.5194,4.519401 z"
           style="fill:none;fill-opacity:1;stroke:#7f7f7f;stroke-width:0.5;stroke-linecap:round;stroke-linejoin:round;stroke-dasharray:none;stroke-dashoffset:0;stroke-opacity:1;paint-order:normal"
           id="path1-5-4"
           sodipodi:nodetypes="ssssssssss" />
        <path
           d="m -349.29237,-13.986918 c 0,2.495974 -2.02342,4.5193759 -4.5194,4.5193759 -2.496,0 -4.5194,-2.0234019 -4.5194,-4.5193759 0,-2.495999 2.0234,-4.519401 4.5194,-4.519401 2.49598,0 4.5194,2.023402 4.5194,4.519401 z"
           style="fill:none;fill-opacity:1;stroke:#7f7f7f;stroke-width:0.5;stroke-linecap:round;stroke-linejoin:round;stroke-dasharray:none;stroke-dashoffset:0;stroke-opacity:1;paint-order:normal"
           id="path1-0-3" />
      </g>
    </g>
  </g>
</svg>
