<?xml version="1.0" encoding="UTF-8" standalone="no"?>
<!-- Created with Inkscape (http://www.inkscape.org/) -->

<svg
   width="159.09569mm"
   height="35mm"
   viewBox="0 0 159.09568 34.999999"
   version="1.1"
   id="svg1"
   inkscape:version="1.4 (e7c3feb100, 2024-10-09)"
   sodipodi:docname="tab-35-tiger.svg"
   xmlns:inkscape="http://www.inkscape.org/namespaces/inkscape"
   xmlns:sodipodi="http://sodipodi.sourceforge.net/DTD/sodipodi-0.dtd"
   xmlns="http://www.w3.org/2000/svg"
   xmlns:svg="http://www.w3.org/2000/svg">
  <sodipodi:namedview
     id="namedview1"
     pagecolor="#505050"
     bordercolor="#eeeeee"
     borderopacity="1"
     inkscape:showpageshadow="0"
     inkscape:pageopacity="0"
     inkscape:pagecheckerboard="0"
     inkscape:deskcolor="#505050"
     inkscape:document-units="mm"
     inkscape:zoom="1.9044143"
     inkscape:cx="301.66754"
     inkscape:cy="48.571363"
     inkscape:window-width="1920"
     inkscape:window-height="1029"
     inkscape:window-x="0"
     inkscape:window-y="0"
     inkscape:window-maximized="0"
     inkscape:current-layer="g3"
     showguides="true" />
  <defs
     id="defs1" />
  <g
     inkscape:label="Layer 1"
     inkscape:groupmode="layer"
     id="layer1"
     transform="translate(-25.651863,-131.5047)">
    <g
       id="g2-8-8"
       inkscape:label="boucle.g2"
       style="display:inline"
       transform="matrix(1.000001,0,0,0.99969169,2.4673675,123.7385)">
      <g
         id="g3">
        <path
           id="path1-8-2-2"
           style="display:inline;fill:#ff7500;fill-opacity:0.5;stroke:none;stroke-width:0.500105;stroke-linecap:round;stroke-linejoin:round;stroke-dasharray:none;stroke-opacity:1;paint-order:stroke fill markers"
           inkscape:label="border-boucle.path1"
           d="M 61.850807,8.0187862 C 46.554159,8.7091762 28.535894,12.669087 23.434586,16.913492 v 16.720931 c 5.101308,4.244404 23.119573,8.204259 38.416221,8.894706 l 40.881183,-0.0052 40.8817,0.0052 c 15.29666,-0.690435 33.31491,-4.650302 38.41622,-8.894706 V 16.913492 C 176.9286,12.669087 158.91034,8.7091762 143.61369,8.0187862 l -40.8817,0.011372 z M 44.815688,15.851214 c 1.01682,0 1.840723,0.823945 1.840713,1.840765 0,1.01682 -0.823893,1.841283 -1.840713,1.841283 -1.01681,0 -1.841219,-0.824463 -1.841229,-1.841283 0,-1.01682 0.824409,-1.840765 1.841229,-1.840765 z m 37.579581,0 c 1.01682,0 1.840723,0.823945 1.840713,1.840765 0,1.01682 -0.823893,1.841283 -1.840713,1.841283 -1.01681,0 -1.841219,-0.824463 -1.841229,-1.841283 0,-1.01682 0.824409,-1.840765 1.841229,-1.840765 z m 40.674481,0 c 1.01682,0 1.84072,0.823945 1.84071,1.840765 0,1.01682 -0.82389,1.841283 -1.84071,1.841283 -1.01681,0 -1.84122,-0.824463 -1.84123,-1.841283 0,-1.01682 0.82441,-1.840765 1.84123,-1.840765 z m 37.57906,0 c 1.01682,0 1.84123,0.823945 1.84123,1.840765 -1e-5,1.01682 -0.82442,1.841283 -1.84123,1.841283 -1.01682,0 -1.84071,-0.824463 -1.84071,-1.841283 -1e-5,-1.01682 0.82389,-1.840765 1.84071,-1.840765 z m -70.052871,6.993978 h 9.999901 2.1363 2.13682 9.99989 c 1.19521,0 2.15749,0.962428 2.15749,2.157639 0,1.195212 -0.96228,2.15764 -2.15749,2.15764 h -9.99989 -2.13682 -2.1363 -9.999901 c -1.195211,0 -2.157489,-0.962428 -2.157489,-2.15764 0,-1.195211 0.962278,-2.157639 2.157489,-2.157639 z m -59.805737,0.478671 c 1.01682,0 1.841239,0.824461 1.841229,1.841282 0,1.01682 -0.824409,1.841282 -1.841229,1.841282 -1.01681,0 -1.840703,-0.824462 -1.840713,-1.841282 0,-1.016821 0.823893,-1.841282 1.840713,-1.841282 z m 143.884098,0 c 1.01682,0 1.84071,0.824461 1.84071,1.841282 -1e-5,1.01682 -0.8239,1.841282 -1.84071,1.841282 -1.01682,0 -1.84123,-0.824462 -1.84123,-1.841282 -1e-5,-1.016821 0.82441,-1.841282 1.84123,-1.841282 z M 44.815688,31.25554 c 1.01682,0 1.840723,0.824461 1.840713,1.841282 0,1.01682 -0.823893,1.841283 -1.840713,1.841283 -1.01681,0 -1.841219,-0.824463 -1.841229,-1.841283 0,-1.016821 0.824409,-1.841282 1.841229,-1.841282 z m 37.579581,0 c 1.01682,0 1.840723,0.824461 1.840713,1.841282 0,1.01682 -0.823893,1.841283 -1.840713,1.841283 -1.01681,0 -1.841219,-0.824463 -1.841229,-1.841283 0,-1.016821 0.824409,-1.841282 1.841229,-1.841282 z m 40.673961,0 c 1.01682,0 1.84124,0.824461 1.84123,1.841282 0,1.01682 -0.82441,1.841283 -1.84123,1.841283 -1.01681,0 -1.8407,-0.824463 -1.84071,-1.841283 0,-1.016821 0.82389,-1.841282 1.84071,-1.841282 z m 37.57958,0 c 1.01682,0 1.84123,0.824461 1.84123,1.841282 -1e-5,1.01682 -0.82442,1.841283 -1.84123,1.841283 -1.01682,0 -1.84071,-0.824463 -1.84071,-1.841283 -1e-5,-1.016821 0.82389,-1.841282 1.84071,-1.841282 z"
           sodipodi:nodetypes="cccccccccccscscssssssssssssssssscccssscccsssscscssssssscscssssssssssssssss" />
      </g>
      <g
         id="g88-5-0"
         inkscape:label="rayure-boucle.g88"
         style="stroke-width:0.500077;stroke-dasharray:none"
         transform="translate(0.52483613,0.1913681)">
        <path
           id="path50-3-7-2"
           style="fill:#000000;fill-opacity:1;stroke:#000000;stroke-width:0.500077;stroke-linecap:round;stroke-linejoin:round;stroke-dasharray:none;stroke-opacity:1;paint-order:stroke fill markers"
           d="M 62.97083 7.997486 C 62.160219 8.000746 61.122564 8.0278202 59.295089 8.1370554 C 58.409886 11.444181 46.661201 17.43367 47.658085 40.556959 L 49.884821 40.876418 C 51.291699 23.213541 58.17266 29.5403 63.726339 8.0000706 C 63.485866 7.9980588 63.241034 7.9963993 62.97083 7.997486 z M 142.57726 8.0129937 C 142.27336 8.0136513 141.98014 8.0160338 141.67861 8.0171291 C 147.23227 29.557358 154.11326 23.230598 155.52013 40.893476 L 157.74686 40.574017 C 158.74374 17.450727 146.99506 11.461238 146.10986 8.1541139 C 144.49602 8.0264837 143.48897 8.0110208 142.57726 8.0129937 z M 66.95663 8.0181629 C 65.186308 18.755329 69.025814 20.140548 62.109385 26.758198 C 68.080199 24.295848 70.204623 14.009988 68.858837 8.0186799 C 68.858837 8.0186799 67.371564 8.7195197 66.95663 8.0181629 z M 77.348233 8.0207476 C 75.801058 11.008027 73.097494 20.741613 81.223445 35.708731 C 81.086266 35.255634 80.989205 34.84678 80.862744 34.405567 C 80.372268 34.074766 80.02921 33.541509 80.029204 32.905454 C 80.029204 32.617072 80.108918 32.353443 80.227124 32.110426 C 77.709762 22.35319 77.746937 15.428816 77.348233 8.0207476 z M 128.64428 8.0207476 L 123.24564 8.0222983 C 124.58864 15.263897 128.16995 21.742606 133.39747 27.66023 C 131.33523 21.904427 128.61738 17.233081 128.64428 8.0207476 z M 84.460453 8.0228153 C 85.780391 10.905021 85.36681 13.772688 85.033028 16.640967 C 86.713544 13.92302 88.515606 11.25414 88.936145 8.0238491 L 84.460453 8.0228153 z M 98.68231 8.0264337 C 99.426757 14.68643 101.38676 19.023334 103.68148 22.653824 L 104.46903 22.653824 L 110.4454 22.653824 C 108.63298 19.129791 107.17924 14.889134 107.39185 8.0264337 L 98.68231 8.0264337 z M 42.761231 10.138584 C 38.605827 11.088205 34.455601 11.963234 30.265366 13.417948 C 26.555594 18.266203 23.126321 23.449481 24.195975 33.811105 C 26.872214 35.420515 28.81244 36.191282 31.54539 37.010862 C 30.167895 25.588332 34.343812 16.841702 42.761231 10.138584 z M 162.6432 10.156159 C 167.48811 14.014367 170.91852 18.554016 172.70304 23.886687 C 173.03905 23.440404 173.54787 23.132495 174.14946 23.132495 C 175.16628 23.132495 175.99018 23.956956 175.99018 24.973777 C 175.99017 25.990597 175.16627 26.815059 174.14946 26.815059 C 173.90836 26.815059 173.67993 26.765457 173.46888 26.681176 C 174.157 29.86122 174.30917 33.299636 173.85956 37.027921 C 176.5925 36.208341 178.53274 35.438091 181.20897 33.82868 C 182.27862 23.467056 178.84883 18.283262 175.13907 13.435006 C 170.94885 11.980292 166.79859 11.105779 162.6432 10.156159 z M 118.92808 11.507915 C 113.78414 28.51764 130.36693 33.949318 130.03902 41.981601 L 133.89718 42.007964 C 124.19134 22.281744 119.65163 29.102358 118.92808 11.507915 z M 140.1433 19.294336 C 140.1283 25.063186 137.52623 32.33181 144.5327 41.938696 C 141.19426 35.481099 140.16608 27.680183 140.1433 19.294336 z M 30.265366 23.132495 C 31.282186 23.132495 32.106605 23.956956 32.106595 24.973777 C 32.106595 25.990597 31.282186 26.815059 30.265366 26.815059 C 29.248556 26.815059 28.424663 25.990597 28.424653 24.973777 C 28.424653 23.956956 29.248546 23.132495 30.265366 23.132495 z M 106.67303 26.969103 C 109.63969 31.035394 112.56274 35.049365 113.81729 41.979533 L 116.58766 41.979533 C 117.06392 34.768166 115.0915 30.814072 112.86128 26.969103 L 106.67303 26.969103 z M 87.333143 28.212821 C 88.47425 32.004399 90.572195 32.256994 90.109198 41.979533 L 93.208231 41.979016 C 93.558258 32.325545 90.049747 31.137907 87.333143 28.212821 z M 69.675324 34.497579 C 70.648897 36.902425 72.265109 38.874762 72.200749 41.977982 L 74.370123 41.977982 C 73.360503 38.779365 71.427461 36.75334 69.675324 34.497579 z M 98.182083 34.497579 C 99.155656 36.902425 100.77135 38.874762 100.70699 41.977982 L 102.87688 41.977982 C 101.86726 38.779365 99.93422 36.75334 98.182083 34.497579 z " />
      </g>
      <g
         id="g89-6-5"
         inkscape:label="hole-boucle.g89"
         style="display:inline;stroke-width:0.500077;stroke-dasharray:none"
         transform="translate(23.109821,7.5055246)">
        <path
           d="m 19.864552,25.591298 c 10e-6,1.01682 0.8243,1.841101 1.84111,1.841101 1.01682,0 1.84111,-0.824281 1.84111,-1.841101 10e-6,-1.016821 -0.82429,-1.841121 -1.84111,-1.841121 -1.01682,0 -1.84111,0.8243 -1.84111,1.841121 z m 119.515728,0 c -1e-5,1.01682 -0.8243,1.841101 -1.84111,1.841101 -1.01682,0 -1.84111,-0.824281 -1.84111,-1.841101 -1e-5,-1.016821 0.82429,-1.841121 1.84111,-1.841121 1.01682,0 1.84111,0.8243 1.84111,1.841121 z"
           style="fill:none;fill-opacity:1;stroke:#00ffff;stroke-width:0.500077;stroke-linecap:round;stroke-linejoin:round;stroke-dasharray:none;stroke-opacity:1;paint-order:stroke fill markers"
           id="path1-6-3-8-3-6-4-8"
           sodipodi:nodetypes="cscscsssss" />
        <path
           style="display:inline;fill:none;fill-opacity:1;stroke:#00ffff;stroke-width:0.500077;stroke-linecap:round;stroke-linejoin:round;stroke-dasharray:none;stroke-opacity:1;paint-order:stroke fill markers"
           d="m 79.622416,15.339849 h -2.136366 -10 c -1.195211,0 -2.157421,0.962211 -2.157421,2.157422 0,1.195212 0.96221,2.157422 2.157421,2.157422 h 10 2.136366 m 0,-4.314844 h 2.136366 10 c 1.195211,0 2.157421,0.962211 2.157421,2.157422 0,1.195212 -0.96221,2.157422 -2.157421,2.157422 h -10 -2.136366"
           id="path9-3-6"
           sodipodi:nodetypes="ccssscc" />
        <path
           d="m 5.8394521,17.659543 c 1e-5,1.01682 0.8243,1.841101 1.84111,1.841101 1.01682,0 1.84111,-0.824281 1.84111,-1.841101 10e-6,-1.016821 -0.82429,-1.841121 -1.84111,-1.841121 -1.01682,0 -1.84111,0.8243 -1.84111,1.841121 z m 147.5659279,0 c -1e-5,1.01682 -0.8243,1.841101 -1.84111,1.841101 -1.01682,0 -1.84111,-0.824281 -1.84111,-1.841101 -1e-5,-1.016821 0.82429,-1.841121 1.84111,-1.841121 1.01682,0 1.84111,0.8243 1.84111,1.841121 z"
           style="display:inline;fill:none;fill-opacity:1;stroke:#00ffff;stroke-width:0.500077;stroke-linecap:round;stroke-linejoin:round;stroke-dasharray:none;stroke-opacity:1;paint-order:stroke fill markers"
           id="path1-6-3-8-0-4" />
        <path
           d="m 19.864552,10.186623 c 10e-6,1.01682 0.8243,1.841101 1.84111,1.841101 1.01682,0 1.84111,-0.824281 1.84111,-1.841101 10e-6,-1.0168205 -0.82429,-1.8411205 -1.84111,-1.8411205 -1.01682,0 -1.84111,0.8243 -1.84111,1.8411205 z m 119.515728,0 c -1e-5,1.01682 -0.8243,1.841101 -1.84111,1.841101 -1.01682,0 -1.84111,-0.824281 -1.84111,-1.841101 -1e-5,-1.0168205 0.82429,-1.8411205 1.84111,-1.8411205 1.01682,0 1.84111,0.8243 1.84111,1.8411205 z"
           style="display:inline;fill:none;fill-opacity:1;stroke:#00ffff;stroke-width:0.500077;stroke-linecap:round;stroke-linejoin:round;stroke-dasharray:none;stroke-opacity:1;paint-order:stroke fill markers"
           id="path1-6-3-8-3-4-7"
           sodipodi:nodetypes="cscscsssss" />
        <g
           id="g4"
           transform="translate(0.1250172)">
          <path
             d="m 97.993524,25.591298 c 1e-5,1.01682 0.824297,1.841101 1.841107,1.841101 1.016819,0 1.841109,-0.824281 1.841109,-1.841101 10e-6,-1.016821 -0.82429,-1.841121 -1.841109,-1.841121 -1.01682,0 -1.841107,0.8243 -1.841107,1.841121 z m 0,-15.404675 c 1e-5,1.01682 0.824297,1.841101 1.841107,1.841101 1.016819,0 1.841109,-0.824281 1.841109,-1.841101 10e-6,-1.0168203 -0.82429,-1.8411203 -1.841109,-1.8411203 -1.01682,0 -1.841107,0.8243 -1.841107,1.8411203 z"
             style="display:inline;fill:none;fill-opacity:1;stroke:#00ffff;stroke-width:0.500077;stroke-linecap:round;stroke-linejoin:round;stroke-dasharray:none;stroke-opacity:1;paint-order:stroke fill markers"
             id="path1-0"
             sodipodi:nodetypes="ssssssssss" />
          <path
             d="m 57.319057,25.591298 c 10e-6,1.01682 0.8243,1.841101 1.84111,1.841101 1.01682,0 1.84111,-0.824281 1.84111,-1.841101 10e-6,-1.016821 -0.82429,-1.841121 -1.84111,-1.841121 -1.01682,0 -1.84111,0.8243 -1.84111,1.841121 z m 0,-15.404675 c 10e-6,1.01682 0.8243,1.841101 1.84111,1.841101 1.01682,0 1.84111,-0.824281 1.84111,-1.841101 10e-6,-1.0168203 -0.82429,-1.8411203 -1.84111,-1.8411203 -1.01682,0 -1.84111,0.8243 -1.84111,1.8411203 z"
             style="display:inline;fill:none;fill-opacity:1;stroke:#00ffff;stroke-width:0.500077;stroke-linecap:round;stroke-linejoin:round;stroke-dasharray:none;stroke-opacity:1;paint-order:stroke fill markers"
             id="path1" />
        </g>
        <path
           d="m 63.67956,10.186623 c 0,2.496744 -2.023419,4.520769 -4.519393,4.520769 -2.496003,0 -4.519402,-2.024025 -4.519402,-4.520769 0,-2.4967698 2.023399,-4.5207968 4.519402,-4.5207968 2.495974,0 4.519393,2.024027 4.519393,4.5207968 z"
           style="display:inline;fill:none;fill-opacity:1;stroke:#7f7f7f;stroke-width:0.500077;stroke-linecap:round;stroke-linejoin:round;stroke-dasharray:none;stroke-dashoffset:0;stroke-opacity:1;paint-order:normal"
           id="path1-0-0" />
        <path
           d="m 63.67956,25.591299 c 0,2.496744 -2.023419,4.520769 -4.519393,4.520769 -2.496003,0 -4.519402,-2.024025 -4.519402,-4.520769 0,-2.496769 2.023399,-4.520796 4.519402,-4.520796 2.495974,0 4.519393,2.024027 4.519393,4.520796 z"
           style="display:inline;fill:none;fill-opacity:1;stroke:#7f7f7f;stroke-width:0.500077;stroke-linecap:round;stroke-linejoin:round;stroke-dasharray:none;stroke-dashoffset:0;stroke-opacity:1;paint-order:normal"
           id="path1-0-0-6" />
      </g>
      <g
         id="g89-6-5-9"
         inkscape:label="hole-boucle.g89"
         style="display:inline;stroke-width:0.500077;stroke-dasharray:none"
         transform="translate(13.890895,-13.791753)">
        <g
           id="g2"
           style="stroke:#ff0000;stroke-opacity:1"
           transform="translate(9.218926,21.297278)">
          <g
             id="g1"
             style="stroke:#ff0000;stroke-opacity:1" />
        </g>
      </g>
      <path
         d="m 49.334876,17.692147 c 0,2.496743 -2.023419,4.520769 -4.519393,4.520769 -2.496003,0 -4.519402,-2.024026 -4.519402,-4.520769 0,-2.49677 2.023399,-4.520796 4.519402,-4.520796 2.495974,0 4.519393,2.024026 4.519393,4.520796 z"
         style="display:inline;fill:none;fill-opacity:1;stroke:#7f7f7f;stroke-width:0.500077;stroke-linecap:round;stroke-linejoin:round;stroke-dasharray:none;stroke-dashoffset:0;stroke-opacity:1;paint-order:normal"
         id="path1-0-0-7" />
      <path
         d="M 61.850974,8.0186484 C 46.554326,8.7090382 28.535833,12.669037 23.434525,16.913442 l 2e-6,16.721044 c 5.101308,4.244404 23.1198,8.204404 38.416448,8.894851 l 40.881255,-0.0056 40.88126,0.0056 c 15.29666,-0.690435 33.31515,-4.650435 38.41646,-8.894839 V 16.913442 C 176.92864,12.669037 158.91015,8.7090382 143.6135,8.0186484 l -40.88127,0.011265 z"
         style="display:inline;fill:none;fill-opacity:1;stroke:#8080ff;stroke-width:0.500105;stroke-linecap:round;stroke-linejoin:round;stroke-dasharray:none;stroke-opacity:1;paint-order:stroke fill markers"
         id="path1-8-2"
         sodipodi:nodetypes="ccccccccccc"
         inkscape:label="border-boucle.path1" />
      <path
         d="m 49.334876,33.069825 c 0,2.496744 -2.023419,4.520769 -4.519393,4.520769 -2.496003,0 -4.519402,-2.024025 -4.519402,-4.520769 0,-2.496769 2.023399,-4.520795 4.519402,-4.520795 2.495974,0 4.519393,2.024026 4.519393,4.520795 z"
         style="display:inline;fill:none;fill-opacity:1;stroke:#7f7f7f;stroke-width:0.500077;stroke-linecap:round;stroke-linejoin:round;stroke-dasharray:none;stroke-dashoffset:0;stroke-opacity:1;paint-order:normal"
         id="path1-0-0-3" />
      <path
         d="m 35.309776,25.165067 c 0,2.496744 -2.023419,4.520769 -4.519393,4.520769 -2.496003,0 -4.519402,-2.024025 -4.519402,-4.520769 0,-2.496769 2.023399,-4.520795 4.519402,-4.520795 2.495974,0 4.519393,2.024026 4.519393,4.520795 z"
         style="display:inline;fill:none;fill-opacity:1;stroke:#7f7f7f;stroke-width:0.500077;stroke-linecap:round;stroke-linejoin:round;stroke-dasharray:none;stroke-dashoffset:0;stroke-opacity:1;paint-order:normal"
         id="path1-0-0-0" />
      <path
         d="m 118.55008,17.692148 c 0,2.496744 2.02342,4.520769 4.51939,4.520769 2.49601,0 4.51941,-2.024025 4.51941,-4.520769 0,-2.49677 -2.0234,-4.520797 -4.51941,-4.520797 -2.49597,0 -4.51939,2.024027 -4.51939,4.520797 z"
         style="display:inline;fill:none;fill-opacity:1;stroke:#7f7f7f;stroke-width:0.500077;stroke-linecap:round;stroke-linejoin:round;stroke-dasharray:none;stroke-dashoffset:0;stroke-opacity:1;paint-order:normal"
         id="path1-0-0-06" />
      <path
         d="m 118.55008,33.096823 c 0,2.496744 2.02342,4.520769 4.51939,4.520769 2.49601,0 4.5194,-2.024025 4.5194,-4.520769 0,-2.49677 -2.02339,-4.520797 -4.5194,-4.520797 -2.49597,0 -4.51939,2.024027 -4.51939,4.520797 z"
         style="display:inline;fill:none;fill-opacity:1;stroke:#7f7f7f;stroke-width:0.500077;stroke-linecap:round;stroke-linejoin:round;stroke-dasharray:none;stroke-dashoffset:0;stroke-opacity:1;paint-order:normal"
         id="path1-0-0-06-6" />
      <path
         d="m 156.12959,17.692147 c 0,2.496743 2.02342,4.520769 4.5194,4.520769 2.496,0 4.5194,-2.024026 4.5194,-4.520769 0,-2.49677 -2.0234,-4.520796 -4.5194,-4.520796 -2.49598,0 -4.5194,2.024026 -4.5194,4.520796 z"
         style="display:inline;fill:none;fill-opacity:1;stroke:#7f7f7f;stroke-width:0.500077;stroke-linecap:round;stroke-linejoin:round;stroke-dasharray:none;stroke-dashoffset:0;stroke-opacity:1;paint-order:normal"
         id="path1-0-0-7-2" />
      <path
         d="m 156.12959,33.069825 c 0,2.496744 2.02342,4.520769 4.5194,4.520769 2.496,0 4.5194,-2.024025 4.5194,-4.520769 0,-2.496769 -2.0234,-4.520795 -4.5194,-4.520795 -2.49598,0 -4.5194,2.024026 -4.5194,4.520795 z"
         style="display:inline;fill:none;fill-opacity:1;stroke:#7f7f7f;stroke-width:0.500077;stroke-linecap:round;stroke-linejoin:round;stroke-dasharray:none;stroke-dashoffset:0;stroke-opacity:1;paint-order:normal"
         id="path1-0-0-3-0" />
      <path
         d="m 170.15469,25.165067 c 0,2.496744 2.02342,4.520769 4.5194,4.520769 2.496,0 4.5194,-2.024025 4.5194,-4.520769 0,-2.496769 -2.0234,-4.520795 -4.5194,-4.520795 -2.49598,0 -4.5194,2.024026 -4.5194,4.520795 z"
         style="display:inline;fill:none;fill-opacity:1;stroke:#7f7f7f;stroke-width:0.500077;stroke-linecap:round;stroke-linejoin:round;stroke-dasharray:none;stroke-dashoffset:0;stroke-opacity:1;paint-order:normal"
         id="path1-0-0-0-6" />
    </g>
  </g>
</svg>
