<?xml version="1.0" encoding="UTF-8" standalone="no"?>
<!-- Created with Inkscape (http://www.inkscape.org/) -->

<svg
   version="1.1"
   id="svg1"
   width="826.91217"
   height="247.511"
   viewBox="0 0 826.91211 247.51099"
   sodipodi:docname="navi.fr.svg"
   inkscape:version="1.4.2 (ebf0e940d0, 2025-05-08)"
   xml:space="preserve"
   xmlns:inkscape="http://www.inkscape.org/namespaces/inkscape"
   xmlns:sodipodi="http://sodipodi.sourceforge.net/DTD/sodipodi-0.dtd"
   xmlns:xlink="http://www.w3.org/1999/xlink"
   xmlns="http://www.w3.org/2000/svg"
   xmlns:svg="http://www.w3.org/2000/svg">
   <defs
   id="defs1">
   <linearGradient
   id="gradactivated">
     <stop
   offset="0%"
   stop-color="#06ebffff"
   id="stop1" />
     <stop
   offset="70%"
   stop-color="#55e6e7ff"
   id="stop2" />
     <stop
   offset="90%"
   stop-color="#31cbccff"
   id="stop3" />
   </linearGradient>
   <linearGradient
   id="gradactivatedinvert">
     <stop
   offset="5%"
   stop-color="#31cbccff"
   id="stop4" />
     <stop
   offset="20%"
   stop-color="#55e6e7ff"
   id="stop5" />
     <stop
   offset="40%"
   stop-color="#06ebffff"
   id="stop6" />
   </linearGradient>
   <linearGradient
   id="linearGradient25"
   inkscape:collect="always"><stop
     style="stop-color:#aff3f4;stop-opacity:1;"
     offset="0"
     id="stop23" /><stop
     style="stop-color:#55e6e7;stop-opacity:1;"
     offset="0.5"
     id="stop24" /><stop
     style="stop-color:#28b2b3;stop-opacity:1;"
     offset="1"
     id="stop25" /></linearGradient><linearGradient
   id="linearGradient65"
   inkscape:collect="always"
   inkscape:label="Invis"><stop
     style="stop-color:#293030;stop-opacity:1;"
     offset="0"
     id="stop62" /><stop
     style="stop-color:#000000;stop-opacity:0;"
     offset="0.29889607"
     id="stop63" /><stop
     style="stop-color:#000000;stop-opacity:0;"
     offset="0.78067958"
     id="stop64" /><stop
     style="stop-color:#293030;stop-opacity:1;"
     offset="1"
     id="stop65" /></linearGradient><inkscape:path-effect
   effect="mirror_symmetry"
   start_point="885.54305,556.20141"
   end_point="885.54305,978.98293"
   center_point="885.54305,767.59217"
   id="path-effect21"
   is_visible="true"
   lpeversion="1.2"
   lpesatellites=""
   mode="vertical"
   discard_orig_path="false"
   fuse_paths="false"
   oposite_fuse="false"
   split_items="true"
   split_open="false"
   link_styles="false" /><inkscape:path-effect
   effect="mirror_symmetry"
   start_point="885.54305,556.20141"
   end_point="885.54305,978.98293"
   center_point="885.54305,767.59217"
   id="path-effect110"
   is_visible="true"
   lpeversion="1.2"
   lpesatellites=""
   mode="vertical"
   discard_orig_path="false"
   fuse_paths="false"
   oposite_fuse="false"
   split_items="true"
   split_open="false"
   link_styles="true" /><linearGradient
   id="swatch84"
   inkscape:swatch="solid"><stop
     style="stop-color:#dccdb9;stop-opacity:1;"
     offset="0"
     id="stop85" /></linearGradient><linearGradient
   id="linearGradient70"
   inkscape:collect="always"
   inkscape:label="Ruban-invert"><stop
     style="stop-color:#eee8d5;stop-opacity:1;"
     offset="0"
     id="stop67" /><stop
     style="stop-color:#839496;stop-opacity:1;"
     offset="0.5"
     id="stop68" /><stop
     style="stop-color:#839496;stop-opacity:1;"
     offset="0.5"
     id="stop69" /><stop
     style="stop-color:#ede5d6;stop-opacity:1;"
     offset="1"
     id="stop70" /></linearGradient><linearGradient
   id="linearGradient29"
   inkscape:collect="always"
   inkscape:label="Ruban"><stop
     style="stop-color:#839496;stop-opacity:1;"
     offset="0"
     id="stop26" /><stop
     style="stop-color:#fdf6e3;stop-opacity:1;"
     offset="0.16927388"
     id="stop27" /><stop
     style="stop-color:#fdf6e3;stop-opacity:1;"
     offset="0.78067958"
     id="stop28" /><stop
     style="stop-color:#839496;stop-opacity:1;"
     offset="1"
     id="stop29" /></linearGradient><linearGradient
   id="linearGradient10"
   inkscape:collect="always"
   inkscape:label="Mono"><stop
     style="stop-color:#839496;stop-opacity:1;"
     offset="0"
     id="stop10" /><stop
     style="stop-color:#fdf6e3;stop-opacity:1;"
     offset="0.53019869"
     id="stop14" /><stop
     style="stop-color:#fdf6e3;stop-opacity:1;"
     offset="0.85085946"
     id="stop17" /><stop
     style="stop-color:#839496;stop-opacity:1;"
     offset="1"
     id="stop12" /></linearGradient><inkscape:path-effect
   effect="mirror_symmetry"
   start_point="959.67865,381.53983"
   end_point="959.67865,1045.6677"
   center_point="959.67865,713.60375"
   id="path-effect11"
   is_visible="true"
   lpeversion="1.2"
   lpesatellites=""
   mode="vertical"
   discard_orig_path="false"
   fuse_paths="false"
   oposite_fuse="false"
   split_items="false"
   split_open="false"
   link_styles="false" /><filter
   style="color-interpolation-filters:sRGB"
   inkscape:label="Specular Light"
   id="filter833"
   x="0"
   y="0"
   width="1"
   height="1"><feComposite
     id="feComposite916"
     in="composite1"
     in2="fbSourceGraphicAlpha"
     operator="in"
     result="composite2" /></filter><clipPath
   id="clip-0"><path
     clip-rule="nonzero"
     d="m 97,178 h 66 v 60.36719 H 97 Z m 0,0"
     id="path1-30" /></clipPath><clipPath
   id="clip-1"><path
     clip-rule="nonzero"
     d="m 92,173 h 68 v 65.36719 H 92 Z m 0,0"
     id="path2" /></clipPath><clipPath
   id="clip-2"><path
     clip-rule="nonzero"
     d="m 87,170 h 69 v 68.36719 H 87 Z m 0,0"
     id="path3" /></clipPath><clipPath
   id="clip-3"><path
     clip-rule="nonzero"
     d="M 48,0 H 323 V 238.36719 H 48 Z m 0,0"
     id="path4" /></clipPath><clipPath
   id="clip-4"><path
     clip-rule="nonzero"
     d="M 43,0 H 323.53125 V 219 H 43 Z m 0,0"
     id="path5-4" /></clipPath><linearGradient
   inkscape:collect="always"
   xlink:href="#linearGradient29"
   id="linearGradient288"
   gradientUnits="userSpaceOnUse"
   x1="680.12012"
   y1="868.8009"
   x2="770.3924"
   y2="850.37195" /><linearGradient
   inkscape:collect="always"
   xlink:href="#linearGradient29"
   id="linearGradient289"
   gradientUnits="userSpaceOnUse"
   x1="227.8248"
   y1="800.18054"
   x2="264.82877"
   y2="789.35388" /><linearGradient
   inkscape:collect="always"
   xlink:href="#linearGradient70"
   id="linearGradient290"
   gradientUnits="userSpaceOnUse"
   x1="690.94885"
   y1="887.04614"
   x2="696.74048"
   y2="895.3175" /><linearGradient
   inkscape:collect="always"
   xlink:href="#linearGradient29"
   id="linearGradient292"
   gradientUnits="userSpaceOnUse"
   x1="501.87134"
   y1="900.54877"
   x2="534.77423"
   y2="893.64117" /><linearGradient
   inkscape:collect="always"
   xlink:href="#linearGradient70"
   id="linearGradient293"
   gradientUnits="userSpaceOnUse"
   x1="498.85876"
   y1="906.19379"
   x2="534.99994"
   y2="906.19379" /><linearGradient
   inkscape:collect="always"
   xlink:href="#linearGradient29"
   id="linearGradient294"
   gradientUnits="userSpaceOnUse"
   x1="451.1243"
   y1="945.87927"
   x2="546.97437"
   y2="916.50043" /><linearGradient
   inkscape:collect="always"
   xlink:href="#linearGradient10"
   id="linearGradient295"
   gradientUnits="userSpaceOnUse"
   x1="425.63275"
   y1="792.74152"
   x2="425.63275"
   y2="870.86261" /><linearGradient
   inkscape:collect="always"
   xlink:href="#linearGradient29"
   id="linearGradient296"
   gradientUnits="userSpaceOnUse"
   x1="428.30341"
   y1="844.16107"
   x2="485.13605"
   y2="831.68927" /><linearGradient
   inkscape:collect="always"
   xlink:href="#linearGradient29"
   id="linearGradient297"
   gradientUnits="userSpaceOnUse"
   x1="480.34689"
   y1="861.08795"
   x2="450.27386"
   y2="868.65259" /><linearGradient
   inkscape:collect="always"
   xlink:href="#linearGradient10"
   id="linearGradient298"
   gradientUnits="userSpaceOnUse"
   x1="474.17105"
   y1="865.90222"
   x2="474.17105"
   y2="852.3808" /><linearGradient
   inkscape:collect="always"
   xlink:href="#linearGradient29"
   id="linearGradient300"
   gradientUnits="userSpaceOnUse"
   x1="172.13622"
   y1="818.40424"
   x2="283.85205"
   y2="767.99573" /><linearGradient
   inkscape:collect="always"
   xlink:href="#linearGradient29"
   id="linearGradient301"
   gradientUnits="userSpaceOnUse"
   x1="229.28174"
   y1="779.7392"
   x2="233.70825"
   y2="788.72821" /><linearGradient
   inkscape:collect="always"
   xlink:href="#linearGradient29"
   id="linearGradient302"
   gradientUnits="userSpaceOnUse"
   x1="203.61679"
   y1="850.52484"
   x2="283.85205"
   y2="795.22382" /><linearGradient
   inkscape:collect="always"
   xlink:href="#linearGradient29"
   id="linearGradient15"
   gradientUnits="userSpaceOnUse"
   gradientTransform="translate(0.00557803,0.1704864)"
   x1="166.05858"
   y1="974.71606"
   x2="460.96414"
   y2="937.17102" /><linearGradient
   inkscape:collect="always"
   xlink:href="#linearGradient65"
   id="linearGradient17"
   gradientUnits="userSpaceOnUse"
   gradientTransform="translate(0.00551503,0.1704764)"
   x1="198.96793"
   y1="958.57361"
   x2="479.9389"
   y2="955.07446" /><linearGradient
   inkscape:collect="always"
   xlink:href="#linearGradient29"
   id="linearGradient19"
   gradientUnits="userSpaceOnUse"
   gradientTransform="translate(5.5e-5,3.5e-5)"
   x1="488.34845"
   y1="958.35809"
   x2="719.70856"
   y2="916.50043" /><linearGradient
   inkscape:collect="always"
   xlink:href="#linearGradient29"
   id="linearGradient20"
   gradientUnits="userSpaceOnUse"
   gradientTransform="translate(0.191095,4.5e-5)"
   x1="488.34845"
   y1="958.35809"
   x2="719.70856"
   y2="916.50043" /><linearGradient
   inkscape:collect="always"
   xlink:href="#linearGradient25"
   id="linearGradient12"
   gradientUnits="userSpaceOnUse"
   x1="752.08173"
   y1="255.50877"
   x2="924.58868"
   y2="428.01981"
   gradientTransform="matrix(3.7044926,0,0,3.7044926,-2709.5491,-618.28682)" /><filter
   inkscape:collect="always"
   style="color-interpolation-filters:sRGB"
   id="filter137-0"
   x="-0.027783892"
   y="-0.029805399"
   width="1.0555678"
   height="1.0596108"><feGaussianBlur
     inkscape:collect="always"
     stdDeviation="0.020770636"
     id="feGaussianBlur137-2" /></filter><linearGradient
   inkscape:collect="always"
   xlink:href="#linearGradient98"
   id="linearGradient3"
   gradientUnits="userSpaceOnUse"
   x1="59.983517"
   y1="245.55676"
   x2="61.977703"
   y2="247.42932" /><linearGradient
   id="linearGradient98"
   inkscape:collect="always"><stop
     style="stop-color:#000000;stop-opacity:1;"
     offset="0.27845281"
     id="stop111" /><stop
     style="stop-color:#7f80ff;stop-opacity:1;"
     offset="0.59754825"
     id="stop115" /></linearGradient><filter
   inkscape:collect="always"
   style="color-interpolation-filters:sRGB"
   id="filter136-8"
   x="-0.027783892"
   y="-0.029805399"
   width="1.0555678"
   height="1.0596108"><feGaussianBlur
     inkscape:collect="always"
     stdDeviation="0.020770636"
     id="feGaussianBlur136-5" /></filter><linearGradient
   id="linearGradient4"
   inkscape:collect="always"
   gradientTransform="scale(0.96366591,1.037704)"
   x1="62.791348"
   y1="230.90146"
   x2="67.17897"
   y2="230.90146"
   gradientUnits="userSpaceOnUse"><stop
     style="stop-color:#000000;stop-opacity:1;"
     offset="0.27845281"
     id="stop1-7" /><stop
     style="stop-color:#7f80ff;stop-opacity:1;"
     offset="0.59754825"
     id="stop2-5" /></linearGradient><filter
   inkscape:collect="always"
   style="color-interpolation-filters:sRGB"
   id="filter139-7"
   x="-0.01178977"
   y="-0.010948593"
   width="1.0235795"
   height="1.0218972"><feGaussianBlur
     inkscape:collect="always"
     stdDeviation="0.020770636"
     id="feGaussianBlur139-4" /></filter><linearGradient
   inkscape:collect="always"
   xlink:href="#linearGradient96"
   id="linearGradient5"
   gradientUnits="userSpaceOnUse"
   x1="60.509884"
   y1="244.16043"
   x2="64.738083"
   y2="239.60738" /><linearGradient
   id="linearGradient96"
   inkscape:collect="always"><stop
     style="stop-color:#000000;stop-opacity:1;"
     offset="0"
     id="stop145" /><stop
     style="stop-color:#7f80ff;stop-opacity:1;"
     offset="0.5"
     id="stop146" /></linearGradient><filter
   inkscape:collect="always"
   style="color-interpolation-filters:sRGB"
   id="filter139-7-7"
   x="-0.018380813"
   y="-0.017069379"
   width="1.0367616"
   height="1.0341388"><feGaussianBlur
     inkscape:collect="always"
     stdDeviation="0.03238241"
     id="feGaussianBlur139-4-3" /></filter><filter
   inkscape:collect="always"
   style="color-interpolation-filters:sRGB"
   id="filter7"
   x="-0.1309745"
   y="-0.1309746"
   width="1.261949"
   height="1.2619492"><feGaussianBlur
     inkscape:collect="always"
     stdDeviation="0.5133294"
     id="feGaussianBlur7" /></filter><linearGradient
   inkscape:collect="always"
   xlink:href="#linearGradient112"
   id="linearGradient1"
   gradientUnits="userSpaceOnUse"
   x1="167.34271"
   y1="240.94127"
   x2="179.59109"
   y2="240.94127" /><linearGradient
   id="linearGradient112"
   inkscape:collect="always"><stop
     style="stop-color:#000000;stop-opacity:1;"
     offset="0"
     id="stop112" /><stop
     style="stop-color:#ffffff;stop-opacity:1;"
     offset="0.20982459"
     id="stop114" /><stop
     style="stop-color:#ffffff;stop-opacity:1;"
     offset="0.68078935"
     id="stop113" /><stop
     style="stop-color:#000000;stop-opacity:1;"
     offset="1"
     id="stop109" /></linearGradient><linearGradient
   inkscape:collect="always"
   xlink:href="#linearGradient121"
   id="linearGradient119-0"
   x1="170.1841"
   y1="245.07924"
   x2="171.94218"
   y2="247.59004"
   gradientUnits="userSpaceOnUse" /><linearGradient
   id="linearGradient121"
   inkscape:collect="always"><stop
     style="stop-color:#ffffff;stop-opacity:1;"
     offset="0"
     id="stop121" /><stop
     style="stop-color:#7f7f7f;stop-opacity:1;"
     offset="1"
     id="stop120" /></linearGradient><linearGradient
   inkscape:collect="always"
   xlink:href="#linearGradient121"
   id="linearGradient24"
   gradientUnits="userSpaceOnUse"
   gradientTransform="matrix(0.74443145,0,0,0.69110011,-303.13729,76.289432)"
   x1="170.1841"
   y1="245.07924"
   x2="171.94218"
   y2="247.59004" /><linearGradient
   inkscape:collect="always"
   xlink:href="#linearGradient98"
   id="linearGradient6"
   gradientUnits="userSpaceOnUse"
   x1="59.983517"
   y1="245.55676"
   x2="61.977703"
   y2="247.42932" /></defs><sodipodi:namedview
   id="namedview1"
   pagecolor="#505050"
   bordercolor="#ffffff"
   borderopacity="1"
   inkscape:showpageshadow="0"
   inkscape:pageopacity="0"
   inkscape:pagecheckerboard="1"
   inkscape:deskcolor="#505050"
   showguides="true"
   inkscape:zoom="1.0147694"
   inkscape:cx="399.10546"
   inkscape:cy="211.8708"
   inkscape:window-width="1280"
   inkscape:window-height="1409"
   inkscape:window-x="0"
   inkscape:window-y="0"
   inkscape:window-maximized="0"
   inkscape:current-layer="g53-9-2-1"
   showgrid="false" /><g
   inkscape:groupmode="layer"
   inkscape:label="Image"
   id="g1"
   transform="translate(105.07557,-14.354456)"><g
     id="g11"
     inkscape:label="Ruban.Left"
     transform="matrix(0.57954709,0,0,0.58543477,-204.83338,-311.26519)"
     style="display:inline"><path
       id="path1-84"
       style="display:inline;fill:#fdf6e3;fill-opacity:1;stroke:none;stroke-width:0.383745;stroke-dasharray:none;stroke-opacity:1"
       d="m 214.51961,815.52725 -0.003,61.52278 3.3465,0.2669 8.61057,0.69059 15.30358,1.19769 0.40104,0.0334 15.35075,0.53712 15.3339,0.53713 8.19606,0.29025 15.35075,0.40034 15.34739,0.38367 9.85413,0.24354 15.33728,0.61386 15.3339,0.63054 5.35507,0.2302 15.29009,1.35116 6.5009,0.63054 2.90839,0.3503 15.13507,2.51883 2.76347,0.46039 8.20279,1.47794 5.10569,0.91745 3.14766,0.22686 8.51622,0.6172 6.02571,-0.67725 6.02572,-0.67391 4.00367,-0.77066 -15.4249,-53.81284 1.41207,-6.67907 -2.08609,0.18683 -4.23957,0.38366 -4.2362,0.38367 c -7.57223,-0.009 -10.16069,-4.78085 -22.09971,-7.49509 -8.79711,-1.99995 -18.04522,-3.71112 -26.66206,-3.62565 L 339.25061,818.155 c -17.60687,-0.77832 -22.08534,-0.13965 -54.88046,-1.02365 -18.28601,-0.5132 -38.57338,0.25372 -69.85017,-1.60407 z"
       sodipodi:nodetypes="ccccccccccccccccccccccccccccccccsccccc" /><path
       id="rect106-2-5"
       style="display:inline;fill:none;fill-opacity:1;stroke-width:0.963411"
       d="M 647.47988,952.92981 H 518.52161 l -0.0962,-175.39094 h 128.95827 z"
       sodipodi:nodetypes="ccccc"
       inkscape:highlight-color="#00d4ff" /><path
       d="m 518.52161,886.04128 c 8.67594,-1.8762 17.41455,-2.5126 26.33258,-3.375 l 8.44238,-0.7982 15.33445,-0.614 14.81256,-0.5833 15.3498,-0.046 c 14.54365,-0.3866 29.05765,0.8014 43.59342,0.9977 l 4.95824,0.5886 2e-5,-62.01109 c 0,0 -51.51191,-1.5096 -64.39242,-1.5096 l -64.41009,0"
       style="fill:#fdf6e3;fill-opacity:1;stroke:none;stroke-width:0.383745;stroke-dasharray:none;stroke-opacity:1"
       id="path1-6"
       sodipodi:nodetypes="ccccccccccc" /><path
       id="rect106-4"
       style="display:inline;fill:none;fill-opacity:1;stroke-width:0.960337"
       d="m 740.47146,952.92981 h -92.99158 l -0.0962,-175.39093 92.99158,-10e-6 z"
       sodipodi:nodetypes="ccccc"
       inkscape:highlight-color="#00d4ff" /><path
       d="m 680.30872,838.71947 0.046,0.2456 c 0,0 8.17898,39.6831 10.93673,56.1496 l 2.33322,1.381 7.59427,0.9867 14.90081,1.2088 15.3498,0.1841 c 7.43902,0.083 14.85137,-0.9844 22.25721,-1.6577 5.1579,-1.3288 6.78212,-1.2121 11.94213,-2.5327 1.22081,-0.2756 2.32378,-0.9334 3.45371,-1.4583 l 4.32865,-8.8568 -2.10293,-10.3764 -8.93358,-10.7756 -12.51008,-8.9029 c -6.47553,-3.2971 -14.01067,-4.8486 -21.02923,-7.0149 l -15.0428,-3.1159 c -7.46882,-1.6554 -15.07863,-2.5567 -22.64095,-3.684 l -10.89836,-1.7806"
       style="fill:url(#linearGradient288);fill-opacity:1;stroke:none;stroke-width:0.383745;stroke-dasharray:none;stroke-opacity:1"
       id="path1-9"
       sodipodi:nodetypes="cccccccccccccccccc" /><path
       id="path1-8"
       d="m 225.10842,781.21281 c 3.04469,11.67797 6.90578,23.19368 10.28437,34.79802 m -10.28437,-34.90547 1.22798,0.4298 3.33091,2.25641 1.61172,0.6754 v 0 l 3.96025,1.67312 0.64469,0.23025 c 2.12869,0.28535 4.1501,0.5693 6.17062,0.85958 l 0.66004,0.0921 0.95169,-0.0614 c 2.05149,-0.12725 4.10298,-0.24666 6.15527,-0.3684 0.27651,-0.006 0.55269,-0.0307 0.82889,-0.046 l 4.46679,-1.39682 1.71918,-0.53725 2.47132,-3.423 0.39909,1.25868 c 2.62571,10.36218 5.25944,20.72233 7.8898,31.08336 l 0.87494,3.40764 c -10.87598,-0.22461 -21.75131,-0.71788 -32.61833,-1.19725 v 0 c -0.15454,0.009 -0.30693,-0.0208 -0.46048,-0.0307"
       style="fill:url(#linearGradient289);stroke:none;stroke-width:0.383745;stroke-dasharray:none;stroke-opacity:1"
       sodipodi:nodetypes="ccccccccccccccccccccccc" /><path
       d="m 629.92301,881.16167 2.82436,0.1075 8.33494,0.307 h 0.1535 l 1.15124,0.046 m -9.62433,-0.3377 8.39633,0.4144 15.24236,1.8113 4.86588,0.5833 13.35433,2.9164 7.78234,2.9779 3.08532,2.3486 0.96703,4.083 2.54807,1.3047 8.35029,1.1206 15.44189,1.0745 15.34981,0.2148 3.8835,0.061 15.28839,-1.3201 3.49975,-0.307 14.88931,-3.7606 c -10.00646,2.2122 -20.21877,3.4118 -30.61731,4.0239 l -3.62046,0.0441 -15.3498,-0.1841 -14.90081,-1.2088 -7.59427,-0.9867 -2.29479,-1.3815 -0.59097,-3.423 -0.3684,-0.2302 -3.68395,-2.3486 -1.41218,-0.4605 -0.73679,-0.2302 -6.63112,-2.1489 -14.42881,-2.6402 -5.81757,-0.5526 -15.27304,-1.4582"
       style="fill:url(#linearGradient290);fill-opacity:1;stroke:none;stroke-width:0.383745;stroke-dasharray:none;stroke-opacity:1"
       id="path1-92"
       sodipodi:nodetypes="cccccccccccccccccccccccccccccccccccc" /><path
       id="rect106-9-2"
       style="display:inline;fill:none;fill-opacity:1;stroke-width:0.963411"
       d="m 441.22271,952.9298 77.2989,0.25112 -0.0962,-175.39093 -77.2989,-0.25112 z"
       sodipodi:nodetypes="ccccc"
       inkscape:highlight-color="#00d4ff" /><path
       d="m 528.26129,884.14727 6.73857,32.1732 -4.99636,-1.8421 -6.7002,-1.3814 -7.21439,-1.5734 -5.63338,-2.0032 -3.71465,-2.6094 -1.99548,-3.3155 -0.89028,-4.06 c 0.0701,-1.522 0.14352,-3.0438 0.21489,-4.5667 0.79706,-1.2828 1.60202,-2.5614 2.40992,-3.8374 l 0.46049,-0.7674 c 0.68903,-0.3596 2.82767,-1.5272 5.54129,-2.9012 4.89416,-1.32908 10.44539,-2.25585 15.77958,-3.3155 z"
       style="fill:url(#linearGradient292);stroke:none;stroke-width:0.230247;stroke-dasharray:none;stroke-opacity:1"
       id="path1-1"
       sodipodi:nodetypes="cccccccccccccc" /><path
       d="m 534.99986,916.32047 -1.15124,2.9624 -7.5214,4.4668 -2.36387,1.1283 5.89432,-4.275 0.2763,-3.4076 -2.21038,-1.1052 -2.22571,-1.2433 -0.47584,-0.1535 -1.38149,-0.3992 -3.00856,-0.8595 -1.76523,-0.5065 -0.0921,-0.015 -4.02165,-1.0285 -0.35305,-0.092 -2.48666,-0.6294 -0.13815,-0.061 -1.32009,-0.4605 v 0 l -2.19501,-0.7676 -1.93408,-0.6753 -3.83745,-2.3025 c -0.34986,-0.2176 -0.58983,-0.5957 -0.85959,-0.9056 l -1.78057,-2.0263 -1.18961,-3.5227 0.37607,-4.1674 3.16205,-3.8222 0.50655,-0.614 c 2.83053,-1.4243 6.06331,-2.8755 9.325,-4.3286 l -0.95936,0.568 -0.2149,0.1073 -0.1842,0.092 -1.42753,0.7675 -0.30699,0.1535 -1.84198,0.9824 -0.35305,0.1842 -0.46049,0.7675 -0.13815,0.1995 -0.0921,0.1535 -0.046,0.077 -0.0153,0.031 -0.67539,1.0745 -0.79819,1.274 -0.42979,0.6754 -0.2149,0.353 -0.0921,1.9648 -0.0614,1.1359 v 0.3991 l -0.046,0.6139 v 0.077 l -0.0154,0.3762 0.89029,4.06 1.99547,3.3156 3.71466,2.6094 5.63338,1.9955 m 18.91095,4.8045 -4.63564,-1.7653 -0.72145,-0.1535 -6.33947,-1.3047 -7.21439,-1.5657"
       style="fill:url(#linearGradient293);stroke:none;stroke-width:0.383745;stroke-dasharray:none;stroke-opacity:1"
       id="path1-2"
       sodipodi:nodetypes="cccccccccccccccccccccccccccccccccccccccccccccccccccccccccccc" /><path
       d="m 523.90195,924.93157 5.95572,-4.3286 0.2763,-3.4076 c -2.75907,-1.2777 -3.74172,-2.1245 -4.91193,-2.502 l -1.38149,-0.3992 -2.87041,-0.8135 c -0.62716,-0.2075 -1.26783,-0.3727 -1.90338,-0.5525 -1.37425,-0.3324 -2.74345,-0.6935 -4.11374,-1.0439 -0.94529,-0.2454 -1.89292,-0.4818 -2.83971,-0.7214 -0.47629,-0.1979 -0.97115,-0.352 -1.45824,-0.5219 v 0 l -2.19501,-0.7675 -1.93408,-0.6754 -3.83745,-2.3025 c -0.94544,-0.9018 -1.77394,-1.946 -2.64016,-2.9318 l -1.18194,-3.5151 -0.0614,-0.3223 -0.10744,-0.5679 -0.95168,-5.1115 -0.38375,-1.9955 c -0.92601,-5.3323 -2.04751,-10.6229 -3.16207,-15.9177 l -1.48125,-7.0379 -6.77693,1.1742 -11.77329,-0.4758 -2.56343,-0.1074 -12.63288,-3.4845 -2.88576,-0.7982 -13.58458,-7.1223 c -2.58847,-1.489 -4.61144,-3.9384 -6.7846,-5.9864 l -5.09613,-4.7584 -4.85055,-12.3335 2.17968,7.3294 0.35305,1.2281 c 4.91302,17.1687 9.85796,34.3284 14.7665,51.4985 l 3.68395,12.7096 9.25593,10.7449 13.04733,7.9511 c 5.01883,1.44983 10.04109,2.88828 15.05815,4.344 l 15.3191,0.307 13.84552,-2.6708 10.74485,-4.2211"
       style="fill:url(#linearGradient294);stroke:none;stroke-width:0.383745;stroke-dasharray:none;stroke-opacity:1"
       id="path1-15"
       sodipodi:nodetypes="ccccccccccccccccccccccccccccccccccccccccc" /><path
       d="m 485.9419,870.67007 -11.77329,-0.4758 -2.56342,-0.1074 -12.63288,-3.4845 -2.88577,-0.7982 -13.58457,-7.1223 c -2.59536,-1.48583 -4.61389,-3.9407 -6.78461,-5.9864 l -5.09613,-4.7584 -4.78914,-12.3873 c 0.92424,-4.4663 1.82972,-8.93258 2.74762,-13.40038 l 8.19679,-12.77105 10.45321,-10.19225 9.51688,-5.60268 4.15212,-0.65237 -10.0004,5.79455 -10.49926,10.14622 -7.78234,12.57152 c -0.71308,4.34797 -1.41495,8.69774 -2.11828,13.04734 l 0.3991,1.4582 c 7.16815,17.5179 -3.91724,-9.49059 4.26724,10.4532 l 0.0307,0.077 c 7.12371,7.1237 9.52236,9.5383 10.33041,10.3611 l 0.1228,0.077 0.87494,0.4605 0.52189,0.307 c 1.98546,1.1157 3.97508,2.2221 5.95572,3.3462 2.55038,1.2934 5.09801,2.5163 7.8284,3.991 l 3.26951,0.9517 2.45597,0.7368 1.15123,0.3377 2.65552,0.7829 c 1.2756,0.3734 2.54948,0.7527 3.8221,1.1358 l 0.56794,0.031 13.17013,0.6139 4.55889,-0.8135 0.18419,0.4145 0.0537,0.284 z"
       style="fill:url(#linearGradient295);fill-opacity:1;stroke:none;stroke-width:0.383745;stroke-dasharray:none;stroke-opacity:1"
       id="path1-91"
       sodipodi:nodetypes="cccccccccccccccccccccccccccccccccccccc" /><path
       d="m 466.75465,858.31417 c 3.02136,-1.90168 6.02616,-3.82903 9.04104,-5.7408 l 5.91389,-0.015 -2.26793,-10.3769 -3.43836,-14.90466 -3.43835,-14.91994 -3.33091,-14.85864 -2.33317,-4.57424 -6.53133,0.008 -9.47122,5.79476 -10.49926,10.14622 -7.78234,12.57144 c -0.67242,4.34562 -1.45629,8.67206 -2.22573,13.00116 1.45447,4.0346 3.14499,7.9882 4.77379,11.9573 l 0.0307,0.077 0.3377,0.3377 c 3.32723,3.3448 6.67494,6.6686 9.99271,10.0234 l 0.1228,0.077 c 4.8914,2.5744 12.62704,7.3948 14.93536,8.0593 2.05733,-2.2201 4.11844,-4.4373 6.17061,-6.6618 z"
       style="fill:url(#linearGradient296);fill-opacity:1;stroke:none;stroke-width:0.383745;stroke-dasharray:none;stroke-opacity:1"
       id="path1-59"
       sodipodi:nodetypes="ccccccccccccccccccccc" /><path
       d="m 478.6047,858.43627 -1.62708,7.3603 -2.11828,3.1851 -0.67538,-0.015 -0.35305,-0.1075 c -1.14714,-0.3471 -10.72538,-3.1489 -13.24688,-3.8828 1e-5,9e-4 6.17062,-6.6622 6.17062,-6.6622 2.5137,-1.56952 4.99601,-3.18669 7.48303,-4.7971 0.8533,-0.016 1.7043,0.04 2.55574,0.084 l 1.81128,4.8352"
       style="fill:url(#linearGradient297);fill-opacity:1;stroke:none;stroke-width:0.383745;stroke-dasharray:none;stroke-opacity:1"
       id="path1-3"
       sodipodi:nodetypes="cccccccccc" /><path
       d="m 475.79569,852.57267 h 5.89432 l 1.53498,4.5512 -5.75617,7.9282 -0.4912,0.7445 1.62708,-7.3603 m 0,0 -1.81128,-4.8352 -0.82889,-0.046 -0.69074,-0.031 -1.03611,-0.01 0.14582,-0.054 0.61399,-0.3838 c 0.25742,-0.1813 0.53231,-0.3377 0.7982,-0.5065"
       style="fill:url(#linearGradient298);fill-opacity:1;stroke:none;stroke-width:0.383745;stroke-dasharray:none;stroke-opacity:1"
       id="path1-94"
       sodipodi:nodetypes="cccccccccccccc" /><path
       d="m 259.24637,781.5505 -2.40992,3.3616 -1.71918,0.53725 -4.46679,1.39683 -0.76749,0.046 h -0.0614 l -1.74987,0.10745 1.19728,-0.33769 0.4605,-0.1535 1.16658,-0.3377 1.30473,-0.38374 0.614,-0.1842 0.1228,-0.046 0.29164,-0.47584 0.92099,-1.61173 0.10745,-0.1842 0.29165,-0.49119 -1.68848,-4.3747 -5.58733,-4.86588 -9.02568,-3.68396 -10.73718,-1.15891 -10.84463,2.2027 -10.28437,4.91194 -9.60898,6.66181 -8.99498,7.3679 -7.6749,7.1223 -3.10833,6.3318 4.65867,5.33406 0.87493,0.23024 0.81354,0.23025 2.87042,0.76749 1.35078,0.35304 4.31329,1.16659 5.57197,1.50425 1.07449,0.0921 1.64243,0.1535 1.61173,0.15351 0.81354,0.0767 0.69074,0.0614 0.76749,0.0767 10.28437,0.96704 1.84197,0.16884 10.14621,0.93636 0.5833,0.0614 0.59864,0.046 1.90338,0.0767 0.61399,0.0307 5.37242,0.21487 0.30701,0.0307 h 0.15349 v 0 l 2.08758,0.0921 h 0.38374 l 1.10518,0.046 0.61399,0.0307 0.61399,0.0307 h 0.15351 l 0.10745,0.0153 h 0.16884 l 0.55259,0.0153 h 0.0767 l 0.36839,0.0307 h 0.41445 l 0.4605,0.0307 h 0.18419 l 0.2763,0.0153 0.10745,0.0153 h 0.46049 l 0.85959,0.046 2.76296,0.10739 1.36613,0.0614 0.62934,0.0153 1.53499,0.0614 1.74987,0.0767 0.53725,0.0307 1.12053,0.046 0.3684,0.0153 h 0.0307 l 0.18419,0.0153 h 0.3377 l 2.17968,0.0921 0.82888,0.0307 h 0.0921 l 1.59638,0.0767 0.35305,0.0153 h 0.13815 l 0.76748,0.0307 0.1842,0.0153 h 0.0921 l 1.33543,0.0614 h 0.3377 l 1.21264,0.0614 h 0.23024 l 1.08984,0.046 1.35077,0.046 0.4912,0.0307 h 0.70609 l 15.39585,1.05908 -15.3498,-0.41439 -1.68847,-0.046 -3.37696,-0.10748 -6.87671,-0.24554 -15.3498,-0.53731 -0.4298,-0.0153 -5.24963,-0.18418 -9.31732,-0.32235 -1.01309,-0.0767 -15.30375,-1.21258 -15.30375,-1.19734 -1.21263,-0.29166 -14.93536,-3.53042 -1.25868,-0.307 -5.05008,-5.64873 3.49975,-6.73856 8.25819,-7.3679 9.94667,-7.59816 10.79091,-6.90741 11.35885,-5.20358 11.68119,-2.45596 11.52771,0.92099 10.10016,3.39231 7.21441,4.60494 2.85507,4.51283"
       style="fill:url(#linearGradient300);stroke:none;stroke-width:0.383745;stroke-dasharray:none;stroke-opacity:1"
       id="path1"
       sodipodi:nodetypes="ccccccccccccccccccccccccccccccccccccccccccccccccccccccccccccccccccccccccccccccccccccccccccccccccccccccccccccccccccccccccccc" /><path
       d="m 235.88397,786.37034 h 0.10746 l 3.9756,0.55259 -4.037,-1.38148 -0.62935,-0.69075 -0.70609,-0.76748 -1.36613,-1.48894 -1.25868,-1.28938 -0.52189,-0.53724 -0.56795,-0.56794 -1.04378,-0.4605 -1.64243,0.50654 -3.08531,0.8596 1.22798,0.4298 3.33091,2.25641 1.61172,0.6754 v 0 l 3.83745,1.78057 z"
       style="fill:url(#linearGradient301);stroke:none;stroke-width:0.383745;stroke-dasharray:none;stroke-opacity:1"
       id="path1-85"
       sodipodi:nodetypes="ccccccccccccccccccc" /><path
       d="m 242.05459,787.22992 0.66004,0.0921 0.95169,-0.0614 4.4054,-0.26094 1.19728,-0.3377 0.4605,-0.1535 1.16658,-0.3377 1.30473,-0.38373 0.61399,-0.18421 0.1228,-0.046 0.29165,-0.47584 0.92098,-1.61173 0.10745,-0.1842 0.29165,-0.49119 -1.68848,-4.3747 -5.58733,-4.86588 -9.02567,-3.68395 -10.73719,-1.15891 -10.84463,2.20269 -10.28437,4.91194 -9.60897,6.66181 -8.99498,7.3679 -7.6749,7.12231 -3.10834,6.3318 4.65867,5.33405 0.87494,0.23024 0.81353,0.23025 2.87042,0.76749 1.35078,0.35305 4.31329,1.16661 5.57198,1.50425 1.07449,0.0921 1.64242,0.1535 1.61173,0.15342 0.81355,0.0767 0.69074,0.0614 0.76748,0.0767 10.28437,0.96704 1.84197,0.16884 10.14622,0.93636 0.5833,0.0614 0.59864,0.046 1.90337,0.0767 0.61399,0.0307 5.37244,0.21496 -10.28437,-34.90547 3.08531,-0.8596 1.64243,-0.50654 1.04378,0.4605 0.56795,0.56794 0.52189,0.53724 1.25868,1.28938 1.36613,1.48894 0.70609,0.76748 0.62935,0.69074 4.037,1.38149 2.08756,0.30699"
       style="fill:url(#linearGradient302);stroke:none;stroke-width:0.383745;stroke-dasharray:none;stroke-opacity:1"
       id="path1-98"
       sodipodi:nodetypes="ccccccccccccccccccccccccccccccccccccccccccccccccccccccccc" /><path
       d="m 219.32136,815.52601 c -6.64575,-0.44762 -18.08812,-0.96141 -24.72839,-1.48093 l -17.40667,-4.12908 -5.05008,-5.64749 3.25416,15.0121 0.1535,0.7061 3.25415,14.9967 0.1535,0.7061 3.26951,14.9968 0.15349,0.7062 3.25416,14.9967 0.1535,0.7061 6.99951,5.572 c 6.12991,1.3702 12.2614,2.7336 18.38905,4.1137 l 7.99371,0.57508"
       style="display:inline;fill:url(#linearGradient15);stroke:none;stroke-width:0.383745;stroke-dasharray:none;stroke-opacity:1"
       id="path1-54"
       sodipodi:nodetypes="ccccccccccccccc" /><path
       d="m 416.69027,891.03871 8.518,0.6164 12.04959,-1.3507 4.0063,-0.7713 -1.41219,-5.0003 -1.07448,-3.73 -1.44288,-5.0193 -0.3684,-1.2587 -0.10744,-0.3837 -0.98239,-3.4231 -1.41218,-4.9426 -1.12054,-3.8835 -0.70608,-2.456 -0.046,-0.1995 -0.67539,-2.3332 -1.78058,-6.1553 -0.76748,-2.7323 -1.05914,-3.6839 v 0 l -0.35305,-1.228 -2.11827,-7.3832 0.82889,-4.0524 0.58329,-2.6247 -2.08758,0.1842 -8.47308,0.7674"
       style="display:inline;fill:url(#linearGradient17);stroke:none;stroke-width:0.383745;stroke-dasharray:none;stroke-opacity:1"
       id="path1-20"
       sodipodi:nodetypes="ccccccccccccccccccccccccc" /><path
       d="m 518.54255,818.69039 c -4.8949,0 -6.7214,0.9416 -10.0825,1.4098 -8.6412,1.4419 -15.3044,4.892 -22.5335,9.3634 l -1.581,4.45138 3.5611,14.93541 0.1535,0.6907 3.5612,14.9354 0.1535,0.6907 0.8135,3.8528 0.061,0.307 0.061,0.2917 1.4736,7.0301 0.4298,2.0416 1.1819,5.618 0.1075,0.5987 v 0.031 l 1.4429,7.6288 0.3837,1.9954 1.1052,5.9865 0.3837,-4.1598 3.1621,-3.8221 c 2.6674,-2.1787 6.3629,-3.3503 9.5245,-4.8275 -0.15651,0.0542 25.14077,-7.46964 82.54531,-7.46964"
       style="fill:url(#linearGradient19);fill-opacity:1;stroke:none;stroke-width:0.383745;stroke-dasharray:none;stroke-opacity:1"
       id="path1-0"
       sodipodi:nodetypes="ccccccccccccccccccccccc" /><path
       d="m 680.58423,839.08789 c -0.46961,-2.3856 -0.95071,-4.7689 -1.42753,-7.153 l -1.32008,-3.1314 -8.07399,-3.6532 -17.18712,-4.84984 h -11.58896 l -46.53599,59.96929 61.95085,3.24043 7.26706,0.12321 14.42881,2.6401 c 2.92224,0.9604 5.8557,1.8861 8.78008,2.8397 1.34943,0.8618 2.69988,1.7211 4.05236,2.578 -1.86831,-12.078 -4.16288,-24.1332 -10.34577,-52.60329 z"
       style="fill:url(#linearGradient20);fill-opacity:1;stroke:none;stroke-width:0.383745;stroke-dasharray:none;stroke-opacity:1"
       id="path1-7"
       sodipodi:nodetypes="cccccccccccccc" /></g><g
     transform="matrix(-0.57954709,0,0,0.58543477,821.59441,-311.26519)"
     id="g105"
     style="display:inline"
     inkscape:label="Ruban.Right"><path
       id="path103"
       style="fill:#fdf6e3;fill-opacity:1;stroke:none;stroke-width:0.383745;stroke-dasharray:none;stroke-opacity:1"
       d="m 214.51972,813.42315 c 31.27679,1.85779 51.04632,2.3638 69.33233,2.877 l 15.28722,0.47587 c 26.07411,0.70731 36.08196,0.65935 46.94196,0.31754 23.84278,0.17967 47.28117,4.17535 70.52241,8.92248 0,0 8.64408,-0.25986 8.56009,-0.0949 l 2.65016,-0.0337 -2.0432,9.71612 15.49347,53.92954 -4.00518,0.77164 -6.02572,0.67391 -6.02572,0.67725 -8.51621,-0.6172 -3.14767,-0.22686 -5.10568,-0.91745 -8.2028,-1.47794 -2.76347,-0.46039 -15.13507,-2.51883 -2.90838,-0.3503 -6.5009,-0.63054 -15.29009,-1.35116 -5.35508,-0.2302 -15.3339,-0.63054 -15.33727,-0.61386 -9.85414,-0.24354 -15.34738,-0.38367 -15.35076,-0.40034 -8.19605,-0.29025 -15.33727,-0.53713 -15.34739,-0.53712 -0.40104,-0.0334 -15.30357,-1.19769 -8.61058,-0.69059 -3.34649,-0.2669 z"
       sodipodi:nodetypes="ccccccccccccccccccccccccccccccccccc" /><path
       id="rect106-2"
       style="display:inline;fill:none;fill-opacity:1;stroke-width:0.963411"
       d="m 647.425,953.18092 -128.82349,-0.25342 0.0163,-175.39093 128.82349,0.25342 z"
       sodipodi:nodetypes="ccccc"
       inkscape:highlight-color="#00d4ff" /><path
       id="path101"
       d="m 518.52161,886.04128 c 8.67594,-1.8762 17.41455,-2.5126 26.33258,-3.375 l 8.44238,-0.7982 15.33445,-0.614 14.81256,-0.5833 15.3498,-0.046 c 14.54365,-0.3866 29.05765,0.8014 43.59342,0.9977 l 4.95824,0.5886 2e-5,-62.01109 c 0,0 -48.95968,-1.57355 -64.32366,-1.5096 -14.17108,0 -64.47885,0 -64.47885,0"
       style="display:inline;fill:#fdf6e3;fill-opacity:1;stroke:none;stroke-width:0.383745;stroke-dasharray:none;stroke-opacity:1"
       sodipodi:nodetypes="ccccccccccc" /><path
       id="rect106"
       style="display:inline;fill:none;fill-opacity:1;stroke-width:0.963411"
       d="m 740.33644,952.9298 -92.99138,0.25112 0.0962,-175.39093 92.99138,-0.25112 z"
       sodipodi:nodetypes="ccccc"
       inkscape:highlight-color="#00d4ff" /><path
       id="path40"
       d="m 680.30872,838.71947 0.046,0.2456 c 0,0 8.17898,39.6831 10.93673,56.1496 l 2.33322,1.381 7.59427,0.9867 14.90081,1.2088 15.3498,0.1841 c 7.43902,0.083 14.85137,-0.9844 22.25721,-1.6577 5.1579,-1.3288 6.78212,-1.2121 11.94213,-2.5327 1.22081,-0.2756 2.32378,-0.9334 3.45371,-1.4583 l 4.32865,-8.8568 -2.10293,-10.3764 -8.93358,-10.7756 -12.51008,-8.9029 c -6.47553,-3.2971 -14.01067,-4.8486 -21.02923,-7.0149 l -15.0428,-3.1159 c -7.46882,-1.6554 -15.07863,-2.5567 -22.64095,-3.684 l -10.89836,-1.7806"
       style="fill:url(#linearGradient288);fill-opacity:1;stroke:none;stroke-width:0.383745;stroke-dasharray:none;stroke-opacity:1" /><path
       id="path41"
       d="m 225.10842,781.21281 c 3.04469,11.67797 6.90578,23.19368 10.28437,34.79802 m -10.28437,-34.90547 1.22798,0.4298 3.33091,2.25641 1.61172,0.6754 v 0 l 3.96025,1.67312 0.64469,0.23025 c 2.12869,0.28535 4.1501,0.5693 6.17062,0.85958 l 0.66004,0.0921 0.95169,-0.0614 c 2.05149,-0.12725 4.10298,-0.24666 6.15527,-0.3684 0.27651,-0.006 0.55269,-0.0307 0.82889,-0.046 l 4.46679,-1.39682 1.71918,-0.53725 2.47132,-3.423 0.39909,1.25868 c 2.62571,10.36218 5.25944,20.72233 7.8898,31.08336 l 0.87494,3.40764 c -10.87598,-0.22461 -21.75131,-0.71788 -32.61833,-1.19725 v 0 c -0.15454,0.009 -0.30693,-0.0208 -0.46048,-0.0307"
       style="fill:url(#linearGradient289);stroke:none;stroke-width:0.383745;stroke-dasharray:none;stroke-opacity:1" /><path
       id="path42"
       d="m 629.92301,881.16167 2.82436,0.1075 8.33494,0.307 h 0.1535 l 1.15124,0.046 m -9.62433,-0.3377 8.39633,0.4144 15.24236,1.8113 4.86588,0.5833 13.35433,2.9164 7.78234,2.9779 3.08532,2.3486 0.96703,4.083 2.54807,1.3047 8.35029,1.1206 15.44189,1.0745 15.34981,0.2148 3.8835,0.061 15.28839,-1.3201 3.49975,-0.307 14.88931,-3.7606 c -10.00646,2.2122 -20.21877,3.4118 -30.61731,4.0239 l -3.62046,0.0441 -15.3498,-0.1841 -14.90081,-1.2088 -7.59427,-0.9867 -2.29479,-1.3815 -0.59097,-3.423 -0.3684,-0.2302 -3.68395,-2.3486 -1.41218,-0.4605 -0.73679,-0.2302 -6.63112,-2.1489 -14.42881,-2.6402 -5.81757,-0.5526 -15.27304,-1.4582"
       style="fill:url(#linearGradient290);fill-opacity:1;stroke:none;stroke-width:0.383745;stroke-dasharray:none;stroke-opacity:1" /><path
       id="rect106-9"
       style="display:inline;fill:none;fill-opacity:1;stroke-width:0.963411"
       d="m 1252.5245,952.9275 77.2989,0.25112 -0.096,-175.39093 -77.2989,-0.25103 z"
       sodipodi:nodetypes="ccccc"
       transform="matrix(-1,0,0,1,1771.0861,-6.8325288e-6)"
       inkscape:highlight-color="#00d4ff" /><path
       id="path43"
       d="m 528.26129,884.14727 6.73857,32.1732 -4.99636,-1.8421 -6.7002,-1.3814 -7.21439,-1.5734 -5.63338,-2.0032 -3.71465,-2.6094 -1.99548,-3.3155 -0.89028,-4.06 c 0.0701,-1.522 0.14352,-3.0438 0.21489,-4.5667 0.79706,-1.2828 1.60202,-2.5614 2.40992,-3.8374 l 0.46049,-0.7674 c 0.68903,-0.3596 2.82767,-1.5272 5.54129,-2.9012 4.89416,-1.32908 10.44539,-2.25585 15.77958,-3.3155 z"
       style="fill:url(#linearGradient292);stroke:none;stroke-width:0.230247;stroke-dasharray:none;stroke-opacity:1" /><path
       id="path91"
       d="m 534.99986,916.32047 -1.15124,2.9624 -7.5214,4.4668 -2.36387,1.1283 5.89432,-4.275 0.2763,-3.4076 -2.21038,-1.1052 -2.22571,-1.2433 -0.47584,-0.1535 -1.38149,-0.3992 -3.00856,-0.8595 -1.76523,-0.5065 -0.0921,-0.015 -4.02165,-1.0285 -0.35305,-0.092 -2.48666,-0.6294 -0.13815,-0.061 -1.32009,-0.4605 v 0 l -2.19501,-0.7676 -1.93408,-0.6753 -3.83745,-2.3025 c -0.34986,-0.2176 -0.58983,-0.5957 -0.85959,-0.9056 l -1.78057,-2.0263 -1.18961,-3.5227 0.37607,-4.1674 3.16205,-3.8222 0.50655,-0.614 c 2.83053,-1.4243 6.06331,-2.8755 9.325,-4.3286 l -0.95936,0.568 -0.2149,0.1073 -0.1842,0.092 -1.42753,0.7675 -0.30699,0.1535 -1.84198,0.9824 -0.35305,0.1842 -0.46049,0.7675 -0.13815,0.1995 -0.0921,0.1535 -0.046,0.077 -0.0153,0.031 -0.67539,1.0745 -0.79819,1.274 -0.42979,0.6754 -0.2149,0.353 -0.0921,1.9648 -0.0614,1.1359 v 0.3991 l -0.046,0.6139 v 0.077 l -0.0154,0.3762 0.89029,4.06 1.99547,3.3156 3.71466,2.6094 5.63338,1.9955 m 18.91095,4.8045 -4.63564,-1.7653 -0.72145,-0.1535 -6.33947,-1.3047 -7.21439,-1.5657"
       style="fill:url(#linearGradient293);stroke:none;stroke-width:0.383745;stroke-dasharray:none;stroke-opacity:1" /><path
       id="path92"
       d="m 523.90195,924.93157 5.95572,-4.3286 0.2763,-3.4076 c -2.75907,-1.2777 -3.74172,-2.1245 -4.91193,-2.502 l -1.38149,-0.3992 -2.87041,-0.8135 c -0.62716,-0.2075 -1.26783,-0.3727 -1.90338,-0.5525 -1.37425,-0.3324 -2.74345,-0.6935 -4.11374,-1.0439 -0.94529,-0.2454 -1.89292,-0.4818 -2.83971,-0.7214 -0.47629,-0.1979 -0.97115,-0.352 -1.45824,-0.5219 v 0 l -2.19501,-0.7675 -1.93408,-0.6754 -3.83745,-2.3025 c -0.94544,-0.9018 -1.77394,-1.946 -2.64016,-2.9318 l -1.18194,-3.5151 -0.0614,-0.3223 -0.10744,-0.5679 -0.95168,-5.1115 -0.38375,-1.9955 c -0.92601,-5.3323 -2.04751,-10.6229 -3.16207,-15.9177 l -1.48125,-7.0379 -6.77693,1.1742 -11.77329,-0.4758 -2.56343,-0.1074 -12.63288,-3.4845 -2.88576,-0.7982 -13.58458,-7.1223 c -2.58847,-1.489 -4.61144,-3.9384 -6.7846,-5.9864 l -5.09613,-4.7584 -4.85055,-12.3335 2.17968,7.3294 0.35305,1.2281 c 4.91302,17.1687 9.85796,34.3284 14.7665,51.4985 l 3.68395,12.7096 9.25593,10.7449 13.04733,7.9511 c 5.01883,1.44983 10.04109,2.88828 15.05815,4.344 l 15.3191,0.307 13.84552,-2.6708 10.74485,-4.2211"
       style="fill:url(#linearGradient294);stroke:none;stroke-width:0.383745;stroke-dasharray:none;stroke-opacity:1" /><path
       id="path93"
       d="m 485.9419,870.67007 -11.77329,-0.4758 -2.56342,-0.1074 -12.63288,-3.4845 -2.88577,-0.7982 -13.58457,-7.1223 c -2.59536,-1.48583 -4.61389,-3.9407 -6.78461,-5.9864 l -5.09613,-4.7584 -4.78914,-12.3873 c 0.92424,-4.4663 1.82972,-8.93258 2.74762,-13.40038 l 8.19679,-12.77105 10.45321,-10.19225 9.51688,-5.60268 4.15212,-0.65237 -10.0004,5.79455 -10.49926,10.14622 -7.78234,12.57152 c -0.71308,4.34797 -1.41495,8.69774 -2.11828,13.04734 l 0.3991,1.4582 c 7.16815,17.5179 -3.91724,-9.49059 4.26724,10.4532 l 0.0307,0.077 c 7.12371,7.1237 9.52236,9.5383 10.33041,10.3611 l 0.1228,0.077 0.87494,0.4605 0.52189,0.307 c 1.98546,1.1157 3.97508,2.2221 5.95572,3.3462 2.55038,1.2934 5.09801,2.5163 7.8284,3.991 l 3.26951,0.9517 2.45597,0.7368 1.15123,0.3377 2.65552,0.7829 c 1.2756,0.3734 2.54948,0.7527 3.8221,1.1358 l 0.56794,0.031 13.17013,0.6139 4.55889,-0.8135 0.18419,0.4145 0.0537,0.284 z"
       style="fill:url(#linearGradient295);fill-opacity:1;stroke:none;stroke-width:0.383745;stroke-dasharray:none;stroke-opacity:1" /><path
       id="path94"
       d="m 466.75465,858.31417 c 3.02136,-1.90168 6.02616,-3.82903 9.04104,-5.7408 l 5.91389,-0.015 -2.26793,-10.3769 -3.43836,-14.90466 -3.43835,-14.91994 -3.33091,-14.85864 -2.33317,-4.57424 -6.53133,0.008 -9.47122,5.79476 -10.49926,10.14622 -7.78234,12.57144 c -0.67242,4.34562 -1.45629,8.67206 -2.22573,13.00116 1.45447,4.0346 3.14499,7.9882 4.77379,11.9573 l 0.0307,0.077 0.3377,0.3377 c 3.32723,3.3448 6.67494,6.6686 9.99271,10.0234 l 0.1228,0.077 c 4.8914,2.5744 12.62704,7.3948 14.93536,8.0593 2.05733,-2.2201 4.11844,-4.4373 6.17061,-6.6618 z"
       style="fill:url(#linearGradient296);fill-opacity:1;stroke:none;stroke-width:0.383745;stroke-dasharray:none;stroke-opacity:1" /><path
       id="path95"
       d="m 478.6047,858.43627 -1.62708,7.3603 -2.11828,3.1851 -0.67538,-0.015 -0.35305,-0.1075 c -1.14714,-0.3471 -10.72538,-3.1489 -13.24688,-3.8828 1e-5,9e-4 6.17062,-6.6622 6.17062,-6.6622 2.5137,-1.56952 4.99601,-3.18669 7.48303,-4.7971 0.8533,-0.016 1.7043,0.04 2.55574,0.084 l 1.81128,4.8352"
       style="fill:url(#linearGradient297);fill-opacity:1;stroke:none;stroke-width:0.383745;stroke-dasharray:none;stroke-opacity:1" /><path
       id="path96"
       d="m 475.79569,852.57267 h 5.89432 l 1.53498,4.5512 -5.75617,7.9282 -0.4912,0.7445 1.62708,-7.3603 m 0,0 -1.81128,-4.8352 -0.82889,-0.046 -0.69074,-0.031 -1.03611,-0.01 0.14582,-0.054 0.61399,-0.3838 c 0.25742,-0.1813 0.53231,-0.3377 0.7982,-0.5065"
       style="fill:url(#linearGradient298);fill-opacity:1;stroke:none;stroke-width:0.383745;stroke-dasharray:none;stroke-opacity:1" /><path
       id="path97"
       d="m 259.24637,781.5505 -2.40992,3.3616 -1.71918,0.53725 -4.46679,1.39683 -0.76749,0.046 h -0.0614 l -1.74987,0.10745 1.19728,-0.33769 0.4605,-0.1535 1.16658,-0.3377 1.30473,-0.38374 0.614,-0.1842 0.1228,-0.046 0.29164,-0.47584 0.92099,-1.61173 0.10745,-0.1842 0.29165,-0.49119 -1.68848,-4.3747 -5.58733,-4.86588 -9.02568,-3.68396 -10.73718,-1.15891 -10.84463,2.2027 -10.28437,4.91194 -9.60898,6.66181 -8.99498,7.3679 -7.6749,7.1223 -3.10833,6.3318 4.65867,5.33406 0.87493,0.23024 0.81354,0.23025 2.87042,0.76749 1.35078,0.35304 4.31329,1.16659 5.57197,1.50425 1.07449,0.0921 1.64243,0.1535 1.61173,0.15351 0.81354,0.0767 0.69074,0.0614 0.76749,0.0767 10.28437,0.96704 1.84197,0.16884 10.14621,0.93636 0.5833,0.0614 0.59864,0.046 1.90338,0.0767 0.61399,0.0307 5.37242,0.21487 0.30701,0.0307 h 0.15349 v 0 c 6.23272,0.2529 12.46124,0.50163 18.696,0.76699 l 0.3684,0.0153 h 0.0307 l 0.18419,0.0153 h 0.3377 c 4.32579,-0.002 9.18157,0.31048 13.00133,0.39996 l 15.38045,1.16542 -15.3498,-0.41439 -1.68847,-0.046 -3.37696,-0.10748 -6.87671,-0.24554 -15.3498,-0.53731 -0.4298,-0.0153 -5.24963,-0.18418 -9.31732,-0.32235 -1.01309,-0.0767 -15.30375,-1.21258 -15.30375,-1.19734 -1.21263,-0.29166 -14.93536,-3.53042 -1.25868,-0.307 -5.05008,-5.64873 3.49975,-6.73856 8.25819,-7.3679 9.94667,-7.59816 10.79091,-6.90741 11.35885,-5.20358 11.68119,-2.45596 11.52771,0.92099 10.10016,3.39231 7.21441,4.60494 2.85507,4.51283"
       style="fill:url(#linearGradient300);stroke:none;stroke-width:0.383745;stroke-dasharray:none;stroke-opacity:1"
       sodipodi:nodetypes="ccccccccccccccccccccccccccccccccccccccccccccccccccccccccccccccccccccccccccccccccccc" /><path
       id="path98"
       d="m 235.88397,786.37034 h 0.10746 l 3.9756,0.55259 -4.037,-1.38148 -0.62935,-0.69075 -0.70609,-0.76748 -1.36613,-1.48894 -1.25868,-1.28938 -0.52189,-0.53724 -0.56795,-0.56794 -1.04378,-0.4605 -1.64243,0.50654 -3.08531,0.8596 1.22798,0.4298 3.33091,2.25641 1.61172,0.6754 v 0 l 3.83745,1.78057 z"
       style="fill:url(#linearGradient301);stroke:none;stroke-width:0.383745;stroke-dasharray:none;stroke-opacity:1" /><path
       id="path99"
       d="m 242.05459,787.22992 0.66004,0.0921 0.95169,-0.0614 4.4054,-0.26094 1.19728,-0.3377 0.4605,-0.1535 1.16658,-0.3377 1.30473,-0.38373 0.61399,-0.18421 0.1228,-0.046 0.29165,-0.47584 0.92098,-1.61173 0.10745,-0.1842 0.29165,-0.49119 -1.68848,-4.3747 -5.58733,-4.86588 -9.02567,-3.68395 -10.73719,-1.15891 -10.84463,2.20269 -10.28437,4.91194 -9.60897,6.66181 -8.99498,7.3679 -7.6749,7.12231 -3.10834,6.3318 4.65867,5.33405 0.87494,0.23024 0.81353,0.23025 2.87042,0.76749 1.35078,0.35305 4.31329,1.16661 5.57198,1.50425 1.07449,0.0921 1.64242,0.1535 1.61173,0.15342 0.81355,0.0767 0.69074,0.0614 0.76748,0.0767 10.28437,0.96704 1.84197,0.16884 10.14622,0.93636 0.5833,0.0614 0.59864,0.046 1.90337,0.0767 0.61399,0.0307 5.37244,0.21496 -10.28437,-34.90547 3.08531,-0.8596 1.64243,-0.50654 1.04378,0.4605 0.56795,0.56794 0.52189,0.53724 1.25868,1.28938 1.36613,1.48894 0.70609,0.76748 0.62935,0.69074 4.037,1.38149 2.08756,0.30699"
       style="fill:url(#linearGradient302);stroke:none;stroke-width:0.383745;stroke-dasharray:none;stroke-opacity:1" /><path
       id="path100"
       d="m 218.43642,815.65109 c -6.64575,-0.44762 -17.20318,-1.08649 -23.84345,-1.60601 l -17.40667,-4.12908 -5.05008,-5.64749 3.25416,15.0121 0.1535,0.7061 3.25415,14.9967 0.1535,0.7061 3.26951,14.9968 0.15349,0.7062 3.25416,14.9967 0.1535,0.7061 6.99951,5.572 c 6.12991,1.3702 12.2614,2.7336 18.38905,4.1137 l 7.26367,0.39348"
       style="display:inline;fill:url(#linearGradient15);stroke:none;stroke-width:0.383745;stroke-dasharray:none;stroke-opacity:1"
       sodipodi:nodetypes="ccccccccccccccc" /><path
       id="path102"
       d="m 416.69027,891.03871 8.518,0.6164 12.04959,-1.3507 4.0063,-0.7713 c -5.1595,-17.97811 -10.26135,-35.97202 -15.49347,-53.92954 v 0 l 1.7998,-8.52543 -2.40822,0.0454 -8.47308,0.7674"
       style="display:inline;fill:url(#linearGradient17);stroke:none;stroke-width:0.383745;stroke-dasharray:none;stroke-opacity:1"
       sodipodi:nodetypes="ccccccccc" /><path
       id="path104"
       d="m 518.54255,818.69039 c -4.7334,-0.002 -6.7214,0.9416 -10.0825,1.4098 -8.6412,1.4419 -15.3044,4.892 -22.5335,9.3634 l -1.581,4.45138 3.5611,14.93541 0.1535,0.6907 3.5612,14.9354 0.1535,0.6907 0.8135,3.8528 0.061,0.307 0.061,0.2917 1.4736,7.0301 0.4298,2.0416 1.1819,5.618 0.1075,0.5987 v 0.031 l 1.4429,7.6288 0.3837,1.9954 1.1052,5.9865 0.3837,-4.1598 3.1621,-3.8221 c 2.6674,-2.1787 6.3629,-3.3503 9.5245,-4.8275 2.2025,-0.6625 21.92649,-3.59211 37.17013,-5.4722"
       style="fill:url(#linearGradient19);fill-opacity:1;stroke:none;stroke-width:0.383745;stroke-dasharray:none;stroke-opacity:1"
       sodipodi:nodetypes="ccccccccccccccccccccccc" /><path
       id="path105"
       d="m 680.58423,839.08789 c -0.46961,-2.3856 -0.95071,-4.7689 -1.42753,-7.153 l -1.32008,-3.1314 -8.07399,-3.6532 -14.64372,-3.73 -7.77385,-1.2203 -17.42205,60.96168 27.92789,1.91901 5.81757,0.5527 14.42881,2.6401 c 2.92224,0.9604 5.8557,1.8861 8.78008,2.8397 1.34943,0.8618 2.69988,1.7211 4.05236,2.578 -1.86831,-12.078 -4.16288,-24.1332 -10.34577,-52.60329 z"
       style="fill:url(#linearGradient20);fill-opacity:1;stroke:none;stroke-width:0.383745;stroke-dasharray:none;stroke-opacity:1"
       sodipodi:nodetypes="cccccccccccccc" /></g><g
     id="g10"
     transform="matrix(0.38082028,0,0,0.38468907,157.79203,-111.98907)"
     inkscape:label="Fursona"><path
       id="path1-35"
       style="display:inline;fill:none;fill-opacity:1;stroke:none;stroke-width:0.377953;stroke-dasharray:none;stroke-opacity:1;filter:url(#filter833)"
       d="M 83.743627 26.440199 C 97.843613 29.040196 111.02907 38.949622 118.12905 51.449619 L 118.20489 51.409189 L 114.11797 58.977184 C 113.21911 60.741286 113.83481 62.959694 115.59891 63.858549 L 123.8807 68.31637 C 125.76509 82.529697 120.4156 98.131505 110.72143 108.74671 L 110.78366 108.80543 L 102.32198 107.25756 C 100.36645 106.94783 98.447543 108.21873 98.137819 110.17425 L 96.45754 119.42969 C 83.522172 125.614 67.030425 125.34606 53.939104 119.40659 L 53.902153 119.4836 L 52.760575 110.95877 C 52.450851 109.00325 50.648616 107.57065 48.693095 107.88037 L 39.371828 109.1433 C 29.492912 98.752043 24.652052 82.984495 26.255348 68.698523 L 26.169779 68.686972 L 33.924536 64.966507 C 35.68864 64.067652 36.494916 61.91085 35.596063 60.146748 L 31.513998 51.672943 C 38.343877 39.066502 51.84444 29.588915 65.926646 26.699139 L 65.910116 26.61443 L 71.845544 32.839592 C 73.245543 34.239587 75.545696 34.3397 76.945695 32.939702 L 83.743627 26.440199 z M 102.49312 108.32798 C 102.97738 108.33611 103.46736 108.43925 103.93809 108.64756 C 105.82064 109.48054 106.67256 111.68138 105.84104 113.56454 C 105.55233 114.21817 105.08167 114.77523 104.48554 115.1692 C 103.42685 115.86812 102.08524 115.98082 100.92467 115.46857 L 100.91884 115.46665 C 99.036257 114.63259 98.185531 112.43069 99.018798 110.54774 C 99.644356 109.1358 101.03938 108.30384 102.49215 108.32798 L 102.49312 108.32798 z M 47.98909 108.48681 C 48.115071 108.48699 48.242247 108.494 48.370264 108.50702 C 50.418459 108.71851 51.907409 110.54981 51.696788 112.59809 C 51.486318 114.64589 49.656845 116.13567 47.608888 115.92677 C 46.898035 115.85417 46.22302 115.5788 45.664121 115.13359 C 44.672254 114.3427 44.14993 113.10257 44.278475 111.84052 L 44.279447 111.83378 C 44.477724 109.9136 46.099377 108.48409 47.98909 108.48681 z "
       transform="matrix(-5.2743924,0,0,5.2743924,791.56235,253.48456)" /><path
       id="path1-2-4"
       style="fill:url(#linearGradient12);fill-opacity:1;stroke:none;stroke-width:2.52113"
       d="m 395.42376,328.24675 c -3.0995,0 -6.1983,1.31209 -7.8676,3.9348 l -16.1657,25.86299 c -2.9187,0.26524 -5.8312,0.57649 -8.734,0.9342 l -20.96128,-22.27852 c -4.29721,-4.49344 -13.18696,-2.72932 -15.43751,3.06658 l -11.09859,29.29009 c -2.47678,0.74986 -4.94194,1.53117 -7.39565,2.34564 l -25.6026,-18.25744 c -5.09127,-3.56876 -13.46338,-0.10187 -14.53998,6.0215 l -5.20048,31.05695 -6.3904,3.63526 c -0.19967,0.0185 -0.28932,-0.007 -0.32303,-0.0259 l -0.004,-0.004 -0.004,-0.004 h -0.004 L 226.9843,380.8934 c -5.68965,-2.50694 -13.22214,2.52691 -13.08337,8.74286 l 0.95905,31.47326 -5.81598,5.03144 -30.76725,-7.27047 c -6.06944,-1.34877 -12.47818,5.05967 -11.12937,11.12911 l 7.0828,30.68124 -2.65668,3.41691 -0.004,0.004 -0.004,0.004 -2.05663,2.64519 0.31266,-0.32488 c -0.28413,0.35007 -0.43072,0.47573 -0.49233,0.49247 h -0.004 -0.004 -0.004 -0.004 l -0.004,-0.004 v -0.004 h -0.004 v -0.004 -0.004 l -0.004,-0.004 c -0.0111,-0.083 0.0922,-0.31488 0.0922,-0.31488 l -31.47503,-0.95958 c -6.21595,-0.13891 -11.24629,7.39414 -8.73938,13.08383 l 12.92953,28.71637 -0.36934,0.73616 c -1.11046,2.0241 -2.19524,4.02219 -3.25162,5.99613 l -31.03398,5.19392 c -6.12352,1.0766 -9.589847,9.44972 -6.02109,14.54098 l 17.64794,24.74602 c -0.90653,2.8466 -1.76608,5.70336 -2.57462,8.57023 L 88.051603,577.9916 c -5.7959,2.25051 -7.56042,11.13226 -3.06699,15.42947 L 107.5459,614.6537 c -0.27228,2.71328 -0.50333,5.42712 -0.69748,8.14377 l -26.382247,16.48551 c -5.24541,3.33801 -5.24541,12.40116 0,15.73917 l 26.705347,16.68859 0.95391,7.63096 -0.0411,-2.14253 c 0.19597,1.71999 0.14188,2.22821 0.0463,2.31516 l -0.004,0.004 h -0.004 v 0.004 h -0.004 -0.004 -0.004 -0.004 -0.004 -0.004 c -0.0111,-0.002 -0.0259,-0.0148 -0.037,-0.0185 -0.0696,-0.0552 -0.13855,-0.19782 -0.13855,-0.19782 l -22.935697,21.5779 c -4.49348,4.29721 -2.7238,13.18399 3.0721,15.43454 l 29.449157,11.1596 2.25666,6.7983 c 0.003,0.37664 -0.0463,0.50263 -0.0463,0.50263 l -18.28393,25.6396 c -3.568757,5.09131 -0.0974,13.45935 6.02624,14.53591 l 31.05451,5.199 3.72857,6.55969 c 0.004,0.0645 -0.007,0.11521 -0.0222,0.14226 -0.002,0.003 -0.007,0.0111 -0.0111,0.0148 -0.002,0.002 -0.0148,0.007 -0.0148,0.0111 l -0.004,0.004 h -0.004 c -0.002,8.5e-4 -0.0148,0.004 -0.0148,0.004 h -0.004 -0.004 c -0.0111,2.2e-4 -0.0333,-0.003 -0.0411,-0.004 l -0.004,-0.004 -12.93464,28.71637 c -2.50695,5.68966 2.52853,13.22256 8.74449,13.08383 l 31.46992,-0.95958 c 1.58801,1.9938 3.20105,3.96314 4.84151,5.90474 l -7.07765,30.67616 c -1.34877,6.06941 5.05993,12.47784 11.12933,11.12911 l 29.90052,-6.89987 c 2.16861,1.92189 4.37708,3.8067 6.64682,5.66613 l -0.92316,30.46797 c -0.13892,6.21595 7.39372,11.2498 13.08342,8.74286 l 27.93106,-12.5812 c 2.52446,1.36659 5.07041,2.69487 7.63155,3.98052 l 5.07745,30.32583 c 1.07656,6.12352 9.44864,9.59026 14.53995,6.0215 l 25.63853,-18.28282 0.38979,0.10669 h 0.004 l 7.01616,1.9293 -2.06177,-0.81232 c 2.0674,0.58731 2.72017,0.85796 2.79004,0.96972 l 0.004,0.004 v 0.004 0.004 0.004 l -0.004,0.004 v 0.004 h -0.004 l -0.004,0.004 -0.004,0.004 -0.004,0.004 c -0.14559,0.0645 -0.82058,-0.0259 -0.82058,-0.0259 l 11.16008,29.4475 c 2.25055,5.79586 11.1403,7.56001 15.43751,3.06657 l 21.57664,-22.93347 7.6676,0.55341 -0.078,0.19782 16.6939,26.70073 c 3.3381,5.24545 12.3971,5.24545 15.7352,0 l 16.6888,-26.70073 7.6316,-0.9545 -0.037,0.20301 21.5765,22.93855 c 4.2972,4.49344 13.1821,2.72421 15.4325,-3.07165 l 11.1602,-29.4475 1.3436,-0.4468 c 0.044,-0.0148 0.085,-0.0259 0.1297,-0.0407 l 5.8264,-1.93949 c 0.1297,-0.0382 0.2297,-0.0596 0.2667,-0.0559 0,4.8e-4 0,0.004 0,0.004 v 0.004 0 0.004 0 0.004 0.004 0.004 0.004 0.004 c -0.041,0.0745 -0.2815,0.22338 -0.2815,0.22338 l 25.6384,18.28789 c 5.0911,3.56876 13.4632,0.10188 14.5398,-6.0215 l 5.1748,-30.91481 c 2.4068,-1.18755 4.7677,-2.38165 7.0933,-3.58954 l 28.372,12.7792 c 5.6897,2.50694 13.2221,-2.52691 13.0835,-8.74286 l -0.9231,-30.3715 c 2.3268,-1.86829 4.6191,-3.77262 6.8774,-5.71181 l 29.6696,6.84908 c 6.0695,1.34874 12.4782,-5.0597 11.1294,-11.12911 l -6.9955,-30.30045 c 1.7011,-2.06807 3.3747,-4.15807 5.0158,-6.2703 l 31.2137,0.94943 c 6.2162,0.13892 11.2465,-7.39417 8.7393,-13.08383 l -12.9294,-28.71637 3.3436,-6.6612 c 0.1371,-0.0945 0.2112,-0.0885 0.2408,-0.0763 v 0.004 0.004 l 31.0596,-5.199 c 6.1232,-1.07667 9.5895,-9.44971 6.0206,-14.54098 l -18.2784,-25.63454 2.0412,-7.41265 0.1741,0.11188 29.4489,-11.1596 c 5.7956,-2.25055 7.5605,-11.13734 3.0669,-15.43455 l -22.9304,-21.57789 0.3949,-5.48331 v -0.004 c 0,-0.003 -4e-4,-0.007 0,-0.0111 l 0.1519,-2.16795 -0.056,0.2997 c 0.037,-0.36971 0.078,-0.53812 0.1111,-0.5839 v 0 -0.004 0 -0.004 0 0.004 0 0.004 0.004 0.004 c 0.052,0.0767 0.093,0.35045 0.093,0.35045 l 26.7054,-16.69367 c 5.2451,-3.338 5.2451,-12.39604 0,-15.73409 l -26.6539,-16.65814 c -0.2222,-2.55306 -0.4856,-5.09771 -0.7849,-7.63603 l 22.9208,-21.56774 c 4.4935,-4.29721 2.7235,-13.184 -3.0725,-15.43455 l -28.4131,-10.76863 c -0.7835,-2.85534 -1.6359,-5.72855 -2.5695,-8.64132 l 17.6067,-24.69526 c 3.5689,-5.09127 0.1001,-13.45931 -6.0209,-14.53591 l -30.3212,-5.07715 c -1.3233,-2.49594 -2.6814,-4.97132 -4.0772,-7.4228 l 12.6731,-28.14263 c 2.5068,-5.68969 -2.5239,-13.22259 -8.7397,-13.08382 l -31.48,0.95957 -5.0311,-5.81335 0.163,0.23339 c -0.3519,-0.40913 -0.4823,-0.59972 -0.4923,-0.66003 v -0.004 -0.004 0 -0.004 0 -0.004 0 c 0.096,0.0111 0.5079,0.36045 0.5079,0.36045 l 7.0826,-30.68124 c 1.3488,-6.06944 -5.06,-12.47788 -11.1294,-11.12911 l -30.6799,7.08262 -5.7957,-4.5034 v -0.004 c -0.1074,-0.19189 -0.1111,-0.29191 -0.1074,-0.32488 v -0.004 0 -0.004 l 0.9591,-31.47326 c 0.1371,-6.21592 -7.3986,-11.2498 -13.0883,-8.74286 l -28.711,12.93149 -6.7029,-3.36108 c -0.067,-0.0815 -0.082,-0.14226 -0.078,-0.17782 4e-4,-0.003 -7e-4,-0.0111 0,-0.0148 v -0.004 -0.004 -0.004 -0.004 c 0,-0.003 0,-0.0148 0,-0.0148 0,-0.002 0,-0.004 0,-0.004 v 0 -0.004 l -5.2003,-31.05695 c -1.0766,-6.12356 -9.4487,-9.59026 -14.5402,-6.0215 l -25.6384,18.28282 c -2.4305,-0.78373 -4.8688,-1.53144 -7.3134,-2.24407 l -11.145,-29.41705 c -2.2505,-5.7959 -11.1401,-7.56001 -15.4373,-3.06658 l -21.2534,22.58822 c -2.778,-0.38864 -5.5409,-0.73508 -8.3085,-1.03574 l -16.2994,-26.07114 c -1.6689,-2.62271 -4.7677,-3.9348 -7.8672,-3.9348 z m -0.1482,54.99064 v 0 c 3.7653,-0.16708 7.5016,0.75116 10.7601,2.64519 9.3864,5.45772 12.5745,17.48784 7.1237,26.87843 -5.4511,9.39315 -17.4841,12.5909 -26.8798,7.14356 -9.3931,-5.45139 -12.5915,-17.48295 -7.1441,-26.87843 v -0.0296 c 3.3641,-5.78382 9.4402,-9.45846 16.1246,-9.75826 z m 133.2291,7.28062 2.0208,1.29976 c -1.2676,-0.68222 -1.8074,-1.07508 -2.0208,-1.29976 z m -265.44249,0.33007 c -4.39708,2.30898 -6.18139,2.88299 -6.89817,2.99549 z m 90.66061,24.73586 32.42378,30.99601 c 6.6759,6.67601 17.639,6.20384 24.3152,-0.47217 l 28.3057,-29.69118 c 67.1521,13.78019 131.448,59.37576 164.0168,119.49078 l -19.4586,40.41413 c -4.2865,8.41231 -0.4475,18.6929 7.965,22.97919 l 36.9834,17.74466 -0.4052,0.0507 c 7.6453,68.12403 -15.4415,143.31438 -62.55,192.86582 l -44.4506,-6.02151 c -9.3249,-1.4769 -17.9149,5.35292 -19.3919,14.67802 l -5.4467,40.65784 -0.1741,-0.37063 c -62.427,28.32273 -141.07052,29.59697 -202.75403,0.10669 l -8.01107,-44.13054 c -1.47695,-9.32509 -10.63071,-15.38839 -19.95588,-13.9114 l -40.34774,7.38216 0.29747,-0.27932 C 178.85417,757.45356 153.34207,683.05101 162.32802,615.27339 l 39.49637,-21.25297 c 8.41227,-4.28628 11.3486,-14.86138 7.06228,-23.27366 l -19.48918,-36.09346 0.35896,0.19782 c 33.85699,-59.60744 96.72808,-106.86906 163.96559,-119.2674 z m 222.46878,6.00121 3.4622,3.34586 c -2.2624,-1.86796 -3.1314,-2.84835 -3.4622,-3.34586 z m 13.5706,32.75779 c 6.218,6.15534 12.1385,12.59887 17.7405,19.31856 -5.6012,-6.71877 -11.5232,-13.16396 -17.7405,-19.31856 z m -427.20265,96.99391 c 5.66084,-0.22857 11.37668,1.97602 15.45292,6.52413 7.24866,8.08721 6.57103,20.51978 -1.51302,27.77203 -8.08724,7.24847 -20.51986,6.57099 -27.77203,-1.51299 l -0.0148,-0.0259 c -4.46095,-4.98677 -6.08337,-11.89913 -4.30302,-18.34884 1.00458,-3.6324 3.03342,-6.89954 5.84161,-9.41304 3.53986,-3.1676 7.90609,-4.81817 12.30892,-4.99591 z m 465.58125,1.34036 c 1.3065,0.0111 2.632,0.15707 3.9593,0.44172 l 0.037,0.0111 c 6.5403,1.41219 11.917,6.05266 14.2678,12.31718 1.3222,3.52923 1.5996,7.36375 0.8054,11.04787 -2.2901,10.61355 -12.7461,17.3661 -23.3613,15.08421 -10.6178,-2.28193 -17.3766,-12.73597 -15.0991,-23.3549 1.9963,-9.29064 10.2507,-15.62773 19.3971,-15.54116 z m 29.7671,13.14476 c 5.3533,17.03908 9.063,34.79382 10.9397,53.08672 -1.8771,-18.29116 -5.5868,-36.04913 -10.9397,-53.08672 z m 10.3036,112.84985 c -1.9908,16.8188 -5.3593,33.22667 -10.3036,48.96406 4.9451,-15.73891 8.3132,-32.14348 10.3036,-48.96406 z m -549.72307,49.52255 c 0.9269,3.16704 1.18588,4.86826 1.24115,5.74226 z m 533.53667,52.06112 -3.5696,5.54426 c 2.1541,-4.01064 3.138,-5.2066 3.5696,-5.54426 z m -510.62665,4.50852 c 0.57287,1.07726 0.77139,1.61523 0.81547,1.87854 z m 466.10425,35.03235 c -5.602,6.71969 -11.5225,13.16321 -17.7405,19.31855 6.2173,-6.15446 12.1393,-12.59994 17.7405,-19.31855 z m -356.53914,4.87407 h 0.004 c 7.6623,-0.12743 15.02042,4.25583 18.31982,11.70283 4.39457,9.9313 -0.0922,21.54518 -10.02154,25.94426 l -0.037,0.0148 c -6.12119,2.70165 -13.19244,2.10222 -18.7763,-1.58408 -3.14415,-2.078 -5.62668,-5.01107 -7.14944,-8.45854 -4.38553,-9.93245 0.10261,-21.54066 10.03176,-25.93408 2.48286,-1.09871 5.07234,-1.6432 7.62648,-1.68562 z m 287.47034,0.83773 v 0 c 9.9669,-0.0148 18.5206,7.52564 19.566,17.65325 v 0.0296 c 0.6779,6.6566 -2.0767,13.20255 -7.3082,17.37403 -2.9477,2.34825 -6.5081,3.80063 -10.2574,4.18356 -10.8015,1.10146 -20.4562,-6.75599 -21.5664,-17.55677 -1.1106,-10.80334 6.7477,-20.46751 17.5504,-21.58297 0.6753,-0.0696 1.3458,-0.10076 2.0104,-0.1015 z" /><path
       id="path1-9-4"
       style="fill:#55e6e7;fill-opacity:1;stroke:none;stroke-width:2.52113"
       d="m 395.41896,374.65193 c -151.79048,0 -274.83835,121.81546 -274.83835,272.0795 0,150.264 123.04787,272.07445 274.83835,272.07445 151.7905,0 274.8437,-121.81045 274.8437,-272.07445 0,-150.26404 -123.0532,-272.0795 -274.8437,-272.0795 z m -0.1445,8.58546 v 0 c 3.7653,-0.16708 7.5016,0.75116 10.7601,2.64519 9.3864,5.45772 12.5745,17.48787 7.1237,26.87846 -5.4511,9.39315 -17.4837,12.59087 -26.8794,7.14353 -9.3931,-5.45139 -12.5919,-17.48295 -7.1445,-26.87843 v -0.0296 c 3.3641,-5.78382 9.4405,-9.45849 16.1249,-9.7583 z m -41.55291,32.34655 32.42361,30.99601 c 6.6758,6.67601 17.6393,6.20384 24.3155,-0.47217 l 28.3053,-29.69122 c 67.1521,13.7802 131.448,59.37576 164.0168,119.49078 l -19.4582,40.41417 c -4.2865,8.41231 -0.4479,18.6929 7.9646,22.97919 l 36.9835,17.74463 -0.4053,0.0507 c 7.6453,68.12402 -15.4415,143.31433 -62.55,192.86577 l -44.4506,-6.0215 c -9.3249,-1.47691 -17.9149,5.35295 -19.3919,14.67805 l -5.4467,40.65784 -0.1741,-0.37063 c -62.427,28.32274 -141.0708,29.59704 -202.7543,0.10669 l -8.01108,-44.13062 c -1.47695,-9.3251 -10.63071,-15.38839 -19.95588,-13.91141 l -40.34774,7.3822 0.29747,-0.27931 C 178.8535,757.45351 153.34144,683.05093 162.32735,615.27331 l 39.49638,-21.25294 c 8.41227,-4.28628 11.3486,-14.86142 7.06228,-23.27369 l -19.48919,-36.09347 0.35896,0.19782 C 223.61274,475.24365 286.48401,427.98206 353.72152,415.58372 Z M 162.55814,551.33681 c 5.6608,-0.22856 11.37668,1.97606 15.45288,6.52417 7.24866,8.08721 6.57107,20.51974 -1.51298,27.77199 -8.08725,7.24847 -20.51989,6.57099 -27.77207,-1.51299 l -0.0148,-0.0259 c -4.46095,-4.98677 -6.08334,-11.89913 -4.303,-18.34883 1.00463,-3.63241 3.03343,-6.89955 5.84162,-9.41305 3.53986,-3.1676 7.90609,-4.81817 12.30895,-4.99591 z m 465.58112,1.3404 c 1.3066,0.0111 2.632,0.15707 3.9594,0.44169 l 0.037,0.0111 c 6.5403,1.41219 11.9174,6.05266 14.2682,12.31718 1.3222,3.52923 1.5993,7.36375 0.805,11.04787 -2.2901,10.61356 -12.746,17.36614 -23.3613,15.08425 -10.6178,-2.28193 -17.3763,-12.73597 -15.0987,-23.3549 1.9963,-9.29064 10.2503,-15.62773 19.3967,-15.54116 z M 250.96212,824.67039 h 0.004 c 7.66234,-0.12743 15.02042,4.25584 18.31983,11.70283 4.39456,9.9313 -0.0922,21.54518 -10.02154,25.94426 l -0.0371,0.0148 c -6.12119,2.70165 -13.19244,2.10223 -18.77629,-1.58408 -3.14412,-2.07799 -5.62668,-5.01106 -7.14945,-8.45854 -4.38553,-9.93245 0.10261,-21.54066 10.0318,-25.93408 2.48283,-1.09871 5.0723,-1.6432 7.62644,-1.68561 z m 287.47584,0.83774 c 9.9669,-0.0148 18.5206,7.52564 19.566,17.65324 v 0.0296 c 0.6779,6.65661 -2.0771,13.20252 -7.3086,17.374 -2.9477,2.34824 -6.5081,3.80066 -10.2574,4.18359 -10.8015,1.10146 -20.4562,-6.75603 -21.5664,-17.55681 -1.1106,-10.80334 6.7477,-20.4675 17.5504,-21.58296 0.6753,-0.0697 1.3462,-0.10077 2.0108,-0.10151 z" /><g
       id="g4"
       transform="matrix(1.7787519,0,0,1.7608631,109.47956,452.66731)"><g
         id="g5"
         inkscape:label="g5"
         transform="translate(0,2)"><g
           id="g53-9-2-1"
           inkscape:label="Fairy.g53"
           transform="matrix(2.5510545,0,0,2.5510545,36.912132,-497.34298)"
           style="display:inline;mix-blend-mode:normal"><g
             id="g52-2-9-7"
             inkscape:label="Wings.g52"><g
               id="g20-2-6-04"
               transform="matrix(2.6718444,0,0,2.6718444,-108.39919,-400.41843)"
               style="mix-blend-mode:screen;filter:url(#filter137-0)"><path
                 style="opacity:1;fill:url(#linearGradient6);fill-opacity:1;stroke:none;stroke-width:0.2;stroke-linecap:round;stroke-linejoin:round;stroke-miterlimit:3;stroke-dasharray:none;stroke-opacity:0;paint-order:stroke fill markers"
                 d="m 60.605296,245.65676 c 0.49651,0.0818 1.197745,-0.0367 1.272408,0.4577 -0.0102,0.50418 -0.704634,1.26849 -1.411363,1.21182 -0.283968,-0.0548 -0.264339,-0.60593 -0.382825,-0.87312"
                 id="path3-6-47-1-0"
                 sodipodi:nodetypes="cccc" /><g
                 id="g17-7-0-8"
                 style="fill:none;fill-opacity:1;stroke:#ffffff;stroke-opacity:1"><path
                   style="opacity:0.625046;fill:none;fill-opacity:1;stroke:#ffffff;stroke-width:0.1;stroke-linecap:round;stroke-linejoin:round;stroke-miterlimit:3;stroke-dasharray:none;stroke-opacity:1;paint-order:stroke fill markers"
                   d="m 60.336289,246.26565 c 0.194896,0.21162 0.335041,0.45062 0.420433,0.71699"
                   id="path4-10-5-4-51"
                   sodipodi:nodetypes="cc" /><path
                   style="opacity:0.625046;fill:none;fill-opacity:1;stroke:#ffffff;stroke-width:0.1;stroke-linecap:round;stroke-linejoin:round;stroke-miterlimit:3;stroke-dasharray:none;stroke-opacity:1;paint-order:stroke fill markers"
                   d="m 60.603073,245.98716 c 0.260436,0.16052 0.572007,0.27314 0.934713,0.33785"
                   id="path4-1-6-4-2-6"
                   sodipodi:nodetypes="cc" /><path
                   style="opacity:0.579138;fill:none;fill-opacity:1;stroke:#ffffff;stroke-width:0.1;stroke-linecap:round;stroke-linejoin:round;stroke-miterlimit:3;stroke-dasharray:none;stroke-opacity:1;paint-order:stroke fill markers"
                   d="m 60.505238,246.10585 0.754158,0.623"
                   id="path5-3-8-2-6"
                   sodipodi:nodetypes="cc" /></g></g><g
               id="g20-7-0-3-0"
               transform="matrix(-2.6718444,0,0,2.6718444,206.98021,-400.41891)"
               style="mix-blend-mode:screen;filter:url(#filter136-8)"><path
                 style="opacity:1;fill:url(#linearGradient3);fill-opacity:1;stroke:none;stroke-width:0.2;stroke-linecap:round;stroke-linejoin:round;stroke-miterlimit:3;stroke-dasharray:none;stroke-opacity:0;paint-order:stroke fill markers"
                 d="m 60.605296,245.65676 c 0.49651,0.0818 1.197745,-0.0367 1.272408,0.4577 -0.0102,0.50418 -0.704634,1.26849 -1.411363,1.21182 -0.283968,-0.0548 -0.264339,-0.60593 -0.382825,-0.87312"
                 id="path3-6-4-5-8-2"
                 sodipodi:nodetypes="cccc" /><g
                 id="g17-4-1-0-2"
                 style="fill:none;fill-opacity:1;stroke:#ffffff;stroke-opacity:1"><path
                   style="opacity:0.625046;fill:none;fill-opacity:1;stroke:#ffffff;stroke-width:0.1;stroke-linecap:round;stroke-linejoin:round;stroke-miterlimit:3;stroke-dasharray:none;stroke-opacity:1;paint-order:stroke fill markers"
                   d="m 60.336289,246.26565 c 0.194896,0.21162 0.335041,0.45062 0.420433,0.71699"
                   id="path4-10-3-1-4-9"
                   sodipodi:nodetypes="cc" /><path
                   style="opacity:0.625046;fill:none;fill-opacity:1;stroke:#ffffff;stroke-width:0.1;stroke-linecap:round;stroke-linejoin:round;stroke-miterlimit:3;stroke-dasharray:none;stroke-opacity:1;paint-order:stroke fill markers"
                   d="m 60.603073,245.98716 c 0.260436,0.16052 0.572007,0.27314 0.934713,0.33785"
                   id="path4-1-6-0-0-0-7"
                   sodipodi:nodetypes="cc" /><path
                   style="opacity:0.579138;fill:none;fill-opacity:1;stroke:#ffffff;stroke-width:0.1;stroke-linecap:round;stroke-linejoin:round;stroke-miterlimit:3;stroke-dasharray:none;stroke-opacity:1;paint-order:stroke fill markers"
                   d="m 60.505238,246.10585 0.754158,0.623"
                   id="path5-3-7-8-9-5"
                   sodipodi:nodetypes="cc" /></g></g><g
               id="g19-8-5-1-6"
               transform="matrix(-2.6718444,0,0,2.6718444,206.98021,-400.41891)"
               style="mix-blend-mode:screen;filter:url(#filter139-7)"><path
                 style="opacity:1;fill:url(#linearGradient4);fill-opacity:1;stroke:none;stroke-width:0.2;stroke-linecap:round;stroke-linejoin:round;stroke-miterlimit:3;stroke-dasharray:none;stroke-opacity:0;paint-order:stroke fill markers"
                 d="m 60.509882,243.54175 c 1.278094,-1.33481 3.357984,-4.17714 4.153371,-3.91775 0.398978,0.0315 -0.873114,2.63914 -2.023684,4.01364 -0.310914,0.3003 -1.21327,0.38127 -1.871906,0.52279"
                 id="path2-3-6-0-9-4"
                 sodipodi:nodetypes="cccc" /><g
                 id="g14-8-6-6-6"
                 style="mix-blend-mode:overlay;stroke:#ffffff;stroke-opacity:1"
                 transform="translate(-0.08695402,0.0086954)"><path
                   style="opacity:1;fill:none;fill-opacity:1;stroke:#ffffff;stroke-width:0.1;stroke-linecap:round;stroke-linejoin:round;stroke-miterlimit:3;stroke-dasharray:none;stroke-opacity:1;paint-order:stroke fill markers"
                   d="m 60.697564,243.85889 c 1.414444,-1.08442 2.841266,-2.92423 3.827158,-3.36885"
                   id="path6-2-8-4-2-3"
                   sodipodi:nodetypes="cc" /><path
                   style="opacity:1;fill:none;fill-opacity:1;stroke:#ffffff;stroke-width:0.1;stroke-linecap:round;stroke-linejoin:round;stroke-miterlimit:3;stroke-dasharray:none;stroke-opacity:1;paint-order:stroke fill markers"
                   d="m 63.571225,241.17248 c 0.312257,-0.12611 0.545525,-0.16724 0.699804,-0.12337"
                   id="path7-0-4-6-5-7"
                   sodipodi:nodetypes="cc" /><path
                   style="opacity:1;fill:none;fill-opacity:1;stroke:#ffffff;stroke-width:0.1;stroke-linecap:round;stroke-linejoin:round;stroke-miterlimit:3;stroke-dasharray:none;stroke-opacity:1;paint-order:stroke fill markers"
                   d="m 62.866449,241.84097 c 0.404562,-0.29983 0.795976,-0.41404 1.174242,-0.34263"
                   id="path8-6-3-2-4-9"
                   sodipodi:nodetypes="cc" /><path
                   style="opacity:1;fill:none;fill-opacity:1;stroke:#ffffff;stroke-width:0.1;stroke-linecap:round;stroke-linejoin:round;stroke-miterlimit:3;stroke-dasharray:none;stroke-opacity:1;paint-order:stroke fill markers"
                   d="m 62.284111,242.41978 c 0.467619,-0.1961 0.923509,-0.27492 1.367671,-0.23645"
                   id="path9-1-1-5-4-7"
                   sodipodi:nodetypes="cc" /><path
                   style="opacity:1;fill:none;fill-opacity:1;stroke:#ffffff;stroke-width:0.1;stroke-linecap:round;stroke-linejoin:round;stroke-miterlimit:3;stroke-dasharray:none;stroke-opacity:1;paint-order:stroke fill markers"
                   d="m 61.766198,242.92555 c 0.414924,-0.1023 0.841576,-0.13424 1.279956,-0.0958"
                   id="path10-5-4-8-9-4"
                   sodipodi:nodetypes="cc" /><path
                   style="opacity:1;fill:none;fill-opacity:1;stroke:#ffffff;stroke-width:0.1;stroke-linecap:round;stroke-linejoin:round;stroke-miterlimit:3;stroke-dasharray:none;stroke-opacity:1;paint-order:stroke fill markers"
                   d="m 61.080064,243.54877 c 0.511691,-0.12972 1.011654,-0.14802 1.499889,-0.0549"
                   id="path11-5-9-6-9-9"
                   sodipodi:nodetypes="cc" /></g></g><g
               id="g19-8-5-1-6-3"
               transform="matrix(2.6718444,0,0,2.6718444,-108.75612,-400.41891)"
               style="display:inline;mix-blend-mode:screen;filter:url(#filter139-7-7)"><path
                 style="opacity:1;fill:url(#linearGradient5);fill-opacity:1;stroke:none;stroke-width:0.2;stroke-linecap:round;stroke-linejoin:round;stroke-miterlimit:3;stroke-dasharray:none;stroke-opacity:0;paint-order:stroke fill markers"
                 d="m 60.509882,243.54175 c 1.278094,-1.33481 3.357984,-4.17714 4.153371,-3.91775 0.398978,0.0315 -0.873114,2.63914 -2.023684,4.01364 -0.310914,0.3003 -1.21327,0.38127 -1.871906,0.52279"
                 id="path2-3-6-0-9-4-1"
                 sodipodi:nodetypes="cccc" /><g
                 id="g14-8-6-6-6-9"
                 style="mix-blend-mode:overlay;stroke:#ffffff;stroke-opacity:1"
                 transform="translate(-0.08695402,0.0086954)"><path
                   style="opacity:1;fill:none;fill-opacity:1;stroke:#ffffff;stroke-width:0.1;stroke-linecap:round;stroke-linejoin:round;stroke-miterlimit:3;stroke-dasharray:none;stroke-opacity:1;paint-order:stroke fill markers"
                   d="m 60.697564,243.85889 c 1.414444,-1.08442 2.841266,-2.92423 3.827158,-3.36885"
                   id="path6-2-8-4-2-3-4"
                   sodipodi:nodetypes="cc" /><path
                   style="opacity:1;fill:none;fill-opacity:1;stroke:#ffffff;stroke-width:0.1;stroke-linecap:round;stroke-linejoin:round;stroke-miterlimit:3;stroke-dasharray:none;stroke-opacity:1;paint-order:stroke fill markers"
                   d="m 63.571225,241.17248 c 0.312257,-0.12611 0.545525,-0.16724 0.699804,-0.12337"
                   id="path7-0-4-6-5-7-7"
                   sodipodi:nodetypes="cc" /><path
                   style="opacity:1;fill:none;fill-opacity:1;stroke:#ffffff;stroke-width:0.1;stroke-linecap:round;stroke-linejoin:round;stroke-miterlimit:3;stroke-dasharray:none;stroke-opacity:1;paint-order:stroke fill markers"
                   d="m 62.866449,241.84097 c 0.404562,-0.29983 0.795976,-0.41404 1.174242,-0.34263"
                   id="path8-6-3-2-4-9-8"
                   sodipodi:nodetypes="cc" /><path
                   style="opacity:1;fill:none;fill-opacity:1;stroke:#ffffff;stroke-width:0.1;stroke-linecap:round;stroke-linejoin:round;stroke-miterlimit:3;stroke-dasharray:none;stroke-opacity:1;paint-order:stroke fill markers"
                   d="m 62.284111,242.41978 c 0.467619,-0.1961 0.923509,-0.27492 1.367671,-0.23645"
                   id="path9-1-1-5-4-7-4"
                   sodipodi:nodetypes="cc" /><path
                   style="opacity:1;fill:none;fill-opacity:1;stroke:#ffffff;stroke-width:0.1;stroke-linecap:round;stroke-linejoin:round;stroke-miterlimit:3;stroke-dasharray:none;stroke-opacity:1;paint-order:stroke fill markers"
                   d="m 61.766198,242.92555 c 0.414924,-0.1023 0.841576,-0.13424 1.279956,-0.0958"
                   id="path10-5-4-8-9-4-5"
                   sodipodi:nodetypes="cc" /><path
                   style="opacity:1;fill:none;fill-opacity:1;stroke:#ffffff;stroke-width:0.1;stroke-linecap:round;stroke-linejoin:round;stroke-miterlimit:3;stroke-dasharray:none;stroke-opacity:1;paint-order:stroke fill markers"
                   d="m 61.080064,243.54877 c 0.511691,-0.12972 1.011654,-0.14802 1.499889,-0.0549"
                   id="path11-5-9-6-9-9-0"
                   sodipodi:nodetypes="cc" /></g></g></g><path
             id="path12-4-2-3-17"
             style="opacity:1;fill:#00ecff;fill-opacity:1;stroke:#00e4ff;stroke-width:0.265912;stroke-linecap:round;stroke-linejoin:round;stroke-miterlimit:3;stroke-opacity:1;paint-order:stroke fill markers;filter:url(#filter7)"
             d="m 54.536063,253.59253 a 5.2107339,5.2107329 0 0 1 -5.210734,5.21073 5.2107339,5.2107329 0 0 1 -5.210734,-5.21073 5.2107339,5.2107329 0 0 1 5.210734,-5.21073 5.2107339,5.2107329 0 0 1 5.210734,5.21073 z" /></g><g
           id="g2"
           inkscape:label="Cup.g2"
           transform="matrix(3.7795276,0,0,3.7795276,-198.26901,-243.85859)"
           style="display:inline"><path
             style="display:inline;opacity:1;fill:url(#linearGradient1);stroke:#000000;stroke-width:0.499999;stroke-linecap:round;stroke-linejoin:round;stroke-miterlimit:3;stroke-dasharray:none;stroke-opacity:1;paint-order:stroke fill markers"
             d="m 167.59272,247.3027 v -12.76995 c 2.77479,-2.26988 8.67967,-2.34926 11.74838,0 v 12.76995 c -0.61493,1.13798 -2.55793,1.73111 -5.87419,1.77939 -3.31626,-0.0483 -5.25926,-0.64141 -5.87419,-1.77939 z"
             id="path44-2-5-4"
             sodipodi:nodetypes="cccccc"
             transform="translate(-78.356081,-165.59628)" /><path
             style="stroke-linecap:round;stroke-linejoin:round;stroke-miterlimit:3;paint-order:stroke fill markers"
             d="m 179.3418,239.01562 c -0.96729,0 -1.67383,0.92758 -1.67383,1.97657 0,1.04898 0.70654,1.97656 1.67383,1.97656"
             id="path1-7-2"
             sodipodi:nodetypes="csc"
             transform="translate(-78.356081,-165.59628)" /><path
             id="path45-1-4-3"
             style="display:inline;opacity:1;fill:#bfbfbf;stroke:#000000;stroke-width:0.75;stroke-linecap:round;stroke-linejoin:round;stroke-miterlimit:3;paint-order:stroke fill markers"
             transform="translate(-78.356081,-165.59628)"
             d="m 176.29484,236.97868 a 1.2988834,1.1845816 0 0 1 -1.29888,1.18459 1.2988834,1.1845816 0 0 1 -1.29889,-1.18459 1.2988834,1.1845816 0 0 1 1.29889,-1.18458 1.2988834,1.1845816 0 0 1 1.29888,1.18458 z" /><path
             id="path45-2-7-1-7"
             style="display:inline;opacity:1;fill:#bfbfbf;stroke:#000000;stroke-width:0.75;stroke-linecap:round;stroke-linejoin:round;stroke-miterlimit:3;paint-order:stroke fill markers"
             transform="translate(-78.356081,-165.59628)"
             d="m 174.61913,241.12502 a 1.2988834,1.1845816 0 0 1 -1.29888,1.18458 1.2988834,1.1845816 0 0 1 -1.29888,-1.18458 1.2988834,1.1845816 0 0 1 1.29888,-1.18459 1.2988834,1.1845816 0 0 1 1.29888,1.18459 z" /><path
             id="path45-0-4-9-3"
             style="display:inline;opacity:1;fill:#bfbfbf;stroke:#000000;stroke-width:0.75;stroke-linecap:round;stroke-linejoin:round;stroke-miterlimit:3;paint-order:stroke fill markers"
             transform="translate(-78.356081,-165.59628)"
             d="m 167.59272,241.60469 c 0.50264,0.22386 0.83116,0.86293 0.83116,1.62776 0,0.77535 -0.31776,1.43091 -0.83116,1.64596"
             sodipodi:nodetypes="csc" /><path
             id="path45-6-1-8-8"
             style="display:inline;opacity:1;fill:#bfbfbf;stroke:#000000;stroke-width:0.75;stroke-linecap:round;stroke-linejoin:round;stroke-miterlimit:3;paint-order:stroke fill markers"
             transform="translate(-78.356081,-165.59628)"
             d="m 167.59272,234.53275 c 0.16683,-0.0711 0.32576,-0.17464 0.52206,-0.17464 0.71735,0 1.29888,0.53036 1.29888,1.18458 1e-5,0.65423 -0.58152,1.18459 -1.29888,1.18459 -0.18345,0 -0.36383,-0.0605 -0.52206,-0.12305"
             sodipodi:nodetypes="csssc" /><path
             style="fill:#bfbfbf;stroke-linecap:round;stroke-linejoin:round;stroke-miterlimit:3;paint-order:stroke fill markers"
             d="m 179.34109,242.59389 c -0.71735,0 -1.29888,-0.71715 -1.29888,-1.60179 0,-0.88465 0.58153,-1.6018 1.29888,-1.6018"
             id="path2-5"
             sodipodi:nodetypes="csc"
             transform="translate(-78.356081,-165.59628)" /><path
             style="display:inline;opacity:1;fill:none;fill-opacity:1;stroke:#000000;stroke-width:0.75;stroke-linecap:round;stroke-linejoin:round;stroke-miterlimit:3;stroke-dasharray:none;stroke-opacity:1;paint-order:stroke fill markers"
             d="m 167.59272,247.3027 v -12.76995 c 2.51364,-2.29059 9.10264,-2.2809 11.74838,0 v 12.76995 c -0.61493,1.13798 -2.55793,1.73111 -5.87419,1.77939 -3.31626,-0.0483 -5.25926,-0.64141 -5.87419,-1.77939 z"
             id="path44-1-8-3-0"
             sodipodi:nodetypes="cccccc"
             transform="translate(-78.356081,-165.59628)" /><path
             style="display:inline;opacity:1;fill:#ffffff;fill-opacity:1;stroke:none;stroke-width:0.8;stroke-linecap:round;stroke-linejoin:round;stroke-miterlimit:3;stroke-dasharray:none;stroke-opacity:1;paint-order:stroke fill markers"
             d="m 142.21613,199.24059 c -1.1979,1.68206 -9.74367,1.67741 -10.88869,-0.0356 2.06132,-1.02083 6.88045,-1.33049 10.88869,0.0356 z"
             id="path46-7-2-9"
             sodipodi:nodetypes="ccc"
             transform="matrix(0.99999951,0,0,1.169885,-41.630401,-151.41607)" /><path
             style="display:inline;opacity:1;fill:none;fill-opacity:1;stroke:#000000;stroke-width:0.4;stroke-linecap:round;stroke-linejoin:round;stroke-miterlimit:3;stroke-dasharray:none;stroke-opacity:1;paint-order:stroke fill markers"
             d="m 168.0503,247.21949 c 3.73328,-1.23888 7.43043,-1.20225 11.09144,0.10987"
             id="path120-2"
             sodipodi:nodetypes="cc"
             transform="translate(-78.356081,-165.59628)" /><path
             id="path117-4"
             style="display:inline;opacity:1;fill:url(#linearGradient119-0);stroke:#000000;stroke-width:0.75;stroke-linecap:round;stroke-linejoin:round;stroke-miterlimit:3;stroke-dasharray:none;paint-order:stroke fill markers"
             d="m 172.19566,246.33464 c 0.009,0.94069 -2.00497,0.91582 -2.20644,0.33293 -0.18738,-0.54211 0.16099,-1.37868 1.07392,-1.37868 0.62547,0 1.12718,0.46822 1.13252,1.04575 z"
             sodipodi:nodetypes="ssss"
             transform="translate(-78.356081,-165.59628)" /><path
             id="path117-8-3"
             style="display:inline;fill:url(#linearGradient24);stroke:#000000;stroke-width:0.75;stroke-linecap:round;stroke-linejoin:round;stroke-miterlimit:3;stroke-dasharray:none;paint-order:stroke fill markers"
             transform="matrix(-1,0,0,1,-78.356081,-165.59628)"
             d="m -176.63559,246.53133 c -0.004,-0.39912 0.37746,-0.72272 0.84308,-0.72272 0.40406,0 0.74843,0.24205 0.82396,0.56895 0.14123,0.61129 -1.65744,1.02443 -1.66704,0.15377 z"
             sodipodi:nodetypes="ssss" /></g><g
           id="g54-5-5-71"
           inkscape:label="Bottle.g54"
           transform="matrix(3.7795276,0,0,3.7795276,-179.52652,-769.35409)"
           style="display:inline"><g
             id="g47-1-9-2"
             transform="translate(-46.563223,19.584201)"
             style="display:inline"
             inkscape:label="Bottle.g47"><path
               style="opacity:0.5;fill:#ffffff;fill-opacity:1;stroke:#000000;stroke-width:1;stroke-linecap:round;stroke-linejoin:round;stroke-miterlimit:3;stroke-dasharray:none;stroke-opacity:1;paint-order:stroke fill markers"
               d="m 136.54382,239.43096 c -15.90192,-0.12443 -12.43701,-3.33339 -13.67525,-17.72193 -0.0942,-7.2789 -1.58405,-15.06036 6.66764,-17.82748 v -4.95094 c -0.92627,-0.26887 -1.93281,-1.09947 -1.99234,-1.72141 -0.0371,-1.33166 0.0116,-5.1085 1.51994,-5.34643 5.59493,-1.87381 10.44152,-1.15135 15.06716,0 1.50838,0.23793 1.63052,4.01477 1.59342,5.34643 -0.42645,1.24618 -1.13955,1.45254 -2.06582,1.72141 v 4.95094 c 8.25169,2.76712 6.76184,10.54858 6.66764,17.82748 -1.23824,14.38854 2.02625,17.7281 -13.78239,17.72193 z"
               id="path1-8-9-2"
               sodipodi:nodetypes="cccccccccccc" /><path
               style="opacity:1;fill:#ffffff;fill-opacity:1;stroke:none;stroke-width:0.499999;stroke-linecap:round;stroke-linejoin:round;stroke-miterlimit:3;stroke-dasharray:none;stroke-opacity:1;paint-order:stroke fill markers"
               d="m 126.09752,224.78254 c 0.0714,-3.77852 -1.73561,-15.28062 1.92369,-14.86046 2.61212,0.51255 -2.30764,6.04744 -0.96184,15.29329 -0.49475,0.12484 -0.81537,-0.0194 -0.96185,-0.43283 z"
               id="path25-3-0-5"
               sodipodi:nodetypes="cccc" /><path
               style="opacity:1;fill:#ffffff;fill-opacity:1;stroke:none;stroke-width:0.499999;stroke-linecap:round;stroke-linejoin:round;stroke-miterlimit:3;stroke-dasharray:none;stroke-opacity:1;paint-order:stroke fill markers"
               d="m 128.46296,209.33078 c -0.77157,-1.81234 3.41633,-3.92287 4.00026,-2.07071 0.12027,0.69024 -0.0941,1.12948 -0.64318,1.31773 -1.04582,-0.0105 -1.86155,0.3765 -2.44721,1.16086 -0.49154,0.0332 -0.79483,-0.10279 -0.90987,-0.40788 z"
               id="path26-3-7-1"
               sodipodi:nodetypes="ccccc" /><path
               style="opacity:1;fill:none;fill-opacity:1;stroke:#000000;stroke-width:0.5;stroke-linecap:round;stroke-linejoin:round;stroke-miterlimit:3;stroke-dasharray:none;stroke-opacity:1;paint-order:stroke fill markers"
               d="m 129.82354,205.61398 c -7.41649,1.91659 -4.81113,22.04744 -4.5628,23.43835"
               id="path21-8-5-7"
               sodipodi:nodetypes="cc" /><path
               style="opacity:1;fill:none;fill-opacity:1;stroke:#000000;stroke-width:0.499999;stroke-linecap:round;stroke-linejoin:round;stroke-miterlimit:3;stroke-dasharray:none;stroke-opacity:1;paint-order:stroke fill markers"
               d="m 148.54762,222.85299 c -0.36423,4.47736 -0.56426,11.2308 -2.95386,13.41157"
               id="path23-6-8-4"
               sodipodi:nodetypes="cc" /><path
               style="opacity:1;fill:none;fill-opacity:1;stroke:#000000;stroke-width:0.499999;stroke-linecap:round;stroke-linejoin:round;stroke-miterlimit:3;stroke-dasharray:none;stroke-opacity:1;paint-order:stroke fill markers"
               d="m 143.82052,205.82749 c -2.37282,-0.56793 -4.7743,-0.79206 -7.20442,-0.67241"
               id="path22-0-7-1"
               sodipodi:nodetypes="cc" /><path
               style="opacity:1;fill:#ffffff;fill-opacity:1;stroke:none;stroke-width:0.499999;stroke-linecap:round;stroke-linejoin:round;stroke-miterlimit:3;stroke-dasharray:none;stroke-opacity:1;paint-order:stroke fill markers"
               d="m 127.07516,237.09314 c 0.0341,-0.14732 0.0427,-0.58317 0.68213,-0.73518 1.86572,-0.44347 5.84225,-0.37226 5.81224,1.3499 -0.0828,1.76842 -6.55393,0.41532 -6.49437,-0.61472 z"
               id="path28-4-0-7"
               sodipodi:nodetypes="cscc" /><path
               style="opacity:1;fill:none;fill-opacity:1;stroke:#000000;stroke-width:0.75;stroke-linecap:round;stroke-linejoin:round;stroke-miterlimit:3;stroke-dasharray:none;stroke-opacity:1;paint-order:stroke fill markers"
               d="m 129.25911,199.13669 c 4.78731,-1.42653 10.01158,-1.53475 14.64506,-0.0553"
               id="path42-8-0-1"
               sodipodi:nodetypes="cc" /><path
               style="opacity:1;fill:none;fill-opacity:1;stroke:#000000;stroke-width:0.75;stroke-linecap:round;stroke-linejoin:round;stroke-miterlimit:3;stroke-dasharray:none;stroke-opacity:1;paint-order:stroke fill markers"
               d="m 145.72439,197.2092 c -5.91046,-1.71034 -11.97063,-1.71034 -18.18052,0"
               id="path43-9-4-1"
               sodipodi:nodetypes="cc" /></g></g></g></g></g><g
     id="g3"
     transform="matrix(0.4999775,0,0,0.50505683,3.8439794,7.1300603)"
     inkscape:label="Label"
     style="display:inline"><a
       href="https://www.adjivas.eu/navi/resume.fr.html"
       id="a1"
       transform="matrix(1.1196748,0.02668991,-0.03240014,1.0686414,-215.00105,-150.86335)"
       inkscape:label="resume.a"
       style="display:inline;fill:#262626;fill-opacity:1;stroke:#262626;stroke-width:0.650509;stroke-linecap:round;stroke-linejoin:round;stroke-dasharray:none;stroke-opacity:1"><text
         xml:space="preserve"
         style="font-style:normal;font-variant:normal;font-weight:normal;font-stretch:normal;font-size:64px;font-family:'Retro MGM Display';-inkscape-font-specification:'Retro MGM Display, Normal';font-variant-ligatures:normal;font-variant-caps:normal;font-variant-numeric:normal;font-variant-east-asian:normal;text-align:start;writing-mode:lr-tb;direction:ltr;text-anchor:start;fill:#262626;fill-opacity:1;stroke:none;stroke-width:0.650509;stroke-linecap:round;stroke-linejoin:round;stroke-dasharray:none;stroke-opacity:1"
         x="75.438675"
         y="488.349"
         id="text1"><tspan
           sodipodi:role="line"
           id="tspan1"
           x="75.438675"
           y="488.349"
           style="font-style:normal;font-variant:normal;font-weight:normal;font-stretch:normal;font-size:53.3454px;font-family:'Retro MGM Display';-inkscape-font-specification:'Retro MGM Display, Normal';font-variant-ligatures:normal;font-variant-caps:normal;font-variant-numeric:normal;font-variant-east-asian:normal;fill:#262626;fill-opacity:1;stroke:none;stroke-width:0.650509;stroke-linecap:round;stroke-linejoin:round;stroke-dasharray:none;stroke-opacity:1">Résumé</tspan></text></a><a
       href="https://www.adjivas.eu/navi/blog.fr.html"
       id="a2"
       transform="matrix(1.1580471,0.00861342,0.01178538,1.064708,-214.44545,-138.38341)"
       inkscape:label="blog.a"
       style="display:inline;fill:#262626;fill-opacity:1"><text
         xml:space="preserve"
         style="font-style:normal;font-variant:normal;font-weight:normal;font-stretch:normal;font-size:52.5721px;font-family:'Retro MGM Display';-inkscape-font-specification:'Retro MGM Display, Normal';font-variant-ligatures:normal;font-variant-caps:normal;font-variant-numeric:normal;font-variant-east-asian:normal;text-align:start;writing-mode:lr-tb;direction:ltr;text-anchor:start;fill:#262626;fill-opacity:1;stroke-width:3.2287"
         x="365.31525"
         y="474.39566"
         id="text2"><tspan
           sodipodi:role="line"
           id="tspan1-7"
           x="365.31525"
           y="474.39566"
           style="font-style:normal;font-variant:normal;font-weight:normal;font-stretch:normal;font-size:52.5721px;font-family:'Retro MGM Display';-inkscape-font-specification:'Retro MGM Display, Normal';font-variant-ligatures:normal;font-variant-caps:normal;font-variant-numeric:normal;font-variant-east-asian:normal;fill:#262626;fill-opacity:1;stroke-width:3.2287">Blog</tspan></text></a><a
       href="https://www.adjivas.eu/navi/gallery.fr.html"
       id="a3"
       transform="matrix(1.1589591,0.0206198,-0.02104089,1.1589591,-383.2661,-218.58104)"
       inkscape:label="gallery.a"
       style="display:inline;fill:#262626;fill-opacity:1"><text
         xml:space="preserve"
         style="font-style:normal;font-variant:normal;font-weight:normal;font-stretch:normal;font-size:53.7591px;font-family:'Retro MGM Display';-inkscape-font-specification:'Retro MGM Display, Normal';font-variant-ligatures:normal;font-variant-caps:normal;font-variant-numeric:normal;font-variant-east-asian:normal;text-align:start;writing-mode:lr-tb;direction:ltr;text-anchor:start;fill:#262626;fill-opacity:1;stroke-width:2.71206"
         x="1104.3822"
         y="488.57336"
         id="text3"><tspan
           sodipodi:role="line"
           id="tspan1-7-7"
           x="1104.3822"
           y="488.57336"
           style="font-style:normal;font-variant:normal;font-weight:normal;font-stretch:normal;font-size:50.3591px;font-family:'Retro MGM Display';-inkscape-font-specification:'Retro MGM Display, Normal';font-variant-ligatures:normal;font-variant-caps:normal;font-variant-numeric:normal;font-variant-east-asian:normal;fill:#262626;fill-opacity:1;stroke-width:2.71206">Galerie</tspan></text></a><a
       href="https://www.adjivas.eu/navi/contact.fr.html"
       id="a4"
       transform="matrix(1.1129943,-0.02307601,0.02354725,1.1129943,-348.70291,-136.62481)"
       inkscape:label="contact.a"
       style="display:inline;fill:#262626;fill-opacity:1"><text
         xml:space="preserve"
         style="font-style:normal;font-variant:normal;font-weight:normal;font-stretch:normal;font-size:52.4358px;font-family:'Retro MGM Display';-inkscape-font-specification:'Retro MGM Display, Normal';font-variant-ligatures:normal;font-variant-caps:normal;font-variant-numeric:normal;font-variant-east-asian:normal;text-align:start;writing-mode:lr-tb;direction:ltr;text-anchor:start;fill:#262626;fill-opacity:1;stroke-width:3.2287"
         x="1380.3134"
         y="489.13199"
         id="text4"><tspan
           sodipodi:role="line"
           id="tspan1-7-8"
           x="1380.3134"
           y="489.13199"
           style="font-style:normal;font-variant:normal;font-weight:normal;font-stretch:normal;font-size:52.4358px;font-family:'Retro MGM Display';-inkscape-font-specification:'Retro MGM Display, Normal';font-variant-ligatures:normal;font-variant-caps:normal;font-variant-numeric:normal;font-variant-east-asian:normal;fill:#262626;fill-opacity:1;stroke-width:3.2287">Contact</tspan></text></a></g></g></svg>
