<?xml version="1.0" encoding="UTF-8" standalone="no"?>
<!-- Created with Inkscape (http://www.inkscape.org/) -->

<svg
   width="210mm"
   height="297mm"
   viewBox="0 0 793.70081 1122.5197"
   version="1.1"
   id="svg1"
   inkscape:version="1.4.2 (ebf0e940d0, 2025-05-08)"
   sodipodi:docname="tractor-feed.svg"
   xmlns:inkscape="http://www.inkscape.org/namespaces/inkscape"
   xmlns:sodipodi="http://sodipodi.sourceforge.net/DTD/sodipodi-0.dtd"
   xmlns="http://www.w3.org/2000/svg"
   xmlns:svg="http://www.w3.org/2000/svg">
  <sodipodi:namedview
     id="namedview1"
     pagecolor="#505050"
     bordercolor="#ffffff"
     borderopacity="1"
     inkscape:showpageshadow="0"
     inkscape:pageopacity="0"
     inkscape:pagecheckerboard="1"
     inkscape:deskcolor="#505050"
     inkscape:document-units="mm"
     showguides="true"
     inkscape:zoom="0.96533096"
     inkscape:cx="691.4727"
     inkscape:cy="425.76072"
     inkscape:window-width="2560"
     inkscape:window-height="1379"
     inkscape:window-x="0"
     inkscape:window-y="0"
     inkscape:window-maximized="0"
     inkscape:current-layer="layer1" />
  <defs
     id="defs1">
    <inkscape:path-effect
       effect="mirror_symmetry"
       start_point="396.8504,0"
       end_point="396.8504,1122.5197"
       center_point="396.8504,561.25986"
       id="path-effect6"
       is_visible="true"
       lpeversion="1.2"
       lpesatellites=""
       mode="vertical"
       discard_orig_path="false"
       fuse_paths="false"
       oposite_fuse="false"
       split_items="false"
       split_open="false"
       link_styles="false" />
    <inkscape:path-effect
       effect="mirror_symmetry"
       start_point="396.8504,7.495878"
       end_point="396.8504,1130.0156"
       center_point="396.8504,568.75573"
       id="path-effect5"
       is_visible="true"
       lpeversion="1.2"
       lpesatellites=""
       mode="vertical"
       discard_orig_path="false"
       fuse_paths="false"
       oposite_fuse="false"
       split_items="false"
       split_open="false"
       link_styles="false" />
    <inkscape:path-effect
       effect="tiling"
       id="path-effect3"
       is_visible="true"
       lpeversion="1.3.1"
       unit="mm"
       seed="1;1"
       lpesatellites=""
       num_rows="23"
       num_cols="1"
       gapx="0"
       gapy="9.95"
       offset="0"
       offset_type="false"
       scale="0"
       rotate="0"
       mirrorrowsx="false"
       mirrorrowsy="false"
       mirrorcolsx="false"
       mirrorcolsy="false"
       mirrortrans="false"
       shrink_interp="false"
       split_items="false"
       link_styles="false"
       interpolate_scalex="false"
       interpolate_scaley="true"
       interpolate_rotatex="false"
       interpolate_rotatey="true"
       random_scale="false"
       random_rotate="false"
       random_gap_y="false"
       random_gap_x="false"
       transformorigin="" />
    <inkscape:path-effect
       effect="copy_rotate"
       starting_point="0,0"
       origin="15.971375,7.559059"
       id="path-effect1"
       is_visible="true"
       lpeversion="1.2"
       lpesatellites=""
       method="normal"
       num_copies="6"
       starting_angle="0"
       rotation_angle="60"
       gap="-0.01"
       copies_to_360="true"
       mirror_copies="false"
       split_items="false"
       link_styles="false" />
    <inkscape:path-effect
       effect="tiling"
       id="path-effect2"
       is_visible="true"
       lpeversion="1.3.1"
       unit="mm"
       seed="1;1"
       lpesatellites=""
       num_rows="23"
       num_cols="1"
       gapx="0"
       gapy="0.84005208"
       offset="0"
       offset_type="false"
       scale="0"
       rotate="0"
       mirrorrowsx="false"
       mirrorrowsy="false"
       mirrorcolsx="false"
       mirrorcolsy="false"
       mirrortrans="false"
       shrink_interp="false"
       split_items="false"
       link_styles="false"
       interpolate_scalex="false"
       interpolate_scaley="true"
       interpolate_rotatex="false"
       interpolate_rotatey="true"
       random_scale="false"
       random_rotate="false"
       random_gap_y="false"
       random_gap_x="false"
       transformorigin="" />
    <inkscape:path-effect
       effect="tiling"
       id="path-effect3-6"
       is_visible="true"
       lpeversion="1.3.1"
       unit="mm"
       seed="1;1"
       lpesatellites=""
       num_rows="21"
       num_cols="1"
       gapx="0"
       gapy="0.70004339"
       offset="0"
       offset_type="false"
       scale="0"
       rotate="0"
       mirrorrowsx="false"
       mirrorrowsy="false"
       mirrorcolsx="false"
       mirrorcolsy="false"
       mirrortrans="false"
       shrink_interp="false"
       split_items="false"
       link_styles="false"
       interpolate_scalex="false"
       interpolate_scaley="true"
       interpolate_rotatex="false"
       interpolate_rotatey="true"
       random_scale="false"
       random_rotate="false"
       random_gap_y="false"
       random_gap_x="false"
       transformorigin="" />
  </defs>
  <g
     inkscape:label="Layer 1"
     inkscape:groupmode="layer"
     id="layer1">
    <path
       id="path1"
       d="m 29.382953,25.57212 c 0,3.703505 -3.002284,6.70579 -6.705789,6.70579 -3.703505,0 -6.705789,-3.002285 -6.705789,-6.70579 0,-3.703506 3.002284,-6.70579 6.705789,-6.70579 3.703505,0 6.705789,3.002284 6.705789,6.70579 z m 0,51.017881 c 0,3.7035 -3.002284,6.70579 -6.705789,6.70579 -3.703505,0 -6.705789,-3.00229 -6.705789,-6.70579 0,-3.70351 3.002284,-6.70579 6.705789,-6.70579 3.703505,0 6.705789,3.00228 6.705789,6.70579 z m 0,51.017879 c 0,3.7035 -3.002284,6.70579 -6.705789,6.70579 -3.703505,0 -6.705789,-3.00229 -6.705789,-6.70579 0,-3.70351 3.002284,-6.70579 6.705789,-6.70579 3.703505,0 6.705789,3.00228 6.705789,6.70579 z m 0,51.01788 c 0,3.7035 -3.002284,6.70579 -6.705789,6.70579 -3.703505,0 -6.705789,-3.00229 -6.705789,-6.70579 0,-3.70351 3.002284,-6.70579 6.705789,-6.70579 3.703505,0 6.705789,3.00228 6.705789,6.70579 z m 0,51.01788 c 0,3.7035 -3.002284,6.70579 -6.705789,6.70579 -3.703505,0 -6.705789,-3.00229 -6.705789,-6.70579 0,-3.70351 3.002284,-6.70579 6.705789,-6.70579 3.703505,0 6.705789,3.00228 6.705789,6.70579 z m 0,51.01788 c 0,3.7035 -3.002284,6.70579 -6.705789,6.70579 -3.703505,0 -6.705789,-3.00229 -6.705789,-6.70579 0,-3.70351 3.002284,-6.70579 6.705789,-6.70579 3.703505,0 6.705789,3.00228 6.705789,6.70579 z m 0,51.01788 c 0,3.7035 -3.002284,6.70579 -6.705789,6.70579 -3.703505,0 -6.705789,-3.00229 -6.705789,-6.70579 0,-3.70351 3.002284,-6.70579 6.705789,-6.70579 3.703505,0 6.705789,3.00228 6.705789,6.70579 z m 0,51.01788 c 0,3.7035 -3.002284,6.70579 -6.705789,6.70579 -3.703505,0 -6.705789,-3.00229 -6.705789,-6.70579 0,-3.70351 3.002284,-6.70579 6.705789,-6.70579 3.703505,0 6.705789,3.00228 6.705789,6.70579 z m 0,51.01787 c 0,3.70351 -3.002284,6.70579 -6.705789,6.70579 -3.703505,0 -6.705789,-3.00228 -6.705789,-6.70579 0,-3.7035 3.002284,-6.70579 6.705789,-6.70579 3.703505,0 6.705789,3.00229 6.705789,6.70579 z m 0,51.01788 c 0,3.70351 -3.002284,6.70579 -6.705789,6.70579 -3.703505,0 -6.705789,-3.00228 -6.705789,-6.70579 0,-3.7035 3.002284,-6.70579 6.705789,-6.70579 3.703505,0 6.705789,3.00229 6.705789,6.70579 z m 0,51.01788 c 0,3.70351 -3.002284,6.70579 -6.705789,6.70579 -3.703505,0 -6.705789,-3.00228 -6.705789,-6.70579 0,-3.7035 3.002284,-6.70579 6.705789,-6.70579 3.703505,0 6.705789,3.00229 6.705789,6.70579 z m 0,51.01788 c 0,3.70351 -3.002284,6.70579 -6.705789,6.70579 -3.703505,0 -6.705789,-3.00228 -6.705789,-6.70579 0,-3.7035 3.002284,-6.70579 6.705789,-6.70579 3.703505,0 6.705789,3.00229 6.705789,6.70579 z m 0,51.01788 c 0,3.70351 -3.002284,6.70579 -6.705789,6.70579 -3.703505,0 -6.705789,-3.00228 -6.705789,-6.70579 0,-3.7035 3.002284,-6.70579 6.705789,-6.70579 3.703505,0 6.705789,3.00229 6.705789,6.70579 z m 0,51.01788 c 0,3.70351 -3.002284,6.70579 -6.705789,6.70579 -3.703505,0 -6.705789,-3.00228 -6.705789,-6.70579 0,-3.7035 3.002284,-6.70579 6.705789,-6.70579 3.703505,0 6.705789,3.00229 6.705789,6.70579 z m 0,51.01788 c 0,3.70351 -3.002284,6.70579 -6.705789,6.70579 -3.703505,0 -6.705789,-3.00228 -6.705789,-6.70579 0,-3.7035 3.002284,-6.70579 6.705789,-6.70579 3.703505,0 6.705789,3.00229 6.705789,6.70579 z m 0,51.01788 c 0,3.70351 -3.002284,6.70579 -6.705789,6.70579 -3.703505,0 -6.705789,-3.00228 -6.705789,-6.70579 0,-3.7035 3.002284,-6.70579 6.705789,-6.70579 3.703505,0 6.705789,3.00229 6.705789,6.70579 z m 0,51.01788 c 0,3.70351 -3.002284,6.70579 -6.705789,6.70579 -3.703505,0 -6.705789,-3.00228 -6.705789,-6.70579 0,-3.7035 3.002284,-6.70579 6.705789,-6.70579 3.703505,0 6.705789,3.00229 6.705789,6.70579 z m 0,51.01788 c 0,3.70351 -3.002284,6.70579 -6.705789,6.70579 -3.703505,0 -6.705789,-3.00228 -6.705789,-6.70579 0,-3.70351 3.002284,-6.70579 6.705789,-6.70579 3.703505,0 6.705789,3.00228 6.705789,6.70579 z m 0,51.01788 c 0,3.70351 -3.002284,6.70579 -6.705789,6.70579 -3.703505,0 -6.705789,-3.00228 -6.705789,-6.70579 0,-3.70351 3.002284,-6.70579 6.705789,-6.70579 3.703505,0 6.705789,3.00228 6.705789,6.70579 z m 0,51.01783 c 0,3.7036 -3.002284,6.70582 -6.705789,6.70582 -3.703505,0 -6.705789,-3.00222 -6.705789,-6.70582 0,-3.7035 3.002284,-6.7057 6.705789,-6.7057 3.703505,0 6.705789,3.0022 6.705789,6.7057 z m 0,51.01792 c 0,3.7035 -3.002284,6.7058 -6.705789,6.7058 -3.703505,0 -6.705789,-3.0023 -6.705789,-6.7058 0,-3.7035 3.002284,-6.7058 6.705789,-6.7058 3.703505,0 6.705789,3.0023 6.705789,6.7058 z m 0,51.0179 c 0,3.7035 -3.002284,6.7058 -6.705789,6.7058 -3.703505,0 -6.705789,-3.0023 -6.705789,-6.7058 0,-3.7035 3.002284,-6.7058 6.705789,-6.7058 3.703505,0 6.705789,3.0023 6.705789,6.7058 z M 764.31785,25.57212 c 0,3.703505 3.00229,6.70579 6.70579,6.70579 3.70351,0 6.70579,-3.002285 6.70579,-6.70579 0,-3.703506 -3.00228,-6.70579 -6.70579,-6.70579 -3.7035,0 -6.70579,3.002284 -6.70579,6.70579 z m 0,51.017881 c 0,3.7035 3.00229,6.70579 6.70579,6.70579 3.70351,0 6.70579,-3.00229 6.70579,-6.70579 0,-3.70351 -3.00228,-6.70579 -6.70579,-6.70579 -3.7035,0 -6.70579,3.00228 -6.70579,6.70579 z m 0,51.017879 c 0,3.7035 3.00229,6.70579 6.70579,6.70579 3.70351,0 6.70579,-3.00229 6.70579,-6.70579 0,-3.70351 -3.00228,-6.70579 -6.70579,-6.70579 -3.7035,0 -6.70579,3.00228 -6.70579,6.70579 z m 0,51.01788 c 0,3.7035 3.00229,6.70579 6.70579,6.70579 3.70351,0 6.70579,-3.00229 6.70579,-6.70579 0,-3.70351 -3.00228,-6.70579 -6.70579,-6.70579 -3.7035,0 -6.70579,3.00228 -6.70579,6.70579 z m 0,51.01788 c 0,3.7035 3.00229,6.70579 6.70579,6.70579 3.70351,0 6.70579,-3.00229 6.70579,-6.70579 0,-3.70351 -3.00228,-6.70579 -6.70579,-6.70579 -3.7035,0 -6.70579,3.00228 -6.70579,6.70579 z m 0,51.01788 c 0,3.7035 3.00229,6.70579 6.70579,6.70579 3.70351,0 6.70579,-3.00229 6.70579,-6.70579 0,-3.70351 -3.00228,-6.70579 -6.70579,-6.70579 -3.7035,0 -6.70579,3.00228 -6.70579,6.70579 z m 0,51.01788 c 0,3.7035 3.00229,6.70579 6.70579,6.70579 3.70351,0 6.70579,-3.00229 6.70579,-6.70579 0,-3.70351 -3.00228,-6.70579 -6.70579,-6.70579 -3.7035,0 -6.70579,3.00228 -6.70579,6.70579 z m 0,51.01788 c 0,3.7035 3.00229,6.70579 6.70579,6.70579 3.70351,0 6.70579,-3.00229 6.70579,-6.70579 0,-3.70351 -3.00228,-6.70579 -6.70579,-6.70579 -3.7035,0 -6.70579,3.00228 -6.70579,6.70579 z m 0,51.01787 c 0,3.70351 3.00229,6.70579 6.70579,6.70579 3.70351,0 6.70579,-3.00228 6.70579,-6.70579 0,-3.7035 -3.00228,-6.70579 -6.70579,-6.70579 -3.7035,0 -6.70579,3.00229 -6.70579,6.70579 z m 0,51.01788 c 0,3.70351 3.00229,6.70579 6.70579,6.70579 3.70351,0 6.70579,-3.00228 6.70579,-6.70579 0,-3.7035 -3.00228,-6.70579 -6.70579,-6.70579 -3.7035,0 -6.70579,3.00229 -6.70579,6.70579 z m 0,51.01788 c 0,3.70351 3.00229,6.70579 6.70579,6.70579 3.70351,0 6.70579,-3.00228 6.70579,-6.70579 0,-3.7035 -3.00228,-6.70579 -6.70579,-6.70579 -3.7035,0 -6.70579,3.00229 -6.70579,6.70579 z m 0,51.01788 c 0,3.70351 3.00229,6.70579 6.70579,6.70579 3.70351,0 6.70579,-3.00228 6.70579,-6.70579 0,-3.7035 -3.00228,-6.70579 -6.70579,-6.70579 -3.7035,0 -6.70579,3.00229 -6.70579,6.70579 z m 0,51.01788 c 0,3.70351 3.00229,6.70579 6.70579,6.70579 3.70351,0 6.70579,-3.00228 6.70579,-6.70579 0,-3.7035 -3.00228,-6.70579 -6.70579,-6.70579 -3.7035,0 -6.70579,3.00229 -6.70579,6.70579 z m 0,51.01788 c 0,3.70351 3.00229,6.70579 6.70579,6.70579 3.70351,0 6.70579,-3.00228 6.70579,-6.70579 0,-3.7035 -3.00228,-6.70579 -6.70579,-6.70579 -3.7035,0 -6.70579,3.00229 -6.70579,6.70579 z m 0,51.01788 c 0,3.70351 3.00229,6.70579 6.70579,6.70579 3.70351,0 6.70579,-3.00228 6.70579,-6.70579 0,-3.7035 -3.00228,-6.70579 -6.70579,-6.70579 -3.7035,0 -6.70579,3.00229 -6.70579,6.70579 z m 0,51.01788 c 0,3.70351 3.00229,6.70579 6.70579,6.70579 3.70351,0 6.70579,-3.00228 6.70579,-6.70579 0,-3.7035 -3.00228,-6.70579 -6.70579,-6.70579 -3.7035,0 -6.70579,3.00229 -6.70579,6.70579 z m 0,51.01788 c 0,3.70351 3.00229,6.70579 6.70579,6.70579 3.70351,0 6.70579,-3.00228 6.70579,-6.70579 0,-3.7035 -3.00228,-6.70579 -6.70579,-6.70579 -3.7035,0 -6.70579,3.00229 -6.70579,6.70579 z m 0,51.01788 c 0,3.70351 3.00229,6.70579 6.70579,6.70579 3.70351,0 6.70579,-3.00228 6.70579,-6.70579 0,-3.70351 -3.00228,-6.70579 -6.70579,-6.70579 -3.7035,0 -6.70579,3.00228 -6.70579,6.70579 z m 0,51.01788 c 0,3.70351 3.00229,6.70579 6.70579,6.70579 3.70351,0 6.70579,-3.00228 6.70579,-6.70579 0,-3.70351 -3.00228,-6.70579 -6.70579,-6.70579 -3.7035,0 -6.70579,3.00228 -6.70579,6.70579 z m 0,51.01783 c 0,3.7036 3.00229,6.70582 6.70579,6.70582 3.70351,0 6.70579,-3.00222 6.70579,-6.70582 0,-3.7035 -3.00228,-6.7057 -6.70579,-6.7057 -3.7035,0 -6.70579,3.0022 -6.70579,6.7057 z m 0,51.01792 c 0,3.7035 3.00229,6.7058 6.70579,6.7058 3.70351,0 6.70579,-3.0023 6.70579,-6.7058 0,-3.7035 -3.00228,-6.7058 -6.70579,-6.7058 -3.7035,0 -6.70579,3.0023 -6.70579,6.7058 z m 0,51.0179 c 0,3.7035 3.00229,6.7058 6.70579,6.7058 3.70351,0 6.70579,-3.0023 6.70579,-6.7058 0,-3.7035 -3.00228,-6.7058 -6.70579,-6.7058 -3.7035,0 -6.70579,3.0023 -6.70579,6.7058 z"
       style="fill:none;stroke:#000000;stroke-width:1.88976;stroke-dasharray:none"
       sodipodi:nodetypes="ssssssssssssssssssssssssssssssssssssssssssssssssssssssssssssssssssssssssssssssssssssssssssssssssssssssssssssssssssssssssssssssssssssssssssssssssssssssssssssssssssssssssssssssssssssssssssssssssssssssssssssssssssssssssssss" />
    <path
       style="fill:none;stroke:#000000;stroke-width:1.88976;stroke-dasharray:none"
       d="M 50.078739,0 V 1122.5197 M 743.62207,0 v 1122.5197"
       id="path5" />
    <path
       id="rect1"
       style="fill:none;stroke:#000000;stroke-width:1.88976"
       d="M 0,0 H 793.70081 V 1122.5197 H 0 Z" />
  </g>
</svg>
