<?xml version="1.0" encoding="UTF-8" standalone="no"?>
<svg
   xml:space="preserve"
   width="106"
   height="106"
   version="1.1"
   id="svg41"
   sodipodi:docname="logo-rust.svg"
   inkscape:version="1.4.2 (ebf0e940d0, 2025-05-08)"
   xmlns:inkscape="http://www.inkscape.org/namespaces/inkscape"
   xmlns:sodipodi="http://sodipodi.sourceforge.net/DTD/sodipodi-0.dtd"
   xmlns:xlink="http://www.w3.org/1999/xlink"
   xmlns="http://www.w3.org/2000/svg"
   xmlns:svg="http://www.w3.org/2000/svg"><sodipodi:namedview
     id="namedview41"
     pagecolor="#505050"
     bordercolor="#ffffff"
     borderopacity="1"
     inkscape:showpageshadow="0"
     inkscape:pageopacity="0"
     inkscape:pagecheckerboard="1"
     inkscape:deskcolor="#505050"
     showgrid="false"
     inkscape:zoom="6.9906817"
     inkscape:cx="41.483794"
     inkscape:cy="42.199032"
     inkscape:window-width="1280"
     inkscape:window-height="1409"
     inkscape:window-x="0"
     inkscape:window-y="0"
     inkscape:window-maximized="0"
     inkscape:current-layer="svg41"
     showguides="true" /><defs
     id="defs4"><mask
       id="b"><path
         fill="#fff"
         d="M-60-60H60V60H-60z"
         id="path1" /><circle
         id="a"
         cx="0"
         cy="-40"
         r="3" /><use
         xlink:href="#a"
         transform="rotate(72)"
         id="use1" /><use
         xlink:href="#a"
         transform="rotate(144)"
         id="use2" /><use
         xlink:href="#a"
         transform="rotate(-144)"
         id="use3" /><use
         xlink:href="#a"
         transform="rotate(-72)"
         id="use4" /></mask></defs><path
     id="circle4"
     style="display:inline;mix-blend-mode:normal;baseline-shift:baseline;overflow:visible;opacity:1;vector-effect:none;enable-background:accumulate;stop-color:#000000;stop-opacity:1"
     d="M 0 -52.5 C -0.52724895 -52.500221 -1.0159077 -52.223636 -1.2871094 -51.771484 L -3.9472656 -47.337891 C -4.4214443 -47.298651 -4.8931016 -47.252361 -5.3632812 -47.199219 L -5.3652344 -47.199219 L -8.8378906 -51.027344 C -9.1462603 -51.366997 -9.593092 -51.546881 -10.050781 -51.515625 C -10.115061 -51.511325 -10.178997 -51.502794 -10.242188 -51.490234 C -10.758744 -51.387382 -11.183524 -51.021168 -11.361328 -50.525391 L -13.105469 -45.660156 C -13.562664 -45.528621 -14.017271 -45.388965 -14.46875 -45.244141 L -14.470703 -45.244141 L -18.623047 -48.322266 C -18.884508 -48.516063 -19.201901 -48.619574 -19.527344 -48.617188 C -19.721044 -48.616222 -19.912724 -48.577758 -20.091797 -48.503906 C -20.578276 -48.301675 -20.923015 -47.859074 -21 -47.337891 L -21.763672 -42.208984 C -22.179681 -41.993492 -22.593191 -41.772244 -23.001953 -41.544922 L -27.693359 -43.761719 C -27.880607 -43.849969 -28.084094 -43.898515 -28.291016 -43.904297 C -29.164601 -43.929127 -29.874396 -43.204941 -29.832031 -42.332031 L -29.580078 -37.134766 C -29.940563 -36.84697 -30.296587 -36.553797 -30.648438 -36.255859 L -35.699219 -37.517578 C -35.832675 -37.550538 -35.970028 -37.564997 -36.107422 -37.560547 C -37.063312 -37.531417 -37.74827 -36.627311 -37.517578 -35.699219 L -36.255859 -30.648438 C -36.553797 -30.296588 -36.84697 -29.940563 -37.134766 -29.580078 L -42.332031 -29.832031 C -43.463008 -29.887171 -44.245022 -28.717355 -43.761719 -27.693359 L -41.544922 -23.001953 C -41.772244 -22.593191 -41.993492 -22.179681 -42.208984 -21.763672 L -47.337891 -21 C -48.458027 -20.83323 -48.996522 -19.532934 -48.322266 -18.623047 L -45.244141 -14.470703 L -45.244141 -14.46875 C -45.388965 -14.017271 -45.528621 -13.562664 -45.660156 -13.105469 L -50.525391 -11.361328 C -51.591658 -10.979374 -51.866273 -9.5988192 -51.027344 -8.8378906 L -47.199219 -5.3652344 L -47.199219 -5.3632812 C -47.252369 -4.8931016 -47.298649 -4.4214443 -47.337891 -3.9472656 L -51.771484 -1.2871094 C -52.744239 -0.70472737 -52.744239 0.70472761 -51.771484 1.2871094 L -47.337891 3.9472656 C -47.298651 4.4214443 -47.252361 4.8931017 -47.199219 5.3632812 L -47.199219 5.3652344 L -51.027344 8.8378906 C -51.866273 9.5988192 -51.591658 10.979374 -50.525391 11.361328 L -45.660156 13.105469 C -45.528621 13.562664 -45.388965 14.017271 -45.244141 14.46875 L -45.244141 14.470703 L -48.322266 18.623047 C -48.996522 19.532846 -48.458027 20.83323 -47.337891 21 L -42.208984 21.763672 C -41.993492 22.179681 -41.772244 22.593191 -41.544922 23.001953 L -43.761719 27.693359 C -44.245022 28.717355 -43.463008 29.88717 -42.332031 29.832031 L -37.134766 29.580078 C -36.84697 29.940563 -36.553797 30.296587 -36.255859 30.648438 L -37.517578 35.699219 C -37.791157 36.797125 -36.797125 37.791157 -35.699219 37.517578 L -30.648438 36.255859 C -30.296588 36.553797 -29.940563 36.84697 -29.580078 37.134766 L -29.832031 42.332031 C -29.887171 43.463008 -28.717355 44.245022 -27.693359 43.761719 L -23.001953 41.544922 C -22.593191 41.772244 -22.179681 41.993492 -21.763672 42.208984 L -21 47.337891 C -20.83323 48.458027 -19.532934 48.996522 -18.623047 48.322266 L -14.470703 45.244141 L -14.46875 45.244141 C -14.017271 45.388965 -13.562664 45.528621 -13.105469 45.660156 L -11.361328 50.525391 C -10.979374 51.591658 -9.5988192 51.866273 -8.8378906 51.027344 L -5.3652344 47.199219 L -5.3632812 47.199219 C -4.8931017 47.252369 -4.4214443 47.298649 -3.9472656 47.337891 L -1.2871094 51.771484 C -0.7047275 52.744239 0.7047275 52.744239 1.2871094 51.771484 L 3.9472656 47.337891 C 4.4214443 47.298651 4.8931016 47.252361 5.3632812 47.199219 L 5.3652344 47.199219 L 8.8378906 51.027344 C 9.5988192 51.866273 10.979374 51.591658 11.361328 50.525391 L 13.105469 45.660156 C 13.562664 45.528621 14.017271 45.388965 14.46875 45.244141 L 14.470703 45.244141 L 18.623047 48.322266 C 19.532846 48.996522 20.83323 48.458027 21 47.337891 L 21.763672 42.208984 C 22.179681 41.993492 22.593191 41.772244 23.001953 41.544922 L 27.693359 43.761719 C 28.717355 44.245022 29.88717 43.463008 29.832031 42.332031 L 29.580078 37.134766 C 29.940563 36.84697 30.296588 36.553797 30.648438 36.255859 L 35.699219 37.517578 C 36.797125 37.791157 37.791157 36.797125 37.517578 35.699219 L 36.255859 30.648438 C 36.553797 30.296588 36.84697 29.940563 37.134766 29.580078 L 42.332031 29.832031 C 43.463008 29.887171 44.245022 28.717355 43.761719 27.693359 L 41.544922 23.001953 C 41.772244 22.593191 41.993492 22.179681 42.208984 21.763672 L 47.337891 21 C 48.458027 20.83323 48.996522 19.532934 48.322266 18.623047 L 45.244141 14.470703 L 45.244141 14.46875 C 45.388965 14.017271 45.528621 13.562664 45.660156 13.105469 L 50.525391 11.361328 C 51.591658 10.979374 51.866273 9.5988192 51.027344 8.8378906 L 47.199219 5.3652344 L 47.199219 5.3632812 C 47.252369 4.8931016 47.298649 4.4214443 47.337891 3.9472656 L 51.771484 1.2871094 C 52.744239 0.70472762 52.744239 -0.70472737 51.771484 -1.2871094 L 47.337891 -3.9472656 C 47.298651 -4.4214443 47.252361 -4.8931016 47.199219 -5.3632812 L 47.199219 -5.3652344 L 51.027344 -8.8378906 C 51.866273 -9.5988192 51.591658 -10.979374 50.525391 -11.361328 L 45.660156 -13.105469 C 45.528621 -13.562664 45.388965 -14.017271 45.244141 -14.46875 L 45.244141 -14.470703 L 48.322266 -18.623047 C 48.996522 -19.532893 48.458027 -20.83323 47.337891 -21 L 42.208984 -21.763672 C 41.993492 -22.179681 41.772244 -22.593191 41.544922 -23.001953 L 43.761719 -27.693359 C 44.245022 -28.717355 43.463008 -29.88717 42.332031 -29.832031 L 37.134766 -29.580078 C 36.84697 -29.940563 36.553797 -30.296587 36.255859 -30.648438 L 37.517578 -35.699219 C 37.74827 -36.627311 37.063312 -37.531418 36.107422 -37.560547 C 35.970028 -37.564947 35.832675 -37.550538 35.699219 -37.517578 L 30.648438 -36.255859 C 30.296588 -36.553797 29.940563 -36.84697 29.580078 -37.134766 L 29.832031 -42.332031 C 29.874401 -43.204941 29.164601 -43.929131 28.291016 -43.904297 C 28.084094 -43.898497 27.880607 -43.849967 27.693359 -43.761719 L 23.001953 -41.544922 C 22.593191 -41.772244 22.179681 -41.993492 21.763672 -42.208984 L 21 -47.337891 C 20.92301 -47.859074 20.578276 -48.301675 20.091797 -48.503906 C 19.912724 -48.577756 19.721044 -48.616222 19.527344 -48.617188 C 19.201901 -48.619588 18.884508 -48.516063 18.623047 -48.322266 L 14.470703 -45.244141 L 14.46875 -45.244141 C 14.017271 -45.388965 13.562664 -45.528621 13.105469 -45.660156 L 11.361328 -50.525391 C 11.183524 -51.021168 10.758744 -51.387382 10.242188 -51.490234 C 10.115558 -51.515214 9.9862355 -51.523755 9.8574219 -51.515625 C 9.46691 -51.492035 9.1010638 -51.316819 8.8378906 -51.027344 L 5.3652344 -47.199219 L 5.3632812 -47.199219 C 4.8931017 -47.252369 4.4214443 -47.298649 3.9472656 -47.337891 L 1.2871094 -51.771484 C 1.0159077 -52.223636 0.52724895 -52.500221 0 -52.5 z M -0.22265625 -43.123047 C -0.11315315 -43.128265 -0.00155025 -43.127365 0.11132812 -43.121094 C 1.8170461 -43.076944 3.1210937 -41.717438 3.1210938 -40.011719 C 3.1210938 -35.89793 -3.0996094 -35.89793 -3.0996094 -40.011719 C -3.1002956 -41.704893 -1.8652027 -43.044782 -0.22265625 -43.123047 z M -7.09375 -37.851562 L -2.1210938 -32.878906 C -0.94950414 -31.707801 0.94950414 -31.707801 2.1210938 -32.878906 L 7.09375 -37.851562 C 18.653608 -35.711841 28.376352 -28.434624 33.816406 -18.462891 L 30.613281 -12.177734 C 29.861364 -10.701026 30.449008 -8.894369 31.925781 -8.1425781 L 38.1875 -4.9511719 C 38.394081 -3.3308237 38.5 -1.6779255 38.5 0 C 38.5 10.261367 34.517944 19.564904 28.009766 26.455078 L 21.041016 25.351562 C 19.404734 25.093003 17.868543 26.209518 17.609375 27.845703 L 16.505859 34.8125 C 11.507571 37.17822 5.9127461 38.5 0 38.5 C -5.9127461 38.5 -11.507571 37.17822 -16.505859 34.8125 L -17.609375 27.845703 C -17.868543 26.209518 -19.404734 25.093004 -21.041016 25.351562 L -28.009766 26.455078 C -34.517944 19.564904 -38.5 10.261367 -38.5 0 C -38.5 -1.6779255 -38.394081 -3.3327768 -38.1875 -4.953125 L -31.925781 -8.1425781 C -30.449008 -8.894369 -29.861364 -10.701026 -30.613281 -12.177734 L -33.816406 -18.462891 C -28.376352 -28.434624 -18.653608 -35.711842 -7.09375 -37.851562 z M -38.283203 -15.498047 C -38.1737 -15.503265 -38.062097 -15.504318 -37.949219 -15.498047 C -36.243501 -15.448867 -34.939453 -14.092436 -34.939453 -12.386719 C -34.939453 -8.2729298 -41.160156 -8.2729298 -41.160156 -12.386719 C -41.160842 -14.079894 -39.92575 -15.419781 -38.283203 -15.498047 z M 37.824219 -15.46875 C 37.933722 -15.473968 38.045325 -15.475021 38.158203 -15.46875 C 39.86392 -15.41958 41.167969 -14.063139 41.167969 -12.357422 C 41.167969 -8.2436309 34.947266 -8.2436309 34.947266 -12.357422 C 34.946578 -14.050598 36.18167 -15.390484 37.824219 -15.46875 z M -23.746094 29.246094 C -23.636591 29.240876 -23.524988 29.241776 -23.412109 29.248047 C -21.706391 29.297217 -20.402344 30.653658 -20.402344 32.359375 C -20.402344 36.473166 -26.623047 36.473166 -26.623047 32.359375 C -26.623733 30.6662 -25.38864 29.324359 -23.746094 29.246094 z M 23.294922 29.259766 C 23.404425 29.254548 23.516028 29.255448 23.628906 29.261719 C 25.334625 29.310899 26.638672 30.665377 26.638672 32.371094 C 26.638672 36.484885 20.417969 36.484885 20.417969 32.371094 C 20.417281 30.67792 21.652375 29.33803 23.294922 29.259766 z "
     transform="translate(53,53)" /></svg>
