<?xml version="1.0" encoding="UTF-8" standalone="no"?>
<!-- Created with Inkscape (http://www.inkscape.org/) -->

<svg
   width="155.28905mm"
   height="200.46744mm"
   viewBox="0 0 155.28905 200.46744"
   version="1.1"
   id="svg1"
   xml:space="preserve"
   inkscape:version="1.4.2 (ebf0e940d0, 2025-05-08)"
   sodipodi:docname="about-mouseos.svg"
   xmlns:inkscape="http://www.inkscape.org/namespaces/inkscape"
   xmlns:sodipodi="http://sodipodi.sourceforge.net/DTD/sodipodi-0.dtd"
   xmlns:xlink="http://www.w3.org/1999/xlink"
   xmlns="http://www.w3.org/2000/svg"
   xmlns:svg="http://www.w3.org/2000/svg"><sodipodi:namedview
     id="namedview1"
     pagecolor="#505050"
     bordercolor="#ffffff"
     borderopacity="1"
     inkscape:showpageshadow="0"
     inkscape:pageopacity="0"
     inkscape:pagecheckerboard="1"
     inkscape:deskcolor="#505050"
     inkscape:document-units="mm"
     inkscape:zoom="2.531143"
     inkscape:cx="209.19403"
     inkscape:cy="274.18443"
     inkscape:window-width="2560"
     inkscape:window-height="1379"
     inkscape:window-x="0"
     inkscape:window-y="0"
     inkscape:window-maximized="0"
     inkscape:current-layer="g1"
     showgrid="false" /><defs
     id="defs1"><filter
       inkscape:collect="always"
       style="color-interpolation-filters:sRGB"
       id="filter1"
       x="-0.033529142"
       y="-0.025586163"
       width="1.0670583"
       height="1.0511723"><feGaussianBlur
         inkscape:collect="always"
         stdDeviation="1.6164573"
         id="feGaussianBlur1" /></filter><linearGradient
       inkscape:collect="always"
       xlink:href="#linearGradient5"
       id="linearGradient14"
       x1="123.47323"
       y1="116.27534"
       x2="132.78062"
       y2="131.72394"
       gradientUnits="userSpaceOnUse"
       gradientTransform="matrix(-0.21441132,0.36615951,-0.36615951,-0.21441132,-5.993407,142.24026)" /><linearGradient
       inkscape:collect="always"
       id="linearGradient5"><stop
         style="stop-color:#859fd5;stop-opacity:1;"
         offset="0"
         id="stop3" /><stop
         style="stop-color:#7ebae4;stop-opacity:1"
         offset="1"
         id="stop5" /></linearGradient><linearGradient
       inkscape:collect="always"
       xlink:href="#linearGradient11"
       id="linearGradient12"
       x1="92.023262"
       y1="161.67136"
       x2="112.37114"
       y2="131.93381"
       gradientUnits="userSpaceOnUse"
       gradientTransform="matrix(0.56121931,0,0,0.56121931,24.368833,9.8480027)" /><linearGradient
       id="linearGradient11"
       inkscape:collect="always"><stop
         style="stop-color:#85bbd5;stop-opacity:1;"
         offset="0"
         id="stop11" /><stop
         style="stop-color:#c5dde9;stop-opacity:1;"
         offset="1"
         id="stop12" /></linearGradient></defs><g
     inkscape:label="Layer 1"
     inkscape:groupmode="layer"
     id="layer1"
     transform="translate(-12.269196,-41.127738)"><path
       id="rect3-3"
       style="mix-blend-mode:normal;fill:none;fill-opacity:1;stroke:#333333;stroke-width:2;stroke-linecap:round;stroke-linejoin:round;stroke-dasharray:none;stroke-opacity:1;paint-order:stroke fill markers;filter:url(#filter1)"
       d="M 20.850613,46.007236 H 158.97682 c 2.05086,0 3.70192,1.718555 3.70192,3.853261 V 232.86243 c 0,2.13471 -1.65106,3.85326 -3.70192,3.85326 H 20.850613 c -2.050863,0 -3.701919,-1.71855 -3.701919,-3.85326 V 49.860497 c 0,-2.134706 1.651056,-3.853261 3.701919,-3.853261 z"
       sodipodi:nodetypes="sssssssss" /><path
       id="rect3"
       style="opacity:1;fill:#2c2b31;fill-opacity:1;stroke-width:0.264583;stroke:#3d3a3d;stroke-opacity:1"
       d="M 20.850612,46.007236 H 158.97682 c 2.05086,0 3.70192,1.718555 3.70192,3.853261 V 232.86242 c 0,2.13471 -1.65106,3.85326 -3.70192,3.85326 H 20.850612 c -2.050863,0 -3.701919,-1.71855 -3.701919,-3.85326 V 49.860497 c 0,-2.134706 1.651056,-3.853261 3.701919,-3.853261 z"
       sodipodi:nodetypes="sssssssss" /><path
       id="path1"
       style="opacity:1;fill:#2e2e38;fill-opacity:1;stroke-width:0.264583"
       d="m 159.81381,52.088444 a 3.2183926,3.2183926 0 0 1 -3.2184,3.218392 3.2183926,3.2183926 0 0 1 -3.21839,-3.218392 3.2183926,3.2183926 0 0 1 3.21839,-3.218393 3.2183926,3.2183926 0 0 1 3.2184,3.218393 z" /><text
       xml:space="preserve"
       style="font-style:normal;font-variant:normal;font-weight:bold;font-stretch:normal;font-size:4.23333px;font-family:'DejaVu Sans';-inkscape-font-specification:'DejaVu Sans, Bold';font-variant-ligatures:normal;font-variant-caps:normal;font-variant-numeric:normal;font-variant-east-asian:normal;text-align:start;writing-mode:lr-tb;direction:ltr;text-anchor:start;fill:#ffffff;fill-opacity:1;stroke-width:0.363618"
       x="82.780029"
       y="53.400482"
       id="text1"><tspan
         sodipodi:role="line"
         id="tspan1"
         style="font-style:normal;font-variant:normal;font-weight:bold;font-stretch:normal;font-size:4.23333px;font-family:'DejaVu Sans';-inkscape-font-specification:'DejaVu Sans, Bold';font-variant-ligatures:normal;font-variant-caps:normal;font-variant-numeric:normal;font-variant-east-asian:normal;stroke-width:0.363618"
         x="82.780029"
         y="53.400482">About</tspan></text><path
       d="m 157.75688,51.096615 -0.94464,0.948779 0.94464,0.944644 -0.24598,0.250114 -0.94878,-0.948778 -0.94878,0.948778 -0.24391,-0.250114 0.94258,-0.944644 -0.94258,-0.948779 0.24391,-0.250113 0.94878,0.948778 0.94878,-0.948778 z"
       id="text1-9-6"
       style="font-size:4.23333px;font-family:'DejaVu Sans';-inkscape-font-specification:'DejaVu Sans, Normal';fill:#ffffff;stroke-width:0.363618"
       aria-label="×" /><path
       d="m 24.058167,53.911687 -1.868965,-1.871377 1.868965,-1.871376 0.306269,0.306269 -1.562695,1.565107 1.562695,1.565107 z"
       id="text1-9-6-1"
       style="font-size:4.93889px;font-family:'DejaVu Sans';-inkscape-font-specification:'DejaVu Sans, Normal';fill:#ffffff;stroke-width:0.363618"
       aria-label="𐌂" /><path
       id="rect1-0-5"
       style="opacity:1;fill:#384c5a;fill-opacity:1;stroke-width:0.262351"
       d="M 28.197166,121.10517 H 151.5273 c 1.78874,0 3.22878,1.44004 3.22878,3.22878 v 8.07705 c 0,1.78875 -1.44004,3.22878 -3.22878,3.22878 H 28.197166 c -1.78874,0 -3.22878,-1.44003 -3.22878,-3.22878 v -8.07705 c 0,-1.78874 1.44004,-3.22878 3.22878,-3.22878 z"
       sodipodi:nodetypes="sssssssss" /><path
       id="rect1-6"
       style="opacity:1;fill:#384c5a;fill-opacity:1;stroke-width:0.262351;stroke:none;stroke-opacity:1"
       d="m 28.19716,142.0193 h 123.33013 c 1.78874,0 3.22878,1.44004 3.22878,3.22878 v 80.60966 c 0,1.78875 -1.44004,3.22878 -3.22878,3.22878 H 28.19716 c -1.788744,0 -3.22878,-1.44003 -3.22878,-3.22878 v -80.60966 c 0,-1.78874 1.440036,-3.22878 3.22878,-3.22878 z" /><text
       xml:space="preserve"
       style="font-style:normal;font-variant:normal;font-weight:normal;font-stretch:normal;font-size:4.23333px;font-family:'DejaVu Sans';-inkscape-font-specification:'DejaVu Sans, Normal';font-variant-ligatures:normal;font-variant-caps:normal;font-variant-numeric:normal;font-variant-east-asian:normal;text-align:start;writing-mode:lr-tb;direction:ltr;text-anchor:start;fill:#ffffff;fill-opacity:1;stroke-width:0.363618"
       x="28.577785"
       y="223.20526"
       id="text1-9-2-6"><tspan
         sodipodi:role="line"
         id="tspan1-7-5-4"
         style="font-style:normal;font-variant:normal;font-weight:normal;font-stretch:normal;font-size:4.23333px;font-family:'DejaVu Sans';-inkscape-font-specification:'DejaVu Sans, Normal';font-variant-ligatures:normal;font-variant-caps:normal;font-variant-numeric:normal;font-variant-east-asian:normal;stroke-width:0.363618"
         x="28.577785"
         y="223.20526">System Details</tspan></text><text
       xml:space="preserve"
       style="font-style:normal;font-variant:normal;font-weight:normal;font-stretch:normal;font-size:4.23333px;font-family:'DejaVu Sans';-inkscape-font-specification:'DejaVu Sans, Normal';font-variant-ligatures:normal;font-variant-caps:normal;font-variant-numeric:normal;font-variant-east-asian:normal;text-align:start;writing-mode:lr-tb;direction:ltr;text-anchor:start;fill:#bebebe;fill-opacity:1;stroke-width:0.363618"
       x="28.500652"
       y="132.25819"
       id="text1-9-46-0"><tspan
         sodipodi:role="line"
         id="tspan1-7-9-0"
         style="font-style:normal;font-variant:normal;font-weight:normal;font-stretch:normal;font-size:4.23333px;font-family:'DejaVu Sans';-inkscape-font-specification:'DejaVu Sans, Normal';font-variant-ligatures:normal;font-variant-caps:normal;font-variant-numeric:normal;font-variant-east-asian:normal;fill:#bebebe;fill-opacity:1;stroke-width:0.363618"
         x="28.500652"
         y="132.25819">dream00</tspan></text><text
       xml:space="preserve"
       style="font-style:normal;font-variant:normal;font-weight:normal;font-stretch:normal;font-size:3.52778px;font-family:'DejaVu Sans';-inkscape-font-specification:'DejaVu Sans, Normal';font-variant-ligatures:normal;font-variant-caps:normal;font-variant-numeric:normal;font-variant-east-asian:normal;text-align:start;writing-mode:lr-tb;direction:ltr;text-anchor:start;fill:#bebebe;fill-opacity:1;stroke-width:0.363618"
       x="28.531628"
       y="205.4447"
       id="text1-9-46-7-4"><tspan
         sodipodi:role="line"
         id="tspan1-7-9-5-6"
         style="font-style:normal;font-variant:normal;font-weight:normal;font-stretch:normal;font-size:3.52778px;font-family:'DejaVu Sans';-inkscape-font-specification:'DejaVu Sans, Normal';font-variant-ligatures:normal;font-variant-caps:normal;font-variant-numeric:normal;font-variant-east-asian:normal;fill:#bebebe;fill-opacity:1;stroke-width:0.363618"
         x="28.531628"
         y="205.4447">Disk Capacity</tspan></text><text
       xml:space="preserve"
       style="font-style:normal;font-variant:normal;font-weight:normal;font-stretch:normal;font-size:3.52778px;font-family:'DejaVu Sans';-inkscape-font-specification:'DejaVu Sans, Normal';font-variant-ligatures:normal;font-variant-caps:normal;font-variant-numeric:normal;font-variant-east-asian:normal;text-align:start;writing-mode:lr-tb;direction:ltr;text-anchor:start;fill:#bebebe;fill-opacity:1;stroke-width:0.363618"
       x="28.539288"
       y="190.8777"
       id="text1-9-46-7-8-26"><tspan
         sodipodi:role="line"
         id="tspan1-7-9-5-9-7"
         style="font-style:normal;font-variant:normal;font-weight:normal;font-stretch:normal;font-size:3.52778px;font-family:'DejaVu Sans';-inkscape-font-specification:'DejaVu Sans, Normal';font-variant-ligatures:normal;font-variant-caps:normal;font-variant-numeric:normal;font-variant-east-asian:normal;fill:#bebebe;fill-opacity:1;stroke-width:0.363618"
         x="28.539288"
         y="190.8777">Memory</tspan></text><text
       xml:space="preserve"
       style="font-style:normal;font-variant:normal;font-weight:normal;font-stretch:normal;font-size:3.52778px;font-family:'DejaVu Sans';-inkscape-font-specification:'DejaVu Sans, Normal';font-variant-ligatures:normal;font-variant-caps:normal;font-variant-numeric:normal;font-variant-east-asian:normal;text-align:start;writing-mode:lr-tb;direction:ltr;text-anchor:start;fill:#bebebe;fill-opacity:1;stroke-width:0.363618"
       x="28.540493"
       y="176.35086"
       id="text1-9-46-7-8-2-5"><tspan
         sodipodi:role="line"
         id="tspan1-7-9-5-9-1-6"
         style="font-style:normal;font-variant:normal;font-weight:normal;font-stretch:normal;font-size:3.52778px;font-family:'DejaVu Sans';-inkscape-font-specification:'DejaVu Sans, Normal';font-variant-ligatures:normal;font-variant-caps:normal;font-variant-numeric:normal;font-variant-east-asian:normal;fill:#bebebe;fill-opacity:1;stroke-width:0.363618"
         x="28.540493"
         y="176.35086">Processor</tspan></text><text
       xml:space="preserve"
       style="font-style:normal;font-variant:normal;font-weight:normal;font-stretch:normal;font-size:3.52778px;font-family:'DejaVu Sans';-inkscape-font-specification:'DejaVu Sans, Normal';font-variant-ligatures:normal;font-variant-caps:normal;font-variant-numeric:normal;font-variant-east-asian:normal;text-align:start;writing-mode:lr-tb;direction:ltr;text-anchor:start;fill:#bebebe;fill-opacity:1;stroke-width:0.363618"
       x="28.526363"
       y="161.85835"
       id="text1-9-46-7-8-2-0-9"><tspan
         sodipodi:role="line"
         id="tspan1-7-9-5-9-1-8-8"
         style="font-style:normal;font-variant:normal;font-weight:normal;font-stretch:normal;font-size:3.52778px;font-family:'DejaVu Sans';-inkscape-font-specification:'DejaVu Sans, Normal';font-variant-ligatures:normal;font-variant-caps:normal;font-variant-numeric:normal;font-variant-east-asian:normal;fill:#bebebe;fill-opacity:1;stroke-width:0.363618"
         x="28.526363"
         y="161.85835">Hardware Model</tspan></text><text
       xml:space="preserve"
       style="font-style:normal;font-variant:normal;font-weight:normal;font-stretch:normal;font-size:3.52778px;font-family:'DejaVu Sans';-inkscape-font-specification:'DejaVu Sans, Normal';font-variant-ligatures:normal;font-variant-caps:normal;font-variant-numeric:normal;font-variant-east-asian:normal;text-align:start;writing-mode:lr-tb;direction:ltr;text-anchor:start;fill:#bebebe;fill-opacity:1;stroke-width:0.363618"
       x="28.511044"
       y="147.26251"
       id="text1-9-46-7-8-2-6-7"><tspan
         sodipodi:role="line"
         id="tspan1-7-9-5-9-1-2-2"
         style="font-style:normal;font-variant:normal;font-weight:normal;font-stretch:normal;font-size:3.52778px;font-family:'DejaVu Sans';-inkscape-font-specification:'DejaVu Sans, Normal';font-variant-ligatures:normal;font-variant-caps:normal;font-variant-numeric:normal;font-variant-east-asian:normal;fill:#bebebe;fill-opacity:1;stroke-width:0.363618"
         x="28.511044"
         y="147.26251">Operating System</tspan></text><text
       xml:space="preserve"
       style="font-style:normal;font-variant:normal;font-weight:normal;font-stretch:normal;font-size:3.52778px;font-family:'DejaVu Sans';-inkscape-font-specification:'DejaVu Sans, Normal';font-variant-ligatures:normal;font-variant-caps:normal;font-variant-numeric:normal;font-variant-east-asian:normal;text-align:start;writing-mode:lr-tb;direction:ltr;text-anchor:start;fill:#bebebe;fill-opacity:1;stroke-width:0.363618"
       x="28.528454"
       y="126.65085"
       id="text1-9-46-7-8-2-8-8"><tspan
         sodipodi:role="line"
         id="tspan1-7-9-5-9-1-4-2"
         style="font-style:normal;font-variant:normal;font-weight:normal;font-stretch:normal;font-size:3.52778px;font-family:'DejaVu Sans';-inkscape-font-specification:'DejaVu Sans, Normal';font-variant-ligatures:normal;font-variant-caps:normal;font-variant-numeric:normal;font-variant-east-asian:normal;fill:#bebebe;fill-opacity:1;stroke-width:0.363618"
         x="28.528454"
         y="126.65085">Device Name</tspan></text><text
       xml:space="preserve"
       style="font-style:normal;font-variant:normal;font-weight:normal;font-stretch:normal;font-size:4.23333px;font-family:'DejaVu Sans';-inkscape-font-specification:'DejaVu Sans, Normal';font-variant-ligatures:normal;font-variant-caps:normal;font-variant-numeric:normal;font-variant-east-asian:normal;text-align:start;writing-mode:lr-tb;direction:ltr;text-anchor:start;fill:#ffffff;fill-opacity:1;stroke-width:0.363618"
       x="28.521297"
       y="182.23099"
       id="text1-9-9"><tspan
         sodipodi:role="line"
         id="tspan1-7-96"
         style="font-style:normal;font-variant:normal;font-weight:normal;font-stretch:normal;font-size:4.23333px;font-family:'DejaVu Sans';-inkscape-font-specification:'DejaVu Sans, Normal';font-variant-ligatures:normal;font-variant-caps:normal;font-variant-numeric:normal;font-variant-east-asian:normal;stroke-width:0.363618"
         x="28.521297"
         y="182.23099">Intel Core i7-4790K × 8</tspan></text><path
       style="font-size:4.93889px;font-family:'DejaVu Sans';-inkscape-font-specification:'DejaVu Sans, Normal';fill:#ffffff;stroke-width:0.42778"
       d="m 148.1475,223.81387 1.86897,-1.87137 -1.86897,-1.87138 -0.30627,0.30627 1.5627,1.56511 -1.5627,1.5651 z"
       id="text1-9-6-1-6-0"
       aria-label="𐌂" /><text
       xml:space="preserve"
       style="font-style:normal;font-variant:normal;font-weight:normal;font-stretch:normal;font-size:4.23333px;font-family:'DejaVu Sans';-inkscape-font-specification:'DejaVu Sans, Normal';font-variant-ligatures:normal;font-variant-caps:normal;font-variant-numeric:normal;font-variant-east-asian:normal;text-align:start;writing-mode:lr-tb;direction:ltr;text-anchor:start;fill:#ffffff;fill-opacity:1;stroke-width:0.363618"
       x="28.572689"
       y="196.69038"
       id="text1-9-8-2"><tspan
         sodipodi:role="line"
         id="tspan1-7-88-7"
         style="font-style:normal;font-variant:normal;font-weight:normal;font-stretch:normal;font-size:4.23333px;font-family:'DejaVu Sans';-inkscape-font-specification:'DejaVu Sans, Normal';font-variant-ligatures:normal;font-variant-caps:normal;font-variant-numeric:normal;font-variant-east-asian:normal;stroke-width:0.363618"
         x="28.572689"
         y="196.69038">32.0 GiB</tspan></text><text
       xml:space="preserve"
       style="font-style:normal;font-variant:normal;font-weight:normal;font-stretch:normal;font-size:4.23333px;font-family:'DejaVu Sans';-inkscape-font-specification:'DejaVu Sans, Normal';font-variant-ligatures:normal;font-variant-caps:normal;font-variant-numeric:normal;font-variant-east-asian:normal;text-align:start;writing-mode:lr-tb;direction:ltr;text-anchor:start;fill:#ffffff;fill-opacity:1;stroke-width:0.363618"
       x="28.518276"
       y="211.27795"
       id="text1-9-4-6"><tspan
         sodipodi:role="line"
         id="tspan1-7-3-1"
         style="font-style:normal;font-variant:normal;font-weight:normal;font-stretch:normal;font-size:4.23333px;font-family:'DejaVu Sans';-inkscape-font-specification:'DejaVu Sans, Normal';font-variant-ligatures:normal;font-variant-caps:normal;font-variant-numeric:normal;font-variant-east-asian:normal;stroke-width:0.363618"
         x="28.518276"
         y="211.27795">Unknown</tspan></text><text
       xml:space="preserve"
       style="font-style:normal;font-variant:normal;font-weight:normal;font-stretch:normal;font-size:4.23333px;font-family:'DejaVu Sans';-inkscape-font-specification:'DejaVu Sans, Normal';font-variant-ligatures:normal;font-variant-caps:normal;font-variant-numeric:normal;font-variant-east-asian:normal;text-align:start;writing-mode:lr-tb;direction:ltr;text-anchor:start;fill:#ffffff;fill-opacity:1;stroke-width:0.363618"
       x="28.508099"
       y="167.62538"
       id="text1-9-1-32"><tspan
         sodipodi:role="line"
         id="tspan1-7-8-1"
         style="font-style:normal;font-variant:normal;font-weight:normal;font-stretch:normal;font-size:4.23333px;font-family:'DejaVu Sans';-inkscape-font-specification:'DejaVu Sans, Normal';font-variant-ligatures:normal;font-variant-caps:normal;font-variant-numeric:normal;font-variant-east-asian:normal;stroke-width:0.363618"
         x="28.508099"
         y="167.62538">ASUS All Series</tspan></text><text
       xml:space="preserve"
       style="font-style:normal;font-variant:normal;font-weight:normal;font-stretch:normal;font-size:4.23333px;font-family:'DejaVu Sans';-inkscape-font-specification:'DejaVu Sans, Normal';font-variant-ligatures:normal;font-variant-caps:normal;font-variant-numeric:normal;font-variant-east-asian:normal;text-align:start;writing-mode:lr-tb;direction:ltr;text-anchor:start;fill:#ffffff;fill-opacity:1;stroke-width:0.363618"
       x="28.500835"
       y="153.08612"
       id="text1-9-1-3-5"><tspan
         sodipodi:role="line"
         id="tspan1-7-8-3-9"
         style="font-style:normal;font-variant:normal;font-weight:normal;font-stretch:normal;font-size:4.23333px;font-family:'DejaVu Sans';-inkscape-font-specification:'DejaVu Sans, Normal';font-variant-ligatures:normal;font-variant-caps:normal;font-variant-numeric:normal;font-variant-east-asian:normal;stroke-width:0.363618"
         x="28.500835"
         y="153.08612">MOUSE-OS 25.11 (Xantusia)</tspan></text><path
       id="rect2-9"
       style="opacity:0.500777;fill:#bebebe;stroke-width:0.303354"
       d="m 147.68299,126.71872 c -0.23245,0.007 -0.48513,0.11668 -0.68885,0.32039 l -1.79679,1.79679 c -0.69576,0.69576 -0.45424,1.50017 -0.45424,1.50017 0,0 0.8817,0.10274 1.46968,-0.48525 l 1.79627,-1.79627 c 0.36217,-0.36216 0.42748,-0.88046 0.14625,-1.16168 -0.12303,-0.12304 -0.29153,-0.17958 -0.47232,-0.17415 z m -0.35347,0.894 c 0.0379,2.9e-4 0.0717,0.0123 0.0966,0.0372 0.0663,0.0663 0.042,0.19778 -0.0548,0.29456 l -1.61024,1.61023 c -0.0968,0.0968 -0.22819,0.12114 -0.29455,0.0548 -0.0663,-0.0663 -0.042,-0.19726 0.0548,-0.29404 l 1.61024,-1.61023 c 0.0605,-0.0605 0.13474,-0.093 0.19789,-0.0925 z" /><path
       style="opacity:0.256536;fill:#bebebe;fill-opacity:1;stroke-width:0.264583"
       d="M 24.96838,214.53935 H 154.75607"
       id="path3" /><path
       style="opacity:1;fill:none;fill-opacity:1;stroke:#1c1b22;stroke-width:0.264583;stroke-opacity:1"
       d="M 24.96838,214.53935 H 154.75607"
       id="path4"
       sodipodi:nodetypes="cc" /><path
       style="fill:none;fill-opacity:1;stroke:#1c1b22;stroke-width:0.264583;stroke-opacity:1"
       d="M 24.96838,200.02663 H 154.75607"
       id="path4-7"
       sodipodi:nodetypes="cc" /><path
       style="fill:none;fill-opacity:1;stroke:#1c1b22;stroke-width:0.264583;stroke-opacity:1"
       d="M 24.96838,185.51391 H 154.75607"
       id="path4-7-4"
       sodipodi:nodetypes="cc" /><path
       style="fill:none;fill-opacity:1;stroke:#1c1b22;stroke-width:0.264583;stroke-opacity:1"
       d="M 24.96838,171.00119 H 154.75607"
       id="path4-7-5"
       sodipodi:nodetypes="cc" /><path
       style="fill:none;fill-opacity:1;stroke:#1c1b22;stroke-width:0.264583;stroke-opacity:1"
       d="M 24.96838,156.48847 H 154.75607"
       id="path4-7-4-2"
       sodipodi:nodetypes="cc" /><g
       id="g1"
       transform="translate(2.8190374)"><path
         d="m 84.873083,92.551888 c 0.0352,-0.05325 0.31547,-0.171905 0.34969,-0.22814 0.081,-0.05971 0.2138,-0.324406 0.33863,-0.606136 0.16458,-0.371413 0.31531,-0.772452 0.31531,-0.772452 0.22512,-0.128168 0.49423,-0.204986 0.56557,-0.512552 0.17374,-0.151864 0.391,-0.194883 0.6186,-0.212084 0.32311,-0.0861 0.31734,-0.266176 0.26509,-0.459532 -0.0686,-0.136588 -0.11316,-0.271191 -0.2568,-0.414032 -0.0699,-0.08474 -0.15637,-0.111514 -0.25713,-0.14074 -1.32676,-0.354556 -1.21246,0.79328 -1.78371,1.226388 l -1.25487,0.618597"
         style="display:inline;fill:#a4cbde;fill-opacity:1;stroke:#ffffff;stroke-width:0.196427;stroke-linecap:butt;stroke-linejoin:round;stroke-dasharray:none;stroke-opacity:1;paint-order:fill markers stroke"
         id="path1-6"
         sodipodi:nodetypes="ccccccccccc" /><path
         id="path2-0"
         style="display:inline;fill:url(#linearGradient12);stroke:#ffffff;stroke-width:0.196427;stroke-linecap:butt;stroke-linejoin:round;stroke-dasharray:none;stroke-opacity:1;paint-order:fill markers stroke"
         d="M 87.208203 83.729789 C 87.083541 83.735607 86.948468 83.793715 86.829415 83.917891 C 85.914205 83.939691 85.25349 84.266066 84.51276 84.572115 C 84.06201 84.758359 83.685972 84.641172 83.201212 84.795357 L 82.48136 85.136938 C 80.98811 84.129378 79.524732 85.625552 80.762602 86.377689 C 80.855502 86.434169 80.797752 86.432801 80.922282 86.479492 C 80.799932 86.440842 80.841436 86.478455 80.731596 86.432466 C 77.227556 84.974309 77.505809 90.964544 80.908329 89.32583 C 79.417889 93.8526 77.47726 92.604508 75.57067 95.264485 C 74.422357 96.530907 73.610009 98.133097 73.82039 100.75821 L 73.808504 100.74167 C 69.666154 108.26336 69.299116 96.405148 75.108166 90.446175 C 75.501446 90.042739 75.201573 89.923763 74.861153 90.183658 C 67.910173 95.49059 68.233788 110.81121 75.028068 102.46508 L 75.023934 102.45939 L 75.959794 102.9529 C 74.999794 103.82338 75.599384 104.21407 76.454854 104.52594 L 80.238086 104.74556 C 80.456436 104.73956 80.422585 104.44503 80.373995 104.30373 C 80.227275 103.8771 79.818937 103.40504 78.514677 103.62315 C 78.163087 103.68825 77.863945 103.55154 77.532825 103.44745 C 77.943275 103.26906 78.342548 102.8466 78.769958 103.04127 L 79.71357 103.45262 C 80.05779 103.64834 80.362643 103.89227 80.468563 104.32853 C 80.499263 104.45502 80.864563 104.59342 81.049923 104.56108 L 83.660099 104.25205 C 83.890049 104.13766 83.805607 103.93094 83.717977 103.78903 C 83.337097 103.17213 82.687501 103.20886 82.027641 103.36942 C 81.182241 103.57507 80.806246 103.19096 80.749166 103.12964 C 82.384776 101.94692 83.509336 100.59074 82.251916 98.428116 C 83.342076 97.586399 84.064954 96.018512 84.213554 94.564786 C 85.428364 94.188951 86.723205 92.982304 87.112085 91.953576 C 87.337195 91.825403 87.606602 91.748507 87.677942 91.440946 C 87.851672 91.289072 88.068919 91.245753 88.296509 91.228556 C 88.619629 91.142446 88.613859 90.9625 88.561609 90.769152 C 88.493009 90.632555 88.448407 90.415906 88.304777 90.273059 C 88.234877 90.188319 88.148178 90.161218 88.047428 90.131982 C 86.720668 89.777432 86.859096 90.83833 86.287846 91.271447 C 85.941476 91.729588 85.286293 92.177497 84.755123 92.287406 C 84.971183 91.626343 85.186946 90.843268 84.999036 90.182108 C 85.368626 89.34811 86.124754 88.596758 86.845434 88.063891 C 87.382694 87.662427 87.672098 86.858158 87.747188 86.017504 C 87.757588 85.901123 87.763492 85.784476 87.765792 85.667655 C 87.839792 85.163839 87.758798 84.711575 87.589058 84.288928 C 87.704991 83.955509 87.482459 83.716989 87.208203 83.729789 z " /><path
         style="display:inline;fill:#ffffff;fill-opacity:1;stroke:none;stroke-width:0.505711;stroke-linecap:butt;stroke-linejoin:round;stroke-dasharray:none;stroke-opacity:1;paint-order:fill markers stroke"
         d="m 83.328103,86.570175 c 0.1546,-1.05948 0.59875,-1.350136 1.33246,-0.871982 0.097,0.04147 0.1303,-0.01244 0.1887,-0.02876 -0.008,0.06056 -0.13121,0.147342 -0.34496,0.06857 -0.0713,-0.02621 -0.0674,0.08012 -0.0575,0.08912 0.1706,0.153975 0.0767,0.316352 -0.097,0.297894 -0.0232,-0.03039 -0.0689,-0.04715 -0.0921,-0.07287 -0.40238,-0.444813 -0.78042,-0.196223 -0.92961,0.517998 z"
         id="path5"
         sodipodi:nodetypes="cccsscscc" /><path
         style="display:inline;fill:none;fill-opacity:1;stroke:#ffffff;stroke-width:0.0387242;stroke-linecap:round;stroke-linejoin:round;stroke-dasharray:none;stroke-opacity:1;paint-order:fill markers stroke"
         d="m 86.995613,84.714028 c -0.0628,0.07493 -0.22069,0.385766 -0.21852,0.459871"
         id="path6-8"
         sodipodi:nodetypes="cc" /><path
         style="display:inline;fill:none;fill-opacity:1;stroke:#ffffff;stroke-width:0.0387242;stroke-linecap:round;stroke-linejoin:round;stroke-dasharray:none;stroke-opacity:1;paint-order:fill markers stroke"
         d="m 86.858093,84.616515 c -0.0879,0.09744 -0.37573,0.575792 -0.38605,0.732421"
         id="path6-93"
         sodipodi:nodetypes="cc" /><path
         style="display:inline;fill:none;fill-opacity:1;stroke:#ffffff;stroke-width:0.0387242;stroke-linecap:round;stroke-linejoin:round;stroke-dasharray:none;stroke-opacity:1;paint-order:fill markers stroke"
         d="m 86.775573,84.486487 c -0.12535,0.08244 -0.51825,0.630806 -0.53358,0.779924"
         id="path6-7"
         sodipodi:nodetypes="cc" /><path
         style="display:inline;fill:none;fill-opacity:1;stroke:#ffffff;stroke-width:0.0387242;stroke-linecap:round;stroke-linejoin:round;stroke-dasharray:none;stroke-opacity:1;paint-order:fill markers stroke"
         d="m 86.683053,84.381468 c -0.18536,0.07494 -0.70578,0.62831 -0.77112,0.904952"
         id="path6-9"
         sodipodi:nodetypes="cc" /><path
         style="display:inline;fill:none;fill-opacity:1;stroke:#ffffff;stroke-width:0.0387242;stroke-linecap:round;stroke-linejoin:round;stroke-dasharray:none;stroke-opacity:1;paint-order:fill markers stroke"
         d="m 86.591793,84.283198 c -0.12785,0.05743 -0.23569,0.12821 -0.32354,0.212326"
         id="path6"
         sodipodi:nodetypes="cc" /><path
         style="display:inline;fill:none;fill-opacity:1;stroke:#ffffff;stroke-width:0.0780095;stroke-linecap:round;stroke-linejoin:round;stroke-dasharray:none;stroke-opacity:1;paint-order:fill markers stroke"
         d="m 87.035613,84.04828 c 0.0893,-0.07356 0.1792,-0.106467 0.27293,-0.11748 0.0376,0.01957 0.0649,0.0096 0.0823,0.117378 0.01,0.06053 -0.001,0.1284 -0.0112,0.202467"
         id="path7"
         sodipodi:nodetypes="ccsc" /><path
         style="display:inline;fill:#ffffff;fill-opacity:1;stroke:#ffffff;stroke-width:0.0561216;stroke-linecap:round;stroke-linejoin:round;stroke-dasharray:none;stroke-opacity:1;paint-order:stroke fill markers"
         d="m 81.812183,86.600339 c -0.25933,0.0023 -0.50382,-0.0062 -0.75366,-0.05203 l -0.052,0.036 c -0.12982,0.01447 -0.34943,-0.03655 -0.55765,-0.006 0.3168,-0.01642 0.55165,0.124035 0.81468,0.252754 0.27429,0.112614 0.58082,0.13651 0.91962,0.07169 -0.23135,-0.02965 -0.46973,-0.05073 -0.65464,-0.137163 0.18489,0.0264 0.35636,0.0097 0.51438,-0.04989 -0.22543,0.0056 -0.43742,-0.01327 -0.63595,-0.05613 0.1371,0.0041 0.27219,-0.01508 0.40526,-0.05919 z"
         id="path8"
         sodipodi:nodetypes="ccccccccccc" /><path
         style="baseline-shift:baseline;display:inline;overflow:visible;vector-effect:none;fill:#ffffff;stroke-width:0.561216;paint-order:stroke fill markers;enable-background:accumulate;stop-color:#000000"
         d="m 78.762173,98.517368 v 0 c 0.47287,0.379583 0.65507,0.795559 0.81466,1.169547 0.15958,0.374005 0.17202,0.749785 0.0526,1.141075 -0.23882,0.78258 -0.92235,1.62669 -2.11469,2.59783 l 0.0362,0.0438 c 1.19543,-0.97367 1.9776,-1.8212 2.22296,-2.62524 0.12268,-0.40201 0.10971,-0.79389 -0.0548,-1.179439 -0.16451,-0.385548 -0.47933,-0.764272 -0.95692,-1.147645 z"
         id="path9"
         sodipodi:nodetypes="ccssccsscc" /><path
         style="display:inline;fill:none;fill-opacity:1;stroke:#ffffff;stroke-width:0.0561216;stroke-linecap:round;stroke-linejoin:miter;stroke-dasharray:none;stroke-opacity:1;paint-order:stroke fill markers"
         d="m 88.489233,90.569925 c -0.13497,-0.154347 -0.54648,-0.223775 -0.6816,-0.154365"
         id="path13"
         sodipodi:nodetypes="cc" /><path
         style="display:inline;fill:none;fill-opacity:1;stroke:#ffffff;stroke-width:0.0561216;stroke-linecap:round;stroke-linejoin:miter;stroke-dasharray:none;stroke-opacity:1;paint-order:stroke fill markers"
         d="m 88.561403,90.769228 c -0.17977,-0.191218 -0.57453,-0.280482 -0.66674,-0.158359"
         id="path14"
         sodipodi:nodetypes="cc" /><path
         style="display:inline;fill:none;fill-opacity:1;stroke:#ffffff;stroke-width:0.0561216;stroke-linecap:round;stroke-linejoin:miter;stroke-dasharray:none;stroke-opacity:1;paint-order:stroke fill markers"
         d="m 88.661533,91.06432 c -0.10021,-0.253053 -0.63548,-0.428219 -0.70251,-0.254482"
         id="path15"
         sodipodi:nodetypes="cc" /><path
         style="display:inline;fill:#ffffff;fill-opacity:1;stroke:#ffffff;stroke-width:0.0561216;stroke-linecap:round;stroke-linejoin:round;stroke-dasharray:none;stroke-opacity:1;paint-order:stroke fill markers"
         d="m 80.897293,89.360148 c 0.28177,-0.09997 0.56025,-0.303219 0.81306,-0.541361 -0.13303,0.307214 -0.50733,0.608494 -0.88618,0.767845"
         id="path16"
         sodipodi:nodetypes="ccc" /><path
         style="display:inline;fill:#ffffff;fill-opacity:1;stroke:#ffffff;stroke-width:0.0561216;stroke-linecap:round;stroke-linejoin:round;stroke-dasharray:none;stroke-opacity:1;paint-order:stroke fill markers"
         d="m 82.039453,88.554416 c -0.0481,0.18297 -0.12104,0.349484 -0.21859,0.499544 0.25998,-0.199423 0.392,-0.447809 0.43802,-0.713061 -0.0683,0.137385 -0.12543,0.269423 -0.21346,0.364018 z"
         id="path17"
         sodipodi:nodetypes="ccccc" /><path
         style="display:inline;fill:#ffffff;fill-opacity:1;stroke:#ffffff;stroke-width:0.0327315;stroke-linecap:round;stroke-linejoin:round;stroke-dasharray:none;stroke-opacity:1;paint-order:stroke fill markers"
         d="m 82.034423,85.458793 c 0.31432,-0.248496 0.77279,-0.557462 1.27734,-0.72529 -0.32059,0.150004 -0.48589,0.276604 -0.26025,0.236583 -0.37557,0.113648 -0.68708,0.313643 -1.01709,0.488707 z"
         id="path18"
         sodipodi:nodetypes="cccc" /><path
         style="baseline-shift:baseline;display:inline;overflow:visible;vector-effect:none;fill:#ffffff;stroke-width:0.561216;stroke-linecap:round;stroke-linejoin:round;paint-order:stroke fill markers;enable-background:accumulate;stop-color:#000000"
         d="m 81.582523,93.025746 c 0.44538,1.263979 1.83914,1.908141 3.10531,1.356218 0.028,-0.01257 0.0407,-0.04528 0.0285,-0.07344 -0.0126,-0.02793 -0.0453,-0.04068 -0.0734,-0.02848 -1.19922,0.522739 -2.63964,-0.06018 -3.06038,-1.254265 -0.0216,-0.0637 -0.0232,-0.06356 0,0 z"
         id="path20"
         sodipodi:nodetypes="cccccc" /><path
         style="baseline-shift:baseline;display:inline;overflow:visible;vector-effect:none;fill:#ffffff;stroke-width:0.561216;stroke-linecap:round;stroke-linejoin:round;paint-order:stroke fill markers;enable-background:accumulate;stop-color:#000000"
         d="m 79.623873,104.70063 c -0.0475,-0.32686 -0.20033,-0.6652 -0.60412,-0.66424 v 0 c 0,0 -0.0726,0.003 0,0 0.26504,-0.0124 0.51247,0.29592 0.5344,0.66248"
         id="path21"
         sodipodi:nodetypes="ccccc" /><path
         style="baseline-shift:baseline;display:inline;overflow:visible;vector-effect:none;fill:#ffffff;stroke-width:0.561216;stroke-linecap:round;stroke-linejoin:round;paint-order:stroke fill markers;enable-background:accumulate;stop-color:#000000"
         d="m 80.126613,104.71734 c -0.0226,-0.43507 -0.27399,-0.77279 -0.77377,-0.82812 v -10e-6 c 0,-3e-5 -0.0735,-0.003 0,0 0.145,0.006 0.70462,0.27443 0.702,0.82279"
         id="path22"
         sodipodi:nodetypes="cccsc" /><path
         style="baseline-shift:baseline;display:inline;overflow:visible;vector-effect:none;fill:#ffffff;stroke-width:0.665962;stroke-linecap:round;stroke-linejoin:round;paint-order:stroke fill markers;enable-background:accumulate;stop-color:#000000"
         d="m 83.110333,104.32537 c -0.0839,-0.32277 -0.27614,-0.60915 -0.68093,-0.60819 v -3e-5 c 0,0 -0.0862,0.003 0,0 0.27333,-0.0129 0.53086,0.26186 0.6107,0.61954"
         id="path21-3"
         sodipodi:nodetypes="ccccc" /><path
         style="baseline-shift:baseline;display:inline;overflow:visible;vector-effect:none;fill:#ffffff;stroke-width:0.665962;stroke-linecap:round;stroke-linejoin:round;paint-order:stroke fill markers;enable-background:accumulate;stop-color:#000000"
         d="m 83.577443,104.21799 c -0.11633,-0.35133 -0.39893,-0.60359 -0.85866,-0.65449 v 0 c -1e-5,-3e-5 -0.0873,-0.001 0,0 0.15317,0.003 0.65836,0.22187 0.80151,0.68005"
         id="path22-5"
         sodipodi:nodetypes="cccsc" /><path
         style="baseline-shift:baseline;display:inline;overflow:visible;vector-effect:none;fill:#ffffff;stroke-width:0.946908;stroke-linecap:round;stroke-linejoin:bevel;paint-order:stroke fill markers;enable-background:accumulate;stop-color:#000000"
         d="m 80.740233,98.817382 c -0.12161,0.01874 -0.12187,0.01735 0,0 0.14489,-0.02083 0.89916,-0.15798 1.50398,-0.407463 0.47431,-0.195649 0.25457,-0.211839 0.21171,-0.247847 -0.50961,0.283651 -1.38309,0.607462 -1.71569,0.65531 z"
         id="path26"
         sodipodi:nodetypes="ccscc" /><path
         style="baseline-shift:baseline;display:inline;overflow:visible;vector-effect:none;fill:#ffffff;stroke-width:0.561216;stroke-linecap:round;stroke-linejoin:round;paint-order:stroke fill markers;enable-background:accumulate;stop-color:#000000"
         d="m 84.823143,92.245129 c -0.85588,0.195342 -1.27214,0.56586 -2.10745,-0.340247 -0.0467,-0.05656 -0.0465,-0.05666 0,0 0.77885,1.05304 1.45698,0.627939 2.27465,0.421273"
         id="path19"
         sodipodi:nodetypes="cccc" /><path
         id="path10"
         style="display:inline;fill:#fba99b;stroke-width:0.678177;stroke-linecap:round;stroke-linejoin:round;paint-order:stroke markers fill"
         d="m 81.807273,87.880434 c 0,0.532686 -0.98612,1.294249 -1.83863,1.294249 -0.85251,0 -1.24859,-0.761563 -1.24859,-1.294249 1e-5,-0.975879 0.6911,-1.535996 1.54361,-0.964509 0.70812,0.474693 1.54361,0.431823 1.54361,0.964509 z"
         sodipodi:nodetypes="sssss" /><path
         sodipodi:nodetypes="cccccccccc"
         inkscape:connector-curvature="0"
         id="path4873"
         d="m 104.39709,70.436968 -12.740897,22.065476 -2.97459,-5.042539 3.43384,-5.909508 -6.81941,-0.01792 -1.45347,-2.519595 1.48415,-2.577127 9.70669,0.03065 3.48881,-6.013946 z"
         style="color:#000000;clip-rule:nonzero;display:inline;overflow:visible;visibility:visible;isolation:auto;mix-blend-mode:normal;color-interpolation:sRGB;color-interpolation-filters:linearRGB;solid-color:#000000;solid-opacity:1;fill:url(#linearGradient14);fill-rule:evenodd;stroke:url(#linearGradient14);stroke-width:0.224972;stroke-linecap:round;stroke-linejoin:round;stroke-miterlimit:4;stroke-dasharray:none;stroke-dashoffset:0;paint-order:stroke fill markers;color-rendering:auto;image-rendering:auto;shape-rendering:auto;text-rendering:auto;enable-background:accumulate" /><path
         sodipodi:nodetypes="cccccccccc"
         inkscape:connector-curvature="0"
         id="path4873-8"
         d="m 104.39712,70.436951 -12.740907,22.065483 -2.97466,-5.042505 3.43383,-5.909523 -6.8194,-0.01792 -1.45346,-2.519589 1.48414,-2.577138 9.70668,0.03066 3.48882,-6.013958 z"
         style="color:#000000;clip-rule:nonzero;display:inline;overflow:visible;visibility:visible;isolation:auto;mix-blend-mode:normal;color-interpolation:sRGB;color-interpolation-filters:linearRGB;solid-color:#000000;solid-opacity:1;fill:none;fill-opacity:1;fill-rule:evenodd;stroke:#ffffff;stroke-width:0.271271;stroke-linecap:round;stroke-linejoin:round;stroke-miterlimit:4;stroke-dasharray:none;stroke-dashoffset:0;stroke-opacity:1;paint-order:stroke fill markers;color-rendering:auto;image-rendering:auto;shape-rendering:auto;text-rendering:auto;enable-background:accumulate" /></g></g></svg>
