<?xml version="1.0" encoding="UTF-8" standalone="no"?>
<!-- Created with Inkscape (http://www.inkscape.org/) -->

<svg
   version="1.1"
   id="svg1"
   width="377.92001"
   height="377.92001"
   viewBox="0 0 377.92001 377.92001"
   sodipodi:docname="coffee-fennec-autotrace.svg"
   inkscape:version="1.3.2 (091e20ef0f, 2023-11-25)"
   xmlns:inkscape="http://www.inkscape.org/namespaces/inkscape"
   xmlns:sodipodi="http://sodipodi.sourceforge.net/DTD/sodipodi-0.dtd"
   xmlns="http://www.w3.org/2000/svg"
   xmlns:svg="http://www.w3.org/2000/svg">
  <defs
     id="defs1" />
  <sodipodi:namedview
     id="namedview1"
     pagecolor="#505050"
     bordercolor="#eeeeee"
     borderopacity="1"
     inkscape:showpageshadow="0"
     inkscape:pageopacity="0"
     inkscape:pagecheckerboard="0"
     inkscape:deskcolor="#505050"
     inkscape:zoom="1.9739627"
     inkscape:cx="188.70671"
     inkscape:cy="188.96001"
     inkscape:window-width="1920"
     inkscape:window-height="1029"
     inkscape:window-x="0"
     inkscape:window-y="0"
     inkscape:window-maximized="0"
     inkscape:current-layer="g1" />
  <g
     inkscape:groupmode="layer"
     inkscape:label="Image"
     id="g1">
    <path
       style="fill:#000000"
       d="m 188.47178,377.66954 -0.40823,-0.21653 -0.53947,-1.2465 -0.53947,-1.2465 -1.07894,-2.17119 -1.07894,-2.17119 -0.91378,-1.58881 -0.91379,-1.58881 -0.89958,-1.35451 -0.89957,-1.35451 -1.08463,-1.14895 -1.08463,-1.14895 -0.85845,-0.40646 -0.85845,-0.40645 -3.73692,-1.20021 -3.73692,-1.20021 -4.72,-1.46625 -4.72,-1.46624 -4.08,-1.35752 -4.08,-1.35752 -4,-1.49336 -4,-1.49337 -2.50898,-1.04576 -2.50898,-1.04577 -2.83242,-1.31681 -2.83242,-1.31681 -2.40952,-1.3398 -2.40952,-1.3398 -1.76908,-1.17848 -1.76909,-1.17849 -1.57519,-1.31524 -1.5752,-1.31523 -1.04001,-1.21665 -1.04002,-1.21665 -0.62667,-1.12 -0.62668,-1.12 -0.30679,-1.04 -0.30679,-1.04 -0.0974,-0.59364 -0.0974,-0.59364 -0.99394,0.54154 -0.99395,0.54154 -0.96,0.28961 -0.96,0.28961 -2.32,-0.003 -2.32,-0.003 -1.42023,-0.28328 -1.42024,-0.28329 -1.85976,-0.56006 -1.85977,-0.56005 -2.24,-0.89086 -2.239997,-0.89086 -2.414767,-1.15627 -2.414767,-1.15627 -2.145233,-1.17352 -2.145233,-1.17352 -2.48,-1.46132 -2.48,-1.46132 -2,-1.25177 -2,-1.25177 -3.44,-2.27653 -3.44,-2.27652 -3.200001,-2.22819 -3.2,-2.22819 -4.340568,-3.05007 -4.340568,-3.05006 -1.339432,-0.80763 -1.339432,-0.80764 -1.009358,-0.1975 -1.009358,-0.1975 -2.430642,0.0916 -2.430642,0.0916 -2.4,0.40425 -2.4,0.40425 -2.080001,0.48366 -2.08,0.48366 -0.558943,0.16315 -0.558944,0.16316 h -0.421465 -0.421465 l -0.195291,-0.23531 -0.19529,-0.23531 -0.01357,-0.60469 -0.01357,-0.60469 1.22363,-2.58325 1.223631,-2.58325 0.786931,-1.97675 0.786931,-1.97675 0.49145,-1.53926 0.49145,-1.53927 0.327256,-1.60587 0.327256,-1.60587 0,-0.7546 0,-0.7546 -0.544299,-1.62027 -0.544298,-1.62026 -2.914107,-7.52 -2.914108,-7.52 -1.341497,-3.6492 -1.341498,-3.64919 -1.271628,-3.79081 -1.271627,-3.7908 -0.87943,-2.96 -0.87943,-2.96 -0.640433,-2.48993 -0.640433,-2.48993 -0.574302,-2.78831 -0.574303,-2.78832 -0.326765,-2.48175 -0.326764,-2.48176 -0.0091,-2.88 -0.0091,-2.88 0.260037,-1.4712 0.260037,-1.4712 0.457789,-1.25437 0.45779,-1.25437 0.442133,-0.71443 0.442133,-0.71443 0.617883,-0.64226 0.617883,-0.64226 -0.916274,-0.35896 -0.916274,-0.35897 -1.069366,-0.79015 -1.069366,-0.79015 -0.903042,-1.08863 -0.903043,-1.08862 -0.877307,-1.46325 -0.877307,-1.46324 -0.798699,-1.88467 -0.7987,-1.88467 -0.638068,-1.90874 -0.638069,-1.90874 -0.630234,-2.42335 -0.630233,-2.42334 -0.632747,-3.2 -0.632747,-3.2 -0.406538,-2.64 -0.406537,-2.64 -0.401228,-3.2 -0.401227,-3.2 -0.321627,-3.28 -0.321626,-3.28 -0.317366,-4 -0.317365,-4 -0.32547,-4.72 -0.325471,-4.72 -0.249978,-2.62878 -0.249978,-2.62878 -0.247463,-0.73122 -0.247463,-0.73122 -0.676428,-1.04 -0.676427,-1.04 -1.3202843,-1.48766 -1.3202841,-1.48766 -1.9441562,-1.771 L 4.2400002,139.16268 2.1200001,137.46284 0,135.763 l 0,-0.41156 0,-0.41157 0.44875503,-0.42993 0.44875504,-0.42994 0.23583003,0 h 0.2358301 l 3.2196863,-0.79905 3.2196862,-0.79905 2.2157293,-0.7267 2.215728,-0.7267 1.984219,-0.96803 1.984218,-0.96803 0.815782,-0.82622 0.815782,-0.82622 0.986249,-1.68 0.98625,-1.68 3.391374,-6.08 3.391374,-6.08 1.847615,-3.2 1.847614,-3.2 1.706427,-2.8 1.706426,-2.799996 1.498068,-2.320001 1.498068,-2.32 1.436356,-2.08 1.436355,-2.08 1.556004,-2.08 1.556004,-2.08 1.462598,-1.76 1.462597,-1.76 1.955311,-1.981976 1.955311,-1.981977 1.12,-0.912353 1.12,-0.912353 0.973738,-0.661799 0.973738,-0.661799 1.266262,-0.631271 1.266262,-0.631271 1.04,-0.282261 1.04,-0.282261 1.460832,-0.01034 1.460832,-0.01034 -0.144867,-0.381029 -0.144867,-0.381028 -0.165388,-0.737995 -0.165388,-0.737994 6e-5,-1.440977 6e-5,-1.440978 0.240343,-1.12 0.240343,-1.12 0.424273,-1.28 0.424272,-1.28 1.021693,-2.08 1.021693,-2.08 1.367198,-2.144926 1.367198,-2.144926 1.818088,-2.415074 1.818088,-2.415074 1.47351,-1.76 1.473509,-1.76 2.504111,-2.8 2.504111,-2.800001 5.200148,-5.218401 5.200149,-5.218401 6.334993,-6.006096 6.334994,-6.006096 0.58606,-0.798376 0.58606,-0.798377 0.24879,-0.697127 0.24879,-0.697126 0.30726,-1.282526 0.30725,-1.282525 0.25382,-2.077475 L 104.18184,10 l 0.0891,-4.7199998 0.0891,-4.72000018 0.15955,-0.20000001 0.15956,-0.2 h 0.6113 0.6113 l 1.00911,0.85375459 1.0091,0.8537546 1.97703,1.5501545 1.97703,1.5501544 2.14609,1.4340408 2.14609,1.4340407 1.47688,0.7158873 1.47688,0.7158872 0.95432,0.2463452 0.95431,0.2463453 2.00569,-0.2349881 2.00568,-0.2349881 6.48,-1.0374034 6.48,-1.0374035 3.34759,-0.4917635 3.34758,-0.4917636 3.85242,-0.4696496 3.85242,-0.4696496 2.64,-0.2415107 2.64,-0.2415107 3.06948,-0.1843506 3.06948,-0.1843506 5.01052,0.085166 5.01052,0.085166 1.84,0.2545667 1.84,0.2545667 1.2,0.2498756 1.2,0.2498755 1.6,0.4851234 1.6,0.4851233 1.36,0.7023669 1.36,0.7023669 0.93295,0.7348903 0.93295,0.7348904 0.73543,1.0140651 0.73543,1.014064 0.4523,-0.713201 0.4523,-0.7132 0.74251,-0.7216429 0.74252,-0.7216424 0.70908,-0.4878562 0.70907,-0.4878562 1.30773,-0.6115858 1.30773,-0.6115857 1.619,-0.4798644 1.61899,-0.4798644 1.98101,-0.3284085 1.981,-0.3284085 1.6,-0.1575763 1.6,-0.1575763 2.96,-0.1057205 2.96,-0.1057206 3.84,0.1845678 3.84,0.1845678 2.72,0.2380418 2.72,0.2380418 2.96,0.3262402 2.96,0.3262402 3.52,0.4781193 3.52,0.4781193 7.6,1.1845635 7.6,1.1845636 1.44,0.1700771 1.44,0.1700771 0.61639,0.064649 0.6164,0.064649 0.9036,-0.2331371 0.90361,-0.233137 1.44916,-0.7024011 1.44916,-0.702401 1.91084,-1.2634056 1.91084,-1.2634055 1.44,-1.0967924 1.44,-1.0967924 L 270.51496,1.491238 272.30992,0 l 0.36504,0.00109329 0.36505,0.00109328 0.34461,0.51890674 0.34461,0.51890669 0.0832,4.9600002 0.0832,4.9599998 0.25772,1.84 0.25772,1.840001 0.3209,1.359619 0.32091,1.359619 0.36782,0.803426 0.36782,0.803426 0.94577,1.022853 0.94577,1.022853 5.28,4.972678 5.28,4.972679 3.04,2.975605 3.04,2.975604 3.04358,3.105819 3.04357,3.10582 1.59706,1.76 1.59706,1.76 1.44799,1.68 1.448,1.68 1.35298,1.68 1.35299,1.68 1.22308,1.68 1.22309,1.68 1.23021,1.92 1.23021,1.92 1.08345,2.185143 1.08345,2.185142 0.49559,1.574858 0.49558,1.574857 0.16606,0.949386 0.16605,0.949386 v 1.221435 l 0,1.221435 -0.29665,1.129939 -0.29666,1.129939 1.77666,0.0766 1.77665,0.0766 1.3012,0.484602 1.3012,0.484603 1.13666,0.663847 1.13666,0.663847 1.32214,0.986981 1.32214,0.986982 2.40953,2.40721 2.40953,2.40721 1.49481,1.84 1.49481,1.84 1.14852,1.52 1.14853,1.52 1.71608,2.443064 1.71609,2.443063 2.12417,3.316937 2.12417,3.316933 2.23975,3.76 2.23976,3.76 3.32577,5.92 3.32578,5.92 1.36475,2.4 1.36476,2.4 0.61061,0.90242 0.61062,0.90241 0.68598,0.59256 0.68598,0.59255 1.76,0.85424 1.76,0.85424 2.1816,0.72691 2.1816,0.72691 2.8584,0.71078 2.8584,0.71079 0.91721,0.18386 0.91721,0.18386 0.0993,0.1606 0.0993,0.16059 -0.10463,0.69775 -0.10464,0.69775 -1.55183,1.24051 -1.55183,1.24052 -1.68,1.47062 -1.68,1.47061 -1.92,1.98124 -1.92,1.98125 -0.846,1.23335 -0.84601,1.23336 -0.23562,0.56392 -0.23563,0.56393 -0.23241,2.04124 -0.23241,2.04124 -0.32915,4.88 -0.32915,4.88 -0.32024,4.32 -0.32024,4.32 -0.39901,4.08 -0.39901,4.08 -0.47962,3.76 -0.47963,3.76 -0.56443,3.27275 -0.56442,3.27275 -0.38833,1.79609 -0.38832,1.79608 -0.49683,1.97116 -0.49683,1.97117 -0.6479,2 -0.64791,2 -0.47465,1.2 -0.47465,1.2 -0.7929,1.57775 -0.7929,1.57775 -0.82306,1.21971 -0.82305,1.21972 -1.08979,1.07476 -1.08979,1.07475 -1.34619,0.66707 -1.34618,0.66706 0.73214,0.89887 0.73213,0.89887 0.53145,1.12184 0.53145,1.12185 0.30563,1.2 0.30563,1.2 0.17647,1.44 0.17646,1.44 -9.2e-4,1.52 -9.1e-4,1.52 -0.16227,1.84 -0.16227,1.84 -0.24454,1.68 -0.24454,1.68 -0.48582,2.4 -0.48581,2.4 -0.77707,3.04402 -0.77707,3.04403 -0.81362,2.71597 -0.81362,2.71598 -1.34343,4 -1.34344,4 -1.35536,3.68 -1.35535,3.68 -2.67671,6.96 -2.67671,6.96 -0.56278,1.6 -0.56277,1.6 4.6e-4,1.28 4.6e-4,1.28 0.4386,1.76 0.43861,1.76 0.71649,1.98361 0.71649,1.9836 0.8493,1.9364 0.84929,1.93639 0.8765,1.82534 0.8765,1.82534 -0.0724,0.27665 -0.0723,0.27665 -0.59551,0.26854 -0.59552,0.26854 -1.59053,-0.39964 -1.59054,-0.39964 -1.92,-0.40166 -1.92,-0.40166 -2.32,-0.34513 -2.32,-0.34513 -2.16,-0.009 -2.16,-0.009 -0.77605,0.18927 -0.77604,0.18927 -1.54092,0.96848 -1.54092,0.96849 -5.89562,4.16302 -5.89562,4.16302 -3.46741,2.3728 -3.46742,2.3728 -2.96,1.88701 -2.96,1.88701 -2.61113,1.57158 -2.61112,1.57157 -2.98771,1.61696 -2.98771,1.61697 -2.32116,1.07542 -2.32117,1.07543 -1.89397,0.74815 -1.89398,0.74815 -1.93127,0.55588 -1.93127,0.55588 -1.29476,0.22095 -1.29475,0.22095 -1.28,0.10858 -1.28,0.10857 -1.34611,-0.18431 -1.34612,-0.18432 -1.02498,-0.3858 -1.02498,-0.3858 -0.47812,-0.34045 -0.47811,-0.34045 -0.0611,0.0611 -0.0611,0.0611 -0.24631,1.18133 -0.24632,1.18134 -0.46958,1.00347 -0.46958,1.00348 -0.68318,1.01157 -0.68319,1.01158 -1.37064,1.36114 -1.37064,1.36113 -1.73213,1.30025 -1.73213,1.30024 -2.42787,1.4474 -2.42787,1.4474 -3.2,1.57608 -3.2,1.57607 -3.16265,1.32411 -3.16264,1.32411 -3.39736,1.28499 -3.39735,1.28499 -6.16,2.05489 -6.16,2.0549 -5.76,1.79068 -5.76,1.79069 -1.76,0.65389 -1.76,0.65388 -1.12565,1.12658 -1.12566,1.12658 -1.12396,1.68312 -1.12397,1.68312 -1.15255,2.09158 -1.15255,2.09158 -1.21474,2.6253 -1.21474,2.6253 -0.16268,0.2 -0.16269,0.2 -0.3404,-0.017 -0.34041,-0.017 z m -3.08511,-18.73619 -0.10666,-0.10667 v 0.21333 0.21334 l 0.10666,-0.10667 0.10667,-0.10667 z m 8.81694,-2.87476 0.64075,-0.93858 0.40815,-0.3788 0.40815,-0.3788 2.52967,-0.79238 2.52968,-0.79238 7.10828,-2.15878 7.10828,-2.15878 3.77172,-1.25366 3.77172,-1.25366 2.8,-1.04452 2.8,-1.04451 2.56,-1.06084 2.56,-1.06084 2.96,-1.44031 2.96,-1.4403 1.76,-0.97724 1.76,-0.97725 2.24,-1.41862 2.24,-1.41862 1.84,-1.26946 1.84,-1.26947 0.34597,-0.43042 0.34597,-0.43043 0.29403,-0.89496 0.29403,-0.89497 -0.007,-2.56 -0.007,-2.56 -0.36011,-1.98907 -0.36012,-1.98907 -0.70152,-2.73093 -0.70153,-2.73093 -1.11378,-3.36 -1.11379,-3.36 -1.07873,-2.8 -1.07872,-2.8 -0.70134,-1.6452 -0.70134,-1.6452 0.16848,-0.3148 0.16848,-0.3148 h 0.4604 0.4604 l 1.11587,2.12 1.11588,2.12 1.47856,2.56 1.47857,2.56 1.52391,2.4 1.52392,2.4 1.07562,1.52 1.07562,1.52 1.14192,1.47596 1.14191,1.47595 1.47808,1.55085 1.47808,1.55085 1.23667,0.92046 1.23667,0.92045 0.88933,0.33274 0.88933,0.33274 h 0.50229 0.50229 l 3.77171,-1.26554 3.77171,-1.26553 2.08951,-0.88248 2.08951,-0.88247 2.15505,-1.02402 2.15505,-1.02401 2.15544,-1.16964 2.15544,-1.16964 2.8,-1.67714 2.8,-1.67713 2.99841,-1.97516 2.99841,-1.97516 2.44159,-1.7138 2.44159,-1.71381 5.68,-4.08899 5.68,-4.08898 1.90261,-1.32325 1.9026,-1.32325 h 1.32694 1.32693 l 1.09046,0.23687 1.09046,0.23686 0.4,0.0976 0.4,0.0976 -2.32,-1.39045 -2.32,-1.39044 -2.88,-1.60951 -2.88,-1.6095 -3.36,-1.72483 -3.36,-1.72483 -2,-0.86534 -2,-0.86533 -1.23601,-0.4225 -1.23601,-0.4225 -0.86455,-0.10161 -0.86455,-0.10161 -0.93944,0.50399 -0.93944,0.50398 -1.38777,0.99576 -1.38777,0.99576 -5.65223,4.65572 -5.65223,4.65573 -2.27892,1.77666 -2.27893,1.77666 -2.13871,1.52724 -2.13871,1.52725 -2.06236,1.29519 -2.06237,1.29519 -2.49607,1.24063 -2.49608,1.24063 -1.58392,0.49641 -1.58393,0.49641 -0.96,0.19957 -0.96,0.19958 -1.68,-4.1e-4 -1.68,-4.1e-4 -1.2,-0.36599 -1.2,-0.36598 -0.90303,-0.54632 -0.90303,-0.54631 -1.3526,-1.42135 -1.35259,-1.42134 -1.43915,-2.13738 -1.43915,-2.13738 -1.52133,-2.56 -1.52133,-2.56 -1.84577,-3.36 -1.84578,-3.36 -0.8326,-1.52 -0.8326,-1.52 0.11028,0.32 0.11028,0.32 1.40547,3.92 1.40547,3.92 1.22878,3.76 1.22878,3.76 1.06493,3.6 1.06494,3.6 -0.006,1.76 -0.006,1.76 -0.35972,1.04 -0.35972,1.04 -0.65915,1.12 -0.65914,1.12 -1.29004,1.28656 -1.29003,1.28655 -1.46897,0.97905 -1.46897,0.97905 -1.33103,0.72156 -1.33103,0.72155 -2.08,0.88059 -2.08,0.88059 -2.16,0.74135 -2.16,0.74135 -2.45301,0.71255 -2.453,0.71254 -2.83054,0.71082 -2.83053,0.71082 -5.9156,1.37244 -5.91561,1.37245 -1.68086,0.48429 -1.68085,0.48429 -1.18593,0.5108 -1.18592,0.5108 -0.53473,0.96 -0.53472,0.96 -0.54713,1.68 -0.54713,1.68 -0.48363,1.92 -0.48363,1.92 -0.63665,3.12 -0.63665,3.12 -0.48985,2.8 -0.48985,2.8 -0.48209,3.33897 -0.48209,3.33898 0.006,0.10103 0.006,0.10102 0.53568,-1.14142 0.53568,-1.14143 z m -9.32607,-0.56778 -0.42194,-2.9308 -0.62096,-3.44016 -0.62097,-3.44017 -0.49574,-2.39983 -0.49575,-2.39984 -0.54406,-2.17615 -0.54406,-2.17615 -0.50621,-1.58385 -0.50622,-1.58385 -0.44477,-0.88 -0.44478,-0.88 -0.39286,-0.36611 -0.39285,-0.36612 -1.54586,-0.55251 -1.54586,-0.55251 -2.19732,-0.5521 -2.19732,-0.55209 -3.6,-0.81897 -3.6,-0.81897 -3.04,-0.72001 -3.04,-0.72002 -2.64,-0.72205 -2.64,-0.72204 -2.6903,-0.88109 -2.69029,-0.88109 -1.90061,-0.78126 -1.90062,-0.78126 -1.73517,-0.87023 -1.73518,-0.87022 -1.43392,-0.95961 -1.43392,-0.95962 -1.08586,-0.99561 -1.08587,-0.99561 -0.71718,-1.00504 -0.71718,-1.00503 -0.45757,-1.01542 -0.45758,-1.01541 -0.17938,-0.84787 -0.17938,-0.84788 6.5e-4,-1.07212 6.4e-4,-1.07213 0.23618,-1.45615 0.23617,-1.45615 0.5668,-1.98385 0.5668,-1.98385 0.89449,-2.56 0.89449,-2.56 1.0151,-2.64 1.01511,-2.64 1.19773,-2.95572 1.19774,-2.95572 -0.0478,-0.0478 -0.0478,-0.0478 -1.08816,1.88351 -1.08816,1.88351 -2.00172,3.28 -2.00171,3.28 -1.92366,2.96 -1.92366,2.96 -1.40934,2.02695 -1.40934,2.02695 -0.89658,0.79911 -0.89658,0.79911 -1.01966,0.50198 -1.01967,0.50198 -1.32404,0.25162 -1.32404,0.25163 -1.44,-0.0972 -1.44,-0.0972 -1.31938,-0.31986 -1.31938,-0.31985 -1.42936,-0.55202 -1.42937,-0.55202 -1.92675,-0.9667 -1.92675,-0.96669 -1.71209,-1.05828 -1.71208,-1.05827 -1.4386,-0.96731 -1.4386,-0.96732 -2.851699,-2.14337 -2.851695,-2.14338 -2.602121,-2.11975 -2.602122,-2.11975 -3.12,-2.56607 -3.12,-2.56607 -1.6,-1.20614 -1.6,-1.20614 -1.109898,-0.66293 -1.109899,-0.66293 -0.570101,0.002 -0.570102,0.002 -0.96,0.22713 -0.96,0.22714 -1.84,0.73942 -1.84,0.73943 -2.880001,1.42245 -2.88,1.42246 -2.72,1.46879 -2.72,1.46878 -3.68,2.15747 -3.68,2.15747 -0.124898,0.11526 -0.124898,0.11527 1.164898,-0.30215 1.164898,-0.30215 1.44,-0.0908 1.44,-0.0908 0.56,0.23681 0.56,0.23682 6.8,4.86785 6.800001,4.86784 2.88,2.00832 2.88,2.00831 2.16,1.43586 2.16,1.43586 2.129722,1.33051 2.129721,1.3305 2.350279,1.34686 2.350278,1.34687 2.64,1.33516 2.64,1.33516 1.999997,0.88089 2,0.88089 2.64,0.96781 2.64,0.96781 2.03402,0.65002 2.03402,0.65001 0.68598,-1.2e-4 0.68598,-1.3e-4 1.02163,-0.48331 1.02164,-0.48331 0.97836,-0.78124 0.97837,-0.78124 1.2929,-1.33532 1.29289,-1.33533 1.2904,-1.62724 1.29039,-1.62725 1.05381,-1.51147 1.05381,-1.51148 1.42836,-2.23776 1.42837,-2.23776 1.55766,-2.70352 1.55767,-2.70352 1.10313,-2.1056 1.10314,-2.10561 0.23847,-0.19792 0.23848,-0.19792 0.41226,0.18784 0.41227,0.18784 -0.0835,0.51569 -0.0835,0.51568 -1.30586,3.2 -1.30585,3.2 -1.49567,4.48 -1.49566,4.48 -0.72957,2.92283 -0.72958,2.92283 -0.34061,2.34945 -0.34062,2.34944 0.0748,1.92772 0.0748,1.92773 0.28241,0.8 0.28241,0.8 0.30153,0.42535 0.30153,0.42535 1.15954,0.78106 1.15953,0.78106 1.92,1.28754 1.92,1.28754 1.84,1.09398 1.84,1.09399 3.2,1.61947 3.20001,1.61947 2.88,1.22296 2.88,1.22296 2.64,0.98954 2.64,0.98953 4.24,1.41002 4.24,1.41001 7.76,2.34023 7.76,2.34022 2.02542,0.63616 2.02543,0.63615 0.61967,0.67371 0.61967,0.6737 0.58111,0.96 0.58111,0.96 0.28351,0.71085 0.28351,0.71085 0.06,-0.18005 0.06,-0.18005 z m 18.56247,-36.22756 3.52,-1.04082 5.22191,-1.34205 5.22191,-1.34205 2.29809,-0.75062 2.29809,-0.75063 2.24,-0.94564 2.24,-0.94564 2.4,-1.25525 2.4,-1.25526 2.39086,-1.37728 2.39087,-1.37727 0.44867,-0.42986 0.44868,-0.42985 0.32041,-0.85638 0.32041,-0.85638 0.17618,-1.55413 0.17617,-1.55413 -0.10136,-1.52 -0.10137,-1.52 -0.24408,-2 -0.24409,-2 -0.55028,-2.76562 -0.55028,-2.76563 -0.65077,-2.58845 -0.65077,-2.58845 -1.03402,-3.60592 -1.03402,-3.60593 -1.70483,-5.0958 -1.70482,-5.09579 0.16536,-0.26421 0.16535,-0.2642 0.39982,-0.0483 0.39982,-0.0483 1.65665,2.84831 1.65665,2.84831 1.7979,2.91259 1.79791,2.91259 1.95197,2.92741 1.95197,2.92741 2.02935,2.72413 2.02935,2.72412 1.445,1.67588 1.44499,1.67587 1.66317,1.60525 1.66318,1.60525 1.12,0.72988 1.12,0.72987 0.68324,0.26488 0.68323,0.26487 h 0.5617 0.56169 l 2.91507,-1.20654 2.91507,-1.20655 3.36,-1.66864 3.36,-1.66865 1.67522,-1.05487 1.67523,-1.05488 1.54151,-1.10057 1.54151,-1.10058 3.42327,-2.69514 3.42326,-2.69515 1.68,-1.28222 1.68,-1.28221 2.57856,-1.84235 2.57856,-1.84235 -3.05856,-1.66044 -3.05856,-1.66044 -3.68,-1.87825 -3.68,-1.87824 -2.16,-0.95341 -2.16,-0.95341 -1.41275,-0.49756 -1.41275,-0.49755 -0.50725,0.002 -0.50725,0.002 -0.85443,0.39776 -0.85443,0.39776 -1.33058,0.86732 -1.33058,0.86731 -3.01499,2.22571 -3.01499,2.22571 -1.2,0.80279 -1.2,0.80279 -1.32528,0.76191 -1.32527,0.7619 -1.28064,0.54011 -1.28065,0.54011 -0.92166,0.23882 -0.92166,0.23883 -1.13778,0.16137 -1.13778,0.16136 -1.33132,-0.16693 -1.33131,-0.16693 -1.04332,-0.41175 -1.04333,-0.41174 -1.04,-0.68472 -1.04,-0.68472 -1.9209,-1.97395 -1.9209,-1.97395 -1.36772,-1.52 -1.36771,-1.52 -1.20653,-1.44 -1.20653,-1.44 -1.53657,-2.02999 -1.53658,-2.02999 -0.59254,-0.89242 -0.59253,-0.89243 -0.0478,0.0478 -0.0478,0.0478 0.39097,1.51465 0.39096,1.51465 0.47079,2.24 0.47079,2.24 0.2435,1.52 0.2435,1.52 0.2558,2.4 0.25579,2.4 0.003,3.6 0.003,3.6 -0.32726,1.24808 -0.32726,1.24807 -0.57092,1.08647 -0.57093,1.08647 -0.75355,0.87899 -0.75356,0.879 -0.64,0.56606 -0.64,0.56606 -1.17765,0.75957 -1.17765,0.75957 -1.50707,0.70425 -1.50706,0.70426 -2.35529,0.78396 -2.35528,0.78396 -2.32,0.66033 -2.32,0.66033 -1.92,0.63355 -1.92,0.63356 -1.0345,0.51873 -1.03449,0.51873 -0.36481,0.54262 -0.3648,0.54262 -0.54791,1.69738 -0.54791,1.69738 -0.64515,2.64 -0.64515,2.64 -0.71585,3.52 -0.71584,3.52 -0.57179,3.13601 -0.5718,3.136 v 0.2569 0.2569 l 0.68,-0.24088 0.68,-0.24088 z m -24.24,0.98033 v -0.23644 l -0.80793,-4.28356 -0.80792,-4.28357 -0.87237,-3.94822 -0.87237,-3.94823 -0.56436,-1.97177 -0.56437,-1.97178 -0.40054,-1.05699 -0.40054,-1.05699 -0.3548,-0.32536 -0.3548,-0.32536 -0.82389,-0.41218 -0.82388,-0.41218 -0.85612,-0.33022 -0.85611,-0.33023 -4.35475,-1.27596 -4.35475,-1.27595 -1.72525,-0.61569 -1.72525,-0.61569 -1.2699,-0.587 -1.2699,-0.587 -1.55778,-1.03706 -1.55779,-1.03706 -0.98078,-1.07954 -0.98077,-1.07954 -0.70957,-1.44 -0.70957,-1.44 -0.27041,-1.41747 -0.27041,-1.41747 0.19347,-2.26253 0.19346,-2.26253 0.40478,-2.88 0.40479,-2.88 0.55394,-2.8 0.55393,-2.8 0.63223,-2.4 0.63223,-2.4 0.10746,-0.4 0.10746,-0.4 -1.6727,2.24 -1.6727,2.24 -1.25698,1.52 -1.25698,1.52 -2.81376,2.81177 -2.81376,2.81177 -1.60546,1.28813 -1.60546,1.28812 -0.9231,0.5905 -0.92309,0.59049 -1.01705,0.38282 -1.01705,0.38281 -1.30903,0.16414 -1.30903,0.16414 -1.13778,-0.16136 -1.13778,-0.16137 -0.9466,-0.24529 -0.94659,-0.24528 -1.44889,-0.62465 -1.44888,-0.62465 -1.62059,-0.97746 -1.6206,-0.97745 -2.59457,-1.86859 -2.59457,-1.86859 -1.95694,-1.40305 -1.95694,-1.40305 -1.47983,-0.74447 -1.47982,-0.74447 -0.84018,0.19385 -0.84017,0.19384 -1.84,0.72818 -1.84,0.72818 -3.999996,1.97413 -4.000001,1.97412 -3.76,2.02754 -3.76,2.02753 -0.196299,0.18585 -0.196299,0.18585 3.076299,2.19428 3.076299,2.19429 3.28,2.56691 3.280001,2.56691 2.422476,1.83945 2.42247,1.83946 2.05753,1.29411 2.05752,1.29411 3.52,1.7302 3.52,1.7302 2.79511,1.14992 2.79511,1.14993 0.82505,-0.0684 0.82506,-0.0684 0.91629,-0.44829 0.91629,-0.4483 1.2893,-0.97152 1.2893,-0.97152 1.62735,-1.62735 1.62734,-1.62734 1.72644,-2.06132 1.72644,-2.06132 1.79852,-2.4 1.79853,-2.4 2.03593,-2.96 2.03593,-2.96 1.87679,-2.96 1.87678,-2.96 1.16668,-1.95476 1.16667,-1.95476 0.32135,-0.10199 0.32136,-0.10199 0.32111,0.32112 0.32112,0.32111 -1.28503,3.49564 -1.28503,3.49563 -0.98413,2.95878 -0.98412,2.95878 -0.80345,2.64122 -0.80344,2.64122 -0.78368,3.04 -0.78368,3.04 -0.41415,2 -0.41416,2 -0.30698,2.16 -0.30699,2.16 0,2.24 -1e-5,2.24 0.21268,0.90359 0.21269,0.90359 0.40986,0.69641 0.40986,0.69641 3.01496,1.71022 3.01496,1.71022 2.56,1.27678 2.56,1.27678 1.44,0.59529 1.44,0.5953 2.08,0.70848 2.08,0.70849 5.92,1.51654 5.92,1.51653 3.2,0.94379 3.2,0.94379 0.64,0.23762 0.64,0.23762 0.12,0.0113 0.12,0.0113 z m 12.47691,-31.92357 1.0081,-5.52 0.11739,-0.13189 0.11739,-0.1319 5.56203,-0.94337 5.56203,-0.94336 0.077,-0.077 0.077,-0.077 -0.37888,-0.0924 -0.37888,-0.0924 -5.25945,-1.02817 -5.25945,-1.02818 -0.0708,-0.0708 -0.0708,-0.0708 -0.8806,-5.57641 -0.88061,-5.57641 -0.0889,-0.24 -0.0889,-0.24 -0.11493,0.4 -0.11493,0.4 -1.01136,5.45618 -1.01137,5.45617 -5.65399,0.9421 -5.65398,0.94211 v 0.10846 0.10846 l 0.76,0.15645 0.76,0.15644 4.8453,0.93682 4.8453,0.93681 0.0759,0.32 0.0759,0.32 0.79917,5.04 0.79916,5.04 0.0958,0.45581 0.0958,0.45582 0.11822,-0.13582 0.11822,-0.13581 z m 136.13509,-1.12538 -0.63782,-1.44538 -0.25934,-1.25422 -0.25935,-1.25422 0.69376,-1.8204 0.69375,-1.8204 2.87652,-7.28 2.87651,-7.28 1.40661,-3.76 1.40661,-3.76 1.14617,-3.44 1.14616,-3.44 0.93576,-3.30602 0.93576,-3.30601 0.56874,-2.53399 0.56874,-2.53398 0.40086,-2.32 0.40087,-2.32 0.2387,-1.84894 0.2387,-1.84893 0.25569,-3.17426 0.25569,-3.17427 -0.49145,-0.99827 -0.49145,-0.99828 -1.14885,-1.08377 -1.14886,-1.08377 -1.69024,-1.1017 -1.69024,-1.10169 -2.56,-1.25948 -2.56,-1.25948 -2.64995,-1.04674 -2.64996,-1.04674 -3.59004,-1.19967 -3.59005,-1.19967 -2.32,-0.66396 -2.32,-0.66396 -0.2,-0.1628 -0.2,-0.1628 v -0.36082 -0.36082 l 0.23381,-0.19404 0.2338,-0.19404 2.7662,0.49169 2.76619,0.49169 2.96,0.39461 2.96,0.39462 2.72,0.26766 2.72,0.26767 3.92,0.004 3.92,0.004 1.76,-0.27491 1.76,-0.27491 1.16801,-0.3905 1.168,-0.3905 0.432,-0.26699 0.43199,-0.26699 0.59751,-0.56149 0.5975,-0.56149 0.17966,-0.56997 0.17965,-0.56996 0.92886,-2.48 0.92886,-2.48 0.63965,-2.08528 0.63966,-2.08528 0.73834,-2.94301 0.73833,-2.94301 0.54635,-2.89171 0.54635,-2.89171 0.40236,-2.88 0.40236,-2.88 0.32161,-2.96 0.32161,-2.96 0.32555,-4.32 0.32554,-4.32 0.40094,-6.8 0.40094,-6.8 0.17018,-2.23106 0.17017,-2.23105 0.16907,-0.32895 0.16907,-0.32894 0.62941,-0.82706 0.62941,-0.82705 1.10756,-0.92259 1.10756,-0.92258 -0.0537,-0.0537 -0.0537,-0.0537 -3.34329,1.37443 -3.3433,1.37443 -2.56,1.12364 -2.56,1.12363 -4.16,2.05456 -4.16,2.05456 -1.68,1.1033 -1.68,1.1033 -0.6647,0.67098 -0.66471,0.67097 -0.18973,0.91647 -0.18973,0.91648 -0.12993,12.56 -0.12992,12.56 -0.17813,2.32 -0.17813,2.32 -0.33002,2.64 -0.33001,2.64 -0.30875,1.52 -0.30876,1.52 -0.42433,1.52 -0.42433,1.52 -0.60642,1.49375 -0.60643,1.49376 -0.75679,1.22625 -0.75679,1.22624 -1.15298,1.14523 -1.15299,1.14523 -1.17821,0.55925 -1.17821,0.55926 -0.87456,0.18124 -0.87457,0.18124 -1.68543,0.0949 -1.68544,0.0949 -2.24,-0.18755 -2.24,-0.18755 -2.56,-0.32303 -2.56,-0.32302 -5.12894,-0.85919 -5.12895,-0.8592 -0.47105,-0.0918 -0.47106,-0.0918 0.48,0.1818 0.48,0.18181 4.14486,1.43276 4.14487,1.43277 3.37513,1.27331 3.37514,1.27331 3.12,1.29583 3.12,1.29583 0.84262,0.55454 0.84262,0.55455 0.79001,0.88638 0.79002,0.88637 0.55634,1.13633 0.55633,1.13633 0.26624,0.96 0.26624,0.96 0.0832,2.40038 0.0832,2.40039 -0.25901,1.76616 -0.25901,1.76617 -0.48419,1.98285 -0.4842,1.98286 -0.94032,2.8106 -0.94032,2.81059 -1.03722,2.56 -1.03723,2.56 -0.95853,2.16 -0.95853,2.16 -2.75905,5.84 -2.75905,5.84 -0.79278,1.83402 -0.79278,1.83402 -0.38728,1.1864 -0.38728,1.18641 v 0.66409 0.66409 l 0.53951,1.11548 0.5395,1.11549 0.95272,1.44 0.95273,1.44 1.31351,1.74263 1.31351,1.74263 2.38316,2.89737 2.38315,2.89737 1.47102,1.68 1.47102,1.68 1.85047,2.04 1.85048,2.04 h 0.0345 0.0345 z m -275.720042,-1.47462 2.350418,-2.6 2.673199,-3.2 2.673198,-3.2 1.437705,-1.84 1.437704,-1.84 1.400814,-1.99612 1.400814,-1.99611 0.627091,-1.29557 0.627091,-1.29557 v -0.64789 -0.64789 l -0.387281,-1.18641 -0.387281,-1.1864 -0.792337,-1.83402 -0.792338,-1.83402 -2.958718,-6.24 -2.958718,-6.24 -1.122299,-2.56 -1.122298,-2.56 -0.880034,-2.24 -0.880033,-2.24 -0.808324,-2.48 -0.808323,-2.48 -0.401365,-1.6 -0.401365,-1.6 -0.278364,-1.52 -0.278365,-1.52 -0.01128,-2.56 -0.01128,-2.56 0.292226,-1.2459 0.292227,-1.2459 0.643931,-1.28654 0.643932,-1.28654 0.903842,-0.9132 0.903842,-0.9132 1.276589,-0.78853 1.276589,-0.78853 1.683411,-0.74971 1.683411,-0.74971 2.909585,-1.05103 2.909585,-1.05103 3.632136,-1.1232 3.632137,-1.12321 2.053817,-0.59301 2.053818,-0.59302 -0.06161,-0.0616 -0.06161,-0.0616 -3.733928,0.49235 -3.733927,0.49235 -2.960001,0.31415 -2.96,0.31415 -2.88,0.23963 -2.88,0.23963 -2.24,0.10732 -2.24,0.10732 -1.04,-0.2628 -1.04,-0.2628 -0.976447,-0.48989 -0.976446,-0.4899 -0.835482,-0.73086 -0.835482,-0.73086 -0.802346,-1.05715 -0.802346,-1.05716 -0.700635,-1.44 -0.700634,-1.44 -0.553881,-1.69496 -0.553882,-1.69495 -0.405987,-1.92286 -0.405987,-1.92285 -0.319997,-2.46219 -0.319996,-2.46219 -0.181064,-2.08 -0.181065,-2.08 -0.131126,-12.64 -0.131127,-12.64 -0.238911,-1.23547 -0.23891,-1.23546 -0.327557,-0.46001 -0.327556,-0.46001 -0.846568,-0.65208 -0.846569,-0.65207 -1.52,-0.9047 -1.52,-0.9047 -3.52,-1.73273 -3.52,-1.73273 -2.8,-1.23454 -2.8,-1.23453 -2.72,-1.08711 -2.72,-1.08711 -0.88,-0.33551 -0.88,-0.33552 0.48,0.3483 0.48,0.3483 1.295492,1.29439 1.295492,1.29439 0.26598,0.51435 0.265981,0.51435 0.154301,1.9651 0.1543,1.9651 0.48717,7.84 0.48717,7.84 0.31623,3.84 0.316229,3.84 0.402811,3.52 0.40281,3.52 0.409794,2.64 0.409793,2.64 0.555047,2.72 0.555048,2.72 0.7021,2.72 0.7021,2.72 0.749732,2.32 0.749732,2.32 0.716424,1.84 0.716423,1.84 0.228538,0.75131 0.228539,0.75131 0.489821,0.48982 0.48982,0.48982 0.666562,0.38916 0.666561,0.38916 1.36,0.3919 1.36,0.3919 1.52,0.21231 1.52,0.21231 3.68,-0.007 3.680001,-0.007 2.16,-0.19887 2.16,-0.19886 3.04,-0.38216 3.04,-0.38215 2.88,-0.50211 2.88,-0.50211 0.664188,-0.0838 0.664188,-0.0838 0.187184,0.34975 0.187183,0.34976 -0.22989,0.34927 -0.22989,0.34927 -1.421481,0.38787 -1.421482,0.38787 -2.4,0.76011 -2.4,0.76011 -1.92,0.66274 -1.92,0.66274 -2.81446,1.11246 -2.814459,1.11246 -2.705541,1.33591 -2.705541,1.33592 -1.52,1.0022 -1.52,1.0022 -0.91449,0.78976 -0.91449,0.78976 -0.582581,0.79364 -0.58258,0.79363 -0.223265,0.74185 -0.223266,0.74186 0.156146,1.37345 0.156146,1.37346 0.172452,2.08 0.172453,2.08 0.381501,2.57195 0.381501,2.57196 0.422303,2.06804 0.422303,2.06805 0.63633,2.56 0.636329,2.56 0.70568,2.4 0.705679,2.4 1.188634,3.52 1.188634,3.52 1.072901,2.88 1.072902,2.88 3.670149,9.28 3.670148,9.28 0.154241,0.36753 0.154241,0.36753 v 0.56937 0.56938 l -0.25302,0.98309 -0.25302,0.9831 -0.616601,1.32 -0.616601,1.32 h 0.06039 0.06039 z M 140,283.76001 v -0.08 h -0.08 -0.08 v 0.08 0.08 h 0.08 0.08 z m 0.16,-0.32 v -0.08 H 140.08 140 v 0.08 0.08 h 0.08 0.08 z m 97.92001,0 v -0.08 h -0.08 -0.08 v 0.08 0.08 h 0.08 0.08 z m -34.18885,-16.8334 1.41116,-0.49617 1.29392,-0.77522 1.29392,-0.77521 1.35939,-1.28 1.35939,-1.28 0.78919,-1.04 0.78919,-1.04 0.61998,-1.28 0.61997,-1.28 0.2618,-1.12 0.2618,-1.12 -0.0688,-1.28 -0.0688,-1.28 -0.36299,-0.83229 -0.36298,-0.83229 -0.82766,-0.78276 -0.82766,-0.78276 -0.95595,-0.36757 -0.95596,-0.36757 -1.52,-6.8e-4 -1.52,-6.7e-4 -1.04,0.27752 -1.04,0.27752 -1.15636,0.53368 -1.15636,0.53368 -1.16364,0.80482 -1.16364,0.80483 -0.99609,0.96918 -0.99609,0.96919 -0.8127,1.07356 -0.81271,1.07356 -0.55201,1.12453 -0.55201,1.12452 -0.3396,1.35563 -0.33959,1.35564 0.0879,1.16277 0.0879,1.16277 0.38688,0.8416 0.38689,0.84159 0.44244,0.52314 0.44243,0.52314 0.70891,0.41544 0.7089,0.41544 0.67423,0.21904 0.67424,0.21904 1.76,-0.0462 1.76,-0.0462 z m -7.32425,-2.36565 0.10225,-0.63905 0.37796,-0.93018 0.37797,-0.93018 0.72852,-1.02093 0.72852,-1.02092 0.68395,-0.56045 0.68395,-0.56045 0.91253,-0.5495 0.91253,-0.54949 1.64246,-0.52108 1.64246,-0.52107 0.96,-0.47769 0.96,-0.47769 0.96,-0.68608 0.96,-0.68609 0.57838,-0.61505 0.57838,-0.61505 0.7683,-0.95899 0.7683,-0.95898 -0.10836,0.71898 -0.10837,0.71899 -0.65659,1.34123 -0.65659,1.34124 -0.99682,0.99683 -0.99683,0.99682 -1.1049,0.65425 -1.1049,0.65426 -1.6,0.50735 -1.6,0.50736 -1.20884,0.62195 -1.20884,0.62194 -0.91874,0.77683 -0.91874,0.77682 -0.67242,0.79176 -0.67242,0.79176 -0.44768,0.5498 -0.44767,0.5498 z m 108.07035,-8.83116 1.72349,-4.28979 1.71556,-3.84 1.71556,-3.84 0.80905,-1.92 0.80906,-1.92 0.70332,-2.08 0.70332,-2.08 0.5359,-2.08 0.53589,-2.08 0.42568,-2.08 0.42567,-2.08 0.4693,-2.96 0.4693,-2.96 8.2e-4,-0.56859 8.3e-4,-0.56858 -0.42941,-0.86172 -0.42942,-0.86172 -1.22505,-1.2097 -1.22506,-1.20969 -1.26553,-0.90692 -1.26553,-0.90691 -1.71703,-1.05108 -1.71702,-1.05107 -2.28298,-1.19336 -2.28297,-1.19335 -2.32,-1.06547 -2.32,-1.06547 -3.01065,-1.26253 -3.01066,-1.26253 -3.78934,-1.41865 -3.78935,-1.41865 -1.57343,-0.54201 -1.57343,-0.542 -0.15544,-0.28605 -0.15543,-0.28604 0.095,-0.29918 0.095,-0.29917 0.23547,-0.0904 0.23547,-0.0904 2.65163,0.39098 2.65163,0.39098 3.54681,0.40106 3.54681,0.40106 2.88,0.25688 2.88,0.25687 5.36,0.0829 5.36,0.0829 2.35528,-0.25034 2.35528,-0.25034 1.48472,-0.34434 1.48472,-0.34434 1.12,-0.52002 1.12,-0.52002 0.51065,-0.54149 0.51066,-0.54148 0.90367,-3.12 0.90368,-3.12 0.61588,-2.64 0.61589,-2.64 0.32201,-1.92 0.32202,-1.92 0.16071,-1.6 0.16071,-1.6 0.0907,-1.36 0.0907,-1.36 0.16682,-7.12 0.16683,-7.12 0.19979,-2.8 0.1998,-2.8 -0.0103,-0.0209 -0.0103,-0.0209 -3.44,1.55289 -3.44,1.55288 -3.12,1.48032 -3.12,1.48033 -2.4,1.29239 -2.4,1.2924 -1.28125,0.8399 -1.28125,0.83989 -0.26441,0.29542 -0.2644,0.29542 -0.24745,0.88 -0.24746,0.88 -0.16333,1.28 -0.16334,1.28 -0.16734,3.44 -0.16735,3.44 -0.16685,2.24 -0.16685,2.24 -0.30134,1.76 -0.30134,1.76 -0.41525,1.42737 -0.41525,1.42737 -0.5679,1.13263 -0.5679,1.13263 -0.69854,0.9798 -0.69854,0.9798 -0.76633,0.63685 -0.76633,0.63685 -0.70026,0.43814 -0.70025,0.43815 -1.02513,0.38585 -1.02512,0.38586 -1.55462,0.23001 -1.55462,0.23002 -2.72,0.28714 -2.72,0.28714 -6.16914,0.002 -6.16915,0.002 1.15772,0.50342 1.15771,0.50342 2.45143,1.23599 2.45143,1.23599 2.24,1.35319 2.24,1.35318 1.81716,1.30368 1.81716,1.30367 1.48743,1.24153 1.48743,1.24154 0.88232,0.97499 0.88231,0.97499 0.57758,1.09913 0.57757,1.09912 0.33009,1.24808 0.3301,1.24808 0.006,2 0.006,2 -0.33624,1.6 -0.33625,1.6 -0.57381,1.81077 -0.57381,1.81078 -1.97195,4.90922 -1.97195,4.90923 -0.3518,1.25595 -0.35179,1.25594 -0.0261,0.6745 -0.0261,0.6745 0.52289,1.02955 0.52289,1.02956 1.71605,2.40094 1.71605,2.40094 1.90499,2.39906 1.90499,2.39906 2.96663,3.55505 2.96663,3.55505 0.0652,-0.0653 0.0653,-0.0653 z m -226.218161,0.24309 3.081398,-3.70712 2.375689,-3.05288 2.375688,-3.05288 1.174052,-1.76 1.174052,-1.76 0.420013,-0.83468 0.420012,-0.83468 v -0.53519 -0.53518 l -0.325556,-1.24294 -0.325556,-1.24294 -0.861431,-2.1872 -0.86143,-2.18719 -0.984434,-2.4 -0.984435,-2.4 -0.638548,-1.84 -0.638548,-1.84 -0.402496,-1.6 -0.402497,-1.6 -0.08323,-2.24 -0.08323,-2.24 0.25202,-1.2 0.252019,-1.2 0.718701,-1.44 0.718701,-1.44 0.830398,-0.93388 0.830398,-0.93387 1.854577,-1.24247 1.854576,-1.24246 2.412436,-1.45191 2.412436,-1.45191 3.107564,-1.59215 3.107561,-1.59214 1.79528,-0.77961 1.79527,-0.7796 -5.155273,-0.0946 -5.155274,-0.0947 -2.16,-0.27765 -2.16,-0.27765 -2.32,-0.4597 -2.32,-0.45969 -1.434043,-0.41718 -1.434043,-0.41717 -1.114372,-0.58559 -1.114371,-0.58558 -0.928539,-0.85967 -0.92854,-0.85966 -0.547557,-0.74592 -0.547557,-0.74592 -0.558711,-1.11967 -0.558712,-1.11966 -0.417087,-1.32924 -0.417087,-1.32924 -0.312315,-1.79076 -0.312316,-1.79076 -0.162999,-1.76 -0.162999,-1.76 -0.169059,-3.44 -0.169059,-3.44 -0.164491,-1.6 -0.164491,-1.6 -0.237344,-1.03804 -0.237343,-1.03803 -0.22822,-0.3483 -0.228221,-0.34831 -1.325262,-0.87704 -1.325263,-0.87703 -2.4,-1.28986 -2.4,-1.28987 -4.24,-1.98453 -4.24,-1.98454 -2.286047,-1.00285 -2.286048,-1.00284 -0.09212,0.0921 -0.09212,0.0921 0.179872,2.2885 0.179871,2.2885 0.160328,5.6 0.160328,5.6 0.160195,3.76 0.160196,3.76 0.236158,1.76 0.236158,1.76 0.412724,2.08 0.412723,2.08 0.477439,1.92 0.477438,1.92 0.8024,2.78911 0.8024,2.7891 0.214772,0.4109 0.214773,0.41089 0.454284,0.43043 0.454284,0.43044 1.05263,0.49184 1.05263,0.49183 1.514444,0.38417 1.514443,0.38417 2.152926,0.29356 2.152927,0.29356 h 6.400001 6.4 l 2.8,-0.20963 2.8,-0.20963 3.84,-0.38784 3.84,-0.38784 1.654596,-0.21636 1.654596,-0.21636 0.329525,0.26683 0.329525,0.26684 -0.100589,0.40078 -0.100589,0.40077 -2.123532,0.68376 -2.123532,0.68375 -2.896535,1.01521 -2.896535,1.01521 -2.783465,1.0693 -2.783465,1.0693 -2.8,1.19496 -2.8,1.19495 -2.801929,1.39676 -2.801929,1.39676 -1.678071,1.00965 -1.678072,1.00965 -1.461497,1.09391 -1.461498,1.09391 -0.844717,0.92268 -0.844717,0.92268 -0.397937,0.86713 -0.397938,0.86714 0.360104,2.41286 0.360104,2.41287 0.627865,3.2 0.627865,3.2 0.482546,1.79693 0.482547,1.79694 0.568875,1.7181 0.568875,1.71809 0.612461,1.53731 0.612461,1.53731 2.346944,5.26766 2.346944,5.26766 1.465357,3.71546 1.465357,3.71547 0.108849,0.005 0.108849,0.005 z m 148.300911,2.98712 v -0.08 h -0.08 -0.08 v 0.08 0.08 h 0.08 0.08 z m 40.63075,-7.39871 1.05999,-5.72129 5.59463,-0.93842 5.59463,-0.93842 0.0667,-0.0616 0.0667,-0.0616 -0.0787,-0.0787 -0.0787,-0.0787 -5.50798,-1.06823 -5.50797,-1.06823 -0.0459,-0.0323 -0.0459,-0.0323 -0.88573,-5.58078 -0.88572,-5.58078 -0.087,-0.24 -0.087,-0.24 -0.13303,0.4 -0.13303,0.4 -0.98825,5.36 -0.98826,5.36 -0.0457,0.0523 -0.0457,0.0523 -5.55701,0.94368 -5.55701,0.94368 -0.0803,0.0803 -0.0803,0.0803 0.2229,0.0782 0.2229,0.0782 5.34081,1.03974 5.34082,1.03975 0.0893,0.0893 0.0893,0.0893 0.84228,5.23658 0.84228,5.23658 0.098,0.53635 0.0979,0.53635 0.0951,-0.0951 0.0951,-0.0951 z m -153.52031,-1.7119 1.05385,-0.39667 1.10871,-0.71722 1.10871,-0.71722 0.94092,-0.94092 0.94091,-0.94091 0.73134,-1.02823 0.73133,-1.02822 0.56794,-1.04 0.56795,-1.04 0.50994,-1.52 0.50994,-1.52 0.0791,-1.76 0.0791,-1.76 -0.18334,-0.88 -0.18334,-0.88 -0.3853,-0.83113 -0.3853,-0.83114 -0.64078,-0.69517 -0.64079,-0.69517 -0.72069,-0.35993 -0.7207,-0.35993 -0.96455,-0.16991 -0.96456,-0.1699 -1.19759,0.24423 -1.1976,0.24422 -1.00784,0.48528 -1.00784,0.48528 -1.12,0.85782 -1.12,0.85781 -0.97602,1.16181 -0.97602,1.16182 -0.76473,1.26501 -0.76473,1.26501 -0.54727,1.59843 -0.54728,1.59842 -0.17903,1.45406 -0.17903,1.45406 0.19094,1.22951 0.19094,1.22951 0.45057,0.96 0.45058,0.96 0.4424,0.52314 0.44241,0.52313 0.73183,0.42889 0.73184,0.42888 0.7313,0.20747 0.7313,0.20746 1.1483,-0.0764 1.1483,-0.0765 z m -5.18855,-2.50272 0.002,-1.34667 0.23226,-0.87275 0.23226,-0.87274 0.50092,-1.01752 0.50093,-1.01753 0.95821,-1.02433 0.95821,-1.02433 1.57733,-1.05342 1.57734,-1.05342 0.91578,-0.91198 0.91578,-0.91198 0.71652,-1.10346 0.71652,-1.10345 0.51709,-1.26323 0.51709,-1.26323 0.1,-0.1 0.1,-0.1 -0.002,1.18667 -0.002,1.18667 -0.24126,1.0235 -0.24126,1.0235 -0.59457,1.13149 -0.59458,1.13148 -0.94496,1.01017 -0.94497,1.01016 -1.37683,0.90383 -1.37684,0.90383 -1.02349,0.97102 -1.02349,0.97102 -0.71943,1.10346 -0.71944,1.10345 -0.51709,1.26323 -0.51709,1.26322 -0.1,0.1 -0.1,0.1 z m 77.19811,-8.36673 0.96,-0.24081 0.82731,-0.34563 0.8273,-0.34562 1.0127,0.40055 1.01269,0.40054 0.96,0.21551 0.96,0.21552 3.84,-0.0148 3.84,-0.0148 1.4234,-0.27472 1.4234,-0.27471 0.8166,-0.3379 0.8166,-0.3379 6.4,-0.11293 6.4,-0.11292 1.44,-0.25448 1.44,-0.25448 1.04,-0.33978 1.04,-0.33979 0.88281,-0.46784 0.88282,-0.46784 0.91077,-0.71483 0.91078,-0.71484 1.11775,-1.31258 1.11776,-1.31258 0.73174,-1.29011 0.73174,-1.29011 0.41535,-1.28 0.41535,-1.28 0.0818,-1.92495 0.0818,-1.92496 -0.34119,-1.35504 -0.3412,-1.35505 -0.6324,-1.32151 -0.63241,-1.3215 -0.52096,-0.7585 -0.52096,-0.75849 -1.06599,-1.04 -1.066,-1.04 -0.87774,-0.63385 -0.87774,-0.63386 -0.43645,-1.34017 -0.43645,-1.34018 -0.56145,-1.06597 -0.56145,-1.06597 -0.65594,-0.88 -0.65595,-0.88 -0.88811,-0.85973 -0.88811,-0.85973 -0.94039,-0.64008 -0.94038,-0.64007 -1.53962,-0.70921 -1.53961,-0.70921 -0.23914,-0.12788 -0.23915,-0.12789 -0.20294,-1.4231 -0.20294,-1.4231 -0.38545,-1.6 -0.38545,-1.6 -0.51265,-1.6 -0.51265,-1.6 -1.17982,-3.03266 -1.17981,-3.03266 v -0.20138 -0.20138 l 0.95379,-0.64771 0.95379,-0.6477 1.00621,-0.82101 1.00621,-0.821 1.25787,-1.21725 1.25786,-1.21725 1.2109,-1.44 1.2109,-1.44 0.94855,-1.44 0.94855,-1.44 0.93466,-1.92 0.93466,-1.92 0.55564,-1.68 0.55565,-1.68 0.3569,-1.6 0.35691,-1.6 1.37547,-0.90178 1.37548,-0.90179 1.76,-1.51045 1.76,-1.51045 1.01183,-1.08627 1.01183,-1.08627 1.16768,-1.40295 1.16768,-1.40296 1.12862,-1.58078 1.12861,-1.58079 1.07835,-1.75776 1.07836,-1.75775 1.14397,-2.24 1.14398,-2.24 0.73666,-1.76437 0.73667,-1.76436 0.66211,-1.91564 0.66211,-1.91564 0.54765,-2.08 0.54766,-2.08 0.31582,-1.85326 0.31583,-1.85326 0.18551,-2.47678 0.1855,-2.47679 -0.18454,-2.22995 -0.18455,-2.22996 -0.31747,-1.56375 -0.31746,-1.56375 -0.41479,-1.31625 -0.4148,-1.31625 -0.70363,-1.50811 -0.70363,-1.50812 -1.02364,-1.53188 -1.02365,-1.53189 -1.12647,-1.21717 -1.12646,-1.21718 -1.16767,-0.89332 -1.16767,-0.89331 -1.05401,-0.49243 -1.05401,-0.49242 -1.10599,-0.23431 -1.10599,-0.2343 -1.49487,-0.003 -1.49487,-0.003 -1.57527,0.32102 -1.57528,0.32103 -1.40986,0.49679 -1.40985,0.4968 -1.70285,0.76143 -1.70284,0.76142 -2.18582,1.23381 -2.18582,1.2338 -2.35133,1.56503 -2.35134,1.56502 -1.86227,1.42193 -1.86227,1.42192 -1.89773,1.62282 -1.89773,1.62282 -2.2423,2.29718 -2.24229,2.29718 -1.08384,1.36 -1.08384,1.36 -0.90647,1.36 -0.90647,1.36 -0.69324,1.38618 -0.69325,1.38617 -0.36406,1.07924 -0.36405,1.07923 -2.69771,-0.0171 -2.69772,-0.0171 -0.50642,-1.34599 -0.50643,-1.34599 -0.67945,-1.26235 -0.67945,-1.26236 -0.85547,-1.28 -0.85548,-1.28 -1.04458,-1.29785 -1.04458,-1.29786 -1.94561,-2.02485 -1.94561,-2.02486 -2.10084,-1.81448 -2.10084,-1.81447 -1.56353,-1.21762 -1.56352,-1.21762 -1.95648,-1.34678 -1.95647,-1.34678 -1.91759,-1.16362 -1.91759,-1.16363 -2.16241,-1.07765 -2.16241,-1.07765 -1.48785,-0.58835 -1.48785,-0.58834 -1.55215,-0.41724 -1.55215,-0.41724 -2.48,-0.0109 -2.48,-0.0109 -1.28,0.44948 -1.28,0.44949 -1.04,0.66534 -1.04,0.66535 -1.68317,1.68456 -1.68316,1.68456 -0.85347,1.25021 -0.85347,1.25021 -0.76586,1.54979 -0.76586,1.54979 -0.48058,1.44 -0.48057,1.44 -0.32505,1.52 -0.32504,1.52 -0.19469,1.92 -0.19469,1.92 0.0951,2.32774 0.0951,2.32774 0.25615,1.75226 0.25615,1.75226 0.40752,1.84 0.40753,1.84 0.55457,1.83306 0.55458,1.83306 0.72803,1.92694 0.72804,1.92695 1.15071,2.4 1.1507,2.4 1.01225,1.76 1.01224,1.76 1.29825,1.92 1.29825,1.92 1.21087,1.52 1.21087,1.52 1.34933,1.42672 1.34933,1.42672 1.3051,1.14339 1.3051,1.14339 1.4549,1.02687 1.4549,1.02687 v 0.13686 0.13686 l -0.68,-0.51226 -0.68,-0.51225 -2,-1.3298 -2,-1.3298 -2,-1.04221 -2,-1.04221 -1.36,-0.58173 -1.36,-0.58174 -1.84001,-0.63664 -1.84,-0.63664 -1.85739,-0.4722 -1.85739,-0.4722 -2.34172,-0.3967 -2.34172,-0.3967 -2.92444,-0.19199 -2.92444,-0.192 -1.11606,0.18494 -1.11606,0.18494 -1.17767,0.58203 -1.17767,0.58204 -0.90272,0.90366 -0.90272,0.90366 -0.51026,1.03906 -0.51027,1.03906 -0.16582,0.72 -0.16582,0.72 -0.004,1.13096 -0.004,1.13096 0.25749,0.86706 0.25749,0.86706 0.69864,1.39107 0.69864,1.39107 2.86698,5.25933 2.86699,5.25933 1.11487,2.23158 1.11488,2.23158 0.5818,1.4784 0.5818,1.4784 0.55184,2.1216 0.55183,2.1216 0.32265,1.84 0.32264,1.84 0.32768,2.41219 0.32768,2.41219 0.78507,2.38781 0.78508,2.38781 0.74393,2 0.74392,2 0.80239,1.92 0.80238,1.92 1.32069,2.64 1.32068,2.64 1.07786,1.75776 1.07785,1.75776 1.0883,1.52224 1.08829,1.52224 1.1993,1.36982 1.1993,1.36981 1.54926,1.43019 1.54925,1.43018 0.68498,1.44 0.68497,1.44 0.98842,1.30698 0.98842,1.30698 1.11342,1.03085 1.11342,1.03086 1.08447,0.56833 1.08446,0.56833 0.98643,0.33097 0.98643,0.33096 1.49357,0.26472 1.49357,0.26473 6.08,0.0668 6.08,0.0668 1.2,0.38631 1.2,0.38632 0.8,0.18031 0.8,0.18032 1.52,0.13205 1.52,0.13205 3.04,-0.0569 3.04,-0.0569 z m -7.36,-2.6524 -2.4,-0.11438 -0.95519,-0.28128 -0.95518,-0.28128 -0.62296,-0.31781 -0.62295,-0.3178 -7.22186,-0.13312 -7.22186,-0.13311 -1.09357,-0.24887 -1.09357,-0.24886 -0.86685,-0.39686 -0.86686,-0.39686 -0.89891,-0.84865 -0.89891,-0.84866 -0.69801,-0.9766 -0.69802,-0.9766 -0.29864,-0.66705 -0.29865,-0.66704 -1.2297,-0.84513 -1.2297,-0.84512 -1.21252,-1.03123 -1.21252,-1.03123 -1.07474,-1.2 -1.07474,-1.2 -0.80829,-1.04 -0.80829,-1.04 -1.31058,-2 -1.31059,-2 -1.74346,-3.52 -1.74346,-3.52 -0.97379,-2.454 -0.9738,-2.45399 -1.03823,-3.06601 -1.03824,-3.066 -0.39739,-2.88 -0.39739,-2.88 -0.40252,-2.08 -0.40251,-2.08 -0.48333,-1.76 -0.48333,-1.76 -0.79416,-2.01998 -0.79417,-2.01998 -1.08944,-2.14002 -1.08945,-2.14002 -2.92801,-5.36 -2.92801,-5.36 -0.77783,-1.58582 -0.77783,-1.58582 0.002,-0.89418 0.002,-0.89418 0.37333,-0.8 0.37333,-0.8 0.65849,-0.59361 0.65849,-0.59361 0.92662,-0.27101 0.92661,-0.271 2.80159,0.18026 2.80159,0.18026 2.31841,0.39475 2.31841,0.39475 1.86225,0.48224 1.86224,0.48223 2.05776,0.74211 2.05775,0.74211 2.24001,1.09034 2.24,1.09034 1.8196,1.13693 1.81961,1.13693 1.78039,1.3389 1.7804,1.3389 1.95502,1.78132 1.95502,1.78131 1.70583,1.9112 1.70582,1.9112 1.34887,1.72657 1.34887,1.72658 1.81431,2.72 1.81431,2.72 1.17597,2.08542 1.17598,2.08542 0.88,1.71261 0.88,1.71261 0.0815,0.002 0.0815,0.002 0.75722,-1.96 0.75723,-1.96 0.46382,-1.37832 0.46383,-1.37831 0.1039,-0.47302 0.10389,-0.47303 -1.40642,-0.85385 -1.40641,-0.85386 -1.44,-1.08377 -1.44,-1.08376 -1.07151,-0.97611 -1.07151,-0.97611 -1.23761,-1.47493 -1.2376,-1.47493 -0.94755,-1.44 -0.94755,-1.44 -0.64417,-1.27787 -0.64416,-1.27787 -0.54187,-1.4031 -0.54188,-1.40309 -0.37811,-1.56158 -0.37812,-1.56159 -0.20175,-1.4763 -0.20175,-1.4763 -1.03119,-0.57668 -1.03119,-0.57667 -1.61408,-1.21587 -1.61408,-1.21588 -1.6983,-1.69829 -1.6983,-1.6983 -1.4084,-1.75031 -1.4084,-1.7503 -1.32962,-2 -1.32963,-2 -0.99322,-1.737 -0.99322,-1.737 -0.84619,-1.80089 -0.84619,-1.80088 -0.8845,-2.30212 -0.88451,-2.30212 -0.56956,-2 -0.56957,-2 -0.32775,-1.6 -0.32776,-1.6 -0.2346,-1.99902 -0.23461,-1.99901 v -1.95279 -1.95279 l 0.23889,-1.80819 0.23889,-1.8082 0.40809,-1.52 0.40809,-1.52 0.54628,-1.26517 0.54629,-1.26518 0.75071,-1.24183 0.75072,-1.24183 0.98227,-1.17299 0.98226,-1.173 1.21534,-0.98161 1.21534,-0.98161 0.93842,-0.37046 0.93842,-0.37045 1.92,-0.008 1.92,-0.008 1.31869,0.36076 1.31869,0.36076 1.60443,0.63921 1.60444,0.6392 1.41473,0.71052 1.41473,0.71052 1.58214,0.91205 1.58215,0.91204 2.11849,1.41048 2.11849,1.41048 1.64151,1.24289 1.64151,1.24289 1.90993,1.60013 1.90994,1.60013 2.01143,2.00397 2.01143,2.00397 1.0145,1.21709 1.01449,1.21709 1.02451,1.42291 1.02451,1.42291 0.87534,1.76 0.87535,1.76 0.33678,1.25018 0.33678,1.25017 0.0275,1.30983 0.0275,1.30982 -0.12828,0.86083 -0.12827,0.86082 0.36827,-0.0986 0.36828,-0.0986 1.84,-0.25959 1.84,-0.2596 2.88,0.0868 2.88,0.0868 1.36,0.31477 1.36,0.31478 0.0373,-0.0348 0.0373,-0.0348 -0.15912,-0.5494 -0.15912,-0.54941 -0.009,-1.44705 -0.009,-1.44706 0.25302,-1.09099 0.25301,-1.091 0.47811,-1.19402 0.47811,-1.19402 0.66381,-1.14793 0.66381,-1.14793 0.8034,-1.12 0.80341,-1.12 1.15188,-1.36 1.15189,-1.36 2.46155,-2.4 2.46156,-2.4 2.31935,-1.85914 2.31936,-1.85914 2.08,-1.45526 2.08,-1.45527 2.08,-1.24429 2.08,-1.2443 1.84,-0.92338 1.84,-0.92339 1.4941,-0.57991 1.4941,-0.5799 1.1459,-0.30831 1.1459,-0.30831 1.53523,-0.0916 1.53522,-0.0916 0.86478,0.20131 0.86477,0.2013 0.90625,0.47556 0.90625,0.47556 1.20765,1.11278 1.20766,1.11278 0.97652,1.29594 0.97652,1.29594 0.76886,1.53632 0.76885,1.53631 0.42245,1.26335 0.42245,1.26336 0.35357,1.61664 0.35357,1.61665 0.002,3.84 0.002,3.84 -0.37284,2.08 -0.37284,2.08 -0.38214,1.507 -0.38214,1.507 -0.49503,1.533 -0.49502,1.533 -0.81472,2.08 -0.81472,2.08 -1.29319,2.56001 -1.2932,2.56 -1.19429,1.92 -1.19429,1.92 -1.38531,1.84 -1.38531,1.84 -1.31979,1.49232 -1.3198,1.49233 -1.62003,1.44185 -1.62003,1.44186 -1.6,1.06752 -1.6,1.06753 -0.76,0.39802 -0.76,0.39802 v 0.49931 0.49932 l -0.23422,1.34311 -0.23422,1.34311 -0.41532,1.43785 -0.41532,1.43785 -0.68647,1.62312 -0.68647,1.62312 -0.84813,1.41688 -0.84813,1.41688 -1.0826,1.44 -1.0826,1.44 -1.57326,1.55537 -1.57326,1.55538 -1.2,0.95552 -1.2,0.95553 -1.64825,1.0091 -1.64826,1.0091 -0.23207,0.16 -0.23206,0.16 0.41861,1.36 0.41862,1.36 1.12045,2.88 1.12045,2.88 0.62302,1.81797 0.62302,1.81797 0.38859,1.54203 0.38859,1.54203 0.24421,1.44 0.24421,1.44 0.10642,1.45383 0.10641,1.45384 1.53902,0.42988 1.53902,0.42988 1.44959,0.71631 1.44958,0.7163 0.848,0.72384 0.848,0.72383 0.63085,0.75614 0.63085,0.75615 0.71414,1.44 0.71414,1.44 0.31396,1.44 0.31396,1.44 0.004,0.64 0.004,0.64 0.75971,0.47934 0.75972,0.47934 1.14719,1.08884 1.1472,1.08883 0.64799,1.31183 0.64799,1.31182 0.19285,1.13356 0.19285,1.13356 -0.1826,1.10644 -0.1826,1.10644 -0.64791,1.30935 -0.64791,1.30936 -1.21092,1.28721 -1.21092,1.28721 -0.9866,0.48447 -0.98661,0.48446 -1.12,0.23711 -1.12,0.23711 -1.52,0.0832 -1.52,0.0832 -5.69834,0.0644 -5.69833,0.0644 -0.70167,0.35871 -0.70166,0.3587 -0.8,0.22108 -0.8,0.22108 -2.96,0.14862 -2.96,0.14863 -1.36,-0.14439 -1.36,-0.14439 -0.89956,-0.31406 -0.89956,-0.31407 -2.06044,-0.043 -2.06044,-0.043 -1.12,0.41219 -1.12,0.41219 -1.6,0.0761 -1.6,0.0761 z m 0.14457,-4.01871 -0.26102,-1.01889 0.0693,-1.32042 0.0693,-1.32041 0.29372,-0.32456 0.29372,-0.32455 h 0.2952 0.29521 l 0.30584,0.30584 0.30584,0.30584 -0.0865,1.26212 -0.0865,1.26212 0.27059,0.93079 0.27059,0.9308 -0.0849,0.22124 -0.0849,0.22125 h 0.45721 0.45721 l 0.28101,-1.03812 0.281,-1.03811 -0.0897,-1.18565 -0.0897,-1.18566 0.23551,-0.33623 0.2355,-0.33623 h 0.36613 0.36613 l 0.3048,0.33659 0.3048,0.33659 v 1.54341 1.54341 l -0.12725,0.6 -0.12725,0.6 h 0.29334 0.29335 l 0.7139,-0.36 0.71391,-0.36 -0.01,-1.53907 -0.01,-1.53906 -0.47012,-0.94092 -0.47013,-0.94092 -0.67483,-0.50658 -0.67483,-0.50659 -0.92517,-0.35013 -0.92517,-0.35013 -1.28,-0.0821 -1.28,-0.0821 -1.2718,0.42833 -1.2718,0.42834 -0.64462,0.47406 -0.64463,0.47406 -0.43168,0.64276 -0.43169,0.64277 -0.17189,0.8015 -0.17189,0.80151 v 0.47775 0.47776 l 0.26269,0.40092 0.2627,0.40093 0.67136,0.39345 0.67136,0.39344 h 0.16909 0.1691 l -0.13934,-0.6 -0.13933,-0.6 -0.004,-1.14959 -0.004,-1.14958 0.17001,-0.44716 0.17001,-0.44716 0.18999,-0.12081 0.18999,-0.1208 0.34041,-0.002 0.3404,-0.002 0.21728,0.2618 0.21727,0.26179 -0.0306,1.45821 -0.0307,1.4582 0.19298,0.72 0.19297,0.72 0.56,0.0873 0.56,0.0873 0.0428,-0.0235 0.0428,-0.0235 z m 17.61881,0.97664 -0.0955,-0.15453 0.25858,-0.8895 0.25859,-0.88951 -0.0525,-1.44886 -0.0525,-1.44886 0.31058,-0.22711 0.31058,-0.2271 h 0.26462 0.26462 l 0.3048,0.33668 0.3048,0.33669 0.0568,1.35211 0.0568,1.35211 -0.18402,0.7512 -0.18401,0.75121 -0.0757,0.25529 -0.0757,0.25529 0.59638,-0.0969 0.59638,-0.0969 0.21317,-0.71835 0.21317,-0.71835 -0.0455,-1.49372 -0.0455,-1.49372 0.30946,-0.22628 0.30946,-0.22628 h 0.25884 0.25884 l 0.30235,0.22109 0.30236,0.22109 0.0619,1.49891 0.0619,1.49891 -0.15514,0.67331 -0.15514,0.67332 0.76744,-0.3889 0.76745,-0.38889 0.35576,-0.49962 0.35576,-0.49962 -0.0965,-1.0336 -0.0965,-1.03359 -0.44519,-0.8185 -0.4452,-0.8185 -0.72,-0.53181 -0.72,-0.53181 -1.24826,-0.40089 -1.24826,-0.4009 h -0.91521 -0.9152 l -1.05619,0.29287 -1.05619,0.29287 -0.73493,0.4307 -0.73492,0.43069 -0.40047,0.52505 -0.40047,0.52504 -0.25686,0.61474 -0.25685,0.61473 -0.0903,1.39441 -0.0903,1.39441 0.33307,0.33308 0.33308,0.33307 0.6502,0.1948 0.6502,0.19481 0.0901,-0.0901 0.0901,-0.0901 -0.1936,-0.98407 -0.19361,-0.98407 0.0948,-1.13035 0.0948,-1.13035 0.27253,-0.30113 0.27252,-0.30114 h 0.35561 0.35561 l 0.2196,0.26474 0.21959,0.26475 0.002,1.61525 0.002,1.61526 0.22282,0.68 0.22283,0.68 h 0.46412 0.46411 z m -25.57273,-2.57397 0.0307,-1.28534 0.26193,-0.91308 0.26193,-0.91308 0.42741,-0.72 0.42742,-0.72 v -0.10264 -0.10264 l -3.26104,-2.18594 -3.26104,-2.18595 -1.1327,-0.57041 -1.13269,-0.57042 -0.62712,-0.22126 -0.62713,-0.22127 -0.98361,-0.15713 -0.98361,-0.15713 -0.94735,0.15418 -0.94735,0.15419 -0.85944,0.42048 -0.85944,0.42049 -0.99563,0.84466 -0.99564,0.84465 -0.55311,1.0907 -0.5531,1.0907 0.006,1.20737 0.006,1.20737 0.43055,0.82704 0.43055,0.82704 0.80931,0.97248 0.8093,0.97248 0.61307,0.31276 0.61306,0.31276 0.7015,0.17584 0.70151,0.17584 1.36,0.13008 1.36,0.13007 4.72,0.0202 4.72,0.0202 z m -13.63065,-0.3994 -0.48,-0.24592 -0.2,-0.26367 -0.2,-0.26367 v -0.39911 -0.39911 l 0.34789,-0.37031 0.34789,-0.37031 -0.30789,-0.002 -0.30789,-0.002 -0.81262,-0.37839 -0.81262,-0.37839 -0.34738,-0.44162 -0.34738,-0.44163 v -0.43362 -0.43363 l 0.33652,-0.30479 0.33652,-0.3048 h 1.09434 1.09433 l -0.38682,-0.40454 -0.38682,-0.40454 -0.17677,-0.5071 -0.17678,-0.5071 0.21292,-0.44836 0.21292,-0.44836 0.55982,-0.28745 0.55982,-0.28744 0.64,0.0957 0.64,0.0957 0.68,0.39848 0.68,0.39848 v -0.38517 -0.38517 l 0.33161,-0.42157 0.33161,-0.42158 h 0.71476 0.71476 l 0.63129,0.32206 0.63129,0.32205 0.25269,0.38566 0.25269,0.38566 0.0138,0.48358 0.0137,0.48359 -0.26367,0.40242 -0.26368,0.40241 -0.64228,0.17295 -0.64228,0.17295 -0.71815,-0.31767 -0.71814,-0.31767 v 0.22348 0.22347 l -0.18217,0.39982 -0.18217,0.39982 -0.55498,0.26335 -0.55498,0.26335 -0.46679,-0.0685 -0.46679,-0.0685 0.38048,0.41287 0.38049,0.41287 0.0992,0.28189 0.0992,0.2819 -0.17999,0.39503 -0.17999,0.39503 -0.32271,0.10242 -0.3227,0.10242 0.62699,0.21465 0.62699,0.21464 0.28,0.34373 0.28,0.34374 v 0.38955 0.38954 l -0.39273,0.39273 -0.39273,0.39273 -0.76727,-9.9e-4 -0.76727,-9.8e-4 z m 4.05422,-0.19697 -0.37422,-0.44487 -0.29972,-0.66496 -0.29971,-0.66496 0.10509,-0.56018 0.10509,-0.56017 0.80231,-0.72135 0.80231,-0.72135 0.97787,-0.48865 0.97787,-0.48864 h 0.53958 0.53958 l 0.55333,0.23119 0.55333,0.2312 0.40153,0.40153 0.40154,0.40153 v 0.715 0.715 l -0.41,0.48725 -0.40999,0.48725 -0.88411,0.27869 -0.88411,0.27869 -0.4071,0.48633 -0.4071,0.48634 -0.4188,0.27894 -0.41879,0.27895 -0.58578,0.001 -0.58578,0.001 z m 55.62578,1.72096 1.76,-0.16364 0.81005,-0.23199 0.81005,-0.23199 0.54587,-0.36786 0.54587,-0.36786 0.76721,-0.95232 0.7672,-0.95232 0.35688,-0.72406 0.35687,-0.72405 -0.001,-1.28 -0.001,-1.28 -0.54831,-1.01347 -0.54831,-1.01347 -0.89053,-0.79518 -0.89053,-0.79518 -0.96,-0.47341 -0.96,-0.47341 -0.95553,-0.15533 -0.95553,-0.15534 -1.00832,0.16108 -1.00832,0.16108 -0.83806,0.31356 -0.83806,0.31355 -1.35809,0.78101 -1.35809,0.78101 -2.8,1.88385 -2.8,1.88386 -0.0479,0.0391 -0.0479,0.0391 0.39368,0.58012 0.39368,0.58012 0.33807,0.99864 0.33807,0.99864 0.10012,1.4 0.10011,1.4 4.33605,-1.4e-4 4.33604,-1.3e-4 z m -3.45357,-2.04394 -0.76785,-0.76786 -0.8793,-0.27717 -0.87929,-0.27717 -0.41,-0.48725 -0.40999,-0.48725 v -0.71537 -0.71536 l 0.44,-0.41358 0.44,-0.41357 0.51486,-0.21879 0.51486,-0.21878 0.52514,0.004 0.52514,0.004 0.67195,0.30506 0.67196,0.30506 0.94532,0.64195 0.94532,0.64196 0.26272,0.55365 0.26273,0.55365 v 0.34096 0.34096 l -0.24849,0.59486 -0.24849,0.59486 -0.42144,0.44 -0.42145,0.44 h -0.63292 -0.63293 z m 4.08629,0.37512 -0.39272,-0.39273 v -0.41454 -0.41455 l 0.39591,-0.39591 0.39591,-0.39591 0.48102,-0.0962 0.48102,-0.0962 -0.39693,-0.31223 -0.39693,-0.31223 v -0.45611 -0.45611 l 0.37899,-0.45228 0.379,-0.45227 -0.73142,-0.0216 -0.73142,-0.0216 -0.44757,-0.50092 -0.44758,-0.50093 v -0.30848 -0.30848 l -0.70212,0.31058 -0.70212,0.31058 -0.49561,-0.0991 -0.49561,-0.0991 -0.40227,-0.40228 -0.40227,-0.40227 v -0.58258 -0.58258 l 0.25057,-0.35774 0.25057,-0.35775 0.62306,-0.31785 0.62305,-0.31786 h 0.71476 0.71476 l 0.33161,0.42158 0.33162,0.42157 v 0.38517 0.38517 l 0.68,-0.39848 0.68,-0.39848 0.64,-0.0957 0.64,-0.0957 0.55676,0.28744 0.55675,0.28745 0.22785,0.41108 0.22784,0.41109 -0.10691,0.42598 -0.10692,0.42598 -0.45845,0.52293 -0.45845,0.52294 h 1.08424 1.08424 l 0.33652,0.3048 0.33653,0.30479 v 0.43363 0.43362 l -0.34738,0.44163 -0.34739,0.44162 -0.81261,0.37839 -0.81262,0.37839 -0.30789,0.002 -0.30789,0.002 0.34789,0.37031 0.34789,0.37031 v 0.36021 0.36021 l -0.17288,0.32302 -0.17288,0.32303 -0.54198,0.22645 -0.54198,0.22646 h -0.73242 -0.73241 z m -28.12575,-2.92964 0.4029,-0.85166 0.84111,-0.91299 0.8411,-0.91298 0.26157,-3.12 0.26158,-3.12 0.25609,-1.52 0.25609,-1.52 0.4523,-1.36 0.4523,-1.36 0.41334,-0.73437 0.41335,-0.73436 0.78102,-0.89251 0.78102,-0.89252 1.33963,-1.21413 1.33963,-1.21414 0.61512,-0.18884 0.61512,-0.18885 0.65966,0.22986 0.65967,0.22986 0.36521,0.54366 0.36522,0.54366 v 0.54428 0.54429 l -0.22969,0.43205 -0.22968,0.43206 -1.75884,1.6406 -1.75884,1.64059 -0.40661,0.83941 -0.4066,0.8394 -0.2472,0.96 -0.2472,0.96 -0.22579,1.76 -0.22579,1.76 -0.10995,1.2322 -0.10995,1.23221 1.09807,-0.0874 1.09807,-0.0875 1.14849,0.24424 1.1485,0.24425 1.00891,0.40751 1.0089,0.40752 0.56884,-0.37644 0.56883,-0.37643 0.74989,-3.02008 0.74989,-3.02007 0.32707,-1.78478 0.32708,-1.78479 0.23509,-2.21521 0.23508,-2.21522 0.002,-1.96631 0.002,-1.96631 -0.16924,-1.55369 -0.16925,-1.55369 -0.32058,-1.59336 -0.32059,-1.59336 -0.57016,-1.76664 -0.57016,-1.76664 -1.32293,-3.44 -1.32294,-3.44 -0.36857,-1.16 -0.36857,-1.16 h -0.13096 -0.13097 l -5.21223,4.92 -5.21222,4.92 -0.51794,0.28147 -0.51793,0.28148 -0.5087,-0.10174 -0.50869,-0.10174 -5.39869,-5.09478 -5.39868,-5.09479 -0.24533,-0.005 -0.24533,-0.005 -0.41656,1.32 -0.41657,1.32 -1.44755,3.76 -1.44755,3.76 -0.47335,1.68645 -0.47334,1.68645 -0.29577,1.59355 -0.29578,1.59355 0.008,4 0.008,4 0.4409,2.70071 0.44091,2.70072 0.86989,3.44581 0.8699,3.44581 v 0.0558 0.0558 l 0.48706,0.2962 0.48705,0.2962 0.96445,-0.38956 0.96444,-0.38955 1.1485,-0.24425 1.1485,-0.24424 1.09827,0.0875 1.09828,0.0875 -0.1101,-1.39222 -0.1101,-1.39222 -0.22482,-1.64397 -0.22483,-1.64396 -0.25676,-0.99604 -0.25676,-0.99603 -0.40742,-0.75155 -0.40742,-0.75154 -1.13917,-1.11253 -1.13917,-1.11253 -0.60818,-0.51968 -0.60817,-0.51967 -0.23183,-0.44831 -0.23182,-0.4483 v -0.45044 -0.45045 l 0.29236,-0.54514 0.29236,-0.54514 0.54514,-0.29236 0.54514,-0.29236 0.4825,6e-4 0.4825,5.9e-4 0.48,0.29829 0.48,0.29829 1.27555,1.13103 1.27555,1.13103 0.76264,0.925 0.76263,0.92499 0.5605,1.13437 0.56051,1.13437 0.31542,1.23331 0.31543,1.2333 0.23859,1.71742 0.2386,1.71741 0.19071,2.56 0.19071,2.56 0.83656,0.88713 0.83656,0.88714 0.32237,0.63286 0.32237,0.63287 0.25765,0.86904 0.25765,0.86904 0.013,0.49096 0.013,0.49096 0.239,-1.11536 0.239,-1.11536 z m -37.94697,-5.04062 0.48,-0.98577 0.92033,-0.98636 0.92033,-0.98637 0.86164,-0.59344 0.86164,-0.59343 0.18577,-0.98582 0.18577,-0.98582 0.32602,-1.04 0.32603,-1.04 0.58623,-1.11909 0.58624,-1.11909 1.01447,-1.07571 1.01447,-1.07571 1.00414,-0.63417 1.00414,-0.63417 0.94139,-0.39174 0.94139,-0.39175 0.4,-0.12165 0.4,-0.12165 0.84847,-0.77359 0.84847,-0.7736 0.47153,-0.27854 0.47153,-0.27854 0.003,-0.8055 0.003,-0.8055 0.2239,-1.68 0.2239,-1.68 0.25434,-1.09583 0.25435,-1.09583 -0.65414,-1.46417 -0.65414,-1.46417 -1.48263,-2.88 -1.48262,-2.88 -1.08971,-1.84 -1.08971,-1.84 -1.44766,-2.1498 -1.44765,-2.14979 -1.22336,-1.57159 -1.22335,-1.57158 -1.64862,-1.8382 -1.64863,-1.83821 -1.61816,2.44909 -1.61817,2.44908 -1.1113,1.4305 -1.1113,1.4305 -1.22364,1.2047 -1.22363,1.2047 -1.19305,0.82475 -1.19304,0.82475 -1.66911,0.83461 -1.66912,0.8346 -2,0.76658 -2,0.76658 0.0258,0.60936 0.0258,0.60937 0.48099,3.28 0.48099,3.28 0.89568,2.61585 0.89568,2.61584 0.88218,2.22653 0.88219,2.22652 0.96696,2.11099 0.96697,2.111 0.86838,1.56845 0.86837,1.56845 0.82375,1.31819 0.82375,1.31818 0.86817,1.15706 0.86817,1.15707 0.9143,1.00293 0.91431,1.00294 0.95373,0.91677 0.95374,0.91678 0.16,-0.005 0.16,-0.005 z m 17.2,-2.41085 v -0.0538 l -0.46364,-2.23991 -0.46363,-2.23992 -0.285,-2.14625 -0.285,-2.14625 -0.0307,-0.046 -0.0307,-0.046 -1.51453,0.48514 -1.51452,0.48515 -0.94614,0.61253 -0.94613,0.61253 -0.51902,0.59278 -0.51902,0.59277 -0.3367,0.66 -0.33671,0.65999 -0.21718,0.61556 -0.21718,0.61556 h 0.76731 0.76731 l 1.26559,0.32138 1.2656,0.32138 1.6,0.79386 1.6,0.79386 0.56,0.39691 0.56,0.39692 0.12,0.008 0.12,0.008 z m 43.32824,-1.82083 1.16825,-0.54264 1.21735,-0.31135 1.21735,-0.31134 h 0.71221 0.71221 l -0.11167,-0.59523 -0.11166,-0.59523 -0.2446,-0.72477 -0.2446,-0.72477 -0.38679,-0.66302 -0.38679,-0.66302 -0.77351,-0.72352 -0.7735,-0.72352 -0.85765,-0.4346 -0.85765,-0.43461 -0.86864,-0.29886 -0.86865,-0.29885 h -0.12515 -0.12515 l -0.0834,0.68 -0.0834,0.68 -0.17823,1.6 -0.17823,1.6 -0.47492,2.44457 -0.47491,2.44457 -0.0947,0.24687 -0.0947,0.24687 1.10151,-0.67746 1.10151,-0.67745 z m -20.64194,-33.81603 1.5537,-0.1707 1.52,-0.32348 1.52,-0.32348 1.94498,-0.62939 1.94498,-0.62939 2.21502,-1.11599 2.21502,-1.11599 1.51153,-1.08044 1.51154,-1.08044 1.5108,-1.44 1.51079,-1.44 0.99816,-1.28 0.99815,-1.28 0.75144,-1.23991 0.75144,-1.23991 0.61406,-1.41578 0.61406,-1.41578 0.32446,-1.10431 0.32446,-1.10431 0.23519,-1.28 0.23519,-1.28 0.11329,-1.4 0.11329,-1.4 h -1.44757 -1.44758 l -0.24672,0.8487 -0.24673,0.84871 -0.60462,0.60697 -0.60463,0.60697 -0.6,0.30758 -0.6,0.30757 v 0.56349 0.5635 l -0.25168,1.23325 -0.25169,1.23326 -0.5599,1.17158 -0.5599,1.17159 -0.93114,0.93113 -0.93113,0.93113 -1.17728,0.57936 -1.17728,0.57936 -1.12,0.23514 -1.12,0.23515 -1.05949,0.003 -1.05948,0.003 -1.55371,-0.39413 -1.55371,-0.39414 -1.46681,-0.54777 -1.4668,-0.54778 -0.92554,-0.19059 -0.92554,-0.19058 0.0969,-1.22751 0.0969,-1.2275 0.22329,-1.15134 0.2233,-1.15134 0.48229,-1.24866 0.48229,-1.24866 0.60195,-1.01605 0.60195,-1.01604 0.82975,-1.00595 0.82976,-1.00595 1.14649,-0.89707 1.14649,-0.89707 0.99896,-0.47675 0.99895,-0.47676 1.02589,-0.24182 1.02589,-0.24181 1.05948,-0.002 1.05949,-0.002 1.54992,0.39317 1.54992,0.39317 2.55059,1.23304 2.5506,1.23304 v 0.21379 0.21379 h 1.28944 1.28944 l -0.11441,-0.2 -0.11442,-0.2 -3.81502,-6.18553 -3.81503,-6.18552 v -0.17448 -0.17447 l 1.72,-0.001 1.72,-0.001 -2.32,-1.51473 -2.32,-1.51474 6.53061,-0.004 6.53062,-0.004 -0.77062,-0.98132 -0.77061,-0.98131 -0.72,-0.63535 -0.72,-0.63535 -0.8,-0.40701 -0.8,-0.407 -1.04,-0.0681 -1.04,-0.0681 -0.8,0.24433 -0.8,0.24433 0.27522,-0.20667 0.27522,-0.20667 5.84478,-3.08919 5.84478,-3.08919 v -0.1322 -0.1322 l -0.91231,-0.26521 -0.91231,-0.26522 -1.12769,0.0975 -1.12769,0.0975 -1.12,0.31294 -1.12,0.31293 -1.39706,0.58507 -1.39707,0.58507 -1.94214,1.11268 -1.94215,1.11269 -0.0788,-0.0788 -0.0788,-0.0788 0.67839,-1.80868 0.67839,-1.80868 0.9404,-2.20405 0.9404,-2.20406 0.94444,-1.87594 0.94443,-1.87595 1.05153,-1.76 1.05153,-1.76 -0.35783,0.4338 -0.35783,0.4338 -1.0287,1.6462 -1.02869,1.6462 -2.39315,4.32 -2.39316,4.32 -1.15718,1.76 -1.15718,1.76 -1.05779,1.14154 -1.0578,1.14154 -1.08211,0.73775 -1.08211,0.73776 -0.94433,0.33066 -0.94432,0.33066 -0.59209,-0.10003 -0.59209,-0.10003 -0.19137,0.46201 -0.19138,0.46202 -0.88207,0.0232 -0.88207,0.0232 -1.39014,-0.57586 -1.39014,-0.57586 -1.84,-0.47676 -1.84,-0.47676 -2.52983,-0.0839 -2.52982,-0.0839 -1.47018,0.19724 -1.47017,0.19724 -2.08,0.53263 -2.08,0.53264 -1.12,0.42626 -1.12,0.42625 -0.61573,-0.0816 -0.61573,-0.0816 -0.3873,-0.36385 -0.3873,-0.36385 -0.69287,-0.013 -0.69287,-0.013 -1.2641,-0.62317 -1.2641,-0.62317 -1.52928,-1.53307 -1.52928,-1.53308 -1.05781,-1.6 -1.05782,-1.6 -2.6261,-4.72647 -2.62611,-4.72647 -1.22158,-1.87353 -1.22158,-1.87353 h -0.0744 -0.0744 l 0.87926,1.4 0.87925,1.4 1.25337,2.48 1.25337,2.48 0.75446,1.76 0.75445,1.76 0.78466,2.0641 0.78465,2.06409 -0.0659,0.0659 -0.066,0.066 -1.85005,-1.05031 -1.85006,-1.05031 -1.46858,-0.64626 -1.46858,-0.64626 -1.21799,-0.34491 -1.21798,-0.3449 -1.44,-0.009 -1.44,-0.009 -0.6,0.21241 -0.6,0.21241 0.004,0.10759 0.004,0.10759 5.93584,3.12 5.93585,3.12 0.26047,0.19127 0.26047,0.19126 -0.85851,-0.24873 -0.85851,-0.24872 -0.98149,0.0631 -0.98149,0.0631 -0.77949,0.37807 -0.77949,0.37808 -0.98051,0.91766 -0.98051,0.91767 -0.52865,0.73682 -0.52865,0.73683 6.47779,0.0418 6.47778,0.0418 -2.24585,1.44 -2.24585,1.44 1.69671,0.0454 1.69672,0.0454 v 0.12659 0.12658 l -3.92,6.34839 -3.92,6.34839 0,0.0796 v 0.0796 h 1.28 1.28 l -0.04,-0.18014 -0.04,-0.18014 2.11681,-1.09133 2.11682,-1.09133 1.56318,-0.5213 1.56319,-0.52131 1.92,-10e-5 1.92,-1e-4 1.07864,0.41252 1.07865,0.41253 0.91565,0.54035 0.91565,0.54035 1.30612,1.28 1.30613,1.28 0.74551,1.15718 0.74551,1.15719 0.48485,1.13939 0.48486,1.13938 0.30724,1.20131 0.30724,1.20131 0.10346,1.47187 0.10347,1.47188 -1.26149,0.33126 -1.26149,0.33127 -1.90276,0.66831 -1.90275,0.66831 -1.25634,0.18311 -1.25635,0.18312 -1.42042,-0.17929 -1.42042,-0.17929 -1.24345,-0.51765 -1.24344,-0.51764 -1.10052,-1.03818 -1.10051,-1.03817 -0.63982,-1.29734 -0.63982,-1.29733 -0.27113,-1.72498 -0.27113,-1.72497 -0.64557,-0.38075 -0.64557,-0.38076 -0.46167,-0.48564 -0.46166,-0.48564 -0.28687,-0.84863 -0.28686,-0.84863 -1.39604,-0.0466 -1.39603,-0.0466 0.099,1.48659 0.099,1.48659 0.25582,1.34143 0.25583,1.34143 0.48847,1.45857 0.48847,1.45857 0.72268,1.44 0.72268,1.44 0.85173,1.28 0.85172,1.28 1.1117,1.24445 1.1117,1.24446 0.94299,0.84141 0.94298,0.84141 0.95221,0.72934 0.95221,0.72935 1.04451,0.65672 1.04452,0.65672 1.99548,0.956 1.99549,0.95599 1.52,0.48954 1.52,0.48953 1.44,0.33823 1.44,0.33823 1.52,0.20782 1.52,0.20782 1.4063,0.0165 1.40631,0.0165 z m -5.75123,-1.80248 -0.58493,-0.21875 -0.73348,-0.42985 -0.73348,-0.42985 -0.0952,-0.37928 -0.0952,-0.37929 0.17923,-0.3349 0.17924,-0.3349 h 0.45803 0.45804 l 0.69633,0.39807 0.69634,0.39807 0.41333,0.002 0.41333,0.002 0.10348,-0.10348 0.10347,-0.10347 -0.75681,-0.35355 -0.7568,-0.35354 -0.45486,-0.45966 -0.45486,-0.45965 -0.23438,-0.45325 -0.23438,-0.45324 -0.006,-0.78982 -0.006,-0.78982 0.40602,-0.69282 0.40602,-0.69282 0.63118,-0.41769 0.63117,-0.41769 0.92981,-0.27031 0.92981,-0.2703 1.08327,0.0908 1.08327,0.0908 0.69321,0.30664 0.69321,0.30664 0.58149,0.51055 0.58149,0.51055 0.27121,0.71017 0.27122,0.71016 -0.10794,0.67499 -0.10793,0.67499 -0.31538,0.51029 -0.31538,0.51029 -0.55808,0.42567 -0.55807,0.42567 -0.59944,0.22015 -0.59944,0.22016 0.60637,0.0113 0.60637,0.0113 0.62726,-0.32 0.62725,-0.32 h 0.4898 0.48981 l 0.18225,0.4 0.18225,0.4 -0.17537,0.38489 -0.17537,0.3849 -1.08269,0.53301 -1.08269,0.53301 -1.12762,-0.005 -1.12762,-0.005 -0.48,-0.0454 -0.48,-0.0454 -1.04,0.0957 -1.04,0.0957 z m 3.55928,-6.12411 0.18483,-0.22271 -0.19918,-0.24 -0.19919,-0.24 h -0.52081 -0.52082 l -0.19337,0.23299 -0.19336,0.23299 0.11014,0.17822 0.11015,0.17822 0.33766,0.12491 0.33766,0.12491 0.28073,-0.0734 0.28072,-0.0734 z m -10.87204,-20.39683 -0.53769,-0.1642 -0.62069,-0.39183 -0.6207,-0.39183 -0.42248,-0.63841 -0.42249,-0.63842 -0.21646,-0.9206 -0.21646,-0.92059 0.0964,-0.52677 0.0964,-0.52677 0.45131,-0.45131 0.45131,-0.45131 0.50961,-0.10192 0.50962,-0.10192 0.34,0.002 0.34,0.002 0.84351,0.39271 0.84352,0.3927 0.87088,0.82364 0.87088,0.82365 0.3256,0.6726 0.32561,0.67261 v 0.43462 0.43462 l -0.2274,0.54424 -0.22739,0.54423 -0.4886,0.25266 -0.48859,0.25266 -0.92401,0.073 -0.92401,0.073 z m 17.73999,0.0102 -0.5577,-0.13113 -0.4423,-0.49502 -0.4423,-0.49502 5.9e-4,-0.83748 6e-4,-0.83747 0.33572,-0.56 0.33571,-0.56 0.42369,-0.46173 0.42369,-0.46173 0.93255,-0.61035 0.93255,-0.61035 0.69545,-0.10429 0.69545,-0.10429 0.54847,0.18101 0.54847,0.18101 0.36206,0.3854 0.36206,0.38539 0.0796,0.70653 0.0796,0.70652 -0.26759,0.92048 -0.26759,0.92048 -0.77092,0.77092 -0.77092,0.77093 -0.8487,0.25203 -0.84869,0.25204 -0.49096,-0.0164 -0.49096,-0.0164 z m -19.43466,7.26051 0.39236,-0.42336 -0.005,-0.65664 -0.005,-0.65663 -0.23241,-0.30717 -0.23241,-0.30716 -0.4425,-0.29178 -0.4425,-0.29179 -0.57843,-0.001 -0.57842,-0.001 -0.40999,0.3225 -0.41,0.3225 -0.18512,0.56093 -0.18512,0.56093 0.31034,0.49015 0.31034,0.49016 0.4632,0.30536 0.4632,0.30536 0.68764,0.001 0.68764,0.001 z m 26.30618,0.18656 0.45792,-0.2368 0.33413,-0.42477 0.33413,-0.42478 v -0.47442 -0.47442 l -0.56432,-0.56433 -0.56433,-0.56432 -0.75018,0.0846 -0.75018,0.0846 -0.5255,0.57341 -0.52549,0.57342 v 0.55007 0.55007 l 0.41422,0.49228 0.41422,0.49228 h 0.63373 0.63372 z m -42.97855,-8.44494 0.30518,-0.40875 -0.30023,-0.61147 -0.30022,-0.61148 -0.88,-0.17445 -0.88,-0.17446 -0.4,-0.21479 -0.4,-0.21479 -0.59022,-0.47295 -0.59021,-0.47294 0.31021,-0.78701 0.31022,-0.78701 v -0.0741 -0.0741 l -0.6,-0.003 -0.6,-0.003 -1.09935,-0.23291 -1.09934,-0.23292 -1.17427,-0.58021 -1.17427,-0.58022 -0.16898,-0.20361 -0.16898,-0.20361 0.52259,-0.20971 0.5226,-0.20971 1.198,-0.53899 1.19801,-0.53899 -1.43801,-0.68941 -1.438,-0.68942 -0.62426,-0.50416 -0.62426,-0.50416 -0.37574,-0.50929 -0.37574,-0.50929 v -0.11621 -0.1162 l 0.44,-0.0848 0.44,-0.0848 0.93603,-0.18256 0.93603,-0.18256 -0.45499,-0.23605 -0.45498,-0.23605 -0.53547,-0.40842 -0.53547,-0.40842 -0.72284,-0.98086 -0.72284,-0.98086 -0.46086,-0.91171 -0.46086,-0.91172 0.11934,-0.0738 0.11934,-0.0737 0.63878,-0.11505 0.63879,-0.11504 0.20948,-0.11115 0.20948,-0.11115 -0.63364,-0.43912 -0.63365,-0.43911 -1.03512,-1.0722 -1.03511,-1.0722 -0.71967,-1.11702 -0.71967,-1.11702 -0.34105,-0.67362 -0.34105,-0.67363 V 129.28638 129.12 h 2.49436 2.49437 l -0.80637,-0.63739 -0.80637,-0.6374 -0.78563,-0.94403 -0.78563,-0.94403 -0.4906,-0.85857 -0.49059,-0.85858 -0.40328,-1.20289 -0.40327,-1.20289 -0.18963,-1.47865 -0.18962,-1.47864 0.1739,-1.31846 0.17391,-1.31847 0.24219,-0.8 0.24219,-0.8 0.52503,-0.87463 0.52504,-0.87464 0.54366,-0.36536 0.54366,-0.36537 h 0.91074 0.91075 l 1.21025,0.30953 1.21025,0.30953 0.85534,0.41729 0.85535,0.41729 -0.3087,-0.24544 -0.3087,-0.24545 -1.3713,-0.70362 -1.3713,-0.70363 -1.2,-0.42952 -1.2,-0.42952 -1.35561,-0.32268 -1.3556,-0.32269 -0.43816,-0.31199 -0.43816,-0.312 -0.57097,0.76645 -0.57096,0.76645 -0.78913,1.6 -0.78913,1.6 -0.39003,1.52 -0.39003,1.52 -0.19527,1.84 -0.19528,1.84 0.10517,1.84 0.10517,1.84 0.23711,1.61679 0.23711,1.61678 0.47133,1.93017 0.47133,1.93017 0.65059,1.92537 0.65059,1.92537 0.94835,2.18493 0.94835,2.18493 1.00661,1.86224 1.00662,1.86223 1.54634,2.32051 1.54635,2.32052 1.27988,1.52 1.27989,1.52 1.50857,1.49174 1.50857,1.49175 1.3452,0.0462 1.3452,0.0462 0.8,0.31455 0.8,0.31455 0.31505,-0.10903 0.31505,-0.10903 z m 61.66763,-0.0171 1.6429,0.009 1.56855,-1.53511 1.56855,-1.53511 1.20646,-1.45954 1.20646,-1.45954 1.05316,-1.51053 1.05315,-1.51054 0.96558,-1.62615 0.96558,-1.62614 0.82574,-1.64378 0.82575,-1.64379 0.75988,-1.77277 0.75987,-1.77278 0.72423,-2.22722 0.72423,-2.22723 0.40275,-1.84 0.40276,-1.84 0.20613,-1.28 0.20613,-1.28 1.9e-4,-3.04 1.8e-4,-3.04 -0.28147,-1.40398 -0.28147,-1.40398 -0.4881,-1.39602 -0.4881,-1.39602 -0.54196,-0.97876 -0.54195,-0.97877 -0.73927,-0.98345 -0.73927,-0.98345 -0.31718,0.40323 -0.31718,0.40323 -0.32289,0.1728 -0.32288,0.17281 -1.59216,0.38552 -1.59216,0.38552 -1.35649,0.56152 -1.35648,0.56151 -0.87606,0.49442 -0.87606,0.49442 v 0.059 0.059 l 0.68,-0.29119 0.68,-0.29119 1.05022,-0.26312 1.05022,-0.26313 0.94978,0.001 0.94978,0.001 0.45424,0.29949 0.45424,0.29948 0.52566,0.73936 0.52566,0.73936 0.3801,1.1601 0.3801,1.1601 v 2.4 2.4 l -0.3747,1.2 -0.3747,1.2 -0.54949,1.05027 -0.5495,1.05026 -0.85751,1.02974 -0.85752,1.02973 -0.75243,0.56 -0.75243,0.56 2.49414,0.0441 2.49414,0.0441 v 0.17646 0.17646 l -0.50824,0.89948 -0.50824,0.89947 -0.59091,0.88 -0.59092,0.88 -0.78085,0.86906 -0.78084,0.86905 -0.92198,0.67945 -0.92198,0.67945 1.00198,0.2291 1.00198,0.22911 -0.0531,0.22239 -0.0531,0.22239 -0.74685,1.25647 -0.74686,1.25646 -0.73503,0.76691 -0.73504,0.7669 -0.61695,0.31652 -0.61695,0.31651 0.79199,0.1676 0.79198,0.16759 0.6,0.11033 0.6,0.11033 v 0.15499 0.155 l -0.92892,0.92892 -0.92892,0.92892 -1.4658,0.69828 -1.4658,0.69828 -0.004,0.08 -0.004,0.08 1.6695,0.71091 1.66951,0.71092 -0.082,0.13266 -0.082,0.13267 -0.98763,0.49855 -0.98763,0.49855 -0.88071,0.30316 -0.88072,0.30316 -1.14234,0.0967 -1.14233,0.0967 0.29882,0.65802 0.29882,0.65802 -0.001,0.24 -0.001,0.24 -0.70856,0.5337 -0.70857,0.53371 -0.75191,0.22629 -0.75192,0.2263 h -0.35027 -0.35027 l -0.28067,0.6224 -0.28066,0.62241 0.10161,0.32015 0.10161,0.32015 0.49474,0.23961 0.49473,0.2396 0.74002,-0.33608 0.74002,-0.33607 z m -3.0829,-34.3412 0.0989,-0.16 h -0.08 -0.08 l -0.0989,0.16 -0.0989,0.16 h 0.08 0.08 z m -59.44,-0.0705 v -0.0706 l -0.18473,-0.11416 -0.18472,-0.11417 0.11417,0.18472 0.11416,0.18472 h 0.0706 0.0706 z m 59.92,-0.56945 0.0989,-0.16 h -0.08 -0.08 l -0.0989,0.16 -0.0989,0.16 h 0.08 0.08 z m -60.4,-0.0705 v -0.0706 l -0.18473,-0.11416 -0.18472,-0.11417 0.11417,0.18472 0.11416,0.18472 h 0.0706 0.0706 z m 60.88,-0.56945 0.0989,-0.16 h -0.08 -0.08 l -0.0989,0.16 -0.0989,0.16 h 0.08 0.08 z m -61.36,-0.0705 v -0.0706 l -0.18473,-0.11416 -0.18472,-0.11417 0.11417,0.18472 0.11416,0.18472 h 0.0706 0.0706 z m -5.44,-5.12945 v -0.08 h -0.08 -0.08 v 0.08 0.08 h 0.08 0.08 z m 72.32,0 v -0.08 h -0.08 -0.08 v 0.08 0.08 h 0.08 0.08 z m 0.4,-0.24 0.0989,-0.16 h -0.08 -0.08 l -0.0989,0.16 -0.0989,0.16 h 0.08 0.08 z m -111.21541,109.16001 0.09,-0.44 0.97813,-5.28 0.97814,-5.28 0.0419,-0.044 0.0419,-0.044 5.55702,-0.94367 5.55701,-0.94368 0.0885,-0.0885 0.0885,-0.0885 -0.2229,-0.0767 -0.22291,-0.0767 -5.34502,-1.04011 -5.34503,-1.04012 -0.11162,-0.12697 -0.11162,-0.12697 -0.82855,-5.28 -0.82855,-5.28 -0.0974,-0.48 -0.0974,-0.48 -0.13435,0.32 -0.13435,0.32 -0.96989,5.28 -0.96989,5.28 -0.0749,0.25148 -0.0749,0.25149 -5.55827,0.92937 -5.55827,0.92937 -0.12781,0.11495 -0.12781,0.11496 5.62514,1.09935 5.62514,1.09934 0.11845,0.32485 0.11845,0.32484 0.86422,5.47982 0.86422,5.47982 0.10729,1.8e-4 0.10729,1.8e-4 z m 138.67899,-24.04 1.48409,-8.08 0.11166,-0.08 0.11166,-0.08 8.09451,-1.34783 8.0945,-1.34784 v -0.21216 -0.21217 l -0.12,9.3e-4 -0.12,9.4e-4 -7.92,-1.54104 -7.92,-1.54104 -0.12405,-0.11195 -0.12406,-0.11195 -1.32801,-8.26668 -1.32802,-8.26669 -0.10793,-0.10793 -0.10793,-0.10793 -0.0702,0.0702 -0.0702,0.0702 -1.54679,8.31643 -1.54678,8.31644 -0.0334,0.0371 -0.0334,0.0371 -8.14763,1.37429 -8.14762,1.37429 -0.0713,0.0713 -0.0713,0.0713 0.14933,0.1346 0.14934,0.1346 7.99622,1.55229 7.99622,1.55229 0.0683,0.0683 0.0683,0.0683 1.32074,8.23359 1.32075,8.23358 0.12288,0.19883 0.12289,0.19884 0.12159,-0.31028 0.1216,-0.31027 z m -173.826921,6.46333 -0.09667,-0.0967 -0.21,0.084 -0.21,0.084 0.306666,0.0126 0.306667,0.0126 z m 220.043341,-0.14333 v -0.08 h -0.08 -0.08 v 0.08 0.08 h 0.08 0.08 z m -15.20261,-19.43236 1.19738,-0.34949 1.1176,-0.58728 1.1176,-0.58728 0.99987,-0.93533 0.99986,-0.93532 0.40291,-0.82647 0.40291,-0.82647 0.1643,-0.87271 0.1643,-0.87272 -0.16089,-0.87035 -0.16089,-0.87036 -0.40243,-0.87901 -0.40242,-0.87901 -1.07875,-1.05943 -1.07874,-1.05943 -1.2879,-0.66989 -1.28789,-0.66989 -1.43211,-0.4222 -1.4321,-0.42221 -2.00941,-0.0882 -2.00942,-0.0881 -1.11058,0.18789 -1.11059,0.18788 -1.22038,0.40047 -1.22039,0.40048 -0.93961,0.56277 -0.93962,0.56277 -0.8481,0.83062 -0.84809,0.83063 -0.50982,1.0324 -0.50982,1.0324 0.005,1.2876 0.005,1.2876 0.37645,0.96 0.37646,0.96 1.29609,1.2875 1.29609,1.2875 1.12,0.5728 1.12,0.57279 0.81808,0.26528 0.81807,0.26528 1.02193,0.23093 1.02192,0.23093 2.48,-0.0579 2.48,-0.0579 z m -1.42536,-4.82161 -0.70797,-0.1389 -0.81203,-0.26258 -0.81203,-0.26257 -1.44,-0.76701 -1.44,-0.767 -1.2,-0.36967 -1.2,-0.36966 -1.92,-0.004 -1.92,-0.004 -0.88,0.12131 -0.88,0.12132 0.39847,-0.33812 0.39848,-0.33811 0.72836,-0.36909 0.72836,-0.36909 0.95316,-0.27779 0.95317,-0.2778 1.393,0.0103 1.393,0.0103 0.927,0.26606 0.927,0.26606 2.08,1.01939 2.08,1.0194 1.02984,0.26004 1.02984,0.26005 1.37016,0.0279 1.37016,0.0279 1.2,-0.12311 1.2,-0.1231 -0.32,0.25604 -0.32,0.25605 -0.94048,0.4797 -0.94048,0.4797 -1.05952,0.22458 -1.05952,0.22458 -0.8,-0.0148 -0.8,-0.0147 z m -191.078705,-6.82603 0.159848,-0.76 1.390968,-7.52 1.390968,-7.52 0.102442,-0.0933 0.102442,-0.0933 7.999997,-1.33234 8,-1.33233 0.14934,-0.1317 0.14933,-0.1317 -0.0823,-0.0823 -0.0823,-0.0823 -8.02457,-1.57124 -8.024573,-1.57124 -0.09948,-0.0995 -0.09948,-0.0995 -1.328702,-8.26204 -1.328703,-8.26203 -0.09428,-0.0943 -0.09428,-0.0943 -0.09052,0.0905 -0.09052,0.0905 -1.526669,8.21615 -1.526669,8.21616 -0.102815,0.10927 -0.102816,0.10928 -8.057558,1.36161 -8.057559,1.36162 -0.08911,0.0891 -0.08911,0.0891 0.104818,0.10481 0.104817,0.10482 8.021383,1.56805 8.021383,1.56805 0.07371,0.0737 0.07371,0.0737 1.268367,7.97342 1.268368,7.97343 0.08144,0.36 0.08144,0.36 h 0.143693 0.143694 z m 182.744245,-13.98091 1.03758,-5.6207 0.16242,-0.19625 0.16243,-0.19625 4.64,-0.76031 4.64,-0.76032 0.93267,-0.16196 0.93267,-0.16196 -0.13267,-0.12331 -0.13267,-0.1233 -5.52,-1.07349 -5.52,-1.07348 -0.0264,-0.0239 -0.0264,-0.0239 -0.92738,-5.8 -0.92737,-5.80001 h -0.0989 -0.0989 l -1.01213,5.48001 -1.01212,5.48 -0.1177,0.32453 -0.11769,0.32453 -5.61745,0.94345 -5.61744,0.94345 v 0.10012 0.10012 l 5.61394,1.09513 5.61394,1.09514 0.0608,0.17676 0.0608,0.17677 0.88523,5.53584 0.88522,5.53584 v 0.10416 0.10416 l 0.12,-1e-4 0.12,-1.1e-4 z m 87.04243,-17.01909 v -0.08 h -0.08 -0.08 v 0.08 0.08 h 0.08 0.08 z m -43.12954,-4.40532 3.51046,-0.16227 0.0542,-0.0542 0.0542,-0.0542 -1.37492,-2.462 -1.37492,-2.462 -3.26472,-6.50562 -3.26472,-6.50563 -0.90427,-1.57437 -0.90427,-1.57438 -1.04312,-1.6 -1.04311,-1.6 -1.40499,-1.84 -1.40499,-1.84 -1.06637,-1.28 -1.06637,-1.28 -1.76768,-2 -1.76768,-2 -0.5786,-0.31878 -0.57861,-0.31878 -1.23765,-0.058 -1.23764,-0.0581 -1.08236,0.18703 -1.08235,0.18703 -1.44,0.4075 -1.44,0.4075 -2.24,0.8758 -2.24,0.8758 -3.2,1.55876 -3.2,1.55877 -2.92901,1.63583 -2.92901,1.63582 -3.07099,1.85743 -3.07099,1.85743 -2.83245,1.82766 -2.83245,1.82767 -0.32718,-0.10384 -0.32718,-0.10384 -0.0944,-0.37594 -0.0944,-0.37594 3.98669,-3.9734 3.98669,-3.9734 2.1314,-2.32 2.13139,-2.32 1.94077,-2.25711 1.94077,-2.25711 1.48328,-1.902886 1.48328,-1.902891 1.40438,-2.095405 1.40438,-2.095406 0.80712,-1.584595 0.80712,-1.584594 0.36941,-1.12 0.3694,-1.12 0.011,-1.04 0.0109,-1.04 -1.50685,-2.24 -1.50685,-2.24 -1.59941,-2.16 -1.59942,-2.16 -0.71216,-0.88 -0.71217,-0.88 -1.6646,-1.853852 -1.6646,-1.853852 -1.95697,-1.767416 -1.95697,-1.767416 -3.36,-2.845795 -3.36,-2.845794 -2.24,-2.036986 -2.24,-2.036987 -1.14884,-1.058728 -1.14884,-1.058728 -0.0896,0.14491 -0.0896,0.144909 -1.27324,5.017867 -1.27325,5.017867 -0.72418,3.28 -0.72417,3.280001 -0.33144,2.050008 -0.33144,2.050009 -0.0267,1.250848 -0.0267,1.250848 0.43488,0.657158 0.43489,0.657158 1.07905,1.145241 1.07904,1.145241 2.4,2.163114 2.4,2.163114 1.89174,1.853631 1.89175,1.85363 1.00689,1.2 1.00689,1.2 0.80374,1.233534 0.80374,1.233533 0.50988,1.224776 0.50988,1.224777 0.2472,1.301687 0.2472,1.30169 -0.0879,1.36 -0.0879,1.36 -0.40623,1.28 -0.40623,1.28 -1.44296,2.37039 -1.44297,2.37039 -1.43056,2.13539 -1.43057,2.13538 -1.135,1.53679 -1.13501,1.53678 -1.38267,1.71744 -1.38268,1.71744 -0.69413,0.75315 -0.69413,0.75315 v 0.10205 0.10206 l 0.68,-0.39773 0.68,-0.39774 2.4,-1.20045 2.4,-1.20044 1.92,-0.80564 1.92,-0.80563 2.16,-0.7415 2.16,-0.74149 2.41098,-0.61454 2.41099,-0.61455 1.26789,-0.19219 1.26789,-0.19219 1.10244,0.10863 1.10244,0.10863 1.05868,0.32179 1.05869,0.32178 0.88,0.48609 0.88,0.48609 1.08372,0.87024 1.08372,0.87024 1.02489,1.20116 1.02488,1.20116 1.02086,1.54894 1.02086,1.54893 0.72999,1.28 0.72999,1.28 1.80285,3.36 1.80285,3.36 0.69463,1.08025 0.69462,1.08025 0.65035,0.70554 0.65034,0.70554 0.79554,0.19084 0.79553,0.19085 1.15719,0.12164 1.15719,0.12165 6.16,0.0202 6.16,0.0202 z m -239.830467,-0.31285 1.28,-0.17246 0.507151,-0.16285 0.507151,-0.16286 0.618783,-0.67183 0.618783,-0.67184 0.888727,-1.44 0.888728,-1.44 1.651959,-3.12 1.651959,-3.12 0.874759,-1.52 0.874759,-1.52 0.975532,-1.42836 0.975533,-1.42836 1.283088,-1.35587 1.283088,-1.35587 0.808581,-0.5976 0.808582,-0.59761 0.959783,-0.4845 0.959784,-0.48449 0.951635,-0.28711 0.951635,-0.2871 1.759997,-0.002 1.76,-0.002 1.84,0.6194 1.84,0.61941 2.06433,0.77851 2.06433,0.77851 2.25567,0.97666 2.25567,0.97667 2.32,1.1743 2.32,1.17431 1.33741,0.7453 1.33741,0.74531 -1.43093,-1.73894 -1.43093,-1.73894 -1.20706,-1.6 -1.20707,-1.6 -1.19714,-1.84 -1.19715,-1.84 -1.09067,-1.92 -1.09066,-1.92 -0.86459,-1.82965 -0.86459,-1.82965 -0.49836,-1.45035 -0.49836,-1.45035 -0.005,-1.84 -0.005,-1.839996 0.27836,-1.020646 0.27837,-1.020646 0.61362,-1.299354 0.61361,-1.299355 0.78441,-1.143212 0.7844,-1.143213 1.3476,-1.540843 1.34759,-1.540844 2.56955,-2.355944 2.56955,-2.355944 1.35805,-1.28 1.35805,-1.28 0.88388,-0.936502 0.88389,-0.936501 0.44024,-0.663499 0.44023,-0.663498 6.6e-4,-1.12 6.5e-4,-1.12 -0.3261,-2 -0.3261,-2 -0.56461,-2.64 -0.56461,-2.640001 -1.1882,-4.72 -1.1882,-4.72 -0.34049,-1.318549 -0.34048,-1.318549 -2.10057,1.96324 -2.10058,1.963239 -1.52,1.36826 -1.52,1.36826 -3.92,3.333046 -3.92,3.333047 -2.2456,2.254003 -2.24561,2.254004 -1.369757,1.68 -1.369755,1.68 -1.35748,1.84 -1.35748,1.84 -1.649162,2.424572 -1.649162,2.424573 -0.07588,0.789727 -0.07588,0.789728 0.335402,1.326333 0.335401,1.326334 0.775031,1.619367 0.775031,1.619366 1.061846,1.715182 1.061847,1.715181 1.085608,1.510974 1.085609,1.510973 1.465436,1.893847 1.46543,1.89384 2.11992,2.48 2.11992,2.48 2.09465,2.30817 2.09464,2.30817 2.93129,3.00504 2.93128,3.00504 -0.0513,0.42953 -0.0513,0.42954 -0.32,0.1165 -0.32,0.1165 -4.48,-2.98309 -4.48,-2.98309 -3.36,-2.01489 -3.359996,-2.01488 -2.720001,-1.49032 -2.72,-1.49031 -2.32,-1.06873 -2.32,-1.06873 -1.52,-0.60099 -1.52,-0.60099 -1.84,-0.47574 -1.84,-0.47574 -1.36,-0.0255 -1.36,-0.0255 -0.600467,0.21256 -0.600466,0.21256 -2.2042,2.50744 -2.204201,2.50743 -1.538829,1.92 -1.538829,1.92 -1.232629,1.76 -1.232628,1.76 -1.052513,1.76 -1.052514,1.76 -3.40044,6.8 -3.400441,6.8 -1.51313,2.72 -1.513129,2.72 0.502207,0.046 0.502208,0.046 3.68,0.14024 3.68,0.14023 5.760001,-0.0591 5.76,-0.0591 z m 268.880007,-1.60412 4.4,-0.1591 3.44,-0.24175 3.44,-0.24175 0.62913,-0.0965 0.62913,-0.0965 -1.42913,-0.36519 -1.42913,-0.36519 -0.77838,-0.33802 -0.77838,-0.33802 -0.45632,-0.32493 -0.45633,-0.32494 -1.10367,-1.95287 -1.10366,-1.95288 -3.64085,-6.64 -3.64084,-6.64 -1.84438,-3.2 -1.84437,-3.2 -1.52394,-2.48 -1.52394,-2.48 -1.89219,-2.83636 -1.89219,-2.836356 -1.89937,-2.52364 -1.89938,-2.523641 -2.05723,-2.4 -2.05723,-2.4 -3.11708,-3.078618 -3.11709,-3.078618 -0.56659,-0.201264 -0.56659,-0.201263 -1.36,0.0174 -1.36,0.0174 -1.34733,0.352868 -1.34732,0.352868 -1.45268,0.571659 -1.45267,0.57166 -2.37181,1.184874 -2.37181,1.184874 -2.18819,1.300723 -2.18819,1.300723 -2.08,1.352768 -2.08,1.352768 -2.16,1.527043 -2.16,1.527042 -1.21416,0.932549 -1.21415,0.932549 h -0.24105 -0.24104 l -0.28937,-0.319742 -0.28936,-0.319743 0.14457,-0.301659 0.14456,-0.301659 1.76,-1.575054 1.76,-1.575053 3.13681,-3.123545 3.1368,-3.123545 1.54313,-1.731877 1.54313,-1.731876 1.37051,-1.708124 1.37051,-1.708123 1.17041,-1.76 1.17041,-1.76 0.56965,-1.137146 0.56965,-1.137146 0.34649,-1.072526 0.3465,-1.072526 -0.0696,-1.150328 -0.0696,-1.150329 -0.72032,-1.2 -0.72031,-1.2 -0.93024,-1.6 -0.93025,-1.6 -1.47522,-2.24 -1.47521,-2.24 -1.5635,-2.08 -1.5635,-2.08 -1.45817,-1.759422 -1.45816,-1.759422 -2.15478,-2.400578 -2.15479,-2.400578 -3.60621,-3.6 -3.60622,-3.600001 -5.43851,-5.04 -5.43851,-5.04 -2.56049,-2.413503 -2.56049,-2.413503 -0.34104,-0.502021 -0.34104,-0.502022 -0.20322,-1.077038 -0.20322,-1.077038 -0.008,-1.607438 -0.008,-1.607437 -0.29739,0.96 -0.29739,0.96 -0.88112,2.96 -0.88113,2.96 -1.1766,4.64 -1.17661,4.64 -0.48926,2.433779 -0.48927,2.433778 -0.24309,1.854417 -0.24309,1.854416 8.9e-4,0.751805 8.9e-4,0.751806 0.17073,0.64 0.17072,0.64 1.86839,1.842587 1.86838,1.842588 5.44,4.39447 5.44,4.39447 2.8,2.402734 2.8,2.402735 2.62135,2.560208 2.62135,2.560208 1.59032,1.840001 1.59032,1.84 1.26442,1.881345 1.26442,1.881345 0.62713,1.318655 0.62712,1.318655 0.33195,1.081187 0.33194,1.081187 0.15511,1.238813 0.15511,1.238813 -0.14217,1.130394 -0.14216,1.130394 -0.37406,1.029606 -0.37406,1.029606 -0.72705,1.12 -0.72705,1.12 -1.02142,1.28 -1.02141,1.28 -3.92558,3.927306 -3.92558,3.927301 -2.64,2.4086 -2.64,2.4086 -0.56,0.5122 -0.56,0.51221 2.48,-1.669 2.48,-1.66899 2.72,-1.74917 2.72,-1.74917 3.44,-2.078415 3.44,-2.078417 1.76,-0.978074 1.76,-0.978074 0.87679,-0.255756 0.8768,-0.255756 1.0432,-0.09264 1.04321,-0.09264 1.2,0.251266 1.2,0.251265 1.44,0.714248 1.44,0.714249 1.30556,1.049139 1.30556,1.04914 0.99547,1.080288 0.99546,1.080288 1.1245,1.439996 1.1245,1.44 1.31339,2 1.31338,2 1.36183,2.4 1.36182,2.4 1.77309,3.54626 1.77308,3.54626 2.26437,4.85374 2.26437,4.85374 1.18322,2.37417 1.18323,2.37417 0.69596,1.06583 0.69596,1.06583 0.38262,0.34625 0.38263,0.34624 0.88,0.24651 0.88,0.2465 1.6,0.16919 1.6,0.1692 1.12,0.0467 1.12,0.0467 1.68,0.0298 1.68,0.0298 z m -303.360008,-0.39171 1.68,-0.22848 0.77522,-0.26899 0.775221,-0.26899 0.703362,-0.95545 0.703362,-0.95545 1.344135,-2.66432 1.344134,-2.66433 2.513129,-5.44 2.51313,-5.44 1.740878,-3.44 1.740879,-3.44 1.138786,-2 1.138786,-2 1.365763,-2.07739 1.365763,-2.07739 0.975084,-1.28261 0.975084,-1.282606 1.283642,-1.34496 1.283642,-1.34496 1.125381,-0.8992 1.125381,-0.8992 1.274619,-0.662024 1.27462,-0.662023 1.04,-0.270857 1.04,-0.270856 1.6,0.07702 1.6,0.07702 1.2,0.440216 1.2,0.440216 1.260198,0.631749 1.260198,0.631749 2.099802,1.285679 2.099802,1.285678 2.48,1.691675 2.48,1.691673 2.56,1.83993 2.56,1.83993 1.280001,0.95732 1.279996,0.95732 -4.803482,-4.86654 -4.803487,-4.866547 -2.319284,-2.56 -2.319284,-2.56 -1.158283,-1.302364 -1.158284,-1.302365 -0.564757,-0.937635 -0.564758,-0.937636 -0.295178,-0.96 -0.295179,-0.96 -0.111013,-0.968054 -0.111012,-0.968054 0.181613,-1.326428 0.181613,-1.326427 0.483924,-1.385519 0.483924,-1.385518 0.639956,-1.2 0.639956,-1.2 0.855477,-1.28 0.855477,-1.28 1.031648,-1.28 1.031649,-1.28 1.703496,-1.832766 1.703497,-1.832766 2.035887,-1.910072 2.035887,-1.910072 2.640001,-2.267122 2.639996,-2.267122 3.92,-3.180315 3.92,-3.180314 1.92,-1.62768 1.92,-1.627679 1.29379,-1.350991 1.29379,-1.350991 0.10621,-0.531056 0.10621,-0.531055 V 44.520536 43.48107 l -0.24818,-1.700534 -0.24819,-1.700535 -0.40377,-2 -0.40376,-2 -1.01577,-4.08 -1.01577,-4.08 -0.88489,-3.04 -0.8849,-3.04 -0.52738,-1.743337 -0.52739,-1.743338 -0.101,2.143338 -0.10101,2.143337 -0.25789,0.81542 -0.25789,0.815421 -1.48111,1.424781 -1.4811,1.424781 -5.6,5.189365 -5.599997,5.189365 -5.36478,5.370434 -5.36478,5.370434 -1.945743,2.24 -1.945742,2.24 -1.533571,1.92 -1.533572,1.92 -1.666337,2.322324 -1.666336,2.322324 -1.381745,2.237676 -1.381745,2.237676 -0.799091,1.44 -0.799092,1.44 -0.314443,0.504558 -0.314443,0.504558 -0.09246,0.780646 -0.09246,0.780647 0.260124,1.034796 0.260124,1.034796 0.772811,1.6 0.772811,1.6 1.079315,1.590734 1.079314,1.590735 1.485081,1.849265 1.48508,1.849266 1.920988,2.08 1.920989,2.08 2.939848,2.88766 2.939847,2.887661 1.52,1.341689 1.52,1.341689 0.132765,0.219254 0.132765,0.219253 -0.256454,0.391397 -0.256453,0.391397 h -0.247492 -0.247492 l -2.34882,-1.716115 -2.348819,-1.716116 -2.688571,-1.803546 -2.688571,-1.803546 -2.431429,-1.449491 -2.431429,-1.449491 -2.323723,-1.177676 -2.323723,-1.177675 -1.596277,-0.634205 -1.596278,-0.634204 -1.2,-0.345208 -1.2,-0.345209 -1.391619,-0.0969 -1.391619,-0.0969 -0.768381,0.214786 -0.768381,0.214786 -3.368552,3.368355 -3.368552,3.368354 -1.688975,2 -1.688974,2 -2.00093,2.651268 -2.000929,2.651269 -1.754099,2.62873 -1.754099,2.62873 -1.575571,2.56 -1.575571,2.56 -1.810796,3.16088 -1.810796,3.16088 -4.34695,7.95912 -4.34695,7.95912 -0.577975,0.95998 -0.577974,0.95998 -1.036154,0.51664 -1.036154,0.51664 -1.28,0.34503 -1.28,0.34503 -0.24,0.0858 -0.24,0.0858 3.68,0.29028 3.68,0.29027 3.84,0.14996 3.84,0.14997 3.92,-0.0704 3.92,-0.0704 z m 114.099068,-44.646007 0.99128,-5.44 0.0499,-0.06178 0.0499,-0.06178 5.55174,-0.9384 5.55173,-0.9384 0.0798,-0.07982 0.0798,-0.07982 -0.0667,-0.05855 -0.0667,-0.05855 -5.55161,-1.081112 -5.55161,-1.081111 -0.088,-0.42034 -0.088,-0.420339 -0.79917,-5.04 -0.79916,-5.04 -0.10096,-0.400001 -0.10096,-0.4 -0.0904,0.24 -0.0904,0.24 -1.04989,5.590431 -1.04988,5.59043 -5.6,0.945951 -5.6,0.945951 -0.0667,0.06362 -0.0667,0.06362 0.0667,0.06269 0.0667,0.06269 5.52,1.074625 5.52,1.074625 0.0646,0.06062 0.0646,0.06062 0.92736,5.722069 0.92736,5.722069 0.0189,0.08 0.0189,0.08 0.14307,-0.32 0.14306,-0.32 z m 67.77062,1.643646 0.98968,-0.412842 0.93032,-0.608507 0.93032,-0.608507 1.21216,-1.206895 1.21216,-1.206895 0.64612,-0.96 0.64613,-0.96 0.5628,-1.12 0.5628,-1.12 0.43378,-1.36 0.43378,-1.36 0.0877,-1.631277 0.0877,-1.631278 -0.19719,-1.002336 -0.1972,-1.002335 -0.45167,-0.886387 -0.45166,-0.886387 -0.69367,-0.672345 -0.69367,-0.672346 -0.79021,-0.348504 -0.79021,-0.348504 -0.9731,-0.07811 -0.9731,-0.07811 -0.92762,0.192572 -0.92762,0.192573 -1.4267,0.714211 -1.42671,0.71421 -1.33938,1.26784 -1.33939,1.267841 -0.83505,1.207944 -0.83505,1.207944 -0.61657,1.316393 -0.61656,1.316393 -0.3329,1.2 -0.33291,1.2 -0.0999,1.291397 -0.0999,1.291397 0.18674,1.108603 0.18674,1.108603 0.47852,0.987471 0.47852,0.987472 0.87348,0.798306 0.87347,0.798306 0.68267,0.250348 0.68267,0.250348 1.6,-0.04788 1.6,-0.04788 z m -5.4366,-1.630795 -0.0999,-0.615276 0.14629,-1.153832 0.14629,-1.153831 0.34819,-0.944956 0.34819,-0.944956 0.69868,-1.061179 0.69868,-1.061178 0.60598,-0.547466 0.60597,-0.547465 1.71436,-1.166946 1.71436,-1.166946 0.91989,-1.00485 0.91989,-1.00485 0.60426,-1.01956 0.60427,-1.01956 0.43573,-1.158266 0.43574,-1.158266 0.1418,-0.0017 0.1418,-0.0017 -0.0856,1.48 -0.0857,1.48 -0.33379,1.051541 -0.33379,1.05154 -0.65718,1.016789 -0.65718,1.016789 -0.84089,0.820969 -0.84089,0.82097 -1.40052,0.922369 -1.40053,0.922369 -0.72263,0.666101 -0.72264,0.6661 -0.7045,0.987268 -0.7045,0.987269 -0.60982,1.334963 -0.60983,1.334963 -0.16034,0.394064 -0.16035,0.394064 z m -29.42217,-8.833238 0.66381,-2.420387 0.74359,-2.139613 0.74358,-2.139613 0.71508,-1.68 0.71507,-1.68 0.93919,-1.84 0.93919,-1.840001 0.68479,-0.824878 0.68479,-0.824878 0.78842,-0.64798 0.78843,-0.647979 0.89587,-0.477498 0.89588,-0.477498 1.4357,-0.441935 1.4357,-0.441934 3.44,-0.0045 3.44,-0.0045 1.28,0.211188 1.28,0.211188 4,0.716339 4,0.716338 2.11381,0.09174 2.11382,0.09174 0.43238,-0.28331 0.43239,-0.283311 0.71663,-0.659144 0.71662,-0.659144 1.93981,-2.32 1.93981,-2.32 2.40821,-3.2 2.40822,-3.2 2.04714,-2.848678 2.04714,-2.848678 -0.058,-0.04895 -0.058,-0.04895 -2.32,-0.354762 -2.32,-0.354761 -3.2,-0.615251 -3.2,-0.615251 -4.16,-0.884332 -4.16,-0.884331 -2.29022,-0.333147 -2.29022,-0.333146 -2.95418,-0.137884 -2.95417,-0.137885 -3.32945,0.132534 -3.32945,0.132535 -1.42616,0.09819 -1.42615,0.09819 -0.50315,0.07637 -0.50314,0.07637 -0.61082,0.485419 -0.61082,0.485418 -0.63001,0.830494 -0.63002,0.830494 -0.85342,1.764984 -0.85342,1.764985 -0.70558,2.155016 -0.70558,2.155015 -0.64812,2.56 -0.64812,2.56 -0.49604,2.477873 -0.49605,2.477874 -0.4658,2.802127 -0.46581,2.802126 -0.3988,2.880001 -0.39881,2.88 -0.31571,2.8 -0.31571,2.8 -0.10421,1.070098 -0.10421,1.070098 -0.22625,0.187769 -0.22625,0.187769 -0.39964,-0.100304 -0.39964,-0.100304 -0.0729,-0.357563 -0.0729,-0.357563 -0.33995,-3.92 -0.33995,-3.92 -0.39349,-3.2 -0.3935,-3.200001 -0.4807,-3.12 -0.4807,-3.12 -0.5603,-2.8 -0.56029,-2.8 -0.47717,-1.84 -0.47717,-1.84 -0.56783,-1.76 -0.56783,-1.76 -0.93555,-1.926469 -0.93556,-1.926469 -0.73905,-0.822002 -0.73905,-0.822001 -0.67553,-0.239927 -0.67554,-0.239926 -3.2,-0.173077 -3.2,-0.173077 -3.12,0.0031 -3.12,0.0031 -1.92,0.163356 -1.92,0.163355 -2.4,0.387945 -2.4,0.387945 -4.4,0.954072 -4.4,0.954073 -2.16,0.408664 -2.16,0.408665 -2.55989,0.417531 -2.55989,0.417531 -0.0568,0.05683 -0.0568,0.05683 1.40971,1.969956 1.40972,1.969955 2.32104,3.12 2.32105,3.12 1.9187,2.390055 1.9187,2.390056 1.49115,1.553561 1.49114,1.553562 0.58736,0.278721 0.58736,0.27872 1.60875,-0.09364 1.60875,-0.09364 2.88,-0.501617 2.88,-0.501617 2.16,-0.372176 2.16,-0.372176 1.91439,-0.196701 1.9144,-0.196701 1.9256,0.08559 1.92561,0.08559 1.30684,0.336251 1.30685,0.336251 0.72951,0.312702 0.7295,0.312703 0.85444,0.546579 0.85444,0.546578 0.81548,0.828438 0.81547,0.828437 0.65494,1.005246 0.65495,1.005246 0.8913,2.546987 0.8913,2.546987 0.85028,2.88 0.85028,2.88 0.64392,2.8 0.64392,2.8 0.36397,2.133207 0.36397,2.133206 0.58287,-2.933206 0.58288,-2.933207 z m -0.76419,-27.339614 0.33576,-3.2 0.55316,-4.16 0.55316,-4.16 0.39499,-2.338151 0.39498,-2.33815 0.23799,-0.674533 0.23799,-0.674533 0.50582,-0.949007 0.50581,-0.949007 1.16798,-1.109462 1.16797,-1.109463 1.34935,-0.65312 1.34934,-0.65312 1.51429,-0.384131 1.51429,-0.38413 1.53889,-0.171597 1.53889,-0.171597 2.20631,0.0033 2.20631,0.0033 2.32,0.226499 2.32,0.226499 1.76,0.260657 1.76,0.260656 2.88699,0.544657 2.88699,0.544656 3.11301,0.71586 3.11301,0.715859 4.4,1.039747 4.4,1.039746 1.68,0.344605 1.68,0.344606 1.62831,0.08708 1.62832,0.08708 1.01669,-0.725493 1.01669,-0.725494 1.20766,-1.336888 1.20766,-1.336889 1.35893,-1.68 1.35892,-1.68 1.43864,-1.92 1.43864,-1.92 1.76112,-2.48 1.76112,-2.48 1.6029,-2.4 1.6029,-2.4 0.45067,-0.72 0.45067,-0.72 -0.70677,0.648134 -0.70678,0.648135 -0.99704,0.677079 -0.99705,0.677079 -0.7611,0.327311 -0.7611,0.327311 -0.88,-0.106999 -0.88,-0.106999 -8.63299,-1.42666 -8.633,-1.42666 -3.24209,-0.478047 -3.24209,-0.478046 -3.40492,-0.392078 -3.40491,-0.392078 -2.24,-0.208741 -2.24,-0.208742 h -6.48 -6.48 l -1.92,0.208528 -1.92,0.208528 -2.55113,0.391472 -2.55113,0.391473 -0.37525,0 -0.37524,0 -0.61644,0.314481 -0.61643,0.314481 -0.5896,0.685519 -0.58959,0.685519 -0.53865,0.96 -0.53865,0.96 -0.5568,1.442502 -0.55679,1.442503 -0.48697,1.837497 -0.48698,1.837498 -0.39263,2 -0.39264,2 -0.33172,2.32 -0.33172,2.32 -0.3152,3.12 -0.31521,3.12 -0.19715,3.580105 -0.19715,3.580105 -0.2199,0.219895 -0.21989,0.219896 h -0.19799 -0.19799 l -0.25393,-0.2 -0.25393,-0.2 -0.18367,-3.28 -0.18368,-3.280001 -0.23383,-2.48 -0.23382,-2.48 -0.25145,-2 -0.25145,-2 -0.38233,-2.276784 -0.38233,-2.276785 -0.42124,-1.883216 -0.42124,-1.883215 -0.62825,-1.92 -0.62825,-1.92 -0.65433,-1.323214 -0.65433,-1.323214 -0.72354,-0.804753 -0.72354,-0.804752 -0.61164,-0.312034 -0.61164,-0.312033 -0.40289,0 -0.4029,0 -1.96348,-0.316072 -1.96347,-0.316072 -2.48,-0.252789 -2.48,-0.252789 -4.08,-0.09252 -4.08,-0.09252 -3.28,0.187194 -3.28,0.187193 -3.04,0.312426 -3.04,0.312426 -3.12,0.415031 -3.12,0.41503 -10.48817,1.741589 -10.48816,1.741589 -0.87184,0.09952 -0.87184,0.09952 -1.28,-0.652238 -1.28,-0.652237 -1.11884,-0.913343 -1.11884,-0.913342 0.30218,0.471198 0.30219,0.471199 2.16187,3.2 2.16187,3.2 2.24367,3.080005 2.24366,3.080005 1.81376,2.279995 1.81375,2.279995 1.42874,1.538715 1.42874,1.538715 0.87574,0.581285 0.87574,0.581285 1.04224,0 h 1.04223 l 2.13065,-0.393784 2.13065,-0.393785 3.36001,-0.79795 3.36,-0.797951 3.74446,-0.891587 3.74447,-0.891587 3.13553,-0.629528 3.13554,-0.629528 2.8,-0.406285 2.8,-0.406284 2.91489,-0.189096 2.9149,-0.189096 2.29946,0.186929 2.29945,0.18693 1.58565,0.398235 1.58565,0.398235 1.49645,0.738195 1.49644,0.738195 1.0749,1.064871 1.07489,1.064871 0.49524,0.88 0.49524,0.88 0.41139,1.28 0.4114,1.28 0.31236,1.52 0.31236,1.520001 0.32275,2.56 0.32274,2.56 0.31833,4.16 0.31834,4.16 0.0929,1.92 0.0929,1.92 0.10522,1.28 0.10523,1.28 0.20594,-2.32 0.20593,-2.32 z"
       id="path1" />
  </g>
</svg>
