<?xml version="1.0" encoding="UTF-8" standalone="no"?>
<!-- Created with Inkscape (http://www.inkscape.org/) -->

<svg
   width="20.000845mm"
   height="5.3702159mm"
   viewBox="0 0 20.000845 5.3702159"
   version="1.1"
   id="svg1"
   inkscape:version="1.4.2 (ebf0e940d0, 2025-05-08)"
   sodipodi:docname="72.svg"
   xmlns:inkscape="http://www.inkscape.org/namespaces/inkscape"
   xmlns:sodipodi="http://sodipodi.sourceforge.net/DTD/sodipodi-0.dtd"
   xmlns="http://www.w3.org/2000/svg"
   xmlns:svg="http://www.w3.org/2000/svg">
  <sodipodi:namedview
     id="namedview1"
     pagecolor="#505050"
     bordercolor="#ffffff"
     borderopacity="1"
     inkscape:showpageshadow="0"
     inkscape:pageopacity="0"
     inkscape:pagecheckerboard="1"
     inkscape:deskcolor="#505050"
     inkscape:document-units="mm"
     inkscape:zoom="20.054246"
     inkscape:cx="40.764434"
     inkscape:cy="17.652122"
     inkscape:window-width="2560"
     inkscape:window-height="1379"
     inkscape:window-x="0"
     inkscape:window-y="0"
     inkscape:window-maximized="0"
     inkscape:current-layer="layer1" />
  <defs
     id="defs1">
    <clipPath
       id="clip-6">
      <path
         clip-rule="nonzero"
         d="m 393,149 h 55.40234 v 15 H 393 Z m 0,0"
         id="path72" />
    </clipPath>
    <clipPath
       id="clip-7">
      <path
         clip-rule="nonzero"
         d="m 391.70703,148.97656 h 56.69531 v 15.22266 h -56.69531 z m 0,0"
         id="path170" />
    </clipPath>
    <clipPath
       id="clip-8">
      <path
         clip-rule="nonzero"
         d="m 406,152 h 27 v 12.19922 h -27 z m 0,0"
         id="path171" />
    </clipPath>
    <clipPath
       id="clip-9">
      <path
         clip-rule="nonzero"
         d="m 400,148.97656 h 38 v 15.22266 h -38 z m 0,0"
         id="path172" />
    </clipPath>
    <clipPath
       id="clip-10">
      <path
         clip-rule="nonzero"
         d="M 391.70703,148.97656 H 428 V 157 h -36.29297 z m 0,0"
         id="path173" />
    </clipPath>
    <clipPath
       id="clip-11">
      <path
         clip-rule="nonzero"
         d="M 391.70703,148.97656 H 434 V 162 h -42.29297 z m 0,0"
         id="path174" />
    </clipPath>
  </defs>
  <g
     inkscape:label="Layer 1"
     inkscape:groupmode="layer"
     id="layer1"
     transform="translate(-165.89375,-59.795833)">
    <path
       id="path374"
       d="M 417.82079 148.97656 C 411.43798 148.97656 403.70263 153.28076 399.63622 154.71435 C 398.62009 155.07356 397.61235 155.33437 396.67431 155.52148 C 394.79824 155.8956 393.19593 155.97968 392.33544 155.99463 L 392.33398 155.99463 C 391.90511 156.00201 391.66015 155.9917 391.66015 155.9917 C 391.66015 155.9917 391.73197 156.00644 391.87402 156.02392 C 391.87678 156.02427 391.87559 156.02358 391.87841 156.02392 C 391.91748 156.02872 392.00183 156.03344 392.05126 156.03857 C 392.26638 156.06093 392.58697 156.07715 392.99316 156.08545 C 393.51629 156.09614 394.14501 156.08846 394.96923 156.01221 C 395.50785 155.9624 396.10859 155.88714 396.76952 155.7749 C 396.77133 155.77459 396.77357 155.77374 396.77538 155.77344 C 397.43371 155.66147 398.15266 155.513 398.92724 155.31933 L 398.9331 155.31787 C 399.70915 155.12366 400.54294 154.88438 401.43066 154.58838 C 401.43161 154.58806 401.43263 154.58723 401.43359 154.58691 C 402.32254 154.2904 403.26627 153.93751 404.2622 153.51904 C 411.90673 150.3081 418.61718 147.62109 427.78905 151.36719 C 427.78803 151.3665 427.56143 151.2163 427.12841 150.99365 L 427.12695 150.99219 L 427.12548 150.99219 C 426.90793 150.88047 426.63792 150.7508 426.31689 150.61133 C 426.31601 150.61095 426.31483 150.61024 426.31396 150.60986 C 425.99225 150.47019 425.61856 150.3208 425.19628 150.17187 C 425.19536 150.17155 425.19427 150.17073 425.19335 150.17041 C 424.77046 150.02136 424.29883 149.87215 423.77831 149.73242 C 423.77746 149.73219 423.77623 149.73265 423.77538 149.73242 C 423.25413 149.59257 422.6848 149.46199 422.06884 149.3501 L 422.06738 149.3501 C 420.83429 149.12619 419.4146 148.97656 417.82079 148.97656 z M 436.26904 149.95654 C 435.07665 149.95654 433.91644 150.05841 432.79736 150.25244 C 432.23782 150.34946 431.68858 150.46958 431.15087 150.61133 C 428.46231 151.32006 426.06103 152.57226 424.09325 154.21045 C 423.18701 154.96435 422.30419 155.9331 421.98388 156.53076 C 421.13622 155.72998 420.00048 154.85107 417.02392 154.92529 C 413.22314 155.01904 410.70312 155.98486 407.98437 157.24267 C 406.83984 157.77002 404.70751 158.87158 403.46532 159.31689 C 399.14111 160.8667 395.7434 160.50159 394.2954 160.21777 C 394.05407 160.17047 393.86709 160.12541 393.73876 160.0918 C 393.61043 160.05818 393.54101 160.03613 393.53515 160.03467 C 393.46532 160.01855 393.39501 160.04356 393.35058 160.09473 C 393.3425 160.10403 393.33632 160.11451 393.33007 160.12549 C 393.3207 160.14196 393.31249 160.15991 393.3081 160.17969 C 393.28466 160.28125 393.34765 160.3833 393.45312 160.40674 C 393.48595 160.41267 394.71973 160.67731 396.67724 160.67773 C 397.60644 160.67794 398.70693 160.60933 399.91161 160.43457 C 400.61033 160.33321 401.33871 160.20117 402.10302 160.01123 C 402.79702 159.83876 403.51364 159.62644 404.24609 159.36377 C 405.5078 158.91064 406.69579 158.36377 407.84814 157.82861 C 410.65282 156.53174 413.5703 155.17139 417.28905 155.17139 C 419.83984 155.17139 421.16747 155.96142 421.91357 156.73877 C 421.687 157.10986 421.60155 157.43799 421.60155 157.71142 C 421.60155 157.98877 421.66357 158.20703 421.7495 158.35156 C 421.76904 158.38574 421.79113 158.41769 421.81396 158.44678 C 421.83703 158.47617 421.86126 158.50188 421.8872 158.52588 C 422.0409 158.6681 422.24057 158.71472 422.43359 158.64453 C 422.66015 158.55859 422.79247 158.29248 422.79247 157.94873 C 422.79247 157.86279 422.78173 157.77392 422.76611 157.67627 C 422.75139 157.59189 422.72536 157.5077 422.68847 157.42431 C 422.67016 157.38281 422.64892 157.34234 422.62548 157.30127 C 422.50829 157.09588 422.32812 156.89648 422.10107 156.71094 C 422.3745 156.14453 423.06249 155.40625 424.0039 154.625 C 427.08593 152.05469 431.71874 150.51904 436.40234 150.51904 C 441.83593 150.51904 447.95702 152.55029 448.17968 157.08154 C 448.19726 157.45264 448.1513 157.82318 448.04931 158.1875 C 447.94732 158.55182 447.78881 158.90991 447.58202 159.25683 C 447.16845 159.95068 446.56103 160.59912 445.81689 161.15967 C 443.2622 163.08154 437.86376 164.94873 431.12157 162.19092 C 431.02391 162.15186 430.91064 162.21045 430.87548 162.3081 C 430.84423 162.40967 430.89403 162.51904 430.9956 162.5542 C 437.03439 164.61839 442.01557 163.74965 444.92773 162.17627 C 445.34373 161.95144 445.71826 161.71143 446.04687 161.46435 C 447.24218 160.56494 448.01141 159.46759 448.28661 158.29297 C 448.37835 157.90143 448.41552 157.50195 448.39501 157.09765 C 448.16064 152.32031 441.87841 149.95654 436.26904 149.95654 z M 429.94677 152.60937 C 429.87828 152.60713 429.81176 152.64306 429.77685 152.70752 C 429.72216 152.79736 429.75439 152.91357 429.84423 152.96826 C 429.93017 153.01904 432.15624 154.23486 431.96093 157.02002 C 431.73827 160.23096 425.78124 163.88721 417.71093 163.88721 C 410.45312 163.88721 406.96434 160.81201 406.92528 160.78467 C 406.84325 160.72216 406.72265 160.73828 406.66015 160.82422 C 406.59765 160.91015 406.61376 161.02685 406.6997 161.08935 C 406.73876 161.1206 410.8247 164.08203 418.21923 164.08203 C 425.72663 164.08203 430.85486 161.0827 431.92577 158 L 431.92577 157.99853 C 432.03646 157.67959 432.10302 157.36096 432.12499 157.04346 C 432.15132 156.66558 432.13904 156.31248 432.09716 155.98584 L 432.09716 155.98437 C 432.07615 155.82086 432.04684 155.66506 432.0122 155.51416 C 431.94292 155.21235 431.84967 154.9344 431.73974 154.68213 C 431.35522 153.79972 430.77827 153.21717 430.40527 152.90674 L 430.4038 152.90674 C 430.19067 152.72943 430.04491 152.64111 430.03905 152.63721 C 430.00976 152.62012 429.9779 152.61039 429.94677 152.60937 z M 422.05419 156.94092 C 422.25732 157.15576 422.40966 157.37158 422.46435 157.58252 C 422.47998 157.65283 422.48779 157.71435 422.48779 157.77295 C 422.48779 157.96826 422.40184 158.07812 422.33544 158.09375 C 422.187 158.13281 422.07812 158.02295 422.03515 157.97217 C 421.96093 157.88623 421.89892 157.73389 421.89892 157.53857 C 421.89892 157.37451 421.94872 157.17138 422.05419 156.94092 z "
       transform="matrix(0.35277777,0,0,0.35277777,27.70822,7.2402141)" />
  </g>
</svg>
