<?xml version="1.0" encoding="UTF-8" standalone="no"?>
<!-- Created with Inkscape (http://www.inkscape.org/) -->

<svg
   width="19.99947mm"
   height="5.3702159mm"
   viewBox="0 0 19.99947 5.3702159"
   version="1.1"
   id="svg1"
   inkscape:version="1.4.2 (ebf0e940d0, 2025-05-08)"
   sodipodi:docname="73.svg"
   xmlns:inkscape="http://www.inkscape.org/namespaces/inkscape"
   xmlns:sodipodi="http://sodipodi.sourceforge.net/DTD/sodipodi-0.dtd"
   xmlns="http://www.w3.org/2000/svg"
   xmlns:svg="http://www.w3.org/2000/svg">
  <sodipodi:namedview
     id="namedview1"
     pagecolor="#505050"
     bordercolor="#ffffff"
     borderopacity="1"
     inkscape:showpageshadow="0"
     inkscape:pageopacity="0"
     inkscape:pagecheckerboard="1"
     inkscape:deskcolor="#505050"
     inkscape:document-units="mm"
     inkscape:zoom="16.535533"
     inkscape:cx="50.104222"
     inkscape:cy="4.7775903"
     inkscape:window-width="2560"
     inkscape:window-height="1379"
     inkscape:window-x="0"
     inkscape:window-y="0"
     inkscape:window-maximized="0"
     inkscape:current-layer="layer1" />
  <defs
     id="defs1">
    <clipPath
       id="clip-0">
      <path
         clip-rule="nonzero"
         d="M 164.875,149 H 220 v 15 h -55.125 z m 0,0"
         id="path163" />
    </clipPath>
    <clipPath
       id="clip-1">
      <path
         clip-rule="nonzero"
         d="m 164.875,148.97656 h 56.69141 v 15.22266 H 164.875 Z m 0,0"
         id="path164" />
    </clipPath>
    <clipPath
       id="clip-2">
      <path
         clip-rule="nonzero"
         d="m 181,152 h 26 v 12.19922 h -26 z m 0,0"
         id="path165" />
    </clipPath>
    <clipPath
       id="clip-3">
      <path
         clip-rule="nonzero"
         d="m 175,148.97656 h 38 v 15.22266 h -38 z m 0,0"
         id="path166" />
    </clipPath>
    <clipPath
       id="clip-4">
      <path
         clip-rule="nonzero"
         d="m 185,148.97656 h 36.56641 V 157 H 185 Z m 0,0"
         id="path167" />
    </clipPath>
    <clipPath
       id="clip-5">
      <path
         clip-rule="nonzero"
         d="m 179,148.97656 h 42.56641 V 162 H 179 Z m 0,0"
         id="path168" />
    </clipPath>
  </defs>
  <g
     inkscape:label="Layer 1"
     inkscape:groupmode="layer"
     id="layer1"
     transform="translate(-94.720833,-42.8625)">
    <path
       id="path73"
       d="M -26.153928 -0.00056125985 C -26.951291 -0.00056125985 -27.705541 -0.037731686 -28.414182 -0.10310032 C -29.828413 -0.233559 -31.061917 -0.47556603 -32.104123 -0.75495581 C -32.38985 -0.83155242 -32.625381 -0.91450825 -32.881955 -0.99519019 C -33.093595 -1.0617441 -33.332072 -1.12551 -33.523557 -1.1929441 C -33.525802 -1.1937348 -33.528639 -1.1950831 -33.530881 -1.1958738 C -33.951128 -1.3440972 -34.323534 -1.4933061 -34.644163 -1.6323972 C -34.645916 -1.6331579 -34.648272 -1.6345668 -34.650022 -1.6353269 C -34.969672 -1.7741807 -35.240042 -1.90332 -35.457151 -2.0147215 C -35.895876 -2.2399308 -36.12219 -2.3911863 -36.12219 -2.3911863 C -34.975705 -1.9229238 -33.868711 -1.555196 -32.7926 -1.2764402 C -28.488157 -0.16141973 -24.693723 -0.47031842 -20.983029 -1.4639402 L -20.981565 -1.4639402 C -18.199007 -2.2091606 -15.463037 -3.3391337 -12.595334 -4.5430418 C -11.600115 -4.9609266 -10.656698 -5.3132451 -9.7681854 -5.6094481 C -9.1359091 -5.8202145 -8.5659348 -5.9717265 -7.9898651 -6.1294676 C -7.7563879 -6.1934055 -7.4931995 -6.2843523 -7.269162 -6.3404051 C -6.9823988 -6.4121418 -6.7433585 -6.4491556 -6.4722869 -6.5088622 C -6.0093918 -6.6108209 -5.5290568 -6.725154 -5.1129119 -6.7959716 C -4.9756762 -6.819325 -4.8699726 -6.8254503 -4.7379119 -6.8457763 C -4.2312791 -6.9237342 -3.7341481 -6.9949981 -3.3052947 -7.0347411 C -2.7673935 -7.0846169 -2.2896178 -7.1091709 -1.8785368 -7.1167724 C -0.65021611 -7.1392494 0.0019901995 -7.0165883 0.0067171101 -7.0156981 C 0.0033501821 -7.0158348 -0.24414007 -7.0258819 -0.66857587 -7.0186278 C -1.5294533 -7.0037242 -3.1346452 -6.9190045 -5.0133025 -6.5440184 C -5.9503209 -6.3569582 -6.9559926 -6.0971035 -7.9708221 -5.7383544 C -12.037228 -4.3047604 -19.775022 -0.00056125985 -26.153928 -0.00056125985 z M -44.603635 -0.98054175 C -50.216916 -0.98054175 -56.498167 -3.3443112 -56.732542 -8.1216552 C -56.810672 -9.7388432 -55.973753 -11.289136 -54.380003 -12.488355 C -51.751097 -14.464917 -46.236448 -15.937573 -39.330198 -13.578198 C -39.232538 -13.543038 -39.177854 -13.433667 -39.21301 -13.332105 C -39.24817 -13.230542 -39.357053 -13.171948 -39.45471 -13.214917 C -46.196897 -15.97273 -51.599241 -14.101636 -54.150022 -12.183667 C -55.64221 -11.062573 -56.587034 -9.5860109 -56.512815 -8.1055419 C -56.290159 -3.5742919 -50.172971 -1.5430418 -44.735471 -1.5430418 C -40.055783 -1.5430418 -35.419065 -3.0786859 -32.337034 -5.6489989 C -31.399534 -6.4302489 -30.71301 -7.1685304 -30.435666 -7.7349364 C -30.662718 -7.9204833 -30.841428 -8.1198851 -30.958616 -8.3252685 C -30.982053 -8.3663451 -31.003293 -8.4068114 -31.021604 -8.4483154 L -31.021604 -8.4497802 C -31.058225 -8.532788 -31.084592 -8.6162842 -31.099241 -8.7002685 C -31.118771 -8.7979245 -31.127073 -8.8867914 -31.127073 -8.9727294 C -31.127073 -9.3125724 -30.993283 -9.5825932 -30.766721 -9.6685302 C -30.508908 -9.7622802 -30.24426 -9.6450935 -30.084104 -9.3755615 C -30.062619 -9.3384522 -30.043088 -9.2979247 -30.02551 -9.2525146 L -30.024045 -9.2510497 C -30.006468 -9.2056396 -29.991334 -9.1568111 -29.978635 -9.1031005 C -29.96594 -9.0493896 -29.956174 -8.9907958 -29.949338 -8.9287841 C -29.942499 -8.8667727 -29.939084 -8.8013427 -29.939084 -8.7310302 C -29.939084 -8.5962647 -29.959104 -8.4463622 -30.007932 -8.2842528 C -30.056757 -8.1221428 -30.134866 -7.9483135 -30.248166 -7.7627685 C -29.502073 -6.9854245 -28.176878 -6.1953856 -25.62219 -6.1953856 C -21.90344 -6.1953856 -18.989866 -7.5557372 -16.181272 -8.8526122 C -15.032835 -9.3877682 -13.840939 -9.9346435 -12.579221 -10.387769 C -6.7081267 -12.493238 -1.8370327 -11.438549 -1.7862517 -11.430737 C -1.7545132 -11.423412 -1.7259585 -11.408575 -1.7027556 -11.388257 C -1.6799208 -11.368046 -1.6626904 -11.342013 -1.6514861 -11.31355 C -1.6469541 -11.302035 -1.6434904 -11.28929 -1.6412321 -11.276929 C -1.6367156 -11.25221 -1.6368375 -11.225659 -1.642697 -11.199292 C -1.666134 -11.09773 -1.7672095 -11.031323 -1.8726775 -11.058667 C -1.8902556 -11.061592 -2.4803358 -11.251774 -3.5147673 -11.379468 C -3.8595775 -11.42203 -4.2536599 -11.458209 -4.6925017 -11.477612 C -6.447873 -11.555251 -8.9175994 -11.374097 -11.798459 -10.340894 C -13.044552 -9.8955815 -15.172971 -8.7940187 -16.317502 -8.2666747 C -19.036252 -7.0088627 -21.556272 -6.0440182 -25.357053 -5.9463622 C -28.333585 -5.8721439 -29.46985 -6.7539863 -30.321409 -7.5547606 C -30.637815 -6.9531976 -31.52551 -5.9883551 -32.427854 -5.2344481 C -35.576291 -2.6133551 -39.834104 -0.98054175 -44.603635 -0.98054175 z M -38.282835 -3.6333738 C -38.313508 -3.6343909 -38.344112 -3.6441121 -38.37219 -3.6612059 C -38.391202 -3.6738809 -39.898419 -4.5764161 -40.349729 -6.5381591 C -40.384445 -6.6890618 -40.413625 -6.8448569 -40.43469 -7.0083739 C -40.476973 -7.3358244 -40.488929 -7.6884681 -40.462522 -8.067456 C -40.224242 -11.454176 -34.841426 -15.101636 -26.552366 -15.101636 C -19.157826 -15.101636 -15.075804 -12.144604 -15.032834 -12.113354 C -14.950834 -12.050854 -14.930823 -11.930248 -14.993283 -11.848218 C -15.055783 -11.762318 -15.176884 -11.747177 -15.262814 -11.805737 C -15.301914 -11.833037 -18.790649 -14.911206 -26.048459 -14.911206 C -34.114869 -14.911206 -40.0719 -11.250564 -40.29846 -8.0396239 C -40.346312 -7.3443114 -40.243955 -6.7466548 -40.061155 -6.2407958 C -39.985605 -6.0317289 -39.8938 -5.8418862 -39.796018 -5.6636473 C -39.775709 -5.6266282 -39.756966 -5.586567 -39.73596 -5.5508544 C -39.735746 -5.550492 -39.736173 -5.5497517 -39.73596 -5.5493895 C -39.491163 -5.1334963 -39.201216 -4.8061032 -38.939085 -4.56062 C -38.676954 -4.3151366 -38.44206 -4.1518064 -38.304807 -4.0640379 C -38.23618 -4.0201535 -38.192503 -3.9961671 -38.18176 -3.9893309 C -38.08806 -3.9385309 -38.060658 -3.8213584 -38.111448 -3.7315184 C -38.149054 -3.6670996 -38.215352 -3.6311362 -38.282835 -3.6333738 z M -30.391721 -7.9649169 C -30.282346 -8.1953852 -30.236448 -8.3985114 -30.236448 -8.5625732 C -30.236448 -8.7578862 -30.29846 -8.9063229 -30.372678 -8.9961669 C -30.411738 -9.0469479 -30.52551 -9.156811 -30.670041 -9.117749 C -30.690565 -9.1129201 -30.712838 -9.0977749 -30.734495 -9.0752685 C -30.738869 -9.0706776 -30.743425 -9.0659226 -30.747678 -9.0606201 C -30.790212 -9.0075957 -30.825315 -8.9190188 -30.825315 -8.7969482 C -30.825315 -8.7383552 -30.818488 -8.6768315 -30.798948 -8.6065185 C -30.74426 -8.3955888 -30.594835 -8.1797534 -30.391721 -7.9649169 z "
       transform="matrix(0.35277777,0,0,-0.35277777,114.72086,42.862302)" />
  </g>
</svg>
