<?xml version="1.0" encoding="UTF-8" standalone="no"?>
<!-- Created with Inkscape (http://www.inkscape.org/) -->

<svg
   width="15.775657mm"
   height="11.181879mm"
   viewBox="0 0 15.775657 11.181879"
   version="1.1"
   id="svg1"
   inkscape:version="1.4.2 (ebf0e940d0, 2025-05-08)"
   sodipodi:docname="gallerie.svg"
   xmlns:inkscape="http://www.inkscape.org/namespaces/inkscape"
   xmlns:sodipodi="http://sodipodi.sourceforge.net/DTD/sodipodi-0.dtd"
   xmlns="http://www.w3.org/2000/svg"
   xmlns:svg="http://www.w3.org/2000/svg">
  <sodipodi:namedview
     id="namedview1"
     pagecolor="#505050"
     bordercolor="#ffffff"
     borderopacity="1"
     inkscape:showpageshadow="0"
     inkscape:pageopacity="0"
     inkscape:pagecheckerboard="1"
     inkscape:deskcolor="#505050"
     inkscape:document-units="mm"
     inkscape:zoom="8.885966"
     inkscape:cx="44.789728"
     inkscape:cy="18.568606"
     inkscape:window-width="2560"
     inkscape:window-height="1409"
     inkscape:window-x="0"
     inkscape:window-y="0"
     inkscape:window-maximized="0"
     inkscape:current-layer="layer1" />
  <defs
     id="defs1" />
  <g
     inkscape:label="Layer 1"
     inkscape:groupmode="layer"
     id="layer1"
     transform="translate(-66.741837,-60.305352)">
    <path
       d="m 66.747099,67.751167 v -0.0053 q 0.01052,-0.03683 0.06314,-0.199958 0.06315,-0.199958 0.06841,-0.563041 v -5.972438 q -0.0053,-0.273627 -0.03683,-0.426227 -0.03157,-0.157862 -0.06314,-0.221007 -0.01579,-0.02105 -0.02631,-0.03683 -0.0053,-0.0053 -0.0053,-0.01052 0,-0.0053 -0.0053,-0.0053 v -0.0053 h 1.852245 q 0.989267,0 1.53126,0.578826 0.547254,0.573565 0.547254,1.436543 0,0.815619 -0.636709,1.37866 -0.194697,0.173648 -0.399917,0.289413 0.305199,0.142076 0.568302,0.399917 0.563041,0.557778 0.563041,1.373397 0,0.862978 -0.526206,1.426019 l -0.0053,0.0053 q -0.526206,0.557778 -1.510212,0.557778 z m 1.131343,-3.488746 v 2.431072 q 0,0.342034 0.02631,0.568303 0.226269,0.03157 0.673544,0.03157 0.673543,0 0.941909,-0.489372 0.268365,-0.489371 0.268365,-1.010315 0,-0.520944 -0.221007,-1.02084 -0.215744,-0.505158 -0.815619,-0.505158 -0.320986,0 -0.673544,-0.0053 z m 0,-3.47296 v 3.025685 l 0.631447,-0.0053 q 0.605137,0 0.89455,-0.499896 0.289414,-0.499896 0.289414,-1.02084 0,-0.520944 -0.289414,-1.020839 -0.284151,-0.505158 -0.957695,-0.505158 -0.20522,0 -0.347296,0.0053 -0.131551,0.01052 -0.221006,0.02105 z m 3.188808,0.442013 0.05788,0.0053 q 0.05262,0.0053 0.136813,0.02105 0.08419,0.01579 0.163124,0.05262 0.08419,0.03157 0.142076,0.09472 0.05788,0.05788 0.06315,0.147338 0,0.09472 -0.0053,0.457799 0,0.363082 -0.0053,0.894551 -0.01053,0.994529 -0.02105,2.067989 -0.0053,1.068199 0,1.604929 0.02105,0.736688 0.236793,0.999791 0.215745,0.263103 0.594613,0.236793 0.189434,-0.0053 0.320986,-0.06315 0.136813,-0.06314 0.221006,-0.142075 0.08946,-0.08419 0.131552,-0.142076 l 0.03683,-0.06315 q -0.726164,0.157862 -0.731426,-0.573564 0,-0.199959 -0.0053,-0.905075 0,-0.705116 0,-1.61019 0,-1.02084 -0.0053,-1.88908 0,-0.86824 -0.0053,-1.147129 -0.0053,-0.17891 -0.07367,-0.299938 -0.06314,-0.126289 -0.163124,-0.199958 -0.09472,-0.07367 -0.189434,-0.110503 -0.09472,-0.03683 -0.157862,-0.05262 l -0.06841,-0.01052 z m 5.404137,4.220173 q 0.0053,-1.083985 -0.268365,-1.515474 -0.273628,-0.436751 -0.778785,-0.436751 -1.005054,0 -0.999792,2.020632 0,1.083984 0.289413,1.562832 0.294676,0.478847 0.773523,0.468323 0.952433,0.05262 0.984006,-2.099562 z m -2.531052,-1.620715 q 0.452538,-0.678806 1.468115,-0.678806 1.015578,0 1.457591,0.584089 0.447275,0.578827 0.447275,1.673335 0.02105,1.105033 -0.399916,1.768053 -0.415703,0.663019 -1.462853,0.663019 -1.052412,0 -1.510212,-0.647233 -0.452537,-0.647234 -0.452537,-1.668073 0,-1.02084 0.452537,-1.694384 z m 7.45634,2.804678 v -2.499478 q -0.01579,-0.02105 -0.0421,-0.06315 -0.06841,-0.09998 -0.221006,-0.231531 -0.147338,-0.131551 -0.399917,-0.226268 -0.252579,-0.09998 -0.615661,-0.09998 -0.56304,0.02105 -0.957695,0.552516 -0.389392,0.531468 -0.389392,1.441805 0.06841,1.868031 1.441804,1.904865 0.294676,-0.01579 0.526206,-0.147337 0.231531,-0.136814 0.394655,-0.3052 0.168386,-0.173648 0.252579,-0.310461 0.0053,-0.0053 0.01052,-0.01579 z m 0.01052,-2.983588 q 0.01579,-0.06315 0.03157,-0.115765 0.0421,-0.12629 0.09472,-0.199959 0.05788,-0.07367 0.09998,-0.105241 0.01579,-0.01052 0.02631,-0.01579 0.0053,-0.0053 0.01052,-0.0053 0,-0.0053 0.0053,-0.0053 l 0.84193,0.221007 v 0.0053 q -0.0053,0 -0.01052,0.0053 -0.01579,0.0053 -0.03157,0.01579 -0.04736,0.02631 -0.110503,0.09472 -0.06315,0.06841 -0.115765,0.194696 -0.04736,0.12629 -0.04736,0.320986 v 1.841721 q 0,1.25237 0.0053,2.652079 -0.07367,1.478639 -1.04715,2.204803 -0.968219,0.726164 -1.946962,0.184172 l 0.07367,-0.210482 q 0.862977,0.315723 1.473376,-0.121028 0.6104,-0.436751 0.63671,-1.352349 v -2.120611 q -0.08946,0.09472 -0.226269,0.210483 -0.20522,0.173648 -0.51042,0.310461 -0.305199,0.136814 -0.699854,0.147338 -0.826143,0.01052 -1.447066,-0.610399 -0.615661,-0.626185 -0.615661,-1.773314 0,-1.089247 0.636709,-1.647025 0.636709,-0.557779 1.43128,-0.573565 0.51042,0 0.862978,0.136814 0.35782,0.136813 0.541993,0.278889 v 0.0053 h 0.0053 v 0.0053 h 0.0053 q 0.0053,0 0.0053,0.0053 0.0053,0 0.0053,0.0053 h 0.0053 q 0,0.0053 0.0053,0.0053 z"
       id="text1"
       style="font-size:10.7767px;font-family:'Retro MGM Display';-inkscape-font-specification:'Retro MGM Display, Normal';stroke-width:0.898061"
       aria-label="Blog" />
    <text
       xml:space="preserve"
       style="font-style:normal;font-variant:normal;font-weight:normal;font-stretch:normal;font-size:10.7767px;font-family:'Retro MGM Display';-inkscape-font-specification:'Retro MGM Display, Normal';font-variant-ligatures:normal;font-variant-caps:normal;font-variant-numeric:normal;font-variant-east-asian:normal;text-align:start;writing-mode:lr-tb;direction:ltr;text-anchor:start;display:none;fill:#000000;stroke-width:0.898061"
       x="66.199844"
       y="67.751167"
       id="text1-4"><tspan
         sodipodi:role="line"
         id="tspan1"
         style="font-style:normal;font-variant:normal;font-weight:normal;font-stretch:normal;font-size:10.7767px;font-family:'Retro MGM Display';-inkscape-font-specification:'Retro MGM Display, Normal';font-variant-ligatures:normal;font-variant-caps:normal;font-variant-numeric:normal;font-variant-east-asian:normal;stroke-width:0.898061"
         x="66.199844"
         y="67.751167">Blog</tspan></text>
  </g>
</svg>
