<?xml version="1.0" encoding="UTF-8" standalone="no"?>
<!-- Created with Inkscape (http://www.inkscape.org/) -->

<svg
   width="25.657806mm"
   height="7.6668224mm"
   viewBox="0 0 25.657806 7.6668224"
   version="1.1"
   id="svg1"
   inkscape:version="1.4.2 (ebf0e940d0, 2025-05-08)"
   sodipodi:docname="gallerie.svg"
   xmlns:inkscape="http://www.inkscape.org/namespaces/inkscape"
   xmlns:sodipodi="http://sodipodi.sourceforge.net/DTD/sodipodi-0.dtd"
   xmlns="http://www.w3.org/2000/svg"
   xmlns:svg="http://www.w3.org/2000/svg">
  <sodipodi:namedview
     id="namedview1"
     pagecolor="#505050"
     bordercolor="#ffffff"
     borderopacity="1"
     inkscape:showpageshadow="0"
     inkscape:pageopacity="0"
     inkscape:pagecheckerboard="1"
     inkscape:deskcolor="#505050"
     inkscape:document-units="mm"
     inkscape:zoom="10.260411"
     inkscape:cx="56.527947"
     inkscape:cy="-3.4111692"
     inkscape:window-width="2560"
     inkscape:window-height="1379"
     inkscape:window-x="0"
     inkscape:window-y="0"
     inkscape:window-maximized="0"
     inkscape:current-layer="layer1"
     showguides="true">
    <sodipodi:guide
       position="7.0299598,-0.063014986"
       orientation="1,0"
       id="guide2"
       inkscape:locked="false" />
    <sodipodi:guide
       position="1.4574761,5.4174216"
       orientation="0,-1"
       id="guide3"
       inkscape:locked="false" />
  </sodipodi:namedview>
  <defs
     id="defs1" />
  <g
     inkscape:label="Layer 1"
     inkscape:groupmode="layer"
     id="layer1"
     transform="translate(-66.378869,-60.210764)">
    <path
       d="m 69.26774,60.210764 q 0.626185,0.02631 0.978743,0.199959 0.236793,0.09998 0.531468,0.163123 l -0.01579,0.962957 q -0.452537,-0.56304 -0.852454,-0.736688 -0.399916,-0.173648 -0.731426,-0.115765 -0.236793,0.0053 -0.599875,0.247317 -0.35782,0.236792 -0.652495,0.94717 -0.294676,0.710379 -0.294676,2.178493 0,1.73648 0.505158,2.510003 0.51042,0.773523 1.347088,0.773523 0.41044,0 0.694592,-0.278889 0.289413,-0.278889 0.457799,-0.668282 0.07893,-0.184172 0.199958,-0.184172 0.06841,0 0.110503,0.06841 0.0421,0.06315 -0.0053,0.199958 -0.05788,0.194697 -0.247316,0.505158 -0.184173,0.310462 -0.557779,0.568303 -0.373606,0.252579 -1.02084,0.252579 -0.594612,0 -1.231322,-0.352558 -0.636709,-0.352559 -1.07346,-1.141868 -0.431489,-0.789309 -0.431489,-2.089038 0,-1.483901 0.710378,-2.662602 0.71564,-1.183964 1.836459,-1.331302 0.189434,-0.01579 0.342034,-0.01579 z m 5.077888,5.241013 q 0.0053,-1.083985 -0.268365,-1.515474 -0.273627,-0.436751 -0.778785,-0.436751 -1.005053,0 -0.999791,2.020631 0,1.083985 0.289413,1.562832 0.294676,0.478848 0.773523,0.468324 0.952433,0.05262 0.984005,-2.099562 z m -2.531051,-1.620715 q 0.452538,-0.678806 1.468115,-0.678806 1.015578,0 1.457591,0.584089 0.447275,0.578826 0.447275,1.673335 0.02105,1.105033 -0.399916,1.768052 -0.415703,0.66302 -1.462853,0.66302 -1.052412,0 -1.510212,-0.647233 -0.452537,-0.647234 -0.452537,-1.668074 0,-1.020839 0.452537,-1.694383 z m 4.283318,3.920235 v -3.730801 q -0.0421,-0.121027 -0.131551,-0.20522 -0.08419,-0.08419 -0.184173,-0.121028 l -0.105241,-0.03683 0.673544,-0.53673 q 0.168386,0.06841 0.289413,0.163124 0.12629,0.09472 0.17891,0.173648 0.05788,0.07367 0.08419,0.126289 l 0.02631,0.05788 0.07367,-0.07367 q 0.07367,-0.07367 0.221007,-0.163124 0.1526,-0.08946 0.373606,-0.1526 0.221007,-0.06314 0.515682,-0.04736 0.405179,0.03157 0.626185,0.363082 0.221007,0.33151 0.221007,0.836667 -0.0421,2.662603 0,2.815203 0.0421,0.1526 0.09998,0.236793 0.06315,0.08419 0.131552,0.115765 0.07367,0.03157 0.136813,0.03683 0.06315,0 0.105241,-0.01052 l 0.03684,-0.01052 -0.07893,0.0421 q -0.07367,0.0421 -0.199958,0.08946 -0.121028,0.04736 -0.268365,0.06841 -0.142076,0.02631 -0.27889,-0.01052 -0.510419,-0.152599 -0.510419,-0.984005 0,-0.352558 0.0053,-0.805095 0.0053,-0.584089 0.01052,-1.236585 0.01052,-0.652495 -0.06314,-0.899812 -0.06841,-0.247317 -0.389393,-0.268365 -0.173648,0 -0.315723,0.06314 -0.142076,0.05788 -0.242055,0.142075 -0.09472,0.07893 -0.147338,0.142076 l -0.05262,0.06841 -0.0421,3.751849 z m 4.862144,-5.977701 -0.0053,1.37866 h 0.594613 v 0.263103 h -0.594613 v 3.467698 q 0.01052,0.426227 0.189434,0.531468 0.17891,0.09998 0.38413,-0.02631 0.205221,-0.131552 0.299938,-0.389393 l 0.115765,0.09472 -0.03157,0.07893 q -0.03157,0.08419 -0.105241,0.199959 -0.06841,0.110503 -0.189435,0.215744 -0.115765,0.105241 -0.289413,0.163124 -0.368344,0.126289 -0.747212,-0.07367 -0.378869,-0.199958 -0.494634,-0.889288 -0.02631,-0.231531 -0.03157,-0.762999 -0.0053,-0.531468 0,-1.131343 0.01053,-0.605137 0.02105,-1.041888 l 0.01052,-0.436751 h -0.557779 q 0.873502,-0.610399 1.431281,-1.641763 z m 3.536105,5.372564 v -1.852245 l -0.03157,-0.05262 q -0.08419,-0.131551 -0.242054,-0.231531 -0.1526,-0.09998 -0.399917,-0.105241 -0.399917,0.0053 -0.620923,0.373607 -0.215745,0.363082 -0.215745,0.957695 0.03683,1.294466 0.794572,1.294466 0.189434,0 0.347296,-0.08419 0.157861,-0.08419 0.268365,-0.194696 0.05788,-0.05788 0.09998,-0.105241 z m 0,-2.215327 v -0.347296 q 0,-0.605137 -0.115766,-0.852454 -0.115765,-0.247317 -0.457799,-0.299938 -0.173648,-0.03157 -0.363082,0.02105 -0.184172,0.05262 -0.342034,0.136813 -0.157862,0.07893 -0.257841,0.147338 -0.07367,0.04736 -0.08946,0.06314 -0.0053,0 -0.0053,0.0053 h -0.0053 l -0.157862,-0.236793 q 0.221007,-0.205221 0.578827,-0.352558 0.363082,-0.1526 0.936647,-0.105241 0.568302,0.07893 0.784047,0.494633 0.215744,0.410441 0.215744,0.910337 v 2.609982 q 0.01579,0.1526 0.05788,0.236793 0.04736,0.07893 0.110503,0.105241 0.06315,0.02105 0.126289,0.01052 0.06841,-0.01052 0.12629,-0.03683 0.05788,-0.03157 0.09472,-0.05788 0.01579,-0.0053 0.02105,-0.01052 0.0053,-0.0053 0.01052,-0.0053 0,-0.0053 0.0053,-0.0053 -0.05788,0.447275 -0.647233,0.442013 -0.442013,0 -0.573565,-0.352558 -0.04736,0.04736 -0.115765,0.105241 -0.121027,0.09998 -0.320986,0.173648 -0.199958,0.07367 -0.494633,0.07367 -0.531468,0 -0.978744,-0.363083 -0.442013,-0.368344 -0.442013,-1.215536 0,-0.847191 0.494634,-1.22606 0.499896,-0.378868 0.952433,-0.378868 0.278889,0 0.463061,0.06841 0.184172,0.06314 0.294676,0.1526 0.05262,0.04736 0.09472,0.08946 z m 3.709752,-1.825935 q 0.373607,0 0.626186,0.08946 0.257841,0.08946 0.389392,0.17891 l 0.131552,0.08946 -0.121028,0.463061 -0.06315,-0.07367 q -0.05788,-0.07367 -0.189434,-0.168386 -0.126289,-0.09472 -0.326247,-0.168386 -0.199959,-0.07367 -0.468324,-0.07367 -0.163124,0 -0.478847,0.136814 -0.310462,0.131551 -0.568303,0.573565 -0.257841,0.436751 -0.257841,1.347087 0,1.068198 0.384131,1.489163 0.38413,0.415703 1.005053,0.415703 0.247317,0 0.426227,-0.09998 0.17891,-0.09998 0.289413,-0.226269 0.115766,-0.126289 0.168386,-0.221006 l 0.05262,-0.09998 0.299937,0.210482 -0.06314,0.131551 q -0.06841,0.12629 -0.226269,0.289414 -0.1526,0.163124 -0.426227,0.289413 -0.273627,0.12629 -0.694592,0.12629 -0.442013,0 -0.915598,-0.215745 Q 86.711471,67.367167 86.390486,66.883057 86.0695,66.393685 86.0695,65.58859 q 0,-0.92086 0.526206,-1.647025 0.526206,-0.731426 1.357612,-0.826143 0.136813,-0.01052 0.252578,-0.01052 z m 2.846774,-1.331302 -0.0053,1.37866 h 0.594613 v 0.263103 h -0.594613 v 3.467698 q 0.01052,0.426227 0.189434,0.531468 0.17891,0.09998 0.384131,-0.02631 0.20522,-0.131552 0.299937,-0.389393 l 0.115766,0.09472 -0.03157,0.07893 q -0.03157,0.08419 -0.105241,0.199959 -0.06841,0.110503 -0.189434,0.215744 -0.115766,0.105241 -0.289414,0.163124 -0.368344,0.126289 -0.747212,-0.07367 -0.378869,-0.199958 -0.494634,-0.889288 -0.02631,-0.231531 -0.03157,-0.762999 -0.0053,-0.531468 0,-1.131343 0.01052,-0.605137 0.02105,-1.041888 l 0.01052,-0.436751 H 89.62139 q 0.873502,-0.610399 1.43128,-1.641763 z"
       id="text1-8"
       style="font-size:10.7767px;font-family:'Retro MGM Display';-inkscape-font-specification:'Retro MGM Display, Normal';stroke-width:0.898061"
       aria-label="Contact" />
    <text
       xml:space="preserve"
       style="font-style:normal;font-variant:normal;font-weight:normal;font-stretch:normal;font-size:10.7767px;font-family:'Retro MGM Display';-inkscape-font-specification:'Retro MGM Display, Normal';font-variant-ligatures:normal;font-variant-caps:normal;font-variant-numeric:normal;font-variant-east-asian:normal;text-align:start;writing-mode:lr-tb;direction:ltr;text-anchor:start;display:none;fill:#000000;stroke-width:0.898061"
       x="66.199921"
       y="67.714462"
       id="text1-8-3"><tspan
         sodipodi:role="line"
         id="tspan1"
         style="font-style:normal;font-variant:normal;font-weight:normal;font-stretch:normal;font-size:10.7767px;font-family:'Retro MGM Display';-inkscape-font-specification:'Retro MGM Display, Normal';font-variant-ligatures:normal;font-variant-caps:normal;font-variant-numeric:normal;font-variant-east-asian:normal;stroke-width:0.898061"
         x="66.199921"
         y="67.714462">Contact</tspan></text>
  </g>
</svg>
