<?xml version="1.0" encoding="UTF-8" standalone="no"?>
<!-- Created with Inkscape (http://www.inkscape.org/) -->

<svg
   width="26.733662mm"
   height="10.930726mm"
   viewBox="0 0 26.733662 10.930726"
   version="1.1"
   id="svg1"
   inkscape:version="1.4.2 (ebf0e940d0, 2025-05-08)"
   sodipodi:docname="gallerie.svg"
   xmlns:inkscape="http://www.inkscape.org/namespaces/inkscape"
   xmlns:sodipodi="http://sodipodi.sourceforge.net/DTD/sodipodi-0.dtd"
   xmlns="http://www.w3.org/2000/svg"
   xmlns:svg="http://www.w3.org/2000/svg">
  <sodipodi:namedview
     id="namedview1"
     pagecolor="#505050"
     bordercolor="#ffffff"
     borderopacity="1"
     inkscape:showpageshadow="0"
     inkscape:pageopacity="0"
     inkscape:pagecheckerboard="1"
     inkscape:deskcolor="#505050"
     inkscape:document-units="mm"
     inkscape:zoom="8.885966"
     inkscape:cx="44.789728"
     inkscape:cy="18.568606"
     inkscape:window-width="2560"
     inkscape:window-height="1409"
     inkscape:window-x="0"
     inkscape:window-y="0"
     inkscape:window-maximized="0"
     inkscape:current-layer="layer1" />
  <defs
     id="defs1" />
  <g
     inkscape:label="Layer 1"
     inkscape:groupmode="layer"
     id="layer1"
     transform="translate(-66.289299,-60.189586)">
    <text
       xml:space="preserve"
       style="font-style:normal;font-variant:normal;font-weight:normal;font-stretch:normal;font-size:10.7767px;font-family:'Retro MGM Display';-inkscape-font-specification:'Retro MGM Display, Normal';font-variant-ligatures:normal;font-variant-caps:normal;font-variant-numeric:normal;font-variant-east-asian:normal;text-align:start;writing-mode:lr-tb;direction:ltr;text-anchor:start;display:none;fill:#000000;stroke-width:0.898061"
       x="66.199844"
       y="67.751167"
       id="text1"><tspan
         sodipodi:role="line"
         id="tspan1"
         style="font-style:normal;font-variant:normal;font-weight:normal;font-stretch:normal;font-size:10.7767px;font-family:'Retro MGM Display';-inkscape-font-specification:'Retro MGM Display, Normal';font-variant-ligatures:normal;font-variant-caps:normal;font-variant-numeric:normal;font-variant-east-asian:normal;stroke-width:0.898061"
         x="0"
         y="0">Gallerie</tspan></text>
    <path
       d="m 70.68025,61.513399 q -0.45254,-0.563041 -0.85772,-0.736689 -0.39991,-0.173648 -0.72616,-0.115765 -0.24206,0.0053 -0.62092,0.247317 -0.37361,0.236793 -0.66302,0.957695 -0.28942,0.720902 -0.26311,2.167969 0.0579,1.452329 0.35256,2.157445 0.29468,0.705116 0.66828,0.899812 0.37361,0.194696 0.66829,0.121027 0.42622,-0.110503 0.58408,-0.51042 0.15786,-0.405178 0.13156,-0.873502 -0.021,-0.41044 -0.021,-1.041888 0,-0.41044 -0.0632,-0.641971 -0.0579,-0.236793 -0.11577,-0.33151 l -0.0579,-0.09472 H 71.017 l -0.0263,0.04736 q -0.0316,0.04736 -0.0737,0.168386 -0.0368,0.121027 -0.0684,0.336772 -0.0263,0.210482 -0.0263,0.541992 v 1.725956 q 0,0.173648 0.0105,0.373606 0.0474,0.652495 -0.0737,1.510211 -0.12103,0.862978 -0.763,1.825935 -0.85772,1.04715 -1.99959,0.836668 -1.14186,-0.210482 -1.59966,-1.010316 -0.21048,-0.405178 0.1105,-0.463061 0.0631,-0.0053 0.13155,0.06315 0.0684,0.06841 0.14734,0.184172 0.17891,0.284151 0.56304,0.552516 0.38413,0.268365 1.16292,0.163124 0.56304,-0.115765 0.85771,-0.641971 0.29994,-0.526206 0.4157,-1.17344 0.12103,-0.641971 0.13156,-1.126081 l 0.0105,-0.489371 -0.0684,0.08946 q -0.0684,0.08946 -0.21575,0.210482 -0.14207,0.115765 -0.36308,0.20522 -0.21575,0.08946 -0.51568,0.08946 -0.89982,0 -1.62598,-0.889288 -0.72616,-0.89455 -0.84719,-2.652078 -0.0421,-1.53126 0.68933,-2.688913 0.73142,-1.157654 1.86277,-1.304991 0.48411,-0.03684 0.78404,0.02631 0.29994,0.06315 0.53674,0.157862 0.23153,0.09998 0.5262,0.163124 z m 3.22038,5.609356 V 65.27051 l -0.0316,-0.05262 q -0.0842,-0.131551 -0.24206,-0.23153 -0.1526,-0.09998 -0.39991,-0.105241 -0.39992,0.0053 -0.62092,0.373606 -0.21575,0.363082 -0.21575,0.957695 0.0368,1.294467 0.79457,1.294467 0.18944,0 0.3473,-0.08419 0.15786,-0.08419 0.26836,-0.194696 0.0579,-0.05788 0.1,-0.105242 z m 0,-2.215327 v -0.347296 q 0,-0.605137 -0.11576,-0.852454 -0.11577,-0.247317 -0.4578,-0.299937 -0.17365,-0.03157 -0.36309,0.02105 -0.18417,0.05262 -0.34203,0.136813 -0.15786,0.07893 -0.25784,0.147338 -0.0737,0.04736 -0.0895,0.06314 -0.005,0 -0.005,0.0053 h -0.005 l -0.15786,-0.236793 q 0.221,-0.20522 0.57882,-0.352558 0.36308,-0.1526 0.93665,-0.105241 0.5683,0.07893 0.78405,0.494634 0.21574,0.41044 0.21574,0.910336 v 2.609982 q 0.0158,0.1526 0.0579,0.236793 0.0474,0.07893 0.1105,0.105241 0.0631,0.02105 0.12629,0.01052 0.0684,-0.01052 0.12629,-0.03683 0.0579,-0.03157 0.0947,-0.05788 0.0158,-0.0053 0.0211,-0.01052 0.005,-0.0053 0.0105,-0.0053 0,-0.0053 0.005,-0.0053 -0.0579,0.447275 -0.64723,0.442013 -0.44201,0 -0.57357,-0.352558 -0.0474,0.04736 -0.11576,0.105241 -0.12103,0.09998 -0.32099,0.173648 -0.19995,0.07367 -0.49463,0.07367 -0.53147,0 -0.97874,-0.363082 -0.44202,-0.368345 -0.44202,-1.215536 0,-0.847192 0.49464,-1.22606 0.49989,-0.378869 0.95243,-0.378869 0.27889,0 0.46306,0.06841 0.18417,0.06315 0.29468,0.1526 0.0526,0.04736 0.0947,0.08946 z m 1.29973,-3.699229 0.0579,0.0053 q 0.0526,0.0053 0.13681,0.02105 0.0842,0.01579 0.16313,0.05262 0.0842,0.03157 0.14207,0.09472 0.0579,0.05788 0.0631,0.147338 0,0.09472 -0.005,0.457799 0,0.363082 -0.005,0.894551 -0.0105,0.994529 -0.0211,2.067989 -0.005,1.068199 0,1.604929 0.0211,0.736688 0.23679,0.999791 0.21575,0.263103 0.59462,0.236793 0.18943,-0.0053 0.32098,-0.06315 0.13682,-0.06314 0.22101,-0.142075 0.0895,-0.08419 0.13155,-0.142076 l 0.0368,-0.06315 q -0.72616,0.157862 -0.73142,-0.573564 0,-0.199959 -0.005,-0.905075 0,-0.705116 0,-1.61019 0,-1.02084 -0.005,-1.88908 0,-0.86824 -0.005,-1.147129 -0.005,-0.17891 -0.0737,-0.299938 -0.0631,-0.126289 -0.16312,-0.199958 -0.0947,-0.07367 -0.18943,-0.110503 -0.0947,-0.03683 -0.15787,-0.05262 l -0.0684,-0.01052 z m 2.07851,0 0.0579,0.0053 q 0.0526,0.0053 0.13682,0.02105 0.0842,0.01579 0.16312,0.05262 0.0842,0.03157 0.14208,0.09472 0.0579,0.05788 0.0631,0.147338 0,0.09472 -0.005,0.457799 0,0.363082 -0.005,0.894551 -0.0105,0.994529 -0.0211,2.067989 -0.005,1.068199 0,1.604929 0.0211,0.736688 0.2368,0.999791 0.21574,0.263103 0.59461,0.236793 0.18943,-0.0053 0.32099,-0.06315 0.13681,-0.06314 0.221,-0.142075 0.0895,-0.08419 0.13155,-0.142076 l 0.0368,-0.06315 q -0.72616,0.157862 -0.73142,-0.573564 0,-0.199959 -0.005,-0.905075 0,-0.705116 0,-1.61019 0,-1.02084 -0.005,-1.88908 0,-0.86824 -0.005,-1.147129 -0.005,-0.17891 -0.0737,-0.299938 -0.0631,-0.126289 -0.16313,-0.199958 -0.0947,-0.07367 -0.18943,-0.110503 -0.0947,-0.03683 -0.15786,-0.05262 l -0.0684,-0.01052 z m 3.34141,4.030739 h 1.95223 q 0,0 0,-0.04736 0.005,-1.747004 -0.95244,-1.747004 -0.95243,0 -0.99979,1.794364 z m -0.48411,-1.468115 q 0.45254,-0.678806 1.46812,-0.678806 1.01557,0 1.45759,0.584089 0.44727,0.584088 0.44727,1.678597 0,0.07367 -0.005,0.17891 h -2.88361 q 0.0316,1.194488 0.41571,1.578618 0.38413,0.378869 0.85245,0.378869 0.45254,0 0.82614,-0.284152 0.37361,-0.289413 0.47885,-0.910336 l 0.25258,0.163124 q -0.14734,0.678806 -0.61566,0.999791 -0.46306,0.320986 -1.18397,0.320986 -1.05241,0 -1.51021,-0.647234 -0.45253,-0.647233 -0.45253,-1.668073 0,-1.020839 0.45253,-1.694383 z m 4.42013,-0.652496 -0.70511,0.668282 0.0579,0.0053 q 0.0579,0.0053 0.14207,0.02631 0.0842,0.02105 0.16313,0.07367 0.0842,0.04736 0.14207,0.131552 0.0579,0.08419 0.0579,0.221006 v 3.004637 q 0,0.142075 -0.0211,0.236793 -0.0211,0.09472 -0.0474,0.147337 -0.0263,0.05262 -0.0474,0.07367 l -0.0211,0.02105 h 1.06294 l -0.0368,-0.05788 q -0.0316,-0.05788 -0.0684,-0.1526 -0.0316,-0.09998 -0.0421,-0.231531 0,-0.115765 -0.005,-0.647233 0,-0.53673 0,-1.189226 0.005,-0.657757 0.005,-1.152391 v -0.499896 q 0.34729,-0.442013 0.72616,-0.305199 l -0.0368,0.03683 q -0.0368,0.0421 -0.0737,0.131551 -0.0368,0.08419 -0.0368,0.226269 0,0.17891 0.10524,0.310462 0.11051,0.126289 0.37887,0.126289 0.26837,0 0.37887,-0.163124 0.11576,-0.168386 0.11576,-0.347296 0,-0.247317 -0.17364,-0.473585 -0.16839,-0.231531 -0.69986,-0.231531 -0.21048,0 -0.37887,0.06314 -0.16312,0.06314 -0.27889,0.147338 -0.1105,0.08419 -0.17364,0.147337 l -0.0631,0.06314 q -0.11048,-0.310462 -0.4262,-0.410441 z m 3.09935,-1.273418 q 0.21575,0 0.36309,0.131551 0.1526,0.12629 0.1526,0.3052 0,0.184172 -0.1526,0.315723 -0.14734,0.12629 -0.36309,0.12629 -0.21048,0 -0.36308,-0.12629 -0.1526,-0.131551 -0.1526,-0.315723 0,-0.17891 0.1526,-0.3052 0.1526,-0.131551 0.36308,-0.131551 z m -0.64723,1.562832 0.0684,0.02631 q 0.0737,0.02631 0.16313,0.08419 0.0947,0.05262 0.16312,0.142075 0.0737,0.08419 0.0789,0.205221 0,0.184172 -0.005,0.668282 -0.0105,0.952433 0.005,2.020631 0.0158,0.736688 0.23153,0.999791 0.21574,0.263103 0.59987,0.236793 0.13156,0 0.22627,-0.03683 0.0947,-0.03157 0.1526,-0.07367 0.0632,-0.04736 0.0895,-0.07893 l 0.0263,-0.03157 q -0.24205,-0.06314 -0.37887,-0.23153 -0.13155,-0.173648 -0.13681,-0.531468 -0.005,-0.184172 -0.005,-0.541993 0,-0.35782 -0.005,-0.789309 0,0 0,-0.936646 0,-0.442013 -0.005,-0.694592 -0.005,-0.184173 -0.0737,-0.3052 -0.0684,-0.126289 -0.16312,-0.199958 -0.0947,-0.07367 -0.18944,-0.110503 -0.0947,-0.03683 -0.16312,-0.04736 l -0.0631,-0.01579 z m 3.12567,1.831197 h 1.95222 q 0,0 0,-0.04736 0.005,-1.747004 -0.95243,-1.747004 -0.95244,0 -0.99979,1.794364 z m -0.48411,-1.468115 q 0.45253,-0.678806 1.46811,-0.678806 1.01558,0 1.45759,0.584089 0.44728,0.584088 0.44728,1.678597 0,0.07367 -0.005,0.17891 h -2.88361 q 0.0316,1.194488 0.4157,1.578618 0.38413,0.378869 0.85245,0.378869 0.45254,0 0.82615,-0.284152 0.3736,-0.289413 0.47885,-0.910336 l 0.25257,0.163124 q -0.14733,0.678806 -0.61566,0.999791 -0.46306,0.320986 -1.18396,0.320986 -1.05241,0 -1.51021,-0.647234 -0.45254,-0.647233 -0.45254,-1.668073 0,-1.020839 0.45254,-1.694383 z"
       id="text1-4"
       style="font-size:10.7767px;font-family:'Retro MGM Display';-inkscape-font-specification:'Retro MGM Display, Normal';stroke-width:0.898061"
       aria-label="Gallerie" />
  </g>
</svg>
