<?xml version="1.0" encoding="UTF-8" standalone="no"?>
<!-- Created with Inkscape (http://www.inkscape.org/) -->

<svg
   width="26.099821mm"
   height="7.5300088mm"
   viewBox="0 0 26.099821 7.5300088"
   version="1.1"
   id="svg1"
   inkscape:version="1.4.2 (ebf0e940d0, 2025-05-08)"
   sodipodi:docname="gallerie.svg"
   xmlns:inkscape="http://www.inkscape.org/namespaces/inkscape"
   xmlns:sodipodi="http://sodipodi.sourceforge.net/DTD/sodipodi-0.dtd"
   xmlns="http://www.w3.org/2000/svg"
   xmlns:svg="http://www.w3.org/2000/svg">
  <sodipodi:namedview
     id="namedview1"
     pagecolor="#505050"
     bordercolor="#ffffff"
     borderopacity="1"
     inkscape:showpageshadow="0"
     inkscape:pageopacity="0"
     inkscape:pagecheckerboard="1"
     inkscape:deskcolor="#505050"
     inkscape:document-units="mm"
     inkscape:zoom="10.260411"
     inkscape:cx="56.527947"
     inkscape:cy="-3.4111692"
     inkscape:window-width="2560"
     inkscape:window-height="1379"
     inkscape:window-x="0"
     inkscape:window-y="0"
     inkscape:window-maximized="0"
     inkscape:current-layer="layer1"
     showguides="true">
    <sodipodi:guide
       position="6.7090887,0.031572794"
       orientation="1,0"
       id="guide2"
       inkscape:locked="false" />
    <sodipodi:guide
       position="1.136605,5.5120094"
       orientation="0,-1"
       id="guide3"
       inkscape:locked="false" />
  </sodipodi:namedview>
  <defs
     id="defs1" />
  <g
     inkscape:label="Layer 1"
     inkscape:groupmode="layer"
     id="layer1"
     transform="translate(-66.69974,-60.305352)">
    <path
       id="text1"
       style="font-size:10.7767px;font-family:'Retro MGM Display';-inkscape-font-specification:'Retro MGM Display, Normal';stroke-width:0.898061"
       d="M 66.69974 60.305352 L 66.69974 60.311036 L 66.704908 60.311036 L 66.704908 60.316204 C 66.704908 60.319684 66.707059 60.323006 66.710592 60.326539 C 66.717605 60.337059 66.72642 60.349196 66.736947 60.36323 C 66.757994 60.405326 66.778946 60.479163 66.799992 60.584405 C 66.821019 60.686138 66.833149 60.828317 66.836683 61.010735 L 66.836683 66.982981 C 66.833176 67.225036 66.81057 67.412948 66.76847 67.546254 C 66.733383 67.655006 66.712438 67.721688 66.705424 67.746241 L 66.705424 67.751409 L 67.983899 67.751409 L 67.983899 67.746241 L 67.978732 67.740557 C 67.975225 67.723017 67.962571 67.67946 67.941525 67.609299 C 67.937991 67.602286 67.936357 67.595132 67.936357 67.588112 L 67.931189 67.582944 L 67.931189 67.566924 C 67.927656 67.563444 67.926022 67.560122 67.926022 67.556589 L 67.920337 67.546254 L 67.920337 67.540569 C 67.916857 67.533556 67.913535 67.524741 67.910002 67.514214 L 67.910002 67.503879 C 67.860889 67.34251 67.836105 67.072461 67.836105 66.693593 L 67.836105 64.278236 C 67.892233 64.278236 67.955597 64.276602 68.025757 64.273068 C 68.106443 64.269535 68.186918 64.267901 68.267603 64.267901 C 68.47107 64.292457 68.639693 64.436296 68.772998 64.699399 C 68.920336 64.994074 69.05868 65.342939 69.188477 65.746364 C 69.34283 66.244506 69.532403 66.704126 69.756918 67.125091 C 69.98494 67.542547 70.316692 67.751409 70.751689 67.751409 L 71.0726 67.751409 L 71.172335 67.345749 C 70.867135 67.345749 70.64614 67.20191 70.509327 66.914251 C 70.372513 66.623084 70.256778 66.279715 70.162061 65.883306 C 70.081376 65.557058 69.981611 65.241276 69.862338 64.936077 C 69.746572 64.630878 69.581785 64.376283 69.367794 64.172816 L 69.315084 64.130958 C 69.550112 64.036241 69.776624 63.892394 69.994113 63.69946 C 70.418585 63.324099 70.630766 62.864479 70.630766 62.320733 C 70.630766 61.745414 70.448349 61.266505 70.083513 60.884128 C 69.722185 60.498244 69.211852 60.305352 68.55234 60.305352 L 66.69974 60.305352 z M 68.404546 60.763205 C 68.853574 60.763205 69.172675 60.931312 69.36211 61.268084 C 69.555052 61.601347 69.651498 61.941914 69.651498 62.28921 C 69.651498 62.889086 69.499361 63.299653 69.194161 63.52066 C 68.906502 63.73114 68.45352 63.84304 67.836105 63.857073 L 67.836105 60.78956 C 67.895741 60.78254 67.969579 60.775386 68.05728 60.768373 C 68.151997 60.76484 68.267732 60.763205 68.404546 60.763205 z M 74.26672 61.530083 C 74.040942 61.530083 73.736269 61.665683 73.408891 61.914039 L 72.336605 62.681434 L 72.392933 62.839564 L 73.961829 62.512452 C 74.447252 62.410852 74.662045 62.24114 74.662045 61.947629 C 74.662045 61.710562 74.492498 61.530083 74.26672 61.530083 z M 79.749589 63.057639 L 79.081413 63.404904 L 79.192001 63.457098 C 79.262163 63.48867 79.316195 63.543218 79.354782 63.620395 C 79.396875 63.694064 79.42332 63.77454 79.433846 63.862241 C 79.444373 63.949942 79.449866 64.057379 79.449866 64.183668 C 79.449866 64.594109 79.441051 65.034441 79.423511 65.504518 C 79.412984 65.928991 79.407491 66.293825 79.407491 66.599025 C 79.407491 66.932289 79.481329 67.211151 79.628667 67.435666 C 79.776005 67.656674 79.984866 67.777388 80.254985 67.798435 C 80.447928 67.805455 80.617694 67.787825 80.765031 67.745725 C 80.915877 67.703631 81.040427 67.652919 81.138652 67.593279 C 81.236876 67.533645 81.310714 67.481273 81.359827 67.435666 L 81.438892 67.361769 L 81.465247 67.424814 C 81.482787 67.470415 81.510893 67.523304 81.54948 67.582944 C 81.588068 67.639071 81.640439 67.689783 81.707093 67.735389 C 81.773745 67.780996 81.847582 67.814078 81.928268 67.835125 L 82.543734 67.361769 C 82.466558 67.351242 82.41201 67.333612 82.380437 67.309059 C 82.348863 67.280994 82.322935 67.240756 82.301888 67.188136 C 82.280842 67.135515 82.270366 67.065514 82.270366 66.977813 L 82.270366 63.246775 L 81.465247 63.246775 L 81.42804 66.998484 L 81.37533 67.067213 C 81.340251 67.109312 81.289538 67.158364 81.222885 67.214491 C 81.159739 67.270623 81.080923 67.319675 80.986206 67.361769 C 80.891489 67.400382 80.784569 67.418012 80.665296 67.414479 C 80.451308 67.403955 80.321262 67.316324 80.275656 67.151446 C 80.230049 66.986568 80.212419 66.758417 80.222946 66.46725 L 80.222946 66.36183 C 80.222946 65.853165 80.225097 65.34615 80.22863 64.840992 C 80.232163 64.462124 80.233798 64.155674 80.233798 63.920635 C 80.240814 63.597896 80.190101 63.381879 80.081352 63.27313 C 79.972603 63.160873 79.861847 63.089212 79.749589 63.057639 z M 73.366517 63.115516 C 72.689465 63.115516 72.200597 63.341491 71.898906 63.794028 L 71.898389 63.794028 C 71.596698 64.243057 71.44622 64.807939 71.44622 65.488498 C 71.44622 66.169058 71.596698 66.725125 71.898389 67.156613 C 72.203588 67.588103 72.707283 67.803602 73.408891 67.803602 C 73.889493 67.803602 74.284091 67.696682 74.592798 67.482692 C 74.905014 67.268702 75.110039 66.93529 75.208265 66.482753 L 74.956084 66.319972 C 74.885923 66.733921 74.726114 67.037052 74.477043 67.229994 C 74.227972 67.419429 73.952428 67.514214 73.650737 67.514214 C 73.338522 67.514214 73.05468 67.388005 72.798593 67.135426 C 72.542505 66.879339 72.403644 66.353036 72.382597 65.556711 L 75.266142 65.556711 C 75.269676 65.486551 75.271827 65.427024 75.271827 65.377911 C 75.271827 64.648238 75.122492 64.088852 74.824309 63.69946 C 74.529633 63.310067 74.043569 63.115516 73.366517 63.115516 z M 77.155433 63.115516 C 76.692371 63.115516 76.35564 63.241726 76.145158 63.494305 C 75.938184 63.743376 75.834583 64.027218 75.834583 64.346449 C 75.834583 64.686729 75.957473 64.956777 76.203036 65.156735 C 76.448599 65.353186 76.724143 65.527305 77.029342 65.678151 C 77.295953 65.814965 77.529083 65.960463 77.729041 66.114817 C 77.929 66.269171 78.028764 66.467041 78.028764 66.709095 C 78.028764 67.126551 77.835873 67.366835 77.449988 67.429982 C 77.064104 67.493126 76.634763 67.272131 76.161178 66.766973 L 75.813396 67.319911 L 75.966358 67.440834 C 76.068091 67.521518 76.21193 67.601994 76.397856 67.682679 C 76.583782 67.763364 76.806438 67.803602 77.066032 67.803602 C 77.567682 67.803602 77.956784 67.674074 78.23392 67.414479 C 78.514563 67.154884 78.655083 66.814317 78.655083 66.393352 C 78.655083 66.010976 78.528874 65.716659 78.276294 65.509685 C 78.023716 65.302711 77.746512 65.126933 77.444821 64.983103 C 77.202766 64.860321 76.992245 64.732452 76.813335 64.599147 C 76.634424 64.462333 76.545134 64.288731 76.545134 64.078248 C 76.545134 63.6643 76.73253 63.448799 77.10789 63.431259 C 77.486758 63.410211 77.832303 63.574999 78.144519 63.925803 L 78.39205 63.489137 L 78.276294 63.394052 C 78.199118 63.334418 78.069072 63.273231 77.886654 63.210084 C 77.707744 63.146938 77.464141 63.115516 77.155433 63.115516 z M 90.894646 63.115516 C 90.217594 63.115516 89.728209 63.341491 89.426518 63.794028 C 89.124826 64.243057 88.973833 64.807939 88.973833 65.488498 C 88.973833 66.169058 89.124826 66.725125 89.426518 67.156613 C 89.731717 67.588103 90.235412 67.803602 90.93702 67.803602 C 91.417622 67.803602 91.812219 67.696682 92.120927 67.482692 C 92.433143 67.268702 92.638168 66.93529 92.736394 66.482753 L 92.483696 66.319972 C 92.413535 66.733921 92.254243 67.037052 92.005172 67.229994 C 91.756101 67.419429 91.480557 67.514214 91.178866 67.514214 C 90.86665 67.514214 90.582292 67.388005 90.326205 67.135426 C 90.070116 66.879339 89.931773 66.353036 89.910726 65.556711 L 92.794271 65.556711 C 92.797805 65.486551 92.799439 65.427024 92.799439 65.377911 C 92.799439 64.648238 92.650621 64.088852 92.352438 63.69946 C 92.057762 63.310067 91.571697 63.115516 90.894646 63.115516 z M 83.601551 63.120684 L 82.92769 63.657085 C 83.064506 63.7062 83.161468 63.759089 83.217595 63.815215 C 83.277229 63.871344 83.320786 63.939686 83.348853 64.020371 L 83.348853 67.750892 L 84.148804 67.750892 L 84.190662 63.999183 L 84.206682 63.98368 C 84.213695 63.973154 84.225832 63.955524 84.243372 63.93097 C 84.27845 63.888874 84.327503 63.84148 84.39065 63.78886 C 84.457302 63.73273 84.538295 63.685337 84.633012 63.64675 C 84.72773 63.604657 84.83299 63.583705 84.948755 63.583705 C 85.162743 63.597738 85.292272 63.687028 85.337879 63.851906 C 85.386992 64.016784 85.406283 64.243275 85.395756 64.530934 L 85.395756 64.641005 C 85.395756 65.14967 85.394122 65.598817 85.390589 65.988209 L 85.390589 67.750892 L 86.17452 67.750892 C 86.178027 66.487998 86.185181 65.73572 86.195708 65.493666 C 86.206234 65.072701 86.211727 64.709526 86.211727 64.404327 C 86.211727 64.242957 86.194097 64.095798 86.159017 63.962493 C 86.166031 63.951973 86.174846 63.941497 86.185372 63.93097 C 86.220451 63.888874 86.269503 63.84148 86.33265 63.78886 C 86.399303 63.73273 86.479779 63.685337 86.574496 63.64675 C 86.669213 63.604657 86.774474 63.583705 86.890239 63.583705 C 87.104227 63.597738 87.234272 63.687028 87.279879 63.851906 C 87.328992 64.016784 87.348283 64.243275 87.337757 64.530934 L 87.337757 64.641521 C 87.337757 65.150187 87.335606 65.598817 87.332072 65.988209 C 87.328539 66.289901 87.326905 66.558289 87.326905 66.793328 C 87.326905 67.347599 87.497188 67.675514 87.837468 67.777247 C 87.928677 67.801801 88.021803 67.805639 88.116521 67.788099 C 88.214746 67.774066 88.304037 67.750943 88.384721 67.71937 C 88.468915 67.687796 88.537257 67.658036 88.589877 67.62997 L 88.652922 67.593279 C 88.653364 67.593279 88.654086 67.593334 88.654472 67.593279 L 88.654989 67.593279 L 88.655506 67.592762 L 88.656023 67.592762 L 88.656539 67.592246 L 88.657056 67.591729 L 88.657573 67.591212 L 88.657573 67.590695 L 88.65809 67.590179 L 88.65809 67.589662 C 88.658145 67.589275 88.65809 67.588553 88.65809 67.588112 C 88.65461 67.588112 88.651288 67.589746 88.647754 67.593279 C 88.640734 67.593279 88.63358 67.594914 88.626567 67.598447 C 88.5985 67.60546 88.563757 67.609299 88.521664 67.609299 C 88.479568 67.605786 88.433835 67.593139 88.384721 67.572092 C 88.339114 67.551042 88.29504 67.512463 88.252946 67.456337 C 88.21436 67.400208 88.181278 67.321392 88.153211 67.219659 C 88.125144 67.117925 88.110836 66.98456 88.110836 66.819683 L 88.153211 64.404327 C 88.153211 64.067555 88.079374 63.788692 87.932036 63.567685 C 87.784698 63.346677 87.575836 63.225963 87.305717 63.204917 C 87.109267 63.194397 86.937841 63.209849 86.790503 63.251942 C 86.643165 63.294035 86.518615 63.345264 86.416883 63.404904 C 86.318658 63.46454 86.244821 63.518572 86.195708 63.567685 L 86.04843 63.667937 C 86.03089 63.632859 86.011598 63.599257 85.990552 63.567685 C 85.843214 63.346677 85.634353 63.225963 85.364234 63.204917 C 85.167784 63.194397 84.99584 63.209849 84.848503 63.251942 C 84.701165 63.294035 84.576616 63.345264 84.474882 63.404904 C 84.376658 63.46454 84.303337 63.518572 84.254224 63.567685 L 84.180327 63.641582 C 84.180327 63.638102 84.178692 63.634264 84.175159 63.63073 L 84.169991 63.620395 C 84.166478 63.613382 84.160985 63.601245 84.153972 63.583705 C 84.136432 63.548626 84.108326 63.506211 84.069739 63.457098 C 84.034659 63.404479 83.975132 63.346611 83.890939 63.283465 C 83.810254 63.220322 83.713808 63.166291 83.601551 63.120684 z M 73.382536 63.46795 C 74.021025 63.46795 74.338466 64.049944 74.334933 65.214613 L 74.334933 65.262155 L 72.382597 65.262155 C 72.414169 64.065913 72.747581 63.46795 73.382536 63.46795 z M 90.910665 63.46795 C 91.549154 63.46795 91.866595 64.049944 91.863062 65.214613 L 91.863062 65.262155 L 89.910726 65.262155 C 89.942299 64.065913 90.27571 63.46795 90.910665 63.46795 z " />
    <text
       xml:space="preserve"
       style="font-style:normal;font-variant:normal;font-weight:normal;font-stretch:normal;font-size:10.7767px;font-family:'Retro MGM Display';-inkscape-font-specification:'Retro MGM Display, Normal';font-variant-ligatures:normal;font-variant-caps:normal;font-variant-numeric:normal;font-variant-east-asian:normal;text-align:start;writing-mode:lr-tb;direction:ltr;text-anchor:start;display:none;fill:#000000;stroke-width:0.898061"
       x="66.199959"
       y="67.751297"
       id="text1-8"><tspan
         sodipodi:role="line"
         id="tspan1"
         style="font-style:normal;font-variant:normal;font-weight:normal;font-stretch:normal;font-size:10.7767px;font-family:'Retro MGM Display';-inkscape-font-specification:'Retro MGM Display, Normal';font-variant-ligatures:normal;font-variant-caps:normal;font-variant-numeric:normal;font-variant-east-asian:normal;stroke-width:0.898061"
         x="66.199959"
         y="67.751297">Resume</tspan></text>
  </g>
</svg>
