<?xml version="1.0" encoding="UTF-8" standalone="no"?>
<!-- Created with Inkscape (http://www.inkscape.org/) -->

<svg
   width="63.999992mm"
   height="63.999996mm"
   viewBox="0 0 63.999991 63.999997"
   version="1.1"
   id="svg1"
   inkscape:version="1.4 (e7c3feb100, 2024-10-09)"
   sodipodi:docname="navi.svg"
   xmlns:inkscape="http://www.inkscape.org/namespaces/inkscape"
   xmlns:sodipodi="http://sodipodi.sourceforge.net/DTD/sodipodi-0.dtd"
   xmlns="http://www.w3.org/2000/svg"
   xmlns:svg="http://www.w3.org/2000/svg">
  <sodipodi:namedview
     id="namedview1"
     pagecolor="#505050"
     bordercolor="#eeeeee"
     borderopacity="1"
     inkscape:showpageshadow="0"
     inkscape:pageopacity="0"
     inkscape:pagecheckerboard="0"
     inkscape:deskcolor="#505050"
     inkscape:document-units="mm"
     inkscape:zoom="0.81869388"
     inkscape:cx="54.965599"
     inkscape:cy="95.273706"
     inkscape:window-width="1920"
     inkscape:window-height="1029"
     inkscape:window-x="0"
     inkscape:window-y="0"
     inkscape:window-maximized="0"
     inkscape:current-layer="layer1" />
  <defs
     id="defs1" />
  <g
     inkscape:label="Layer 1"
     inkscape:groupmode="layer"
     id="layer1"
     transform="translate(-90.487497,-123.56042)">
    <g
       id="g54-5-5-71"
       inkscape:label="Bottle.g54"
       transform="matrix(1.287308,0,0,1.287308,6.5857897,-146.51554)"
       style="display:inline">
      <g
         id="g47-1-9-2"
         transform="translate(-46.563223,19.584201)"
         style="display:inline"
         inkscape:label="Bottle.g47">
        <path
           style="opacity:0.5;fill:#00ffff;fill-opacity:1;stroke:#000000;stroke-width:1;stroke-linecap:round;stroke-linejoin:round;stroke-miterlimit:3;stroke-dasharray:none;stroke-opacity:1;paint-order:stroke fill markers"
           d="m 136.54382,239.43096 c -15.90192,-0.12443 -12.43701,-3.33339 -13.67525,-17.72193 -0.0942,-7.2789 -1.58405,-15.06036 6.66764,-17.82748 v -4.95094 c -0.92627,-0.26887 -1.93281,-1.09947 -1.99234,-1.72141 -0.0371,-1.33166 0.0116,-5.1085 1.51994,-5.34643 5.59493,-1.87381 10.44152,-1.15135 15.06716,0 1.50838,0.23793 1.63052,4.01477 1.59342,5.34643 -0.42645,1.24618 -1.13955,1.45254 -2.06582,1.72141 v 4.95094 c 8.25169,2.76712 6.76184,10.54858 6.66764,17.82748 -1.23824,14.38854 2.02625,17.7281 -13.78239,17.72193 z"
           id="path1-8-9-2"
           sodipodi:nodetypes="cccccccccccc" />
        <path
           style="opacity:1;fill:#ffffff;fill-opacity:1;stroke:none;stroke-width:0.499999;stroke-linecap:round;stroke-linejoin:round;stroke-miterlimit:3;stroke-dasharray:none;stroke-opacity:1;paint-order:stroke fill markers"
           d="m 126.09752,224.78254 c 0.0714,-3.77852 -1.73561,-15.28062 1.92369,-14.86046 2.61212,0.51255 -2.30764,6.04744 -0.96184,15.29329 -0.49475,0.12484 -0.81537,-0.0194 -0.96185,-0.43283 z"
           id="path25-3-0-5"
           sodipodi:nodetypes="cccc" />
        <path
           style="opacity:1;fill:#ffffff;fill-opacity:1;stroke:none;stroke-width:0.499999;stroke-linecap:round;stroke-linejoin:round;stroke-miterlimit:3;stroke-dasharray:none;stroke-opacity:1;paint-order:stroke fill markers"
           d="m 128.46296,209.33078 c -0.77157,-1.81234 3.41633,-3.92287 4.00026,-2.07071 0.12027,0.69024 -0.0941,1.12948 -0.64318,1.31773 -1.04582,-0.0105 -1.86155,0.3765 -2.44721,1.16086 -0.49154,0.0332 -0.79483,-0.10279 -0.90987,-0.40788 z"
           id="path26-3-7-1"
           sodipodi:nodetypes="ccccc" />
        <path
           style="opacity:1;fill:none;fill-opacity:1;stroke:#000000;stroke-width:0.5;stroke-linecap:round;stroke-linejoin:round;stroke-miterlimit:3;stroke-dasharray:none;stroke-opacity:1;paint-order:stroke fill markers"
           d="m 129.82354,205.61398 c -7.41649,1.91659 -4.81113,22.04744 -4.5628,23.43835"
           id="path21-8-5-7"
           sodipodi:nodetypes="cc" />
        <path
           style="opacity:1;fill:none;fill-opacity:1;stroke:#000000;stroke-width:0.499999;stroke-linecap:round;stroke-linejoin:round;stroke-miterlimit:3;stroke-dasharray:none;stroke-opacity:1;paint-order:stroke fill markers"
           d="m 148.54762,222.85299 c -0.36423,4.47736 -0.56426,11.2308 -2.95386,13.41157"
           id="path23-6-8-4"
           sodipodi:nodetypes="cc" />
        <path
           style="opacity:1;fill:none;fill-opacity:1;stroke:#000000;stroke-width:0.499999;stroke-linecap:round;stroke-linejoin:round;stroke-miterlimit:3;stroke-dasharray:none;stroke-opacity:1;paint-order:stroke fill markers"
           d="m 143.82052,205.82749 c -2.37282,-0.56793 -4.7743,-0.79206 -7.20442,-0.67241"
           id="path22-0-7-1"
           sodipodi:nodetypes="cc" />
        <path
           style="opacity:1;fill:#ffffff;fill-opacity:1;stroke:none;stroke-width:0.499999;stroke-linecap:round;stroke-linejoin:round;stroke-miterlimit:3;stroke-dasharray:none;stroke-opacity:1;paint-order:stroke fill markers"
           d="m 127.07516,237.09314 c 0.0341,-0.14732 0.0427,-0.58317 0.68213,-0.73518 1.86572,-0.44347 5.84225,-0.37226 5.81224,1.3499 -0.0828,1.76842 -6.55393,0.41532 -6.49437,-0.61472 z"
           id="path28-4-0-7"
           sodipodi:nodetypes="cscc" />
        <path
           style="opacity:1;fill:none;fill-opacity:1;stroke:#000000;stroke-width:0.75;stroke-linecap:round;stroke-linejoin:round;stroke-miterlimit:3;stroke-dasharray:none;stroke-opacity:1;paint-order:stroke fill markers"
           d="m 129.25911,199.13669 c 4.78731,-1.42653 10.01158,-1.53475 14.64506,-0.0553"
           id="path42-8-0-1"
           sodipodi:nodetypes="cc" />
        <path
           style="opacity:1;fill:none;fill-opacity:1;stroke:#000000;stroke-width:0.75;stroke-linecap:round;stroke-linejoin:round;stroke-miterlimit:3;stroke-dasharray:none;stroke-opacity:1;paint-order:stroke fill markers"
           d="m 145.72439,197.2092 c -5.91046,-1.71034 -11.97063,-1.71034 -18.18052,0"
           id="path43-9-4-1"
           sodipodi:nodetypes="cc" />
      </g>
    </g>
  </g>
</svg>
